<?xml version="1.0" encoding="utf-8" standalone="no"?>
<!DOCTYPE svg PUBLIC "-//W3C//DTD SVG 1.1//EN"
  "http://www.w3.org/Graphics/SVG/1.1/DTD/svg11.dtd">
<!-- Created with matplotlib (https://matplotlib.org/) -->
<svg height="648pt" version="1.1" viewBox="0 0 1584 648" width="1584pt" xmlns="http://www.w3.org/2000/svg" xmlns:xlink="http://www.w3.org/1999/xlink">
 <metadata>
  <rdf:RDF xmlns:cc="http://creativecommons.org/ns#" xmlns:dc="http://purl.org/dc/elements/1.1/" xmlns:rdf="http://www.w3.org/1999/02/22-rdf-syntax-ns#">
   <cc:Work>
    <dc:type rdf:resource="http://purl.org/dc/dcmitype/StillImage"/>
    <dc:date>2020-09-04T11:27:21.588564</dc:date>
    <dc:format>image/svg+xml</dc:format>
    <dc:creator>
     <cc:Agent>
      <dc:title>Matplotlib v3.3.1, https://matplotlib.org/</dc:title>
     </cc:Agent>
    </dc:creator>
   </cc:Work>
  </rdf:RDF>
 </metadata>
 <defs>
  <style type="text/css">*{stroke-linecap:butt;stroke-linejoin:round;}</style>
 </defs>
 <g id="figure_1">
  <g id="patch_1">
   <path d="M 0 648 
L 1584 648 
L 1584 0 
L 0 0 
z
" style="fill:none;"/>
  </g>
  <g id="axes_1">
   <g id="patch_2">
    <path d="M 83.6 529.065905 
L 1260.645 529.065905 
L 1260.645 46.6 
L 83.6 46.6 
z
" style="fill:#ffffff;"/>
   </g>
   <g id="patch_3">
    <path clip-path="url(#p999129d634)" d="M 107.1409 529.065905 
L 130.6818 529.065905 
L 130.6818 80.018299 
L 107.1409 80.018299 
z
" style="fill:#2020df;"/>
   </g>
   <g id="patch_4">
    <path clip-path="url(#p999129d634)" d="M 342.5499 529.065905 
L 366.0908 529.065905 
L 366.0908 102.568757 
L 342.5499 102.568757 
z
" style="fill:#2020df;"/>
   </g>
   <g id="patch_5">
    <path clip-path="url(#p999129d634)" d="M 577.9589 529.065905 
L 601.4998 529.065905 
L 601.4998 138.863253 
L 577.9589 138.863253 
z
" style="fill:#2020df;"/>
   </g>
   <g id="patch_6">
    <path clip-path="url(#p999129d634)" d="M 813.3679 529.065905 
L 836.9088 529.065905 
L 836.9088 166.727756 
L 813.3679 166.727756 
z
" style="fill:#2020df;"/>
   </g>
   <g id="patch_7">
    <path clip-path="url(#p999129d634)" d="M 1048.7769 529.065905 
L 1072.3178 529.065905 
L 1072.3178 170.764513 
L 1048.7769 170.764513 
z
" style="fill:#2020df;"/>
   </g>
   <g id="patch_8">
    <path clip-path="url(#p999129d634)" d="M 130.6818 529.065905 
L 154.2227 529.065905 
L 154.2227 104.893488 
L 130.6818 104.893488 
z
" style="fill:#5573cd;"/>
   </g>
   <g id="patch_9">
    <path clip-path="url(#p999129d634)" d="M 366.0908 529.065905 
L 389.6317 529.065905 
L 389.6317 127.352698 
L 366.0908 127.352698 
z
" style="fill:#5573cd;"/>
   </g>
   <g id="patch_10">
    <path clip-path="url(#p999129d634)" d="M 601.4998 529.065905 
L 625.0407 529.065905 
L 625.0407 166.443078 
L 601.4998 166.443078 
z
" style="fill:#5573cd;"/>
   </g>
   <g id="patch_11">
    <path clip-path="url(#p999129d634)" d="M 836.9088 529.065905 
L 860.4497 529.065905 
L 860.4497 199.666576 
L 836.9088 199.666576 
z
" style="fill:#5573cd;"/>
   </g>
   <g id="patch_12">
    <path clip-path="url(#p999129d634)" d="M 1072.3178 529.065905 
L 1095.8587 529.065905 
L 1095.8587 207.819111 
L 1072.3178 207.819111 
z
" style="fill:#5573cd;"/>
   </g>
   <g id="patch_13">
    <path clip-path="url(#p999129d634)" d="M 154.2227 529.065905 
L 177.7636 529.065905 
L 177.7636 90.309046 
L 154.2227 90.309046 
z
" style="fill:#3a90e3;"/>
   </g>
   <g id="patch_14">
    <path clip-path="url(#p999129d634)" d="M 389.6317 529.065905 
L 413.1726 529.065905 
L 413.1726 116.143322 
L 389.6317 116.143322 
z
" style="fill:#3a90e3;"/>
   </g>
   <g id="patch_15">
    <path clip-path="url(#p999129d634)" d="M 625.0407 529.065905 
L 648.5816 529.065905 
L 648.5816 163.382446 
L 625.0407 163.382446 
z
" style="fill:#3a90e3;"/>
   </g>
   <g id="patch_16">
    <path clip-path="url(#p999129d634)" d="M 860.4497 529.065905 
L 883.9906 529.065905 
L 883.9906 201.487374 
L 860.4497 201.487374 
z
" style="fill:#3a90e3;"/>
   </g>
   <g id="patch_17">
    <path clip-path="url(#p999129d634)" d="M 1095.8587 529.065905 
L 1119.3996 529.065905 
L 1119.3996 214.399871 
L 1095.8587 214.399871 
z
" style="fill:#3a90e3;"/>
   </g>
   <g id="patch_18">
    <path clip-path="url(#p999129d634)" d="M 177.7636 529.065905 
L 201.3045 529.065905 
L 201.3045 96.574997 
L 177.7636 96.574997 
z
" style="fill:#94c9de;"/>
   </g>
   <g id="patch_19">
    <path clip-path="url(#p999129d634)" d="M 413.1726 529.065905 
L 436.7135 529.065905 
L 436.7135 115.626265 
L 413.1726 115.626265 
z
" style="fill:#94c9de;"/>
   </g>
   <g id="patch_20">
    <path clip-path="url(#p999129d634)" d="M 648.5816 529.065905 
L 672.1225 529.065905 
L 672.1225 145.540795 
L 648.5816 145.540795 
z
" style="fill:#94c9de;"/>
   </g>
   <g id="patch_21">
    <path clip-path="url(#p999129d634)" d="M 883.9906 529.065905 
L 907.5315 529.065905 
L 907.5315 166.205682 
L 883.9906 166.205682 
z
" style="fill:#94c9de;"/>
   </g>
   <g id="patch_22">
    <path clip-path="url(#p999129d634)" d="M 1119.3996 529.065905 
L 1142.9405 529.065905 
L 1142.9405 163.893909 
L 1119.3996 163.893909 
z
" style="fill:#94c9de;"/>
   </g>
   <g id="patch_23">
    <path clip-path="url(#p999129d634)" d="M 201.3045 529.065905 
L 224.8454 529.065905 
L 224.8454 104.109035 
L 201.3045 104.109035 
z
" style="fill:#bf6a6a;"/>
   </g>
   <g id="patch_24">
    <path clip-path="url(#p999129d634)" d="M 436.7135 529.065905 
L 460.2544 529.065905 
L 460.2544 114.110745 
L 436.7135 114.110745 
z
" style="fill:#bf6a6a;"/>
   </g>
   <g id="patch_25">
    <path clip-path="url(#p999129d634)" d="M 672.1225 529.065905 
L 695.6634 529.065905 
L 695.6634 136.604457 
L 672.1225 136.604457 
z
" style="fill:#bf6a6a;"/>
   </g>
   <g id="patch_26">
    <path clip-path="url(#p999129d634)" d="M 907.5315 529.065905 
L 931.0724 529.065905 
L 931.0724 155.831691 
L 907.5315 155.831691 
z
" style="fill:#bf6a6a;"/>
   </g>
   <g id="patch_27">
    <path clip-path="url(#p999129d634)" d="M 1142.9405 529.065905 
L 1166.4814 529.065905 
L 1166.4814 155.856632 
L 1142.9405 155.856632 
z
" style="fill:#bf6a6a;"/>
   </g>
   <g id="patch_28">
    <path clip-path="url(#p999129d634)" d="M 224.8454 529.065905 
L 248.3863 529.065905 
L 248.3863 101.393918 
L 224.8454 101.393918 
z
" style="fill:#e98e83;"/>
   </g>
   <g id="patch_29">
    <path clip-path="url(#p999129d634)" d="M 460.2544 529.065905 
L 483.7953 529.065905 
L 483.7953 120.229449 
L 460.2544 120.229449 
z
" style="fill:#e98e83;"/>
   </g>
   <g id="patch_30">
    <path clip-path="url(#p999129d634)" d="M 695.6634 529.065905 
L 719.2043 529.065905 
L 719.2043 156.01922 
L 695.6634 156.01922 
z
" style="fill:#e98e83;"/>
   </g>
   <g id="patch_31">
    <path clip-path="url(#p999129d634)" d="M 931.0724 529.065905 
L 954.6133 529.065905 
L 954.6133 190.515906 
L 931.0724 190.515906 
z
" style="fill:#e98e83;"/>
   </g>
   <g id="patch_32">
    <path clip-path="url(#p999129d634)" d="M 1166.4814 529.065905 
L 1190.0223 529.065905 
L 1190.0223 201.825334 
L 1166.4814 201.825334 
z
" style="fill:#e98e83;"/>
   </g>
   <g id="patch_33">
    <path clip-path="url(#p999129d634)" d="M 248.3863 529.065905 
L 271.9272 529.065905 
L 271.9272 99.795027 
L 248.3863 99.795027 
z
" style="fill:#e2a673;"/>
   </g>
   <g id="patch_34">
    <path clip-path="url(#p999129d634)" d="M 483.7953 529.065905 
L 507.3362 529.065905 
L 507.3362 119.745212 
L 483.7953 119.745212 
z
" style="fill:#e2a673;"/>
   </g>
   <g id="patch_35">
    <path clip-path="url(#p999129d634)" d="M 719.2043 529.065905 
L 742.7452 529.065905 
L 742.7452 160.722187 
L 719.2043 160.722187 
z
" style="fill:#e2a673;"/>
   </g>
   <g id="patch_36">
    <path clip-path="url(#p999129d634)" d="M 954.6133 529.065905 
L 978.1542 529.065905 
L 978.1542 198.761742 
L 954.6133 198.761742 
z
" style="fill:#e2a673;"/>
   </g>
   <g id="patch_37">
    <path clip-path="url(#p999129d634)" d="M 1190.0223 529.065905 
L 1213.5632 529.065905 
L 1213.5632 212.45481 
L 1190.0223 212.45481 
z
" style="fill:#e2a673;"/>
   </g>
   <g id="patch_38">
    <path clip-path="url(#p999129d634)" d="M 271.9272 529.065905 
L 295.4681 529.065905 
L 295.4681 105.764995 
L 271.9272 105.764995 
z
" style="fill:#bb8551;"/>
   </g>
   <g id="patch_39">
    <path clip-path="url(#p999129d634)" d="M 507.3362 529.065905 
L 530.8771 529.065905 
L 530.8771 120.501452 
L 507.3362 120.501452 
z
" style="fill:#bb8551;"/>
   </g>
   <g id="patch_40">
    <path clip-path="url(#p999129d634)" d="M 742.7452 529.065905 
L 766.2861 529.065905 
L 766.2861 145.568235 
L 742.7452 145.568235 
z
" style="fill:#bb8551;"/>
   </g>
   <g id="patch_41">
    <path clip-path="url(#p999129d634)" d="M 978.1542 529.065905 
L 1001.6951 529.065905 
L 1001.6951 163.792073 
L 978.1542 163.792073 
z
" style="fill:#bb8551;"/>
   </g>
   <g id="patch_42">
    <path clip-path="url(#p999129d634)" d="M 1213.5632 529.065905 
L 1237.1041 529.065905 
L 1237.1041 160.743894 
L 1213.5632 160.743894 
z
" style="fill:#bb8551;"/>
   </g>
   <g id="matplotlib.axis_1">
    <g id="xtick_1">
     <g id="line2d_1">
      <defs>
       <path d="M 0 0 
L 0 3.5 
" id="mfe938b0272" style="stroke:#000000;stroke-width:0.8;"/>
      </defs>
      <g>
       <use style="stroke:#000000;stroke-width:0.8;" x="201.3045" xlink:href="#mfe938b0272" y="529.065905"/>
      </g>
     </g>
     <g id="text_1">
      <!-- very rare -->
      <g transform="translate(158.72739 574.327418)rotate(-15)scale(0.2 -0.2)">
       <defs>
        <path d="M 2.984375 54.6875 
L 12.5 54.6875 
L 29.59375 8.796875 
L 46.6875 54.6875 
L 56.203125 54.6875 
L 35.6875 0 
L 23.484375 0 
z
" id="DejaVuSans-118"/>
        <path d="M 56.203125 29.59375 
L 56.203125 25.203125 
L 14.890625 25.203125 
Q 15.484375 15.921875 20.484375 11.0625 
Q 25.484375 6.203125 34.421875 6.203125 
Q 39.59375 6.203125 44.453125 7.46875 
Q 49.3125 8.734375 54.109375 11.28125 
L 54.109375 2.78125 
Q 49.265625 0.734375 44.1875 -0.34375 
Q 39.109375 -1.421875 33.890625 -1.421875 
Q 20.796875 -1.421875 13.15625 6.1875 
Q 5.515625 13.8125 5.515625 26.8125 
Q 5.515625 40.234375 12.765625 48.109375 
Q 20.015625 56 32.328125 56 
Q 43.359375 56 49.78125 48.890625 
Q 56.203125 41.796875 56.203125 29.59375 
z
M 47.21875 32.234375 
Q 47.125 39.59375 43.09375 43.984375 
Q 39.0625 48.390625 32.421875 48.390625 
Q 24.90625 48.390625 20.390625 44.140625 
Q 15.875 39.890625 15.1875 32.171875 
z
" id="DejaVuSans-101"/>
        <path d="M 41.109375 46.296875 
Q 39.59375 47.171875 37.8125 47.578125 
Q 36.03125 48 33.890625 48 
Q 26.265625 48 22.1875 43.046875 
Q 18.109375 38.09375 18.109375 28.8125 
L 18.109375 0 
L 9.078125 0 
L 9.078125 54.6875 
L 18.109375 54.6875 
L 18.109375 46.1875 
Q 20.953125 51.171875 25.484375 53.578125 
Q 30.03125 56 36.53125 56 
Q 37.453125 56 38.578125 55.875 
Q 39.703125 55.765625 41.0625 55.515625 
z
" id="DejaVuSans-114"/>
        <path d="M 32.171875 -5.078125 
Q 28.375 -14.84375 24.75 -17.8125 
Q 21.140625 -20.796875 15.09375 -20.796875 
L 7.90625 -20.796875 
L 7.90625 -13.28125 
L 13.1875 -13.28125 
Q 16.890625 -13.28125 18.9375 -11.515625 
Q 21 -9.765625 23.484375 -3.21875 
L 25.09375 0.875 
L 2.984375 54.6875 
L 12.5 54.6875 
L 29.59375 11.921875 
L 46.6875 54.6875 
L 56.203125 54.6875 
z
" id="DejaVuSans-121"/>
        <path id="DejaVuSans-32"/>
        <path d="M 34.28125 27.484375 
Q 23.390625 27.484375 19.1875 25 
Q 14.984375 22.515625 14.984375 16.5 
Q 14.984375 11.71875 18.140625 8.90625 
Q 21.296875 6.109375 26.703125 6.109375 
Q 34.1875 6.109375 38.703125 11.40625 
Q 43.21875 16.703125 43.21875 25.484375 
L 43.21875 27.484375 
z
M 52.203125 31.203125 
L 52.203125 0 
L 43.21875 0 
L 43.21875 8.296875 
Q 40.140625 3.328125 35.546875 0.953125 
Q 30.953125 -1.421875 24.3125 -1.421875 
Q 15.921875 -1.421875 10.953125 3.296875 
Q 6 8.015625 6 15.921875 
Q 6 25.140625 12.171875 29.828125 
Q 18.359375 34.515625 30.609375 34.515625 
L 43.21875 34.515625 
L 43.21875 35.40625 
Q 43.21875 41.609375 39.140625 45 
Q 35.0625 48.390625 27.6875 48.390625 
Q 23 48.390625 18.546875 47.265625 
Q 14.109375 46.140625 10.015625 43.890625 
L 10.015625 52.203125 
Q 14.9375 54.109375 19.578125 55.046875 
Q 24.21875 56 28.609375 56 
Q 40.484375 56 46.34375 49.84375 
Q 52.203125 43.703125 52.203125 31.203125 
z
" id="DejaVuSans-97"/>
       </defs>
       <use xlink:href="#DejaVuSans-118"/>
       <use x="59.179688" xlink:href="#DejaVuSans-101"/>
       <use x="120.703125" xlink:href="#DejaVuSans-114"/>
       <use x="161.816406" xlink:href="#DejaVuSans-121"/>
       <use x="220.996094" xlink:href="#DejaVuSans-32"/>
       <use x="252.783203" xlink:href="#DejaVuSans-114"/>
       <use x="293.896484" xlink:href="#DejaVuSans-97"/>
       <use x="355.175781" xlink:href="#DejaVuSans-114"/>
       <use x="394.039062" xlink:href="#DejaVuSans-101"/>
      </g>
     </g>
    </g>
    <g id="xtick_2">
     <g id="line2d_2">
      <g>
       <use style="stroke:#000000;stroke-width:0.8;" x="436.7135" xlink:href="#mfe938b0272" y="529.065905"/>
      </g>
     </g>
     <g id="text_2">
      <!-- rare -->
      <g transform="translate(418.554693 561.241689)rotate(-15)scale(0.2 -0.2)">
       <use xlink:href="#DejaVuSans-114"/>
       <use x="41.113281" xlink:href="#DejaVuSans-97"/>
       <use x="102.392578" xlink:href="#DejaVuSans-114"/>
       <use x="141.255859" xlink:href="#DejaVuSans-101"/>
      </g>
     </g>
    </g>
    <g id="xtick_3">
     <g id="line2d_3">
      <g>
       <use style="stroke:#000000;stroke-width:0.8;" x="672.1225" xlink:href="#mfe938b0272" y="529.065905"/>
      </g>
     </g>
     <g id="text_3">
      <!-- common -->
      <g transform="translate(631.48026 573.290524)rotate(-15)scale(0.2 -0.2)">
       <defs>
        <path d="M 48.78125 52.59375 
L 48.78125 44.1875 
Q 44.96875 46.296875 41.140625 47.34375 
Q 37.3125 48.390625 33.40625 48.390625 
Q 24.65625 48.390625 19.8125 42.84375 
Q 14.984375 37.3125 14.984375 27.296875 
Q 14.984375 17.28125 19.8125 11.734375 
Q 24.65625 6.203125 33.40625 6.203125 
Q 37.3125 6.203125 41.140625 7.25 
Q 44.96875 8.296875 48.78125 10.40625 
L 48.78125 2.09375 
Q 45.015625 0.34375 40.984375 -0.53125 
Q 36.96875 -1.421875 32.421875 -1.421875 
Q 20.0625 -1.421875 12.78125 6.34375 
Q 5.515625 14.109375 5.515625 27.296875 
Q 5.515625 40.671875 12.859375 48.328125 
Q 20.21875 56 33.015625 56 
Q 37.15625 56 41.109375 55.140625 
Q 45.0625 54.296875 48.78125 52.59375 
z
" id="DejaVuSans-99"/>
        <path d="M 30.609375 48.390625 
Q 23.390625 48.390625 19.1875 42.75 
Q 14.984375 37.109375 14.984375 27.296875 
Q 14.984375 17.484375 19.15625 11.84375 
Q 23.34375 6.203125 30.609375 6.203125 
Q 37.796875 6.203125 41.984375 11.859375 
Q 46.1875 17.53125 46.1875 27.296875 
Q 46.1875 37.015625 41.984375 42.703125 
Q 37.796875 48.390625 30.609375 48.390625 
z
M 30.609375 56 
Q 42.328125 56 49.015625 48.375 
Q 55.71875 40.765625 55.71875 27.296875 
Q 55.71875 13.875 49.015625 6.21875 
Q 42.328125 -1.421875 30.609375 -1.421875 
Q 18.84375 -1.421875 12.171875 6.21875 
Q 5.515625 13.875 5.515625 27.296875 
Q 5.515625 40.765625 12.171875 48.375 
Q 18.84375 56 30.609375 56 
z
" id="DejaVuSans-111"/>
        <path d="M 52 44.1875 
Q 55.375 50.25 60.0625 53.125 
Q 64.75 56 71.09375 56 
Q 79.640625 56 84.28125 50.015625 
Q 88.921875 44.046875 88.921875 33.015625 
L 88.921875 0 
L 79.890625 0 
L 79.890625 32.71875 
Q 79.890625 40.578125 77.09375 44.375 
Q 74.3125 48.1875 68.609375 48.1875 
Q 61.625 48.1875 57.5625 43.546875 
Q 53.515625 38.921875 53.515625 30.90625 
L 53.515625 0 
L 44.484375 0 
L 44.484375 32.71875 
Q 44.484375 40.625 41.703125 44.40625 
Q 38.921875 48.1875 33.109375 48.1875 
Q 26.21875 48.1875 22.15625 43.53125 
Q 18.109375 38.875 18.109375 30.90625 
L 18.109375 0 
L 9.078125 0 
L 9.078125 54.6875 
L 18.109375 54.6875 
L 18.109375 46.1875 
Q 21.1875 51.21875 25.484375 53.609375 
Q 29.78125 56 35.6875 56 
Q 41.65625 56 45.828125 52.96875 
Q 50 49.953125 52 44.1875 
z
" id="DejaVuSans-109"/>
        <path d="M 54.890625 33.015625 
L 54.890625 0 
L 45.90625 0 
L 45.90625 32.71875 
Q 45.90625 40.484375 42.875 44.328125 
Q 39.84375 48.1875 33.796875 48.1875 
Q 26.515625 48.1875 22.3125 43.546875 
Q 18.109375 38.921875 18.109375 30.90625 
L 18.109375 0 
L 9.078125 0 
L 9.078125 54.6875 
L 18.109375 54.6875 
L 18.109375 46.1875 
Q 21.34375 51.125 25.703125 53.5625 
Q 30.078125 56 35.796875 56 
Q 45.21875 56 50.046875 50.171875 
Q 54.890625 44.34375 54.890625 33.015625 
z
" id="DejaVuSans-110"/>
       </defs>
       <use xlink:href="#DejaVuSans-99"/>
       <use x="54.980469" xlink:href="#DejaVuSans-111"/>
       <use x="116.162109" xlink:href="#DejaVuSans-109"/>
       <use x="213.574219" xlink:href="#DejaVuSans-109"/>
       <use x="310.986328" xlink:href="#DejaVuSans-111"/>
       <use x="372.167969" xlink:href="#DejaVuSans-110"/>
      </g>
     </g>
    </g>
    <g id="xtick_4">
     <g id="line2d_4">
      <g>
       <use style="stroke:#000000;stroke-width:0.8;" x="907.5315" xlink:href="#mfe938b0272" y="529.065905"/>
      </g>
     </g>
     <g id="text_4">
      <!-- very common -->
      <g transform="translate(842.470957 586.376253)rotate(-15)scale(0.2 -0.2)">
       <use xlink:href="#DejaVuSans-118"/>
       <use x="59.179688" xlink:href="#DejaVuSans-101"/>
       <use x="120.703125" xlink:href="#DejaVuSans-114"/>
       <use x="161.816406" xlink:href="#DejaVuSans-121"/>
       <use x="220.996094" xlink:href="#DejaVuSans-32"/>
       <use x="252.783203" xlink:href="#DejaVuSans-99"/>
       <use x="307.763672" xlink:href="#DejaVuSans-111"/>
       <use x="368.945312" xlink:href="#DejaVuSans-109"/>
       <use x="466.357422" xlink:href="#DejaVuSans-109"/>
       <use x="563.769531" xlink:href="#DejaVuSans-111"/>
       <use x="624.951172" xlink:href="#DejaVuSans-110"/>
      </g>
     </g>
    </g>
    <g id="xtick_5">
     <g id="line2d_5">
      <g>
       <use style="stroke:#000000;stroke-width:0.8;" x="1142.9405" xlink:href="#mfe938b0272" y="529.065905"/>
      </g>
     </g>
     <g id="text_5">
      <!-- very very common -->
      <g transform="translate(1053.461654 599.461983)rotate(-15)scale(0.2 -0.2)">
       <use xlink:href="#DejaVuSans-118"/>
       <use x="59.179688" xlink:href="#DejaVuSans-101"/>
       <use x="120.703125" xlink:href="#DejaVuSans-114"/>
       <use x="161.816406" xlink:href="#DejaVuSans-121"/>
       <use x="220.996094" xlink:href="#DejaVuSans-32"/>
       <use x="252.783203" xlink:href="#DejaVuSans-118"/>
       <use x="311.962891" xlink:href="#DejaVuSans-101"/>
       <use x="373.486328" xlink:href="#DejaVuSans-114"/>
       <use x="414.599609" xlink:href="#DejaVuSans-121"/>
       <use x="473.779297" xlink:href="#DejaVuSans-32"/>
       <use x="505.566406" xlink:href="#DejaVuSans-99"/>
       <use x="560.546875" xlink:href="#DejaVuSans-111"/>
       <use x="621.728516" xlink:href="#DejaVuSans-109"/>
       <use x="719.140625" xlink:href="#DejaVuSans-109"/>
       <use x="816.552734" xlink:href="#DejaVuSans-111"/>
       <use x="877.734375" xlink:href="#DejaVuSans-110"/>
      </g>
     </g>
    </g>
    <g id="text_6">
     <!-- Frequency of relaiton -->
     <g transform="translate(566.367812 622.676505)scale(0.2 -0.2)">
      <defs>
       <path d="M 9.8125 72.90625 
L 51.703125 72.90625 
L 51.703125 64.59375 
L 19.671875 64.59375 
L 19.671875 43.109375 
L 48.578125 43.109375 
L 48.578125 34.8125 
L 19.671875 34.8125 
L 19.671875 0 
L 9.8125 0 
z
" id="DejaVuSans-70"/>
       <path d="M 14.796875 27.296875 
Q 14.796875 17.390625 18.875 11.75 
Q 22.953125 6.109375 30.078125 6.109375 
Q 37.203125 6.109375 41.296875 11.75 
Q 45.40625 17.390625 45.40625 27.296875 
Q 45.40625 37.203125 41.296875 42.84375 
Q 37.203125 48.484375 30.078125 48.484375 
Q 22.953125 48.484375 18.875 42.84375 
Q 14.796875 37.203125 14.796875 27.296875 
z
M 45.40625 8.203125 
Q 42.578125 3.328125 38.25 0.953125 
Q 33.9375 -1.421875 27.875 -1.421875 
Q 17.96875 -1.421875 11.734375 6.484375 
Q 5.515625 14.40625 5.515625 27.296875 
Q 5.515625 40.1875 11.734375 48.09375 
Q 17.96875 56 27.875 56 
Q 33.9375 56 38.25 53.625 
Q 42.578125 51.265625 45.40625 46.390625 
L 45.40625 54.6875 
L 54.390625 54.6875 
L 54.390625 -20.796875 
L 45.40625 -20.796875 
z
" id="DejaVuSans-113"/>
       <path d="M 8.5 21.578125 
L 8.5 54.6875 
L 17.484375 54.6875 
L 17.484375 21.921875 
Q 17.484375 14.15625 20.5 10.265625 
Q 23.53125 6.390625 29.59375 6.390625 
Q 36.859375 6.390625 41.078125 11.03125 
Q 45.3125 15.671875 45.3125 23.6875 
L 45.3125 54.6875 
L 54.296875 54.6875 
L 54.296875 0 
L 45.3125 0 
L 45.3125 8.40625 
Q 42.046875 3.421875 37.71875 1 
Q 33.40625 -1.421875 27.6875 -1.421875 
Q 18.265625 -1.421875 13.375 4.4375 
Q 8.5 10.296875 8.5 21.578125 
z
M 31.109375 56 
z
" id="DejaVuSans-117"/>
       <path d="M 37.109375 75.984375 
L 37.109375 68.5 
L 28.515625 68.5 
Q 23.6875 68.5 21.796875 66.546875 
Q 19.921875 64.59375 19.921875 59.515625 
L 19.921875 54.6875 
L 34.71875 54.6875 
L 34.71875 47.703125 
L 19.921875 47.703125 
L 19.921875 0 
L 10.890625 0 
L 10.890625 47.703125 
L 2.296875 47.703125 
L 2.296875 54.6875 
L 10.890625 54.6875 
L 10.890625 58.5 
Q 10.890625 67.625 15.140625 71.796875 
Q 19.390625 75.984375 28.609375 75.984375 
z
" id="DejaVuSans-102"/>
       <path d="M 9.421875 75.984375 
L 18.40625 75.984375 
L 18.40625 0 
L 9.421875 0 
z
" id="DejaVuSans-108"/>
       <path d="M 9.421875 54.6875 
L 18.40625 54.6875 
L 18.40625 0 
L 9.421875 0 
z
M 9.421875 75.984375 
L 18.40625 75.984375 
L 18.40625 64.59375 
L 9.421875 64.59375 
z
" id="DejaVuSans-105"/>
       <path d="M 18.3125 70.21875 
L 18.3125 54.6875 
L 36.8125 54.6875 
L 36.8125 47.703125 
L 18.3125 47.703125 
L 18.3125 18.015625 
Q 18.3125 11.328125 20.140625 9.421875 
Q 21.96875 7.515625 27.59375 7.515625 
L 36.8125 7.515625 
L 36.8125 0 
L 27.59375 0 
Q 17.1875 0 13.234375 3.875 
Q 9.28125 7.765625 9.28125 18.015625 
L 9.28125 47.703125 
L 2.6875 47.703125 
L 2.6875 54.6875 
L 9.28125 54.6875 
L 9.28125 70.21875 
z
" id="DejaVuSans-116"/>
      </defs>
      <use xlink:href="#DejaVuSans-70"/>
      <use x="50.269531" xlink:href="#DejaVuSans-114"/>
      <use x="89.132812" xlink:href="#DejaVuSans-101"/>
      <use x="150.65625" xlink:href="#DejaVuSans-113"/>
      <use x="214.132812" xlink:href="#DejaVuSans-117"/>
      <use x="277.511719" xlink:href="#DejaVuSans-101"/>
      <use x="339.035156" xlink:href="#DejaVuSans-110"/>
      <use x="402.414062" xlink:href="#DejaVuSans-99"/>
      <use x="457.394531" xlink:href="#DejaVuSans-121"/>
      <use x="516.574219" xlink:href="#DejaVuSans-32"/>
      <use x="548.361328" xlink:href="#DejaVuSans-111"/>
      <use x="609.542969" xlink:href="#DejaVuSans-102"/>
      <use x="644.748047" xlink:href="#DejaVuSans-32"/>
      <use x="676.535156" xlink:href="#DejaVuSans-114"/>
      <use x="715.398438" xlink:href="#DejaVuSans-101"/>
      <use x="776.921875" xlink:href="#DejaVuSans-108"/>
      <use x="804.705078" xlink:href="#DejaVuSans-97"/>
      <use x="865.984375" xlink:href="#DejaVuSans-105"/>
      <use x="893.767578" xlink:href="#DejaVuSans-116"/>
      <use x="932.976562" xlink:href="#DejaVuSans-111"/>
      <use x="994.158203" xlink:href="#DejaVuSans-110"/>
     </g>
    </g>
   </g>
   <g id="matplotlib.axis_2">
    <g id="ytick_1">
     <g id="line2d_6">
      <defs>
       <path d="M 0 0 
L -3.5 0 
" id="mdcbbfcc079" style="stroke:#000000;stroke-width:0.8;"/>
      </defs>
      <g>
       <use style="stroke:#000000;stroke-width:0.8;" x="83.6" xlink:href="#mdcbbfcc079" y="529.065905"/>
      </g>
     </g>
     <g id="text_7">
      <!-- 0.0 -->
      <g transform="translate(44.79375 536.664343)scale(0.2 -0.2)">
       <defs>
        <path d="M 31.78125 66.40625 
Q 24.171875 66.40625 20.328125 58.90625 
Q 16.5 51.421875 16.5 36.375 
Q 16.5 21.390625 20.328125 13.890625 
Q 24.171875 6.390625 31.78125 6.390625 
Q 39.453125 6.390625 43.28125 13.890625 
Q 47.125 21.390625 47.125 36.375 
Q 47.125 51.421875 43.28125 58.90625 
Q 39.453125 66.40625 31.78125 66.40625 
z
M 31.78125 74.21875 
Q 44.046875 74.21875 50.515625 64.515625 
Q 56.984375 54.828125 56.984375 36.375 
Q 56.984375 17.96875 50.515625 8.265625 
Q 44.046875 -1.421875 31.78125 -1.421875 
Q 19.53125 -1.421875 13.0625 8.265625 
Q 6.59375 17.96875 6.59375 36.375 
Q 6.59375 54.828125 13.0625 64.515625 
Q 19.53125 74.21875 31.78125 74.21875 
z
" id="DejaVuSans-48"/>
        <path d="M 10.6875 12.40625 
L 21 12.40625 
L 21 0 
L 10.6875 0 
z
" id="DejaVuSans-46"/>
       </defs>
       <use xlink:href="#DejaVuSans-48"/>
       <use x="63.623047" xlink:href="#DejaVuSans-46"/>
       <use x="95.410156" xlink:href="#DejaVuSans-48"/>
      </g>
     </g>
    </g>
    <g id="ytick_2">
     <g id="line2d_7">
      <g>
       <use style="stroke:#000000;stroke-width:0.8;" x="83.6" xlink:href="#mdcbbfcc079" y="434.273801"/>
      </g>
     </g>
     <g id="text_8">
      <!-- 0.2 -->
      <g transform="translate(44.79375 441.872239)scale(0.2 -0.2)">
       <defs>
        <path d="M 19.1875 8.296875 
L 53.609375 8.296875 
L 53.609375 0 
L 7.328125 0 
L 7.328125 8.296875 
Q 12.9375 14.109375 22.625 23.890625 
Q 32.328125 33.6875 34.8125 36.53125 
Q 39.546875 41.84375 41.421875 45.53125 
Q 43.3125 49.21875 43.3125 52.78125 
Q 43.3125 58.59375 39.234375 62.25 
Q 35.15625 65.921875 28.609375 65.921875 
Q 23.96875 65.921875 18.8125 64.3125 
Q 13.671875 62.703125 7.8125 59.421875 
L 7.8125 69.390625 
Q 13.765625 71.78125 18.9375 73 
Q 24.125 74.21875 28.421875 74.21875 
Q 39.75 74.21875 46.484375 68.546875 
Q 53.21875 62.890625 53.21875 53.421875 
Q 53.21875 48.921875 51.53125 44.890625 
Q 49.859375 40.875 45.40625 35.40625 
Q 44.1875 33.984375 37.640625 27.21875 
Q 31.109375 20.453125 19.1875 8.296875 
z
" id="DejaVuSans-50"/>
       </defs>
       <use xlink:href="#DejaVuSans-48"/>
       <use x="63.623047" xlink:href="#DejaVuSans-46"/>
       <use x="95.410156" xlink:href="#DejaVuSans-50"/>
      </g>
     </g>
    </g>
    <g id="ytick_3">
     <g id="line2d_8">
      <g>
       <use style="stroke:#000000;stroke-width:0.8;" x="83.6" xlink:href="#mdcbbfcc079" y="339.481698"/>
      </g>
     </g>
     <g id="text_9">
      <!-- 0.4 -->
      <g transform="translate(44.79375 347.080135)scale(0.2 -0.2)">
       <defs>
        <path d="M 37.796875 64.3125 
L 12.890625 25.390625 
L 37.796875 25.390625 
z
M 35.203125 72.90625 
L 47.609375 72.90625 
L 47.609375 25.390625 
L 58.015625 25.390625 
L 58.015625 17.1875 
L 47.609375 17.1875 
L 47.609375 0 
L 37.796875 0 
L 37.796875 17.1875 
L 4.890625 17.1875 
L 4.890625 26.703125 
z
" id="DejaVuSans-52"/>
       </defs>
       <use xlink:href="#DejaVuSans-48"/>
       <use x="63.623047" xlink:href="#DejaVuSans-46"/>
       <use x="95.410156" xlink:href="#DejaVuSans-52"/>
      </g>
     </g>
    </g>
    <g id="ytick_4">
     <g id="line2d_9">
      <g>
       <use style="stroke:#000000;stroke-width:0.8;" x="83.6" xlink:href="#mdcbbfcc079" y="244.689594"/>
      </g>
     </g>
     <g id="text_10">
      <!-- 0.6 -->
      <g transform="translate(44.79375 252.288031)scale(0.2 -0.2)">
       <defs>
        <path d="M 33.015625 40.375 
Q 26.375 40.375 22.484375 35.828125 
Q 18.609375 31.296875 18.609375 23.390625 
Q 18.609375 15.53125 22.484375 10.953125 
Q 26.375 6.390625 33.015625 6.390625 
Q 39.65625 6.390625 43.53125 10.953125 
Q 47.40625 15.53125 47.40625 23.390625 
Q 47.40625 31.296875 43.53125 35.828125 
Q 39.65625 40.375 33.015625 40.375 
z
M 52.59375 71.296875 
L 52.59375 62.3125 
Q 48.875 64.0625 45.09375 64.984375 
Q 41.3125 65.921875 37.59375 65.921875 
Q 27.828125 65.921875 22.671875 59.328125 
Q 17.53125 52.734375 16.796875 39.40625 
Q 19.671875 43.65625 24.015625 45.921875 
Q 28.375 48.1875 33.59375 48.1875 
Q 44.578125 48.1875 50.953125 41.515625 
Q 57.328125 34.859375 57.328125 23.390625 
Q 57.328125 12.15625 50.6875 5.359375 
Q 44.046875 -1.421875 33.015625 -1.421875 
Q 20.359375 -1.421875 13.671875 8.265625 
Q 6.984375 17.96875 6.984375 36.375 
Q 6.984375 53.65625 15.1875 63.9375 
Q 23.390625 74.21875 37.203125 74.21875 
Q 40.921875 74.21875 44.703125 73.484375 
Q 48.484375 72.75 52.59375 71.296875 
z
" id="DejaVuSans-54"/>
       </defs>
       <use xlink:href="#DejaVuSans-48"/>
       <use x="63.623047" xlink:href="#DejaVuSans-46"/>
       <use x="95.410156" xlink:href="#DejaVuSans-54"/>
      </g>
     </g>
    </g>
    <g id="ytick_5">
     <g id="line2d_10">
      <g>
       <use style="stroke:#000000;stroke-width:0.8;" x="83.6" xlink:href="#mdcbbfcc079" y="149.89749"/>
      </g>
     </g>
     <g id="text_11">
      <!-- 0.8 -->
      <g transform="translate(44.79375 157.495928)scale(0.2 -0.2)">
       <defs>
        <path d="M 31.78125 34.625 
Q 24.75 34.625 20.71875 30.859375 
Q 16.703125 27.09375 16.703125 20.515625 
Q 16.703125 13.921875 20.71875 10.15625 
Q 24.75 6.390625 31.78125 6.390625 
Q 38.8125 6.390625 42.859375 10.171875 
Q 46.921875 13.96875 46.921875 20.515625 
Q 46.921875 27.09375 42.890625 30.859375 
Q 38.875 34.625 31.78125 34.625 
z
M 21.921875 38.8125 
Q 15.578125 40.375 12.03125 44.71875 
Q 8.5 49.078125 8.5 55.328125 
Q 8.5 64.0625 14.71875 69.140625 
Q 20.953125 74.21875 31.78125 74.21875 
Q 42.671875 74.21875 48.875 69.140625 
Q 55.078125 64.0625 55.078125 55.328125 
Q 55.078125 49.078125 51.53125 44.71875 
Q 48 40.375 41.703125 38.8125 
Q 48.828125 37.15625 52.796875 32.3125 
Q 56.78125 27.484375 56.78125 20.515625 
Q 56.78125 9.90625 50.3125 4.234375 
Q 43.84375 -1.421875 31.78125 -1.421875 
Q 19.734375 -1.421875 13.25 4.234375 
Q 6.78125 9.90625 6.78125 20.515625 
Q 6.78125 27.484375 10.78125 32.3125 
Q 14.796875 37.15625 21.921875 38.8125 
z
M 18.3125 54.390625 
Q 18.3125 48.734375 21.84375 45.5625 
Q 25.390625 42.390625 31.78125 42.390625 
Q 38.140625 42.390625 41.71875 45.5625 
Q 45.3125 48.734375 45.3125 54.390625 
Q 45.3125 60.0625 41.71875 63.234375 
Q 38.140625 66.40625 31.78125 66.40625 
Q 25.390625 66.40625 21.84375 63.234375 
Q 18.3125 60.0625 18.3125 54.390625 
z
" id="DejaVuSans-56"/>
       </defs>
       <use xlink:href="#DejaVuSans-48"/>
       <use x="63.623047" xlink:href="#DejaVuSans-46"/>
       <use x="95.410156" xlink:href="#DejaVuSans-56"/>
      </g>
     </g>
    </g>
    <g id="ytick_6">
     <g id="line2d_11">
      <g>
       <use style="stroke:#000000;stroke-width:0.8;" x="83.6" xlink:href="#mdcbbfcc079" y="55.105386"/>
      </g>
     </g>
     <g id="text_12">
      <!-- 1.0 -->
      <g transform="translate(44.79375 62.703824)scale(0.2 -0.2)">
       <defs>
        <path d="M 12.40625 8.296875 
L 28.515625 8.296875 
L 28.515625 63.921875 
L 10.984375 60.40625 
L 10.984375 69.390625 
L 28.421875 72.90625 
L 38.28125 72.90625 
L 38.28125 8.296875 
L 54.390625 8.296875 
L 54.390625 0 
L 12.40625 0 
z
" id="DejaVuSans-49"/>
       </defs>
       <use xlink:href="#DejaVuSans-49"/>
       <use x="63.623047" xlink:href="#DejaVuSans-46"/>
       <use x="95.410156" xlink:href="#DejaVuSans-48"/>
      </g>
     </g>
    </g>
    <g id="text_13">
     <!-- Mean apr per relation -->
     <g transform="translate(36.634375 395.914203)rotate(-90)scale(0.2 -0.2)">
      <defs>
       <path d="M 9.8125 72.90625 
L 24.515625 72.90625 
L 43.109375 23.296875 
L 61.8125 72.90625 
L 76.515625 72.90625 
L 76.515625 0 
L 66.890625 0 
L 66.890625 64.015625 
L 48.09375 14.015625 
L 38.1875 14.015625 
L 19.390625 64.015625 
L 19.390625 0 
L 9.8125 0 
z
" id="DejaVuSans-77"/>
       <path d="M 18.109375 8.203125 
L 18.109375 -20.796875 
L 9.078125 -20.796875 
L 9.078125 54.6875 
L 18.109375 54.6875 
L 18.109375 46.390625 
Q 20.953125 51.265625 25.265625 53.625 
Q 29.59375 56 35.59375 56 
Q 45.5625 56 51.78125 48.09375 
Q 58.015625 40.1875 58.015625 27.296875 
Q 58.015625 14.40625 51.78125 6.484375 
Q 45.5625 -1.421875 35.59375 -1.421875 
Q 29.59375 -1.421875 25.265625 0.953125 
Q 20.953125 3.328125 18.109375 8.203125 
z
M 48.6875 27.296875 
Q 48.6875 37.203125 44.609375 42.84375 
Q 40.53125 48.484375 33.40625 48.484375 
Q 26.265625 48.484375 22.1875 42.84375 
Q 18.109375 37.203125 18.109375 27.296875 
Q 18.109375 17.390625 22.1875 11.75 
Q 26.265625 6.109375 33.40625 6.109375 
Q 40.53125 6.109375 44.609375 11.75 
Q 48.6875 17.390625 48.6875 27.296875 
z
" id="DejaVuSans-112"/>
      </defs>
      <use xlink:href="#DejaVuSans-77"/>
      <use x="86.279297" xlink:href="#DejaVuSans-101"/>
      <use x="147.802734" xlink:href="#DejaVuSans-97"/>
      <use x="209.082031" xlink:href="#DejaVuSans-110"/>
      <use x="272.460938" xlink:href="#DejaVuSans-32"/>
      <use x="304.248047" xlink:href="#DejaVuSans-97"/>
      <use x="365.527344" xlink:href="#DejaVuSans-112"/>
      <use x="429.003906" xlink:href="#DejaVuSans-114"/>
      <use x="470.117188" xlink:href="#DejaVuSans-32"/>
      <use x="501.904297" xlink:href="#DejaVuSans-112"/>
      <use x="565.380859" xlink:href="#DejaVuSans-101"/>
      <use x="626.904297" xlink:href="#DejaVuSans-114"/>
      <use x="668.017578" xlink:href="#DejaVuSans-32"/>
      <use x="699.804688" xlink:href="#DejaVuSans-114"/>
      <use x="738.667969" xlink:href="#DejaVuSans-101"/>
      <use x="800.191406" xlink:href="#DejaVuSans-108"/>
      <use x="827.974609" xlink:href="#DejaVuSans-97"/>
      <use x="889.253906" xlink:href="#DejaVuSans-116"/>
      <use x="928.462891" xlink:href="#DejaVuSans-105"/>
      <use x="956.246094" xlink:href="#DejaVuSans-111"/>
      <use x="1017.427734" xlink:href="#DejaVuSans-110"/>
     </g>
    </g>
   </g>
   <g id="line2d_12">
    <path clip-path="url(#p999129d634)" d="M 118.91135 90.462031 
L 118.91135 69.574567 
" style="fill:none;stroke:#424242;stroke-linecap:square;stroke-width:2.7;"/>
   </g>
   <g id="line2d_13">
    <path clip-path="url(#p999129d634)" d="M 354.32035 121.893291 
L 354.32035 83.244224 
" style="fill:none;stroke:#424242;stroke-linecap:square;stroke-width:2.7;"/>
   </g>
   <g id="line2d_14">
    <path clip-path="url(#p999129d634)" d="M 589.72935 159.058956 
L 589.72935 118.667549 
" style="fill:none;stroke:#424242;stroke-linecap:square;stroke-width:2.7;"/>
   </g>
   <g id="line2d_15">
    <path clip-path="url(#p999129d634)" d="M 825.13835 187.658004 
L 825.13835 145.797509 
" style="fill:none;stroke:#424242;stroke-linecap:square;stroke-width:2.7;"/>
   </g>
   <g id="line2d_16">
    <path clip-path="url(#p999129d634)" d="M 1060.54735 185.059793 
L 1060.54735 156.469234 
" style="fill:none;stroke:#424242;stroke-linecap:square;stroke-width:2.7;"/>
   </g>
   <g id="line2d_17">
    <path clip-path="url(#p999129d634)" d="M 142.45225 123.533165 
L 142.45225 86.25381 
" style="fill:none;stroke:#424242;stroke-linecap:square;stroke-width:2.7;"/>
   </g>
   <g id="line2d_18">
    <path clip-path="url(#p999129d634)" d="M 377.86125 151.673117 
L 377.86125 103.03228 
" style="fill:none;stroke:#424242;stroke-linecap:square;stroke-width:2.7;"/>
   </g>
   <g id="line2d_19">
    <path clip-path="url(#p999129d634)" d="M 613.27025 189.674237 
L 613.27025 143.211918 
" style="fill:none;stroke:#424242;stroke-linecap:square;stroke-width:2.7;"/>
   </g>
   <g id="line2d_20">
    <path clip-path="url(#p999129d634)" d="M 848.67925 220.525913 
L 848.67925 178.807239 
" style="fill:none;stroke:#424242;stroke-linecap:square;stroke-width:2.7;"/>
   </g>
   <g id="line2d_21">
    <path clip-path="url(#p999129d634)" d="M 1084.08825 219.857607 
L 1084.08825 195.780615 
" style="fill:none;stroke:#424242;stroke-linecap:square;stroke-width:2.7;"/>
   </g>
   <g id="line2d_22">
    <path clip-path="url(#p999129d634)" d="M 165.99315 102.232296 
L 165.99315 78.385795 
" style="fill:none;stroke:#424242;stroke-linecap:square;stroke-width:2.7;"/>
   </g>
   <g id="line2d_23">
    <path clip-path="url(#p999129d634)" d="M 401.40215 138.934343 
L 401.40215 93.352302 
" style="fill:none;stroke:#424242;stroke-linecap:square;stroke-width:2.7;"/>
   </g>
   <g id="line2d_24">
    <path clip-path="url(#p999129d634)" d="M 636.81115 185.842332 
L 636.81115 140.922561 
" style="fill:none;stroke:#424242;stroke-linecap:square;stroke-width:2.7;"/>
   </g>
   <g id="line2d_25">
    <path clip-path="url(#p999129d634)" d="M 872.22015 222.098398 
L 872.22015 180.876351 
" style="fill:none;stroke:#424242;stroke-linecap:square;stroke-width:2.7;"/>
   </g>
   <g id="line2d_26">
    <path clip-path="url(#p999129d634)" d="M 1107.62915 225.869775 
L 1107.62915 202.929967 
" style="fill:none;stroke:#424242;stroke-linecap:square;stroke-width:2.7;"/>
   </g>
   <g id="line2d_27">
    <path clip-path="url(#p999129d634)" d="M 189.53405 112.641963 
L 189.53405 80.508031 
" style="fill:none;stroke:#424242;stroke-linecap:square;stroke-width:2.7;"/>
   </g>
   <g id="line2d_28">
    <path clip-path="url(#p999129d634)" d="M 424.94305 136.255539 
L 424.94305 94.996991 
" style="fill:none;stroke:#424242;stroke-linecap:square;stroke-width:2.7;"/>
   </g>
   <g id="line2d_29">
    <path clip-path="url(#p999129d634)" d="M 660.35205 165.096062 
L 660.35205 125.985528 
" style="fill:none;stroke:#424242;stroke-linecap:square;stroke-width:2.7;"/>
   </g>
   <g id="line2d_30">
    <path clip-path="url(#p999129d634)" d="M 895.76105 185.739171 
L 895.76105 146.672192 
" style="fill:none;stroke:#424242;stroke-linecap:square;stroke-width:2.7;"/>
   </g>
   <g id="line2d_31">
    <path clip-path="url(#p999129d634)" d="M 1131.17005 177.749184 
L 1131.17005 150.038633 
" style="fill:none;stroke:#424242;stroke-linecap:square;stroke-width:2.7;"/>
   </g>
   <g id="line2d_32">
    <path clip-path="url(#p999129d634)" d="M 213.07495 119.216346 
L 213.07495 89.001724 
" style="fill:none;stroke:#424242;stroke-linecap:square;stroke-width:2.7;"/>
   </g>
   <g id="line2d_33">
    <path clip-path="url(#p999129d634)" d="M 448.48395 131.799208 
L 448.48395 96.422281 
" style="fill:none;stroke:#424242;stroke-linecap:square;stroke-width:2.7;"/>
   </g>
   <g id="line2d_34">
    <path clip-path="url(#p999129d634)" d="M 683.89295 153.289973 
L 683.89295 119.91894 
" style="fill:none;stroke:#424242;stroke-linecap:square;stroke-width:2.7;"/>
   </g>
   <g id="line2d_35">
    <path clip-path="url(#p999129d634)" d="M 919.30195 173.661395 
L 919.30195 138.001987 
" style="fill:none;stroke:#424242;stroke-linecap:square;stroke-width:2.7;"/>
   </g>
   <g id="line2d_36">
    <path clip-path="url(#p999129d634)" d="M 1154.71095 168.273761 
L 1154.71095 143.439503 
" style="fill:none;stroke:#424242;stroke-linecap:square;stroke-width:2.7;"/>
   </g>
   <g id="line2d_37">
    <path clip-path="url(#p999129d634)" d="M 236.61585 116.307945 
L 236.61585 86.479891 
" style="fill:none;stroke:#424242;stroke-linecap:square;stroke-width:2.7;"/>
   </g>
   <g id="line2d_38">
    <path clip-path="url(#p999129d634)" d="M 472.02485 139.820404 
L 472.02485 100.638494 
" style="fill:none;stroke:#424242;stroke-linecap:square;stroke-width:2.7;"/>
   </g>
   <g id="line2d_39">
    <path clip-path="url(#p999129d634)" d="M 707.43385 175.845322 
L 707.43385 136.193119 
" style="fill:none;stroke:#424242;stroke-linecap:square;stroke-width:2.7;"/>
   </g>
   <g id="line2d_40">
    <path clip-path="url(#p999129d634)" d="M 942.84285 208.689578 
L 942.84285 172.342235 
" style="fill:none;stroke:#424242;stroke-linecap:square;stroke-width:2.7;"/>
   </g>
   <g id="line2d_41">
    <path clip-path="url(#p999129d634)" d="M 1178.25185 212.97884 
L 1178.25185 190.671827 
" style="fill:none;stroke:#424242;stroke-linecap:square;stroke-width:2.7;"/>
   </g>
   <g id="line2d_42">
    <path clip-path="url(#p999129d634)" d="M 260.15675 112.334157 
L 260.15675 87.255897 
" style="fill:none;stroke:#424242;stroke-linecap:square;stroke-width:2.7;"/>
   </g>
   <g id="line2d_43">
    <path clip-path="url(#p999129d634)" d="M 495.56575 138.969135 
L 495.56575 100.52129 
" style="fill:none;stroke:#424242;stroke-linecap:square;stroke-width:2.7;"/>
   </g>
   <g id="line2d_44">
    <path clip-path="url(#p999129d634)" d="M 730.97475 181.033556 
L 730.97475 140.410818 
" style="fill:none;stroke:#424242;stroke-linecap:square;stroke-width:2.7;"/>
   </g>
   <g id="line2d_45">
    <path clip-path="url(#p999129d634)" d="M 966.38375 217.479129 
L 966.38375 180.044356 
" style="fill:none;stroke:#424242;stroke-linecap:square;stroke-width:2.7;"/>
   </g>
   <g id="line2d_46">
    <path clip-path="url(#p999129d634)" d="M 1201.79275 222.629869 
L 1201.79275 202.279751 
" style="fill:none;stroke:#424242;stroke-linecap:square;stroke-width:2.7;"/>
   </g>
   <g id="line2d_47">
    <path clip-path="url(#p999129d634)" d="M 283.69765 121.680439 
L 283.69765 89.849551 
" style="fill:none;stroke:#424242;stroke-linecap:square;stroke-width:2.7;"/>
   </g>
   <g id="line2d_48">
    <path clip-path="url(#p999129d634)" d="M 519.10665 138.511003 
L 519.10665 102.491901 
" style="fill:none;stroke:#424242;stroke-linecap:square;stroke-width:2.7;"/>
   </g>
   <g id="line2d_49">
    <path clip-path="url(#p999129d634)" d="M 754.51565 162.590377 
L 754.51565 128.546092 
" style="fill:none;stroke:#424242;stroke-linecap:square;stroke-width:2.7;"/>
   </g>
   <g id="line2d_50">
    <path clip-path="url(#p999129d634)" d="M 989.92465 181.095989 
L 989.92465 146.488158 
" style="fill:none;stroke:#424242;stroke-linecap:square;stroke-width:2.7;"/>
   </g>
   <g id="line2d_51">
    <path clip-path="url(#p999129d634)" d="M 1225.33365 172.701079 
L 1225.33365 148.786709 
" style="fill:none;stroke:#424242;stroke-linecap:square;stroke-width:2.7;"/>
   </g>
   <g id="patch_43">
    <path d="M 83.6 529.065905 
L 83.6 46.6 
" style="fill:none;stroke:#000000;stroke-linecap:square;stroke-linejoin:miter;stroke-width:0.8;"/>
   </g>
   <g id="patch_44">
    <path d="M 1260.645 529.065905 
L 1260.645 46.6 
" style="fill:none;stroke:#000000;stroke-linecap:square;stroke-linejoin:miter;stroke-width:0.8;"/>
   </g>
   <g id="patch_45">
    <path d="M 83.6 529.065905 
L 1260.645 529.065905 
" style="fill:none;stroke:#000000;stroke-linecap:square;stroke-linejoin:miter;stroke-width:0.8;"/>
   </g>
   <g id="patch_46">
    <path d="M 83.6 46.6 
L 1260.645 46.6 
" style="fill:none;stroke:#000000;stroke-linecap:square;stroke-linejoin:miter;stroke-width:0.8;"/>
   </g>
   <g id="text_14">
    <!-- AUC-PR model comparison performance per relation -->
    <g transform="translate(357.836875 40.6)scale(0.24 -0.24)">
     <defs>
      <path d="M 34.1875 63.1875 
L 20.796875 26.90625 
L 47.609375 26.90625 
z
M 28.609375 72.90625 
L 39.796875 72.90625 
L 67.578125 0 
L 57.328125 0 
L 50.6875 18.703125 
L 17.828125 18.703125 
L 11.1875 0 
L 0.78125 0 
z
" id="DejaVuSans-65"/>
      <path d="M 8.6875 72.90625 
L 18.609375 72.90625 
L 18.609375 28.609375 
Q 18.609375 16.890625 22.84375 11.734375 
Q 27.09375 6.59375 36.625 6.59375 
Q 46.09375 6.59375 50.34375 11.734375 
Q 54.59375 16.890625 54.59375 28.609375 
L 54.59375 72.90625 
L 64.5 72.90625 
L 64.5 27.390625 
Q 64.5 13.140625 57.4375 5.859375 
Q 50.390625 -1.421875 36.625 -1.421875 
Q 22.796875 -1.421875 15.734375 5.859375 
Q 8.6875 13.140625 8.6875 27.390625 
z
" id="DejaVuSans-85"/>
      <path d="M 64.40625 67.28125 
L 64.40625 56.890625 
Q 59.421875 61.53125 53.78125 63.8125 
Q 48.140625 66.109375 41.796875 66.109375 
Q 29.296875 66.109375 22.65625 58.46875 
Q 16.015625 50.828125 16.015625 36.375 
Q 16.015625 21.96875 22.65625 14.328125 
Q 29.296875 6.6875 41.796875 6.6875 
Q 48.140625 6.6875 53.78125 8.984375 
Q 59.421875 11.28125 64.40625 15.921875 
L 64.40625 5.609375 
Q 59.234375 2.09375 53.4375 0.328125 
Q 47.65625 -1.421875 41.21875 -1.421875 
Q 24.65625 -1.421875 15.125 8.703125 
Q 5.609375 18.84375 5.609375 36.375 
Q 5.609375 53.953125 15.125 64.078125 
Q 24.65625 74.21875 41.21875 74.21875 
Q 47.75 74.21875 53.53125 72.484375 
Q 59.328125 70.75 64.40625 67.28125 
z
" id="DejaVuSans-67"/>
      <path d="M 4.890625 31.390625 
L 31.203125 31.390625 
L 31.203125 23.390625 
L 4.890625 23.390625 
z
" id="DejaVuSans-45"/>
      <path d="M 19.671875 64.796875 
L 19.671875 37.40625 
L 32.078125 37.40625 
Q 38.96875 37.40625 42.71875 40.96875 
Q 46.484375 44.53125 46.484375 51.125 
Q 46.484375 57.671875 42.71875 61.234375 
Q 38.96875 64.796875 32.078125 64.796875 
z
M 9.8125 72.90625 
L 32.078125 72.90625 
Q 44.34375 72.90625 50.609375 67.359375 
Q 56.890625 61.8125 56.890625 51.125 
Q 56.890625 40.328125 50.609375 34.8125 
Q 44.34375 29.296875 32.078125 29.296875 
L 19.671875 29.296875 
L 19.671875 0 
L 9.8125 0 
z
" id="DejaVuSans-80"/>
      <path d="M 44.390625 34.1875 
Q 47.5625 33.109375 50.5625 29.59375 
Q 53.5625 26.078125 56.59375 19.921875 
L 66.609375 0 
L 56 0 
L 46.6875 18.703125 
Q 43.0625 26.03125 39.671875 28.421875 
Q 36.28125 30.8125 30.421875 30.8125 
L 19.671875 30.8125 
L 19.671875 0 
L 9.8125 0 
L 9.8125 72.90625 
L 32.078125 72.90625 
Q 44.578125 72.90625 50.734375 67.671875 
Q 56.890625 62.453125 56.890625 51.90625 
Q 56.890625 45.015625 53.6875 40.46875 
Q 50.484375 35.9375 44.390625 34.1875 
z
M 19.671875 64.796875 
L 19.671875 38.921875 
L 32.078125 38.921875 
Q 39.203125 38.921875 42.84375 42.21875 
Q 46.484375 45.515625 46.484375 51.90625 
Q 46.484375 58.296875 42.84375 61.546875 
Q 39.203125 64.796875 32.078125 64.796875 
z
" id="DejaVuSans-82"/>
      <path d="M 45.40625 46.390625 
L 45.40625 75.984375 
L 54.390625 75.984375 
L 54.390625 0 
L 45.40625 0 
L 45.40625 8.203125 
Q 42.578125 3.328125 38.25 0.953125 
Q 33.9375 -1.421875 27.875 -1.421875 
Q 17.96875 -1.421875 11.734375 6.484375 
Q 5.515625 14.40625 5.515625 27.296875 
Q 5.515625 40.1875 11.734375 48.09375 
Q 17.96875 56 27.875 56 
Q 33.9375 56 38.25 53.625 
Q 42.578125 51.265625 45.40625 46.390625 
z
M 14.796875 27.296875 
Q 14.796875 17.390625 18.875 11.75 
Q 22.953125 6.109375 30.078125 6.109375 
Q 37.203125 6.109375 41.296875 11.75 
Q 45.40625 17.390625 45.40625 27.296875 
Q 45.40625 37.203125 41.296875 42.84375 
Q 37.203125 48.484375 30.078125 48.484375 
Q 22.953125 48.484375 18.875 42.84375 
Q 14.796875 37.203125 14.796875 27.296875 
z
" id="DejaVuSans-100"/>
      <path d="M 44.28125 53.078125 
L 44.28125 44.578125 
Q 40.484375 46.53125 36.375 47.5 
Q 32.28125 48.484375 27.875 48.484375 
Q 21.1875 48.484375 17.84375 46.4375 
Q 14.5 44.390625 14.5 40.28125 
Q 14.5 37.15625 16.890625 35.375 
Q 19.28125 33.59375 26.515625 31.984375 
L 29.59375 31.296875 
Q 39.15625 29.25 43.1875 25.515625 
Q 47.21875 21.78125 47.21875 15.09375 
Q 47.21875 7.46875 41.1875 3.015625 
Q 35.15625 -1.421875 24.609375 -1.421875 
Q 20.21875 -1.421875 15.453125 -0.5625 
Q 10.6875 0.296875 5.421875 2 
L 5.421875 11.28125 
Q 10.40625 8.6875 15.234375 7.390625 
Q 20.0625 6.109375 24.8125 6.109375 
Q 31.15625 6.109375 34.5625 8.28125 
Q 37.984375 10.453125 37.984375 14.40625 
Q 37.984375 18.0625 35.515625 20.015625 
Q 33.0625 21.96875 24.703125 23.78125 
L 21.578125 24.515625 
Q 13.234375 26.265625 9.515625 29.90625 
Q 5.8125 33.546875 5.8125 39.890625 
Q 5.8125 47.609375 11.28125 51.796875 
Q 16.75 56 26.8125 56 
Q 31.78125 56 36.171875 55.265625 
Q 40.578125 54.546875 44.28125 53.078125 
z
" id="DejaVuSans-115"/>
     </defs>
     <use xlink:href="#DejaVuSans-65"/>
     <use x="68.408203" xlink:href="#DejaVuSans-85"/>
     <use x="141.601562" xlink:href="#DejaVuSans-67"/>
     <use x="211.425781" xlink:href="#DejaVuSans-45"/>
     <use x="247.509766" xlink:href="#DejaVuSans-80"/>
     <use x="307.8125" xlink:href="#DejaVuSans-82"/>
     <use x="377.294922" xlink:href="#DejaVuSans-32"/>
     <use x="409.082031" xlink:href="#DejaVuSans-109"/>
     <use x="506.494141" xlink:href="#DejaVuSans-111"/>
     <use x="567.675781" xlink:href="#DejaVuSans-100"/>
     <use x="631.152344" xlink:href="#DejaVuSans-101"/>
     <use x="692.675781" xlink:href="#DejaVuSans-108"/>
     <use x="720.458984" xlink:href="#DejaVuSans-32"/>
     <use x="752.246094" xlink:href="#DejaVuSans-99"/>
     <use x="807.226562" xlink:href="#DejaVuSans-111"/>
     <use x="868.408203" xlink:href="#DejaVuSans-109"/>
     <use x="965.820312" xlink:href="#DejaVuSans-112"/>
     <use x="1029.296875" xlink:href="#DejaVuSans-97"/>
     <use x="1090.576172" xlink:href="#DejaVuSans-114"/>
     <use x="1131.689453" xlink:href="#DejaVuSans-105"/>
     <use x="1159.472656" xlink:href="#DejaVuSans-115"/>
     <use x="1211.572266" xlink:href="#DejaVuSans-111"/>
     <use x="1272.753906" xlink:href="#DejaVuSans-110"/>
     <use x="1336.132812" xlink:href="#DejaVuSans-32"/>
     <use x="1367.919922" xlink:href="#DejaVuSans-112"/>
     <use x="1431.396484" xlink:href="#DejaVuSans-101"/>
     <use x="1492.919922" xlink:href="#DejaVuSans-114"/>
     <use x="1534.033203" xlink:href="#DejaVuSans-102"/>
     <use x="1569.238281" xlink:href="#DejaVuSans-111"/>
     <use x="1630.419922" xlink:href="#DejaVuSans-114"/>
     <use x="1669.783203" xlink:href="#DejaVuSans-109"/>
     <use x="1767.195312" xlink:href="#DejaVuSans-97"/>
     <use x="1828.474609" xlink:href="#DejaVuSans-110"/>
     <use x="1891.853516" xlink:href="#DejaVuSans-99"/>
     <use x="1946.833984" xlink:href="#DejaVuSans-101"/>
     <use x="2008.357422" xlink:href="#DejaVuSans-32"/>
     <use x="2040.144531" xlink:href="#DejaVuSans-112"/>
     <use x="2103.621094" xlink:href="#DejaVuSans-101"/>
     <use x="2165.144531" xlink:href="#DejaVuSans-114"/>
     <use x="2206.257812" xlink:href="#DejaVuSans-32"/>
     <use x="2238.044922" xlink:href="#DejaVuSans-114"/>
     <use x="2276.908203" xlink:href="#DejaVuSans-101"/>
     <use x="2338.431641" xlink:href="#DejaVuSans-108"/>
     <use x="2366.214844" xlink:href="#DejaVuSans-97"/>
     <use x="2427.494141" xlink:href="#DejaVuSans-116"/>
     <use x="2466.703125" xlink:href="#DejaVuSans-105"/>
     <use x="2494.486328" xlink:href="#DejaVuSans-111"/>
     <use x="2555.667969" xlink:href="#DejaVuSans-110"/>
    </g>
   </g>
   <g id="legend_1">
    <g id="patch_47">
     <path d="M 1323.49725 287.45 
L 1555.562875 287.45 
Q 1559.562875 287.45 1559.562875 283.45 
L 1559.562875 50.6 
Q 1559.562875 46.6 1555.562875 46.6 
L 1323.49725 46.6 
Q 1319.49725 46.6 1319.49725 50.6 
L 1319.49725 283.45 
Q 1319.49725 287.45 1323.49725 287.45 
z
" style="fill:#ffffff;opacity:0.8;stroke:#cccccc;stroke-linejoin:miter;"/>
    </g>
    <g id="patch_48">
     <path d="M 1327.49725 69.796875 
L 1367.49725 69.796875 
L 1367.49725 55.796875 
L 1327.49725 55.796875 
z
" style="fill:#2020df;"/>
    </g>
    <g id="text_15">
     <!-- CE Complex -->
     <g transform="translate(1383.49725 69.796875)scale(0.2 -0.2)">
      <defs>
       <path d="M 9.8125 72.90625 
L 55.90625 72.90625 
L 55.90625 64.59375 
L 19.671875 64.59375 
L 19.671875 43.015625 
L 54.390625 43.015625 
L 54.390625 34.71875 
L 19.671875 34.71875 
L 19.671875 8.296875 
L 56.78125 8.296875 
L 56.78125 0 
L 9.8125 0 
z
" id="DejaVuSans-69"/>
       <path d="M 54.890625 54.6875 
L 35.109375 28.078125 
L 55.90625 0 
L 45.3125 0 
L 29.390625 21.484375 
L 13.484375 0 
L 2.875 0 
L 24.125 28.609375 
L 4.6875 54.6875 
L 15.28125 54.6875 
L 29.78125 35.203125 
L 44.28125 54.6875 
z
" id="DejaVuSans-120"/>
      </defs>
      <use xlink:href="#DejaVuSans-67"/>
      <use x="69.824219" xlink:href="#DejaVuSans-69"/>
      <use x="133.007812" xlink:href="#DejaVuSans-32"/>
      <use x="164.794922" xlink:href="#DejaVuSans-67"/>
      <use x="234.619141" xlink:href="#DejaVuSans-111"/>
      <use x="295.800781" xlink:href="#DejaVuSans-109"/>
      <use x="393.212891" xlink:href="#DejaVuSans-112"/>
      <use x="456.689453" xlink:href="#DejaVuSans-108"/>
      <use x="484.472656" xlink:href="#DejaVuSans-101"/>
      <use x="544.246094" xlink:href="#DejaVuSans-120"/>
     </g>
    </g>
    <g id="patch_49">
     <path d="M 1327.49725 99.153125 
L 1367.49725 99.153125 
L 1367.49725 85.153125 
L 1327.49725 85.153125 
z
" style="fill:#5573cd;"/>
    </g>
    <g id="text_16">
     <!-- BCE Complex -->
     <g transform="translate(1383.49725 99.153125)scale(0.2 -0.2)">
      <defs>
       <path d="M 19.671875 34.8125 
L 19.671875 8.109375 
L 35.5 8.109375 
Q 43.453125 8.109375 47.28125 11.40625 
Q 51.125 14.703125 51.125 21.484375 
Q 51.125 28.328125 47.28125 31.5625 
Q 43.453125 34.8125 35.5 34.8125 
z
M 19.671875 64.796875 
L 19.671875 42.828125 
L 34.28125 42.828125 
Q 41.5 42.828125 45.03125 45.53125 
Q 48.578125 48.25 48.578125 53.8125 
Q 48.578125 59.328125 45.03125 62.0625 
Q 41.5 64.796875 34.28125 64.796875 
z
M 9.8125 72.90625 
L 35.015625 72.90625 
Q 46.296875 72.90625 52.390625 68.21875 
Q 58.5 63.53125 58.5 54.890625 
Q 58.5 48.1875 55.375 44.234375 
Q 52.25 40.28125 46.1875 39.3125 
Q 53.46875 37.75 57.5 32.78125 
Q 61.53125 27.828125 61.53125 20.40625 
Q 61.53125 10.640625 54.890625 5.3125 
Q 48.25 0 35.984375 0 
L 9.8125 0 
z
" id="DejaVuSans-66"/>
      </defs>
      <use xlink:href="#DejaVuSans-66"/>
      <use x="66.853516" xlink:href="#DejaVuSans-67"/>
      <use x="136.677734" xlink:href="#DejaVuSans-69"/>
      <use x="199.861328" xlink:href="#DejaVuSans-32"/>
      <use x="231.648438" xlink:href="#DejaVuSans-67"/>
      <use x="301.472656" xlink:href="#DejaVuSans-111"/>
      <use x="362.654297" xlink:href="#DejaVuSans-109"/>
      <use x="460.066406" xlink:href="#DejaVuSans-112"/>
      <use x="523.542969" xlink:href="#DejaVuSans-108"/>
      <use x="551.326172" xlink:href="#DejaVuSans-101"/>
      <use x="611.099609" xlink:href="#DejaVuSans-120"/>
     </g>
    </g>
    <g id="patch_50">
     <path d="M 1327.49725 128.509375 
L 1367.49725 128.509375 
L 1367.49725 114.509375 
L 1327.49725 114.509375 
z
" style="fill:#3a90e3;"/>
    </g>
    <g id="text_17">
     <!-- PW-Log Complex -->
     <g transform="translate(1383.49725 128.509375)scale(0.2 -0.2)">
      <defs>
       <path d="M 3.328125 72.90625 
L 13.28125 72.90625 
L 28.609375 11.28125 
L 43.890625 72.90625 
L 54.984375 72.90625 
L 70.3125 11.28125 
L 85.59375 72.90625 
L 95.609375 72.90625 
L 77.296875 0 
L 64.890625 0 
L 49.515625 63.28125 
L 33.984375 0 
L 21.578125 0 
z
" id="DejaVuSans-87"/>
       <path d="M 9.8125 72.90625 
L 19.671875 72.90625 
L 19.671875 8.296875 
L 55.171875 8.296875 
L 55.171875 0 
L 9.8125 0 
z
" id="DejaVuSans-76"/>
       <path d="M 45.40625 27.984375 
Q 45.40625 37.75 41.375 43.109375 
Q 37.359375 48.484375 30.078125 48.484375 
Q 22.859375 48.484375 18.828125 43.109375 
Q 14.796875 37.75 14.796875 27.984375 
Q 14.796875 18.265625 18.828125 12.890625 
Q 22.859375 7.515625 30.078125 7.515625 
Q 37.359375 7.515625 41.375 12.890625 
Q 45.40625 18.265625 45.40625 27.984375 
z
M 54.390625 6.78125 
Q 54.390625 -7.171875 48.1875 -13.984375 
Q 42 -20.796875 29.203125 -20.796875 
Q 24.46875 -20.796875 20.265625 -20.09375 
Q 16.0625 -19.390625 12.109375 -17.921875 
L 12.109375 -9.1875 
Q 16.0625 -11.328125 19.921875 -12.34375 
Q 23.78125 -13.375 27.78125 -13.375 
Q 36.625 -13.375 41.015625 -8.765625 
Q 45.40625 -4.15625 45.40625 5.171875 
L 45.40625 9.625 
Q 42.625 4.78125 38.28125 2.390625 
Q 33.9375 0 27.875 0 
Q 17.828125 0 11.671875 7.65625 
Q 5.515625 15.328125 5.515625 27.984375 
Q 5.515625 40.671875 11.671875 48.328125 
Q 17.828125 56 27.875 56 
Q 33.9375 56 38.28125 53.609375 
Q 42.625 51.21875 45.40625 46.390625 
L 45.40625 54.6875 
L 54.390625 54.6875 
z
" id="DejaVuSans-103"/>
      </defs>
      <use xlink:href="#DejaVuSans-80"/>
      <use x="60.302734" xlink:href="#DejaVuSans-87"/>
      <use x="155.179688" xlink:href="#DejaVuSans-45"/>
      <use x="191.263672" xlink:href="#DejaVuSans-76"/>
      <use x="245.226562" xlink:href="#DejaVuSans-111"/>
      <use x="306.408203" xlink:href="#DejaVuSans-103"/>
      <use x="369.884766" xlink:href="#DejaVuSans-32"/>
      <use x="401.671875" xlink:href="#DejaVuSans-67"/>
      <use x="471.496094" xlink:href="#DejaVuSans-111"/>
      <use x="532.677734" xlink:href="#DejaVuSans-109"/>
      <use x="630.089844" xlink:href="#DejaVuSans-112"/>
      <use x="693.566406" xlink:href="#DejaVuSans-108"/>
      <use x="721.349609" xlink:href="#DejaVuSans-101"/>
      <use x="781.123047" xlink:href="#DejaVuSans-120"/>
     </g>
    </g>
    <g id="patch_51">
     <path d="M 1327.49725 157.865625 
L 1367.49725 157.865625 
L 1367.49725 143.865625 
L 1327.49725 143.865625 
z
" style="fill:#94c9de;"/>
    </g>
    <g id="text_18">
     <!-- PH Complex -->
     <g transform="translate(1383.49725 157.865625)scale(0.2 -0.2)">
      <defs>
       <path d="M 9.8125 72.90625 
L 19.671875 72.90625 
L 19.671875 43.015625 
L 55.515625 43.015625 
L 55.515625 72.90625 
L 65.375 72.90625 
L 65.375 0 
L 55.515625 0 
L 55.515625 34.71875 
L 19.671875 34.71875 
L 19.671875 0 
L 9.8125 0 
z
" id="DejaVuSans-72"/>
      </defs>
      <use xlink:href="#DejaVuSans-80"/>
      <use x="60.302734" xlink:href="#DejaVuSans-72"/>
      <use x="135.498047" xlink:href="#DejaVuSans-32"/>
      <use x="167.285156" xlink:href="#DejaVuSans-67"/>
      <use x="237.109375" xlink:href="#DejaVuSans-111"/>
      <use x="298.291016" xlink:href="#DejaVuSans-109"/>
      <use x="395.703125" xlink:href="#DejaVuSans-112"/>
      <use x="459.179688" xlink:href="#DejaVuSans-108"/>
      <use x="486.962891" xlink:href="#DejaVuSans-101"/>
      <use x="546.736328" xlink:href="#DejaVuSans-120"/>
     </g>
    </g>
    <g id="patch_52">
     <path d="M 1327.49725 187.221875 
L 1367.49725 187.221875 
L 1367.49725 173.221875 
L 1327.49725 173.221875 
z
" style="fill:#bf6a6a;"/>
    </g>
    <g id="text_19">
     <!-- CE Tucker -->
     <g transform="translate(1383.49725 187.221875)scale(0.2 -0.2)">
      <defs>
       <path d="M -0.296875 72.90625 
L 61.375 72.90625 
L 61.375 64.59375 
L 35.5 64.59375 
L 35.5 0 
L 25.59375 0 
L 25.59375 64.59375 
L -0.296875 64.59375 
z
" id="DejaVuSans-84"/>
       <path d="M 9.078125 75.984375 
L 18.109375 75.984375 
L 18.109375 31.109375 
L 44.921875 54.6875 
L 56.390625 54.6875 
L 27.390625 29.109375 
L 57.625 0 
L 45.90625 0 
L 18.109375 26.703125 
L 18.109375 0 
L 9.078125 0 
z
" id="DejaVuSans-107"/>
      </defs>
      <use xlink:href="#DejaVuSans-67"/>
      <use x="69.824219" xlink:href="#DejaVuSans-69"/>
      <use x="133.007812" xlink:href="#DejaVuSans-32"/>
      <use x="164.794922" xlink:href="#DejaVuSans-84"/>
      <use x="210.753906" xlink:href="#DejaVuSans-117"/>
      <use x="274.132812" xlink:href="#DejaVuSans-99"/>
      <use x="329.113281" xlink:href="#DejaVuSans-107"/>
      <use x="383.398438" xlink:href="#DejaVuSans-101"/>
      <use x="444.921875" xlink:href="#DejaVuSans-114"/>
     </g>
    </g>
    <g id="patch_53">
     <path d="M 1327.49725 216.578125 
L 1367.49725 216.578125 
L 1367.49725 202.578125 
L 1327.49725 202.578125 
z
" style="fill:#e98e83;"/>
    </g>
    <g id="text_20">
     <!-- BCE Tucker -->
     <g transform="translate(1383.49725 216.578125)scale(0.2 -0.2)">
      <use xlink:href="#DejaVuSans-66"/>
      <use x="66.853516" xlink:href="#DejaVuSans-67"/>
      <use x="136.677734" xlink:href="#DejaVuSans-69"/>
      <use x="199.861328" xlink:href="#DejaVuSans-32"/>
      <use x="231.648438" xlink:href="#DejaVuSans-84"/>
      <use x="277.607422" xlink:href="#DejaVuSans-117"/>
      <use x="340.986328" xlink:href="#DejaVuSans-99"/>
      <use x="395.966797" xlink:href="#DejaVuSans-107"/>
      <use x="450.251953" xlink:href="#DejaVuSans-101"/>
      <use x="511.775391" xlink:href="#DejaVuSans-114"/>
     </g>
    </g>
    <g id="patch_54">
     <path d="M 1327.49725 245.934375 
L 1367.49725 245.934375 
L 1367.49725 231.934375 
L 1327.49725 231.934375 
z
" style="fill:#e2a673;"/>
    </g>
    <g id="text_21">
     <!-- PW-Log Tucker -->
     <g transform="translate(1383.49725 245.934375)scale(0.2 -0.2)">
      <use xlink:href="#DejaVuSans-80"/>
      <use x="60.302734" xlink:href="#DejaVuSans-87"/>
      <use x="155.179688" xlink:href="#DejaVuSans-45"/>
      <use x="191.263672" xlink:href="#DejaVuSans-76"/>
      <use x="245.226562" xlink:href="#DejaVuSans-111"/>
      <use x="306.408203" xlink:href="#DejaVuSans-103"/>
      <use x="369.884766" xlink:href="#DejaVuSans-32"/>
      <use x="401.671875" xlink:href="#DejaVuSans-84"/>
      <use x="447.630859" xlink:href="#DejaVuSans-117"/>
      <use x="511.009766" xlink:href="#DejaVuSans-99"/>
      <use x="565.990234" xlink:href="#DejaVuSans-107"/>
      <use x="620.275391" xlink:href="#DejaVuSans-101"/>
      <use x="681.798828" xlink:href="#DejaVuSans-114"/>
     </g>
    </g>
    <g id="patch_55">
     <path d="M 1327.49725 275.290625 
L 1367.49725 275.290625 
L 1367.49725 261.290625 
L 1327.49725 261.290625 
z
" style="fill:#bb8551;"/>
    </g>
    <g id="text_22">
     <!-- PH Tucker -->
     <g transform="translate(1383.49725 275.290625)scale(0.2 -0.2)">
      <use xlink:href="#DejaVuSans-80"/>
      <use x="60.302734" xlink:href="#DejaVuSans-72"/>
      <use x="135.498047" xlink:href="#DejaVuSans-32"/>
      <use x="167.285156" xlink:href="#DejaVuSans-84"/>
      <use x="213.244141" xlink:href="#DejaVuSans-117"/>
      <use x="276.623047" xlink:href="#DejaVuSans-99"/>
      <use x="331.603516" xlink:href="#DejaVuSans-107"/>
      <use x="385.888672" xlink:href="#DejaVuSans-101"/>
      <use x="447.412109" xlink:href="#DejaVuSans-114"/>
     </g>
    </g>
   </g>
  </g>
 </g>
 <defs>
  <clipPath id="p999129d634">
   <rect height="482.465905" width="1177.045" x="83.6" y="46.6"/>
  </clipPath>
 </defs>
</svg>
