<?xml version="1.0" encoding="utf-8" standalone="no"?>
<!DOCTYPE svg PUBLIC "-//W3C//DTD SVG 1.1//EN"
  "http://www.w3.org/Graphics/SVG/1.1/DTD/svg11.dtd">
<!-- Created with matplotlib (https://matplotlib.org/) -->
<svg height="648pt" version="1.1" viewBox="0 0 1584 648" width="1584pt" xmlns="http://www.w3.org/2000/svg" xmlns:xlink="http://www.w3.org/1999/xlink">
 <metadata>
  <rdf:RDF xmlns:cc="http://creativecommons.org/ns#" xmlns:dc="http://purl.org/dc/elements/1.1/" xmlns:rdf="http://www.w3.org/1999/02/22-rdf-syntax-ns#">
   <cc:Work>
    <dc:type rdf:resource="http://purl.org/dc/dcmitype/StillImage"/>
    <dc:date>2020-08-22T15:06:27.491540</dc:date>
    <dc:format>image/svg+xml</dc:format>
    <dc:creator>
     <cc:Agent>
      <dc:title>Matplotlib v3.3.1, https://matplotlib.org/</dc:title>
     </cc:Agent>
    </dc:creator>
   </cc:Work>
  </rdf:RDF>
 </metadata>
 <defs>
  <style type="text/css">*{stroke-linecap:butt;stroke-linejoin:round;}</style>
 </defs>
 <g id="figure_1">
  <g id="patch_1">
   <path d="M 0 648 
L 1584 648 
L 1584 0 
L 0 0 
z
" style="fill:none;"/>
  </g>
  <g id="axes_1">
   <g id="patch_2">
    <path d="M 83.6 529.065905 
L 1260.645 529.065905 
L 1260.645 46.6 
L 83.6 46.6 
z
" style="fill:#ffffff;"/>
   </g>
   <g id="patch_3">
    <path clip-path="url(#pa722668c54)" d="M 107.1409 529.065905 
L 125.97362 529.065905 
L 125.97362 200.563196 
L 107.1409 200.563196 
z
" style="fill:#2020df;"/>
   </g>
   <g id="patch_4">
    <path clip-path="url(#pa722668c54)" d="M 342.5499 529.065905 
L 361.38262 529.065905 
L 361.38262 223.124687 
L 342.5499 223.124687 
z
" style="fill:#2020df;"/>
   </g>
   <g id="patch_5">
    <path clip-path="url(#pa722668c54)" d="M 577.9589 529.065905 
L 596.79162 529.065905 
L 596.79162 260.635152 
L 577.9589 260.635152 
z
" style="fill:#2020df;"/>
   </g>
   <g id="patch_6">
    <path clip-path="url(#pa722668c54)" d="M 813.3679 529.065905 
L 832.20062 529.065905 
L 832.20062 277.415234 
L 813.3679 277.415234 
z
" style="fill:#2020df;"/>
   </g>
   <g id="patch_7">
    <path clip-path="url(#pa722668c54)" d="M 1048.7769 529.065905 
L 1067.60962 529.065905 
L 1067.60962 252.45138 
L 1048.7769 252.45138 
z
" style="fill:#2020df;"/>
   </g>
   <g id="patch_8">
    <path clip-path="url(#pa722668c54)" d="M 125.97362 529.065905 
L 144.80634 529.065905 
L 144.80634 242.677082 
L 125.97362 242.677082 
z
" style="fill:#5573cd;"/>
   </g>
   <g id="patch_9">
    <path clip-path="url(#pa722668c54)" d="M 361.38262 529.065905 
L 380.21534 529.065905 
L 380.21534 254.392969 
L 361.38262 254.392969 
z
" style="fill:#5573cd;"/>
   </g>
   <g id="patch_10">
    <path clip-path="url(#pa722668c54)" d="M 596.79162 529.065905 
L 615.62434 529.065905 
L 615.62434 283.511366 
L 596.79162 283.511366 
z
" style="fill:#5573cd;"/>
   </g>
   <g id="patch_11">
    <path clip-path="url(#pa722668c54)" d="M 832.20062 529.065905 
L 851.03334 529.065905 
L 851.03334 302.955943 
L 832.20062 302.955943 
z
" style="fill:#5573cd;"/>
   </g>
   <g id="patch_12">
    <path clip-path="url(#pa722668c54)" d="M 1067.60962 529.065905 
L 1086.44234 529.065905 
L 1086.44234 282.47222 
L 1067.60962 282.47222 
z
" style="fill:#5573cd;"/>
   </g>
   <g id="patch_13">
    <path clip-path="url(#pa722668c54)" d="M 144.80634 529.065905 
L 163.63906 529.065905 
L 163.63906 246.159639 
L 144.80634 246.159639 
z
" style="fill:#3a90e3;"/>
   </g>
   <g id="patch_14">
    <path clip-path="url(#pa722668c54)" d="M 380.21534 529.065905 
L 399.04806 529.065905 
L 399.04806 275.846054 
L 380.21534 275.846054 
z
" style="fill:#3a90e3;"/>
   </g>
   <g id="patch_15">
    <path clip-path="url(#pa722668c54)" d="M 615.62434 529.065905 
L 634.45706 529.065905 
L 634.45706 311.78479 
L 615.62434 311.78479 
z
" style="fill:#3a90e3;"/>
   </g>
   <g id="patch_16">
    <path clip-path="url(#pa722668c54)" d="M 851.03334 529.065905 
L 869.86606 529.065905 
L 869.86606 326.797408 
L 851.03334 326.797408 
z
" style="fill:#3a90e3;"/>
   </g>
   <g id="patch_17">
    <path clip-path="url(#pa722668c54)" d="M 1086.44234 529.065905 
L 1105.27506 529.065905 
L 1105.27506 307.257517 
L 1086.44234 307.257517 
z
" style="fill:#3a90e3;"/>
   </g>
   <g id="patch_18">
    <path clip-path="url(#pa722668c54)" d="M 163.63906 529.065905 
L 182.47178 529.065905 
L 182.47178 226.186322 
L 163.63906 226.186322 
z
" style="fill:#94c9de;"/>
   </g>
   <g id="patch_19">
    <path clip-path="url(#pa722668c54)" d="M 399.04806 529.065905 
L 417.88078 529.065905 
L 417.88078 243.871758 
L 399.04806 243.871758 
z
" style="fill:#94c9de;"/>
   </g>
   <g id="patch_20">
    <path clip-path="url(#pa722668c54)" d="M 634.45706 529.065905 
L 653.28978 529.065905 
L 653.28978 269.603791 
L 634.45706 269.603791 
z
" style="fill:#94c9de;"/>
   </g>
   <g id="patch_21">
    <path clip-path="url(#pa722668c54)" d="M 869.86606 529.065905 
L 888.69878 529.065905 
L 888.69878 276.144874 
L 869.86606 276.144874 
z
" style="fill:#94c9de;"/>
   </g>
   <g id="patch_22">
    <path clip-path="url(#pa722668c54)" d="M 1105.27506 529.065905 
L 1124.10778 529.065905 
L 1124.10778 236.945771 
L 1105.27506 236.945771 
z
" style="fill:#94c9de;"/>
   </g>
   <g id="patch_23">
    <path clip-path="url(#pa722668c54)" d="M 182.47178 529.065905 
L 201.3045 529.065905 
L 201.3045 220.319917 
L 182.47178 220.319917 
z
" style="fill:#bf6a6a;"/>
   </g>
   <g id="patch_24">
    <path clip-path="url(#pa722668c54)" d="M 417.88078 529.065905 
L 436.7135 529.065905 
L 436.7135 231.217739 
L 417.88078 231.217739 
z
" style="fill:#bf6a6a;"/>
   </g>
   <g id="patch_25">
    <path clip-path="url(#pa722668c54)" d="M 653.28978 529.065905 
L 672.1225 529.065905 
L 672.1225 262.342256 
L 653.28978 262.342256 
z
" style="fill:#bf6a6a;"/>
   </g>
   <g id="patch_26">
    <path clip-path="url(#pa722668c54)" d="M 888.69878 529.065905 
L 907.5315 529.065905 
L 907.5315 273.234722 
L 888.69878 273.234722 
z
" style="fill:#bf6a6a;"/>
   </g>
   <g id="patch_27">
    <path clip-path="url(#pa722668c54)" d="M 1124.10778 529.065905 
L 1142.9405 529.065905 
L 1142.9405 236.079218 
L 1124.10778 236.079218 
z
" style="fill:#bf6a6a;"/>
   </g>
   <g id="patch_28">
    <path clip-path="url(#pa722668c54)" d="M 201.3045 529.065905 
L 220.13722 529.065905 
L 220.13722 237.858658 
L 201.3045 237.858658 
z
" style="fill:#e98e83;"/>
   </g>
   <g id="patch_29">
    <path clip-path="url(#pa722668c54)" d="M 436.7135 529.065905 
L 455.54622 529.065905 
L 455.54622 261.276398 
L 436.7135 261.276398 
z
" style="fill:#e98e83;"/>
   </g>
   <g id="patch_30">
    <path clip-path="url(#pa722668c54)" d="M 672.1225 529.065905 
L 690.95522 529.065905 
L 690.95522 298.540403 
L 672.1225 298.540403 
z
" style="fill:#e98e83;"/>
   </g>
   <g id="patch_31">
    <path clip-path="url(#pa722668c54)" d="M 907.5315 529.065905 
L 926.36422 529.065905 
L 926.36422 314.915145 
L 907.5315 314.915145 
z
" style="fill:#e98e83;"/>
   </g>
   <g id="patch_32">
    <path clip-path="url(#pa722668c54)" d="M 1142.9405 529.065905 
L 1161.77322 529.065905 
L 1161.77322 290.790138 
L 1142.9405 290.790138 
z
" style="fill:#e98e83;"/>
   </g>
   <g id="patch_33">
    <path clip-path="url(#pa722668c54)" d="M 220.13722 529.065905 
L 238.96994 529.065905 
L 238.96994 281.780769 
L 220.13722 281.780769 
z
" style="fill:#e2a673;"/>
   </g>
   <g id="patch_34">
    <path clip-path="url(#pa722668c54)" d="M 455.54622 529.065905 
L 474.37894 529.065905 
L 474.37894 298.975648 
L 455.54622 298.975648 
z
" style="fill:#e2a673;"/>
   </g>
   <g id="patch_35">
    <path clip-path="url(#pa722668c54)" d="M 690.95522 529.065905 
L 709.78794 529.065905 
L 709.78794 330.651315 
L 690.95522 330.651315 
z
" style="fill:#e2a673;"/>
   </g>
   <g id="patch_36">
    <path clip-path="url(#pa722668c54)" d="M 926.36422 529.065905 
L 945.19694 529.065905 
L 945.19694 340.909162 
L 926.36422 340.909162 
z
" style="fill:#e2a673;"/>
   </g>
   <g id="patch_37">
    <path clip-path="url(#pa722668c54)" d="M 1161.77322 529.065905 
L 1180.60594 529.065905 
L 1180.60594 317.773462 
L 1161.77322 317.773462 
z
" style="fill:#e2a673;"/>
   </g>
   <g id="patch_38">
    <path clip-path="url(#pa722668c54)" d="M 238.96994 529.065905 
L 257.80266 529.065905 
L 257.80266 264.061544 
L 238.96994 264.061544 
z
" style="fill:#bb8551;"/>
   </g>
   <g id="patch_39">
    <path clip-path="url(#pa722668c54)" d="M 474.37894 529.065905 
L 493.21166 529.065905 
L 493.21166 266.108684 
L 474.37894 266.108684 
z
" style="fill:#bb8551;"/>
   </g>
   <g id="patch_40">
    <path clip-path="url(#pa722668c54)" d="M 709.78794 529.065905 
L 728.62066 529.065905 
L 728.62066 291.319566 
L 709.78794 291.319566 
z
" style="fill:#bb8551;"/>
   </g>
   <g id="patch_41">
    <path clip-path="url(#pa722668c54)" d="M 945.19694 529.065905 
L 964.02966 529.065905 
L 964.02966 292.668324 
L 945.19694 292.668324 
z
" style="fill:#bb8551;"/>
   </g>
   <g id="patch_42">
    <path clip-path="url(#pa722668c54)" d="M 1180.60594 529.065905 
L 1199.43866 529.065905 
L 1199.43866 249.313405 
L 1180.60594 249.313405 
z
" style="fill:#bb8551;"/>
   </g>
   <g id="patch_43">
    <path clip-path="url(#pa722668c54)" d="M 257.80266 529.065905 
L 276.63538 529.065905 
L 276.63538 201.266858 
L 257.80266 201.266858 
z
" style="fill:#987dce;"/>
   </g>
   <g id="patch_44">
    <path clip-path="url(#pa722668c54)" d="M 493.21166 529.065905 
L 512.04438 529.065905 
L 512.04438 235.308305 
L 493.21166 235.308305 
z
" style="fill:#987dce;"/>
   </g>
   <g id="patch_45">
    <path clip-path="url(#pa722668c54)" d="M 728.62066 529.065905 
L 747.45338 529.065905 
L 747.45338 304.6887 
L 728.62066 304.6887 
z
" style="fill:#987dce;"/>
   </g>
   <g id="patch_46">
    <path clip-path="url(#pa722668c54)" d="M 964.02966 529.065905 
L 982.86238 529.065905 
L 982.86238 320.396996 
L 964.02966 320.396996 
z
" style="fill:#987dce;"/>
   </g>
   <g id="patch_47">
    <path clip-path="url(#pa722668c54)" d="M 1199.43866 529.065905 
L 1218.27138 529.065905 
L 1218.27138 294.578604 
L 1199.43866 294.578604 
z
" style="fill:#987dce;"/>
   </g>
   <g id="patch_48">
    <path clip-path="url(#pa722668c54)" d="M 276.63538 529.065905 
L 295.4681 529.065905 
L 295.4681 362.439282 
L 276.63538 362.439282 
z
" style="fill:#d5a8d5;"/>
   </g>
   <g id="patch_49">
    <path clip-path="url(#pa722668c54)" d="M 512.04438 529.065905 
L 530.8771 529.065905 
L 530.8771 376.054699 
L 512.04438 376.054699 
z
" style="fill:#d5a8d5;"/>
   </g>
   <g id="patch_50">
    <path clip-path="url(#pa722668c54)" d="M 747.45338 529.065905 
L 766.2861 529.065905 
L 766.2861 370.902037 
L 747.45338 370.902037 
z
" style="fill:#d5a8d5;"/>
   </g>
   <g id="patch_51">
    <path clip-path="url(#pa722668c54)" d="M 982.86238 529.065905 
L 1001.6951 529.065905 
L 1001.6951 350.855402 
L 982.86238 350.855402 
z
" style="fill:#d5a8d5;"/>
   </g>
   <g id="patch_52">
    <path clip-path="url(#pa722668c54)" d="M 1218.27138 529.065905 
L 1237.1041 529.065905 
L 1237.1041 289.292281 
L 1218.27138 289.292281 
z
" style="fill:#d5a8d5;"/>
   </g>
   <g id="matplotlib.axis_1">
    <g id="xtick_1">
     <g id="line2d_1">
      <defs>
       <path d="M 0 0 
L 0 3.5 
" id="m36c32c5b43" style="stroke:#000000;stroke-width:0.8;"/>
      </defs>
      <g>
       <use style="stroke:#000000;stroke-width:0.8;" x="201.3045" xlink:href="#m36c32c5b43" y="529.065905"/>
      </g>
     </g>
     <g id="text_1">
      <!-- very rare -->
      <g transform="translate(158.72739 574.327418)rotate(-15)scale(0.2 -0.2)">
       <defs>
        <path d="M 2.984375 54.6875 
L 12.5 54.6875 
L 29.59375 8.796875 
L 46.6875 54.6875 
L 56.203125 54.6875 
L 35.6875 0 
L 23.484375 0 
z
" id="DejaVuSans-118"/>
        <path d="M 56.203125 29.59375 
L 56.203125 25.203125 
L 14.890625 25.203125 
Q 15.484375 15.921875 20.484375 11.0625 
Q 25.484375 6.203125 34.421875 6.203125 
Q 39.59375 6.203125 44.453125 7.46875 
Q 49.3125 8.734375 54.109375 11.28125 
L 54.109375 2.78125 
Q 49.265625 0.734375 44.1875 -0.34375 
Q 39.109375 -1.421875 33.890625 -1.421875 
Q 20.796875 -1.421875 13.15625 6.1875 
Q 5.515625 13.8125 5.515625 26.8125 
Q 5.515625 40.234375 12.765625 48.109375 
Q 20.015625 56 32.328125 56 
Q 43.359375 56 49.78125 48.890625 
Q 56.203125 41.796875 56.203125 29.59375 
z
M 47.21875 32.234375 
Q 47.125 39.59375 43.09375 43.984375 
Q 39.0625 48.390625 32.421875 48.390625 
Q 24.90625 48.390625 20.390625 44.140625 
Q 15.875 39.890625 15.1875 32.171875 
z
" id="DejaVuSans-101"/>
        <path d="M 41.109375 46.296875 
Q 39.59375 47.171875 37.8125 47.578125 
Q 36.03125 48 33.890625 48 
Q 26.265625 48 22.1875 43.046875 
Q 18.109375 38.09375 18.109375 28.8125 
L 18.109375 0 
L 9.078125 0 
L 9.078125 54.6875 
L 18.109375 54.6875 
L 18.109375 46.1875 
Q 20.953125 51.171875 25.484375 53.578125 
Q 30.03125 56 36.53125 56 
Q 37.453125 56 38.578125 55.875 
Q 39.703125 55.765625 41.0625 55.515625 
z
" id="DejaVuSans-114"/>
        <path d="M 32.171875 -5.078125 
Q 28.375 -14.84375 24.75 -17.8125 
Q 21.140625 -20.796875 15.09375 -20.796875 
L 7.90625 -20.796875 
L 7.90625 -13.28125 
L 13.1875 -13.28125 
Q 16.890625 -13.28125 18.9375 -11.515625 
Q 21 -9.765625 23.484375 -3.21875 
L 25.09375 0.875 
L 2.984375 54.6875 
L 12.5 54.6875 
L 29.59375 11.921875 
L 46.6875 54.6875 
L 56.203125 54.6875 
z
" id="DejaVuSans-121"/>
        <path id="DejaVuSans-32"/>
        <path d="M 34.28125 27.484375 
Q 23.390625 27.484375 19.1875 25 
Q 14.984375 22.515625 14.984375 16.5 
Q 14.984375 11.71875 18.140625 8.90625 
Q 21.296875 6.109375 26.703125 6.109375 
Q 34.1875 6.109375 38.703125 11.40625 
Q 43.21875 16.703125 43.21875 25.484375 
L 43.21875 27.484375 
z
M 52.203125 31.203125 
L 52.203125 0 
L 43.21875 0 
L 43.21875 8.296875 
Q 40.140625 3.328125 35.546875 0.953125 
Q 30.953125 -1.421875 24.3125 -1.421875 
Q 15.921875 -1.421875 10.953125 3.296875 
Q 6 8.015625 6 15.921875 
Q 6 25.140625 12.171875 29.828125 
Q 18.359375 34.515625 30.609375 34.515625 
L 43.21875 34.515625 
L 43.21875 35.40625 
Q 43.21875 41.609375 39.140625 45 
Q 35.0625 48.390625 27.6875 48.390625 
Q 23 48.390625 18.546875 47.265625 
Q 14.109375 46.140625 10.015625 43.890625 
L 10.015625 52.203125 
Q 14.9375 54.109375 19.578125 55.046875 
Q 24.21875 56 28.609375 56 
Q 40.484375 56 46.34375 49.84375 
Q 52.203125 43.703125 52.203125 31.203125 
z
" id="DejaVuSans-97"/>
       </defs>
       <use xlink:href="#DejaVuSans-118"/>
       <use x="59.179688" xlink:href="#DejaVuSans-101"/>
       <use x="120.703125" xlink:href="#DejaVuSans-114"/>
       <use x="161.816406" xlink:href="#DejaVuSans-121"/>
       <use x="220.996094" xlink:href="#DejaVuSans-32"/>
       <use x="252.783203" xlink:href="#DejaVuSans-114"/>
       <use x="293.896484" xlink:href="#DejaVuSans-97"/>
       <use x="355.175781" xlink:href="#DejaVuSans-114"/>
       <use x="394.039062" xlink:href="#DejaVuSans-101"/>
      </g>
     </g>
    </g>
    <g id="xtick_2">
     <g id="line2d_2">
      <g>
       <use style="stroke:#000000;stroke-width:0.8;" x="436.7135" xlink:href="#m36c32c5b43" y="529.065905"/>
      </g>
     </g>
     <g id="text_2">
      <!-- rare -->
      <g transform="translate(418.554693 561.241689)rotate(-15)scale(0.2 -0.2)">
       <use xlink:href="#DejaVuSans-114"/>
       <use x="41.113281" xlink:href="#DejaVuSans-97"/>
       <use x="102.392578" xlink:href="#DejaVuSans-114"/>
       <use x="141.255859" xlink:href="#DejaVuSans-101"/>
      </g>
     </g>
    </g>
    <g id="xtick_3">
     <g id="line2d_3">
      <g>
       <use style="stroke:#000000;stroke-width:0.8;" x="672.1225" xlink:href="#m36c32c5b43" y="529.065905"/>
      </g>
     </g>
     <g id="text_3">
      <!-- common -->
      <g transform="translate(631.48026 573.290524)rotate(-15)scale(0.2 -0.2)">
       <defs>
        <path d="M 48.78125 52.59375 
L 48.78125 44.1875 
Q 44.96875 46.296875 41.140625 47.34375 
Q 37.3125 48.390625 33.40625 48.390625 
Q 24.65625 48.390625 19.8125 42.84375 
Q 14.984375 37.3125 14.984375 27.296875 
Q 14.984375 17.28125 19.8125 11.734375 
Q 24.65625 6.203125 33.40625 6.203125 
Q 37.3125 6.203125 41.140625 7.25 
Q 44.96875 8.296875 48.78125 10.40625 
L 48.78125 2.09375 
Q 45.015625 0.34375 40.984375 -0.53125 
Q 36.96875 -1.421875 32.421875 -1.421875 
Q 20.0625 -1.421875 12.78125 6.34375 
Q 5.515625 14.109375 5.515625 27.296875 
Q 5.515625 40.671875 12.859375 48.328125 
Q 20.21875 56 33.015625 56 
Q 37.15625 56 41.109375 55.140625 
Q 45.0625 54.296875 48.78125 52.59375 
z
" id="DejaVuSans-99"/>
        <path d="M 30.609375 48.390625 
Q 23.390625 48.390625 19.1875 42.75 
Q 14.984375 37.109375 14.984375 27.296875 
Q 14.984375 17.484375 19.15625 11.84375 
Q 23.34375 6.203125 30.609375 6.203125 
Q 37.796875 6.203125 41.984375 11.859375 
Q 46.1875 17.53125 46.1875 27.296875 
Q 46.1875 37.015625 41.984375 42.703125 
Q 37.796875 48.390625 30.609375 48.390625 
z
M 30.609375 56 
Q 42.328125 56 49.015625 48.375 
Q 55.71875 40.765625 55.71875 27.296875 
Q 55.71875 13.875 49.015625 6.21875 
Q 42.328125 -1.421875 30.609375 -1.421875 
Q 18.84375 -1.421875 12.171875 6.21875 
Q 5.515625 13.875 5.515625 27.296875 
Q 5.515625 40.765625 12.171875 48.375 
Q 18.84375 56 30.609375 56 
z
" id="DejaVuSans-111"/>
        <path d="M 52 44.1875 
Q 55.375 50.25 60.0625 53.125 
Q 64.75 56 71.09375 56 
Q 79.640625 56 84.28125 50.015625 
Q 88.921875 44.046875 88.921875 33.015625 
L 88.921875 0 
L 79.890625 0 
L 79.890625 32.71875 
Q 79.890625 40.578125 77.09375 44.375 
Q 74.3125 48.1875 68.609375 48.1875 
Q 61.625 48.1875 57.5625 43.546875 
Q 53.515625 38.921875 53.515625 30.90625 
L 53.515625 0 
L 44.484375 0 
L 44.484375 32.71875 
Q 44.484375 40.625 41.703125 44.40625 
Q 38.921875 48.1875 33.109375 48.1875 
Q 26.21875 48.1875 22.15625 43.53125 
Q 18.109375 38.875 18.109375 30.90625 
L 18.109375 0 
L 9.078125 0 
L 9.078125 54.6875 
L 18.109375 54.6875 
L 18.109375 46.1875 
Q 21.1875 51.21875 25.484375 53.609375 
Q 29.78125 56 35.6875 56 
Q 41.65625 56 45.828125 52.96875 
Q 50 49.953125 52 44.1875 
z
" id="DejaVuSans-109"/>
        <path d="M 54.890625 33.015625 
L 54.890625 0 
L 45.90625 0 
L 45.90625 32.71875 
Q 45.90625 40.484375 42.875 44.328125 
Q 39.84375 48.1875 33.796875 48.1875 
Q 26.515625 48.1875 22.3125 43.546875 
Q 18.109375 38.921875 18.109375 30.90625 
L 18.109375 0 
L 9.078125 0 
L 9.078125 54.6875 
L 18.109375 54.6875 
L 18.109375 46.1875 
Q 21.34375 51.125 25.703125 53.5625 
Q 30.078125 56 35.796875 56 
Q 45.21875 56 50.046875 50.171875 
Q 54.890625 44.34375 54.890625 33.015625 
z
" id="DejaVuSans-110"/>
       </defs>
       <use xlink:href="#DejaVuSans-99"/>
       <use x="54.980469" xlink:href="#DejaVuSans-111"/>
       <use x="116.162109" xlink:href="#DejaVuSans-109"/>
       <use x="213.574219" xlink:href="#DejaVuSans-109"/>
       <use x="310.986328" xlink:href="#DejaVuSans-111"/>
       <use x="372.167969" xlink:href="#DejaVuSans-110"/>
      </g>
     </g>
    </g>
    <g id="xtick_4">
     <g id="line2d_4">
      <g>
       <use style="stroke:#000000;stroke-width:0.8;" x="907.5315" xlink:href="#m36c32c5b43" y="529.065905"/>
      </g>
     </g>
     <g id="text_4">
      <!-- very common -->
      <g transform="translate(842.470957 586.376253)rotate(-15)scale(0.2 -0.2)">
       <use xlink:href="#DejaVuSans-118"/>
       <use x="59.179688" xlink:href="#DejaVuSans-101"/>
       <use x="120.703125" xlink:href="#DejaVuSans-114"/>
       <use x="161.816406" xlink:href="#DejaVuSans-121"/>
       <use x="220.996094" xlink:href="#DejaVuSans-32"/>
       <use x="252.783203" xlink:href="#DejaVuSans-99"/>
       <use x="307.763672" xlink:href="#DejaVuSans-111"/>
       <use x="368.945312" xlink:href="#DejaVuSans-109"/>
       <use x="466.357422" xlink:href="#DejaVuSans-109"/>
       <use x="563.769531" xlink:href="#DejaVuSans-111"/>
       <use x="624.951172" xlink:href="#DejaVuSans-110"/>
      </g>
     </g>
    </g>
    <g id="xtick_5">
     <g id="line2d_5">
      <g>
       <use style="stroke:#000000;stroke-width:0.8;" x="1142.9405" xlink:href="#m36c32c5b43" y="529.065905"/>
      </g>
     </g>
     <g id="text_5">
      <!-- very very common -->
      <g transform="translate(1053.461654 599.461983)rotate(-15)scale(0.2 -0.2)">
       <use xlink:href="#DejaVuSans-118"/>
       <use x="59.179688" xlink:href="#DejaVuSans-101"/>
       <use x="120.703125" xlink:href="#DejaVuSans-114"/>
       <use x="161.816406" xlink:href="#DejaVuSans-121"/>
       <use x="220.996094" xlink:href="#DejaVuSans-32"/>
       <use x="252.783203" xlink:href="#DejaVuSans-118"/>
       <use x="311.962891" xlink:href="#DejaVuSans-101"/>
       <use x="373.486328" xlink:href="#DejaVuSans-114"/>
       <use x="414.599609" xlink:href="#DejaVuSans-121"/>
       <use x="473.779297" xlink:href="#DejaVuSans-32"/>
       <use x="505.566406" xlink:href="#DejaVuSans-99"/>
       <use x="560.546875" xlink:href="#DejaVuSans-111"/>
       <use x="621.728516" xlink:href="#DejaVuSans-109"/>
       <use x="719.140625" xlink:href="#DejaVuSans-109"/>
       <use x="816.552734" xlink:href="#DejaVuSans-111"/>
       <use x="877.734375" xlink:href="#DejaVuSans-110"/>
      </g>
     </g>
    </g>
    <g id="text_6">
     <!-- Frequency of relaiton -->
     <g transform="translate(566.367812 622.676505)scale(0.2 -0.2)">
      <defs>
       <path d="M 9.8125 72.90625 
L 51.703125 72.90625 
L 51.703125 64.59375 
L 19.671875 64.59375 
L 19.671875 43.109375 
L 48.578125 43.109375 
L 48.578125 34.8125 
L 19.671875 34.8125 
L 19.671875 0 
L 9.8125 0 
z
" id="DejaVuSans-70"/>
       <path d="M 14.796875 27.296875 
Q 14.796875 17.390625 18.875 11.75 
Q 22.953125 6.109375 30.078125 6.109375 
Q 37.203125 6.109375 41.296875 11.75 
Q 45.40625 17.390625 45.40625 27.296875 
Q 45.40625 37.203125 41.296875 42.84375 
Q 37.203125 48.484375 30.078125 48.484375 
Q 22.953125 48.484375 18.875 42.84375 
Q 14.796875 37.203125 14.796875 27.296875 
z
M 45.40625 8.203125 
Q 42.578125 3.328125 38.25 0.953125 
Q 33.9375 -1.421875 27.875 -1.421875 
Q 17.96875 -1.421875 11.734375 6.484375 
Q 5.515625 14.40625 5.515625 27.296875 
Q 5.515625 40.1875 11.734375 48.09375 
Q 17.96875 56 27.875 56 
Q 33.9375 56 38.25 53.625 
Q 42.578125 51.265625 45.40625 46.390625 
L 45.40625 54.6875 
L 54.390625 54.6875 
L 54.390625 -20.796875 
L 45.40625 -20.796875 
z
" id="DejaVuSans-113"/>
       <path d="M 8.5 21.578125 
L 8.5 54.6875 
L 17.484375 54.6875 
L 17.484375 21.921875 
Q 17.484375 14.15625 20.5 10.265625 
Q 23.53125 6.390625 29.59375 6.390625 
Q 36.859375 6.390625 41.078125 11.03125 
Q 45.3125 15.671875 45.3125 23.6875 
L 45.3125 54.6875 
L 54.296875 54.6875 
L 54.296875 0 
L 45.3125 0 
L 45.3125 8.40625 
Q 42.046875 3.421875 37.71875 1 
Q 33.40625 -1.421875 27.6875 -1.421875 
Q 18.265625 -1.421875 13.375 4.4375 
Q 8.5 10.296875 8.5 21.578125 
z
M 31.109375 56 
z
" id="DejaVuSans-117"/>
       <path d="M 37.109375 75.984375 
L 37.109375 68.5 
L 28.515625 68.5 
Q 23.6875 68.5 21.796875 66.546875 
Q 19.921875 64.59375 19.921875 59.515625 
L 19.921875 54.6875 
L 34.71875 54.6875 
L 34.71875 47.703125 
L 19.921875 47.703125 
L 19.921875 0 
L 10.890625 0 
L 10.890625 47.703125 
L 2.296875 47.703125 
L 2.296875 54.6875 
L 10.890625 54.6875 
L 10.890625 58.5 
Q 10.890625 67.625 15.140625 71.796875 
Q 19.390625 75.984375 28.609375 75.984375 
z
" id="DejaVuSans-102"/>
       <path d="M 9.421875 75.984375 
L 18.40625 75.984375 
L 18.40625 0 
L 9.421875 0 
z
" id="DejaVuSans-108"/>
       <path d="M 9.421875 54.6875 
L 18.40625 54.6875 
L 18.40625 0 
L 9.421875 0 
z
M 9.421875 75.984375 
L 18.40625 75.984375 
L 18.40625 64.59375 
L 9.421875 64.59375 
z
" id="DejaVuSans-105"/>
       <path d="M 18.3125 70.21875 
L 18.3125 54.6875 
L 36.8125 54.6875 
L 36.8125 47.703125 
L 18.3125 47.703125 
L 18.3125 18.015625 
Q 18.3125 11.328125 20.140625 9.421875 
Q 21.96875 7.515625 27.59375 7.515625 
L 36.8125 7.515625 
L 36.8125 0 
L 27.59375 0 
Q 17.1875 0 13.234375 3.875 
Q 9.28125 7.765625 9.28125 18.015625 
L 9.28125 47.703125 
L 2.6875 47.703125 
L 2.6875 54.6875 
L 9.28125 54.6875 
L 9.28125 70.21875 
z
" id="DejaVuSans-116"/>
      </defs>
      <use xlink:href="#DejaVuSans-70"/>
      <use x="50.269531" xlink:href="#DejaVuSans-114"/>
      <use x="89.132812" xlink:href="#DejaVuSans-101"/>
      <use x="150.65625" xlink:href="#DejaVuSans-113"/>
      <use x="214.132812" xlink:href="#DejaVuSans-117"/>
      <use x="277.511719" xlink:href="#DejaVuSans-101"/>
      <use x="339.035156" xlink:href="#DejaVuSans-110"/>
      <use x="402.414062" xlink:href="#DejaVuSans-99"/>
      <use x="457.394531" xlink:href="#DejaVuSans-121"/>
      <use x="516.574219" xlink:href="#DejaVuSans-32"/>
      <use x="548.361328" xlink:href="#DejaVuSans-111"/>
      <use x="609.542969" xlink:href="#DejaVuSans-102"/>
      <use x="644.748047" xlink:href="#DejaVuSans-32"/>
      <use x="676.535156" xlink:href="#DejaVuSans-114"/>
      <use x="715.398438" xlink:href="#DejaVuSans-101"/>
      <use x="776.921875" xlink:href="#DejaVuSans-108"/>
      <use x="804.705078" xlink:href="#DejaVuSans-97"/>
      <use x="865.984375" xlink:href="#DejaVuSans-105"/>
      <use x="893.767578" xlink:href="#DejaVuSans-116"/>
      <use x="932.976562" xlink:href="#DejaVuSans-111"/>
      <use x="994.158203" xlink:href="#DejaVuSans-110"/>
     </g>
    </g>
   </g>
   <g id="matplotlib.axis_2">
    <g id="ytick_1">
     <g id="line2d_6">
      <defs>
       <path d="M 0 0 
L -3.5 0 
" id="mc4e447d57c" style="stroke:#000000;stroke-width:0.8;"/>
      </defs>
      <g>
       <use style="stroke:#000000;stroke-width:0.8;" x="83.6" xlink:href="#mc4e447d57c" y="529.065905"/>
      </g>
     </g>
     <g id="text_7">
      <!-- 0.0 -->
      <g transform="translate(44.79375 536.664343)scale(0.2 -0.2)">
       <defs>
        <path d="M 31.78125 66.40625 
Q 24.171875 66.40625 20.328125 58.90625 
Q 16.5 51.421875 16.5 36.375 
Q 16.5 21.390625 20.328125 13.890625 
Q 24.171875 6.390625 31.78125 6.390625 
Q 39.453125 6.390625 43.28125 13.890625 
Q 47.125 21.390625 47.125 36.375 
Q 47.125 51.421875 43.28125 58.90625 
Q 39.453125 66.40625 31.78125 66.40625 
z
M 31.78125 74.21875 
Q 44.046875 74.21875 50.515625 64.515625 
Q 56.984375 54.828125 56.984375 36.375 
Q 56.984375 17.96875 50.515625 8.265625 
Q 44.046875 -1.421875 31.78125 -1.421875 
Q 19.53125 -1.421875 13.0625 8.265625 
Q 6.59375 17.96875 6.59375 36.375 
Q 6.59375 54.828125 13.0625 64.515625 
Q 19.53125 74.21875 31.78125 74.21875 
z
" id="DejaVuSans-48"/>
        <path d="M 10.6875 12.40625 
L 21 12.40625 
L 21 0 
L 10.6875 0 
z
" id="DejaVuSans-46"/>
       </defs>
       <use xlink:href="#DejaVuSans-48"/>
       <use x="63.623047" xlink:href="#DejaVuSans-46"/>
       <use x="95.410156" xlink:href="#DejaVuSans-48"/>
      </g>
     </g>
    </g>
    <g id="ytick_2">
     <g id="line2d_7">
      <g>
       <use style="stroke:#000000;stroke-width:0.8;" x="83.6" xlink:href="#mc4e447d57c" y="450.445863"/>
      </g>
     </g>
     <g id="text_8">
      <!-- 0.1 -->
      <g transform="translate(44.79375 458.0443)scale(0.2 -0.2)">
       <defs>
        <path d="M 12.40625 8.296875 
L 28.515625 8.296875 
L 28.515625 63.921875 
L 10.984375 60.40625 
L 10.984375 69.390625 
L 28.421875 72.90625 
L 38.28125 72.90625 
L 38.28125 8.296875 
L 54.390625 8.296875 
L 54.390625 0 
L 12.40625 0 
z
" id="DejaVuSans-49"/>
       </defs>
       <use xlink:href="#DejaVuSans-48"/>
       <use x="63.623047" xlink:href="#DejaVuSans-46"/>
       <use x="95.410156" xlink:href="#DejaVuSans-49"/>
      </g>
     </g>
    </g>
    <g id="ytick_3">
     <g id="line2d_8">
      <g>
       <use style="stroke:#000000;stroke-width:0.8;" x="83.6" xlink:href="#mc4e447d57c" y="371.82582"/>
      </g>
     </g>
     <g id="text_9">
      <!-- 0.2 -->
      <g transform="translate(44.79375 379.424258)scale(0.2 -0.2)">
       <defs>
        <path d="M 19.1875 8.296875 
L 53.609375 8.296875 
L 53.609375 0 
L 7.328125 0 
L 7.328125 8.296875 
Q 12.9375 14.109375 22.625 23.890625 
Q 32.328125 33.6875 34.8125 36.53125 
Q 39.546875 41.84375 41.421875 45.53125 
Q 43.3125 49.21875 43.3125 52.78125 
Q 43.3125 58.59375 39.234375 62.25 
Q 35.15625 65.921875 28.609375 65.921875 
Q 23.96875 65.921875 18.8125 64.3125 
Q 13.671875 62.703125 7.8125 59.421875 
L 7.8125 69.390625 
Q 13.765625 71.78125 18.9375 73 
Q 24.125 74.21875 28.421875 74.21875 
Q 39.75 74.21875 46.484375 68.546875 
Q 53.21875 62.890625 53.21875 53.421875 
Q 53.21875 48.921875 51.53125 44.890625 
Q 49.859375 40.875 45.40625 35.40625 
Q 44.1875 33.984375 37.640625 27.21875 
Q 31.109375 20.453125 19.1875 8.296875 
z
" id="DejaVuSans-50"/>
       </defs>
       <use xlink:href="#DejaVuSans-48"/>
       <use x="63.623047" xlink:href="#DejaVuSans-46"/>
       <use x="95.410156" xlink:href="#DejaVuSans-50"/>
      </g>
     </g>
    </g>
    <g id="ytick_4">
     <g id="line2d_9">
      <g>
       <use style="stroke:#000000;stroke-width:0.8;" x="83.6" xlink:href="#mc4e447d57c" y="293.205777"/>
      </g>
     </g>
     <g id="text_10">
      <!-- 0.3 -->
      <g transform="translate(44.79375 300.804215)scale(0.2 -0.2)">
       <defs>
        <path d="M 40.578125 39.3125 
Q 47.65625 37.796875 51.625 33 
Q 55.609375 28.21875 55.609375 21.1875 
Q 55.609375 10.40625 48.1875 4.484375 
Q 40.765625 -1.421875 27.09375 -1.421875 
Q 22.515625 -1.421875 17.65625 -0.515625 
Q 12.796875 0.390625 7.625 2.203125 
L 7.625 11.71875 
Q 11.71875 9.328125 16.59375 8.109375 
Q 21.484375 6.890625 26.8125 6.890625 
Q 36.078125 6.890625 40.9375 10.546875 
Q 45.796875 14.203125 45.796875 21.1875 
Q 45.796875 27.640625 41.28125 31.265625 
Q 36.765625 34.90625 28.71875 34.90625 
L 20.21875 34.90625 
L 20.21875 43.015625 
L 29.109375 43.015625 
Q 36.375 43.015625 40.234375 45.921875 
Q 44.09375 48.828125 44.09375 54.296875 
Q 44.09375 59.90625 40.109375 62.90625 
Q 36.140625 65.921875 28.71875 65.921875 
Q 24.65625 65.921875 20.015625 65.03125 
Q 15.375 64.15625 9.8125 62.3125 
L 9.8125 71.09375 
Q 15.4375 72.65625 20.34375 73.4375 
Q 25.25 74.21875 29.59375 74.21875 
Q 40.828125 74.21875 47.359375 69.109375 
Q 53.90625 64.015625 53.90625 55.328125 
Q 53.90625 49.265625 50.4375 45.09375 
Q 46.96875 40.921875 40.578125 39.3125 
z
" id="DejaVuSans-51"/>
       </defs>
       <use xlink:href="#DejaVuSans-48"/>
       <use x="63.623047" xlink:href="#DejaVuSans-46"/>
       <use x="95.410156" xlink:href="#DejaVuSans-51"/>
      </g>
     </g>
    </g>
    <g id="ytick_5">
     <g id="line2d_10">
      <g>
       <use style="stroke:#000000;stroke-width:0.8;" x="83.6" xlink:href="#mc4e447d57c" y="214.585735"/>
      </g>
     </g>
     <g id="text_11">
      <!-- 0.4 -->
      <g transform="translate(44.79375 222.184172)scale(0.2 -0.2)">
       <defs>
        <path d="M 37.796875 64.3125 
L 12.890625 25.390625 
L 37.796875 25.390625 
z
M 35.203125 72.90625 
L 47.609375 72.90625 
L 47.609375 25.390625 
L 58.015625 25.390625 
L 58.015625 17.1875 
L 47.609375 17.1875 
L 47.609375 0 
L 37.796875 0 
L 37.796875 17.1875 
L 4.890625 17.1875 
L 4.890625 26.703125 
z
" id="DejaVuSans-52"/>
       </defs>
       <use xlink:href="#DejaVuSans-48"/>
       <use x="63.623047" xlink:href="#DejaVuSans-46"/>
       <use x="95.410156" xlink:href="#DejaVuSans-52"/>
      </g>
     </g>
    </g>
    <g id="ytick_6">
     <g id="line2d_11">
      <g>
       <use style="stroke:#000000;stroke-width:0.8;" x="83.6" xlink:href="#mc4e447d57c" y="135.965692"/>
      </g>
     </g>
     <g id="text_12">
      <!-- 0.5 -->
      <g transform="translate(44.79375 143.56413)scale(0.2 -0.2)">
       <defs>
        <path d="M 10.796875 72.90625 
L 49.515625 72.90625 
L 49.515625 64.59375 
L 19.828125 64.59375 
L 19.828125 46.734375 
Q 21.96875 47.46875 24.109375 47.828125 
Q 26.265625 48.1875 28.421875 48.1875 
Q 40.625 48.1875 47.75 41.5 
Q 54.890625 34.8125 54.890625 23.390625 
Q 54.890625 11.625 47.5625 5.09375 
Q 40.234375 -1.421875 26.90625 -1.421875 
Q 22.3125 -1.421875 17.546875 -0.640625 
Q 12.796875 0.140625 7.71875 1.703125 
L 7.71875 11.625 
Q 12.109375 9.234375 16.796875 8.0625 
Q 21.484375 6.890625 26.703125 6.890625 
Q 35.15625 6.890625 40.078125 11.328125 
Q 45.015625 15.765625 45.015625 23.390625 
Q 45.015625 31 40.078125 35.4375 
Q 35.15625 39.890625 26.703125 39.890625 
Q 22.75 39.890625 18.8125 39.015625 
Q 14.890625 38.140625 10.796875 36.28125 
z
" id="DejaVuSans-53"/>
       </defs>
       <use xlink:href="#DejaVuSans-48"/>
       <use x="63.623047" xlink:href="#DejaVuSans-46"/>
       <use x="95.410156" xlink:href="#DejaVuSans-53"/>
      </g>
     </g>
    </g>
    <g id="ytick_7">
     <g id="line2d_12">
      <g>
       <use style="stroke:#000000;stroke-width:0.8;" x="83.6" xlink:href="#mc4e447d57c" y="57.34565"/>
      </g>
     </g>
     <g id="text_13">
      <!-- 0.6 -->
      <g transform="translate(44.79375 64.944087)scale(0.2 -0.2)">
       <defs>
        <path d="M 33.015625 40.375 
Q 26.375 40.375 22.484375 35.828125 
Q 18.609375 31.296875 18.609375 23.390625 
Q 18.609375 15.53125 22.484375 10.953125 
Q 26.375 6.390625 33.015625 6.390625 
Q 39.65625 6.390625 43.53125 10.953125 
Q 47.40625 15.53125 47.40625 23.390625 
Q 47.40625 31.296875 43.53125 35.828125 
Q 39.65625 40.375 33.015625 40.375 
z
M 52.59375 71.296875 
L 52.59375 62.3125 
Q 48.875 64.0625 45.09375 64.984375 
Q 41.3125 65.921875 37.59375 65.921875 
Q 27.828125 65.921875 22.671875 59.328125 
Q 17.53125 52.734375 16.796875 39.40625 
Q 19.671875 43.65625 24.015625 45.921875 
Q 28.375 48.1875 33.59375 48.1875 
Q 44.578125 48.1875 50.953125 41.515625 
Q 57.328125 34.859375 57.328125 23.390625 
Q 57.328125 12.15625 50.6875 5.359375 
Q 44.046875 -1.421875 33.015625 -1.421875 
Q 20.359375 -1.421875 13.671875 8.265625 
Q 6.984375 17.96875 6.984375 36.375 
Q 6.984375 53.65625 15.1875 63.9375 
Q 23.390625 74.21875 37.203125 74.21875 
Q 40.921875 74.21875 44.703125 73.484375 
Q 48.484375 72.75 52.59375 71.296875 
z
" id="DejaVuSans-54"/>
       </defs>
       <use xlink:href="#DejaVuSans-48"/>
       <use x="63.623047" xlink:href="#DejaVuSans-46"/>
       <use x="95.410156" xlink:href="#DejaVuSans-54"/>
      </g>
     </g>
    </g>
    <g id="text_14">
     <!-- Mean h@10 per relation -->
     <g transform="translate(36.634375 408.389203)rotate(-90)scale(0.2 -0.2)">
      <defs>
       <path d="M 9.8125 72.90625 
L 24.515625 72.90625 
L 43.109375 23.296875 
L 61.8125 72.90625 
L 76.515625 72.90625 
L 76.515625 0 
L 66.890625 0 
L 66.890625 64.015625 
L 48.09375 14.015625 
L 38.1875 14.015625 
L 19.390625 64.015625 
L 19.390625 0 
L 9.8125 0 
z
" id="DejaVuSans-77"/>
       <path d="M 54.890625 33.015625 
L 54.890625 0 
L 45.90625 0 
L 45.90625 32.71875 
Q 45.90625 40.484375 42.875 44.328125 
Q 39.84375 48.1875 33.796875 48.1875 
Q 26.515625 48.1875 22.3125 43.546875 
Q 18.109375 38.921875 18.109375 30.90625 
L 18.109375 0 
L 9.078125 0 
L 9.078125 75.984375 
L 18.109375 75.984375 
L 18.109375 46.1875 
Q 21.34375 51.125 25.703125 53.5625 
Q 30.078125 56 35.796875 56 
Q 45.21875 56 50.046875 50.171875 
Q 54.890625 44.34375 54.890625 33.015625 
z
" id="DejaVuSans-104"/>
       <path d="M 37.203125 26.21875 
Q 37.203125 19.234375 40.671875 15.25 
Q 44.140625 11.28125 50.203125 11.28125 
Q 56.203125 11.28125 59.640625 15.28125 
Q 63.09375 19.28125 63.09375 26.21875 
Q 63.09375 33.0625 59.578125 37.078125 
Q 56.0625 41.109375 50.09375 41.109375 
Q 44.1875 41.109375 40.6875 37.109375 
Q 37.203125 33.109375 37.203125 26.21875 
z
M 63.8125 11.625 
Q 60.890625 7.859375 57.109375 6.078125 
Q 53.328125 4.296875 48.296875 4.296875 
Q 39.890625 4.296875 34.640625 10.375 
Q 29.390625 16.453125 29.390625 26.21875 
Q 29.390625 35.984375 34.65625 42.078125 
Q 39.9375 48.1875 48.296875 48.1875 
Q 53.328125 48.1875 57.125 46.359375 
Q 60.9375 44.53125 63.8125 40.828125 
L 63.8125 47.21875 
L 70.796875 47.21875 
L 70.796875 11.28125 
Q 77.9375 12.359375 81.953125 17.796875 
Q 85.984375 23.25 85.984375 31.890625 
Q 85.984375 37.109375 84.4375 41.703125 
Q 82.90625 46.296875 79.78125 50.203125 
Q 74.703125 56.59375 67.40625 59.984375 
Q 60.109375 63.375 51.515625 63.375 
Q 45.515625 63.375 39.984375 61.78125 
Q 34.46875 60.203125 29.78125 57.078125 
Q 22.125 52.09375 17.796875 44.015625 
Q 13.484375 35.9375 13.484375 26.515625 
Q 13.484375 18.75 16.28125 11.953125 
Q 19.09375 5.171875 24.421875 0 
Q 29.546875 -5.078125 36.28125 -7.734375 
Q 43.015625 -10.40625 50.6875 -10.40625 
Q 56.984375 -10.40625 63.0625 -8.28125 
Q 69.140625 -6.15625 74.21875 -2.203125 
L 78.609375 -7.625 
Q 72.515625 -12.359375 65.3125 -14.875 
Q 58.109375 -17.390625 50.6875 -17.390625 
Q 41.65625 -17.390625 33.640625 -14.1875 
Q 25.640625 -10.984375 19.390625 -4.890625 
Q 13.140625 1.21875 9.859375 9.25 
Q 6.59375 17.28125 6.59375 26.515625 
Q 6.59375 35.40625 9.90625 43.453125 
Q 13.234375 51.515625 19.390625 57.625 
Q 25.6875 63.8125 33.9375 67.109375 
Q 42.1875 70.40625 51.421875 70.40625 
Q 61.765625 70.40625 70.625 66.15625 
Q 79.5 61.921875 85.5 54.109375 
Q 89.15625 49.3125 91.078125 43.703125 
Q 93.015625 38.09375 93.015625 32.078125 
Q 93.015625 19.234375 85.25 11.8125 
Q 77.484375 4.390625 63.8125 4.109375 
z
" id="DejaVuSans-64"/>
       <path d="M 18.109375 8.203125 
L 18.109375 -20.796875 
L 9.078125 -20.796875 
L 9.078125 54.6875 
L 18.109375 54.6875 
L 18.109375 46.390625 
Q 20.953125 51.265625 25.265625 53.625 
Q 29.59375 56 35.59375 56 
Q 45.5625 56 51.78125 48.09375 
Q 58.015625 40.1875 58.015625 27.296875 
Q 58.015625 14.40625 51.78125 6.484375 
Q 45.5625 -1.421875 35.59375 -1.421875 
Q 29.59375 -1.421875 25.265625 0.953125 
Q 20.953125 3.328125 18.109375 8.203125 
z
M 48.6875 27.296875 
Q 48.6875 37.203125 44.609375 42.84375 
Q 40.53125 48.484375 33.40625 48.484375 
Q 26.265625 48.484375 22.1875 42.84375 
Q 18.109375 37.203125 18.109375 27.296875 
Q 18.109375 17.390625 22.1875 11.75 
Q 26.265625 6.109375 33.40625 6.109375 
Q 40.53125 6.109375 44.609375 11.75 
Q 48.6875 17.390625 48.6875 27.296875 
z
" id="DejaVuSans-112"/>
      </defs>
      <use xlink:href="#DejaVuSans-77"/>
      <use x="86.279297" xlink:href="#DejaVuSans-101"/>
      <use x="147.802734" xlink:href="#DejaVuSans-97"/>
      <use x="209.082031" xlink:href="#DejaVuSans-110"/>
      <use x="272.460938" xlink:href="#DejaVuSans-32"/>
      <use x="304.248047" xlink:href="#DejaVuSans-104"/>
      <use x="367.626953" xlink:href="#DejaVuSans-64"/>
      <use x="467.626953" xlink:href="#DejaVuSans-49"/>
      <use x="531.25" xlink:href="#DejaVuSans-48"/>
      <use x="594.873047" xlink:href="#DejaVuSans-32"/>
      <use x="626.660156" xlink:href="#DejaVuSans-112"/>
      <use x="690.136719" xlink:href="#DejaVuSans-101"/>
      <use x="751.660156" xlink:href="#DejaVuSans-114"/>
      <use x="792.773438" xlink:href="#DejaVuSans-32"/>
      <use x="824.560547" xlink:href="#DejaVuSans-114"/>
      <use x="863.423828" xlink:href="#DejaVuSans-101"/>
      <use x="924.947266" xlink:href="#DejaVuSans-108"/>
      <use x="952.730469" xlink:href="#DejaVuSans-97"/>
      <use x="1014.009766" xlink:href="#DejaVuSans-116"/>
      <use x="1053.21875" xlink:href="#DejaVuSans-105"/>
      <use x="1081.001953" xlink:href="#DejaVuSans-111"/>
      <use x="1142.183594" xlink:href="#DejaVuSans-110"/>
     </g>
    </g>
   </g>
   <g id="line2d_13">
    <path clip-path="url(#pa722668c54)" d="M 116.55726 289.332266 
L 116.55726 111.794126 
" style="fill:none;stroke:#424242;stroke-linecap:square;stroke-width:2.7;"/>
   </g>
   <g id="line2d_14">
    <path clip-path="url(#pa722668c54)" d="M 351.96626 299.825626 
L 351.96626 146.423748 
" style="fill:none;stroke:#424242;stroke-linecap:square;stroke-width:2.7;"/>
   </g>
   <g id="line2d_15">
    <path clip-path="url(#pa722668c54)" d="M 587.37526 312.981012 
L 587.37526 208.289292 
" style="fill:none;stroke:#424242;stroke-linecap:square;stroke-width:2.7;"/>
   </g>
   <g id="line2d_16">
    <path clip-path="url(#pa722668c54)" d="M 822.78426 316.907178 
L 822.78426 237.923291 
" style="fill:none;stroke:#424242;stroke-linecap:square;stroke-width:2.7;"/>
   </g>
   <g id="line2d_17">
    <path clip-path="url(#pa722668c54)" d="M 1058.19326 288.208034 
L 1058.19326 216.694726 
" style="fill:none;stroke:#424242;stroke-linecap:square;stroke-width:2.7;"/>
   </g>
   <g id="line2d_18">
    <path clip-path="url(#pa722668c54)" d="M 135.38998 340.036932 
L 135.38998 145.317232 
" style="fill:none;stroke:#424242;stroke-linecap:square;stroke-width:2.7;"/>
   </g>
   <g id="line2d_19">
    <path clip-path="url(#pa722668c54)" d="M 370.79898 335.949008 
L 370.79898 172.83693 
" style="fill:none;stroke:#424242;stroke-linecap:square;stroke-width:2.7;"/>
   </g>
   <g id="line2d_20">
    <path clip-path="url(#pa722668c54)" d="M 606.20798 336.375872 
L 606.20798 230.64686 
" style="fill:none;stroke:#424242;stroke-linecap:square;stroke-width:2.7;"/>
   </g>
   <g id="line2d_21">
    <path clip-path="url(#pa722668c54)" d="M 841.61698 340.92492 
L 841.61698 264.986967 
" style="fill:none;stroke:#424242;stroke-linecap:square;stroke-width:2.7;"/>
   </g>
   <g id="line2d_22">
    <path clip-path="url(#pa722668c54)" d="M 1077.02598 317.730057 
L 1077.02598 247.214383 
" style="fill:none;stroke:#424242;stroke-linecap:square;stroke-width:2.7;"/>
   </g>
   <g id="line2d_23">
    <path clip-path="url(#pa722668c54)" d="M 154.2227 347.09066 
L 154.2227 145.228618 
" style="fill:none;stroke:#424242;stroke-linecap:square;stroke-width:2.7;"/>
   </g>
   <g id="line2d_24">
    <path clip-path="url(#pa722668c54)" d="M 389.6317 347.170282 
L 389.6317 204.521826 
" style="fill:none;stroke:#424242;stroke-linecap:square;stroke-width:2.7;"/>
   </g>
   <g id="line2d_25">
    <path clip-path="url(#pa722668c54)" d="M 625.0407 355.121754 
L 625.0407 268.447826 
" style="fill:none;stroke:#424242;stroke-linecap:square;stroke-width:2.7;"/>
   </g>
   <g id="line2d_26">
    <path clip-path="url(#pa722668c54)" d="M 860.4497 360.587674 
L 860.4497 293.007142 
" style="fill:none;stroke:#424242;stroke-linecap:square;stroke-width:2.7;"/>
   </g>
   <g id="line2d_27">
    <path clip-path="url(#pa722668c54)" d="M 1095.8587 340.217323 
L 1095.8587 274.29771 
" style="fill:none;stroke:#424242;stroke-linecap:square;stroke-width:2.7;"/>
   </g>
   <g id="line2d_28">
    <path clip-path="url(#pa722668c54)" d="M 173.05542 316.666968 
L 173.05542 135.705677 
" style="fill:none;stroke:#424242;stroke-linecap:square;stroke-width:2.7;"/>
   </g>
   <g id="line2d_29">
    <path clip-path="url(#pa722668c54)" d="M 408.46442 315.131889 
L 408.46442 172.611627 
" style="fill:none;stroke:#424242;stroke-linecap:square;stroke-width:2.7;"/>
   </g>
   <g id="line2d_30">
    <path clip-path="url(#pa722668c54)" d="M 643.87342 316.528281 
L 643.87342 222.679302 
" style="fill:none;stroke:#424242;stroke-linecap:square;stroke-width:2.7;"/>
   </g>
   <g id="line2d_31">
    <path clip-path="url(#pa722668c54)" d="M 879.28242 315.60512 
L 879.28242 236.684628 
" style="fill:none;stroke:#424242;stroke-linecap:square;stroke-width:2.7;"/>
   </g>
   <g id="line2d_32">
    <path clip-path="url(#pa722668c54)" d="M 1114.69142 274.914423 
L 1114.69142 198.97712 
" style="fill:none;stroke:#424242;stroke-linecap:square;stroke-width:2.7;"/>
   </g>
   <g id="line2d_33">
    <path clip-path="url(#pa722668c54)" d="M 191.88814 299.430157 
L 191.88814 141.209676 
" style="fill:none;stroke:#424242;stroke-linecap:square;stroke-width:2.7;"/>
   </g>
   <g id="line2d_34">
    <path clip-path="url(#pa722668c54)" d="M 427.29714 298.970048 
L 427.29714 163.465431 
" style="fill:none;stroke:#424242;stroke-linecap:square;stroke-width:2.7;"/>
   </g>
   <g id="line2d_35">
    <path clip-path="url(#pa722668c54)" d="M 662.70614 308.017439 
L 662.70614 216.667073 
" style="fill:none;stroke:#424242;stroke-linecap:square;stroke-width:2.7;"/>
   </g>
   <g id="line2d_36">
    <path clip-path="url(#pa722668c54)" d="M 898.11514 314.700818 
L 898.11514 231.768626 
" style="fill:none;stroke:#424242;stroke-linecap:square;stroke-width:2.7;"/>
   </g>
   <g id="line2d_37">
    <path clip-path="url(#pa722668c54)" d="M 1133.52414 273.627804 
L 1133.52414 198.530631 
" style="fill:none;stroke:#424242;stroke-linecap:square;stroke-width:2.7;"/>
   </g>
   <g id="line2d_38">
    <path clip-path="url(#pa722668c54)" d="M 210.72086 336.225653 
L 210.72086 139.491663 
" style="fill:none;stroke:#424242;stroke-linecap:square;stroke-width:2.7;"/>
   </g>
   <g id="line2d_39">
    <path clip-path="url(#pa722668c54)" d="M 446.12986 332.688806 
L 446.12986 189.86399 
" style="fill:none;stroke:#424242;stroke-linecap:square;stroke-width:2.7;"/>
   </g>
   <g id="line2d_40">
    <path clip-path="url(#pa722668c54)" d="M 681.53886 341.564582 
L 681.53886 255.516225 
" style="fill:none;stroke:#424242;stroke-linecap:square;stroke-width:2.7;"/>
   </g>
   <g id="line2d_41">
    <path clip-path="url(#pa722668c54)" d="M 916.94786 348.179818 
L 916.94786 281.650472 
" style="fill:none;stroke:#424242;stroke-linecap:square;stroke-width:2.7;"/>
   </g>
   <g id="line2d_42">
    <path clip-path="url(#pa722668c54)" d="M 1152.35686 324.602848 
L 1152.35686 256.977428 
" style="fill:none;stroke:#424242;stroke-linecap:square;stroke-width:2.7;"/>
   </g>
   <g id="line2d_43">
    <path clip-path="url(#pa722668c54)" d="M 229.55358 367.762012 
L 229.55358 195.799527 
" style="fill:none;stroke:#424242;stroke-linecap:square;stroke-width:2.7;"/>
   </g>
   <g id="line2d_44">
    <path clip-path="url(#pa722668c54)" d="M 464.96258 360.103648 
L 464.96258 237.847648 
" style="fill:none;stroke:#424242;stroke-linecap:square;stroke-width:2.7;"/>
   </g>
   <g id="line2d_45">
    <path clip-path="url(#pa722668c54)" d="M 700.37158 366.792383 
L 700.37158 294.510247 
" style="fill:none;stroke:#424242;stroke-linecap:square;stroke-width:2.7;"/>
   </g>
   <g id="line2d_46">
    <path clip-path="url(#pa722668c54)" d="M 935.78058 371.35797 
L 935.78058 310.460355 
" style="fill:none;stroke:#424242;stroke-linecap:square;stroke-width:2.7;"/>
   </g>
   <g id="line2d_47">
    <path clip-path="url(#pa722668c54)" d="M 1171.18958 346.83951 
L 1171.18958 288.707413 
" style="fill:none;stroke:#424242;stroke-linecap:square;stroke-width:2.7;"/>
   </g>
   <g id="line2d_48">
    <path clip-path="url(#pa722668c54)" d="M 248.3863 350.346101 
L 248.3863 177.776988 
" style="fill:none;stroke:#424242;stroke-linecap:square;stroke-width:2.7;"/>
   </g>
   <g id="line2d_49">
    <path clip-path="url(#pa722668c54)" d="M 483.7953 326.670105 
L 483.7953 205.547263 
" style="fill:none;stroke:#424242;stroke-linecap:square;stroke-width:2.7;"/>
   </g>
   <g id="line2d_50">
    <path clip-path="url(#pa722668c54)" d="M 719.2043 331.527159 
L 719.2043 251.111972 
" style="fill:none;stroke:#424242;stroke-linecap:square;stroke-width:2.7;"/>
   </g>
   <g id="line2d_51">
    <path clip-path="url(#pa722668c54)" d="M 954.6133 330.936474 
L 954.6133 254.400173 
" style="fill:none;stroke:#424242;stroke-linecap:square;stroke-width:2.7;"/>
   </g>
   <g id="line2d_52">
    <path clip-path="url(#pa722668c54)" d="M 1190.0223 284.946101 
L 1190.0223 213.680709 
" style="fill:none;stroke:#424242;stroke-linecap:square;stroke-width:2.7;"/>
   </g>
   <g id="line2d_53">
    <path clip-path="url(#pa722668c54)" d="M 267.21902 332.959149 
L 267.21902 69.574567 
" style="fill:none;stroke:#424242;stroke-linecap:square;stroke-width:2.7;"/>
   </g>
   <g id="line2d_54">
    <path clip-path="url(#pa722668c54)" d="M 502.62802 323.276079 
L 502.62802 147.340531 
" style="fill:none;stroke:#424242;stroke-linecap:square;stroke-width:2.7;"/>
   </g>
   <g id="line2d_55">
    <path clip-path="url(#pa722668c54)" d="M 738.03702 347.150597 
L 738.03702 262.226803 
" style="fill:none;stroke:#424242;stroke-linecap:square;stroke-width:2.7;"/>
   </g>
   <g id="line2d_56">
    <path clip-path="url(#pa722668c54)" d="M 973.44602 356.000132 
L 973.44602 284.793859 
" style="fill:none;stroke:#424242;stroke-linecap:square;stroke-width:2.7;"/>
   </g>
   <g id="line2d_57">
    <path clip-path="url(#pa722668c54)" d="M 1208.85502 328.362474 
L 1208.85502 260.794734 
" style="fill:none;stroke:#424242;stroke-linecap:square;stroke-width:2.7;"/>
   </g>
   <g id="line2d_58">
    <path clip-path="url(#pa722668c54)" d="M 286.05174 420.447341 
L 286.05174 304.431223 
" style="fill:none;stroke:#424242;stroke-linecap:square;stroke-width:2.7;"/>
   </g>
   <g id="line2d_59">
    <path clip-path="url(#pa722668c54)" d="M 521.46074 415.433364 
L 521.46074 336.676033 
" style="fill:none;stroke:#424242;stroke-linecap:square;stroke-width:2.7;"/>
   </g>
   <g id="line2d_60">
    <path clip-path="url(#pa722668c54)" d="M 756.86974 401.073143 
L 756.86974 340.730932 
" style="fill:none;stroke:#424242;stroke-linecap:square;stroke-width:2.7;"/>
   </g>
   <g id="line2d_61">
    <path clip-path="url(#pa722668c54)" d="M 992.27874 383.296023 
L 992.27874 318.414782 
" style="fill:none;stroke:#424242;stroke-linecap:square;stroke-width:2.7;"/>
   </g>
   <g id="line2d_62">
    <path clip-path="url(#pa722668c54)" d="M 1227.68774 324.889679 
L 1227.68774 253.694883 
" style="fill:none;stroke:#424242;stroke-linecap:square;stroke-width:2.7;"/>
   </g>
   <g id="patch_53">
    <path d="M 83.6 529.065905 
L 83.6 46.6 
" style="fill:none;stroke:#000000;stroke-linecap:square;stroke-linejoin:miter;stroke-width:0.8;"/>
   </g>
   <g id="patch_54">
    <path d="M 1260.645 529.065905 
L 1260.645 46.6 
" style="fill:none;stroke:#000000;stroke-linecap:square;stroke-linejoin:miter;stroke-width:0.8;"/>
   </g>
   <g id="patch_55">
    <path d="M 83.6 529.065905 
L 1260.645 529.065905 
" style="fill:none;stroke:#000000;stroke-linecap:square;stroke-linejoin:miter;stroke-width:0.8;"/>
   </g>
   <g id="patch_56">
    <path d="M 83.6 46.6 
L 1260.645 46.6 
" style="fill:none;stroke:#000000;stroke-linecap:square;stroke-linejoin:miter;stroke-width:0.8;"/>
   </g>
   <g id="text_15">
    <!-- H@10 model comparison performance per relation -->
    <g transform="translate(366.81625 40.6)scale(0.24 -0.24)">
     <defs>
      <path d="M 9.8125 72.90625 
L 19.671875 72.90625 
L 19.671875 43.015625 
L 55.515625 43.015625 
L 55.515625 72.90625 
L 65.375 72.90625 
L 65.375 0 
L 55.515625 0 
L 55.515625 34.71875 
L 19.671875 34.71875 
L 19.671875 0 
L 9.8125 0 
z
" id="DejaVuSans-72"/>
      <path d="M 45.40625 46.390625 
L 45.40625 75.984375 
L 54.390625 75.984375 
L 54.390625 0 
L 45.40625 0 
L 45.40625 8.203125 
Q 42.578125 3.328125 38.25 0.953125 
Q 33.9375 -1.421875 27.875 -1.421875 
Q 17.96875 -1.421875 11.734375 6.484375 
Q 5.515625 14.40625 5.515625 27.296875 
Q 5.515625 40.1875 11.734375 48.09375 
Q 17.96875 56 27.875 56 
Q 33.9375 56 38.25 53.625 
Q 42.578125 51.265625 45.40625 46.390625 
z
M 14.796875 27.296875 
Q 14.796875 17.390625 18.875 11.75 
Q 22.953125 6.109375 30.078125 6.109375 
Q 37.203125 6.109375 41.296875 11.75 
Q 45.40625 17.390625 45.40625 27.296875 
Q 45.40625 37.203125 41.296875 42.84375 
Q 37.203125 48.484375 30.078125 48.484375 
Q 22.953125 48.484375 18.875 42.84375 
Q 14.796875 37.203125 14.796875 27.296875 
z
" id="DejaVuSans-100"/>
      <path d="M 44.28125 53.078125 
L 44.28125 44.578125 
Q 40.484375 46.53125 36.375 47.5 
Q 32.28125 48.484375 27.875 48.484375 
Q 21.1875 48.484375 17.84375 46.4375 
Q 14.5 44.390625 14.5 40.28125 
Q 14.5 37.15625 16.890625 35.375 
Q 19.28125 33.59375 26.515625 31.984375 
L 29.59375 31.296875 
Q 39.15625 29.25 43.1875 25.515625 
Q 47.21875 21.78125 47.21875 15.09375 
Q 47.21875 7.46875 41.1875 3.015625 
Q 35.15625 -1.421875 24.609375 -1.421875 
Q 20.21875 -1.421875 15.453125 -0.5625 
Q 10.6875 0.296875 5.421875 2 
L 5.421875 11.28125 
Q 10.40625 8.6875 15.234375 7.390625 
Q 20.0625 6.109375 24.8125 6.109375 
Q 31.15625 6.109375 34.5625 8.28125 
Q 37.984375 10.453125 37.984375 14.40625 
Q 37.984375 18.0625 35.515625 20.015625 
Q 33.0625 21.96875 24.703125 23.78125 
L 21.578125 24.515625 
Q 13.234375 26.265625 9.515625 29.90625 
Q 5.8125 33.546875 5.8125 39.890625 
Q 5.8125 47.609375 11.28125 51.796875 
Q 16.75 56 26.8125 56 
Q 31.78125 56 36.171875 55.265625 
Q 40.578125 54.546875 44.28125 53.078125 
z
" id="DejaVuSans-115"/>
     </defs>
     <use xlink:href="#DejaVuSans-72"/>
     <use x="75.195312" xlink:href="#DejaVuSans-64"/>
     <use x="175.195312" xlink:href="#DejaVuSans-49"/>
     <use x="238.818359" xlink:href="#DejaVuSans-48"/>
     <use x="302.441406" xlink:href="#DejaVuSans-32"/>
     <use x="334.228516" xlink:href="#DejaVuSans-109"/>
     <use x="431.640625" xlink:href="#DejaVuSans-111"/>
     <use x="492.822266" xlink:href="#DejaVuSans-100"/>
     <use x="556.298828" xlink:href="#DejaVuSans-101"/>
     <use x="617.822266" xlink:href="#DejaVuSans-108"/>
     <use x="645.605469" xlink:href="#DejaVuSans-32"/>
     <use x="677.392578" xlink:href="#DejaVuSans-99"/>
     <use x="732.373047" xlink:href="#DejaVuSans-111"/>
     <use x="793.554688" xlink:href="#DejaVuSans-109"/>
     <use x="890.966797" xlink:href="#DejaVuSans-112"/>
     <use x="954.443359" xlink:href="#DejaVuSans-97"/>
     <use x="1015.722656" xlink:href="#DejaVuSans-114"/>
     <use x="1056.835938" xlink:href="#DejaVuSans-105"/>
     <use x="1084.619141" xlink:href="#DejaVuSans-115"/>
     <use x="1136.71875" xlink:href="#DejaVuSans-111"/>
     <use x="1197.900391" xlink:href="#DejaVuSans-110"/>
     <use x="1261.279297" xlink:href="#DejaVuSans-32"/>
     <use x="1293.066406" xlink:href="#DejaVuSans-112"/>
     <use x="1356.542969" xlink:href="#DejaVuSans-101"/>
     <use x="1418.066406" xlink:href="#DejaVuSans-114"/>
     <use x="1459.179688" xlink:href="#DejaVuSans-102"/>
     <use x="1494.384766" xlink:href="#DejaVuSans-111"/>
     <use x="1555.566406" xlink:href="#DejaVuSans-114"/>
     <use x="1594.929688" xlink:href="#DejaVuSans-109"/>
     <use x="1692.341797" xlink:href="#DejaVuSans-97"/>
     <use x="1753.621094" xlink:href="#DejaVuSans-110"/>
     <use x="1817" xlink:href="#DejaVuSans-99"/>
     <use x="1871.980469" xlink:href="#DejaVuSans-101"/>
     <use x="1933.503906" xlink:href="#DejaVuSans-32"/>
     <use x="1965.291016" xlink:href="#DejaVuSans-112"/>
     <use x="2028.767578" xlink:href="#DejaVuSans-101"/>
     <use x="2090.291016" xlink:href="#DejaVuSans-114"/>
     <use x="2131.404297" xlink:href="#DejaVuSans-32"/>
     <use x="2163.191406" xlink:href="#DejaVuSans-114"/>
     <use x="2202.054688" xlink:href="#DejaVuSans-101"/>
     <use x="2263.578125" xlink:href="#DejaVuSans-108"/>
     <use x="2291.361328" xlink:href="#DejaVuSans-97"/>
     <use x="2352.640625" xlink:href="#DejaVuSans-116"/>
     <use x="2391.849609" xlink:href="#DejaVuSans-105"/>
     <use x="2419.632812" xlink:href="#DejaVuSans-111"/>
     <use x="2480.814453" xlink:href="#DejaVuSans-110"/>
    </g>
   </g>
   <g id="legend_1">
    <g id="patch_57">
     <path d="M 1323.49725 346.1625 
L 1555.562875 346.1625 
Q 1559.562875 346.1625 1559.562875 342.1625 
L 1559.562875 50.6 
Q 1559.562875 46.6 1555.562875 46.6 
L 1323.49725 46.6 
Q 1319.49725 46.6 1319.49725 50.6 
L 1319.49725 342.1625 
Q 1319.49725 346.1625 1323.49725 346.1625 
z
" style="fill:#ffffff;opacity:0.8;stroke:#cccccc;stroke-linejoin:miter;"/>
    </g>
    <g id="patch_58">
     <path d="M 1327.49725 69.796875 
L 1367.49725 69.796875 
L 1367.49725 55.796875 
L 1327.49725 55.796875 
z
" style="fill:#2020df;"/>
    </g>
    <g id="text_16">
     <!-- CE Complex -->
     <g transform="translate(1383.49725 69.796875)scale(0.2 -0.2)">
      <defs>
       <path d="M 64.40625 67.28125 
L 64.40625 56.890625 
Q 59.421875 61.53125 53.78125 63.8125 
Q 48.140625 66.109375 41.796875 66.109375 
Q 29.296875 66.109375 22.65625 58.46875 
Q 16.015625 50.828125 16.015625 36.375 
Q 16.015625 21.96875 22.65625 14.328125 
Q 29.296875 6.6875 41.796875 6.6875 
Q 48.140625 6.6875 53.78125 8.984375 
Q 59.421875 11.28125 64.40625 15.921875 
L 64.40625 5.609375 
Q 59.234375 2.09375 53.4375 0.328125 
Q 47.65625 -1.421875 41.21875 -1.421875 
Q 24.65625 -1.421875 15.125 8.703125 
Q 5.609375 18.84375 5.609375 36.375 
Q 5.609375 53.953125 15.125 64.078125 
Q 24.65625 74.21875 41.21875 74.21875 
Q 47.75 74.21875 53.53125 72.484375 
Q 59.328125 70.75 64.40625 67.28125 
z
" id="DejaVuSans-67"/>
       <path d="M 9.8125 72.90625 
L 55.90625 72.90625 
L 55.90625 64.59375 
L 19.671875 64.59375 
L 19.671875 43.015625 
L 54.390625 43.015625 
L 54.390625 34.71875 
L 19.671875 34.71875 
L 19.671875 8.296875 
L 56.78125 8.296875 
L 56.78125 0 
L 9.8125 0 
z
" id="DejaVuSans-69"/>
       <path d="M 54.890625 54.6875 
L 35.109375 28.078125 
L 55.90625 0 
L 45.3125 0 
L 29.390625 21.484375 
L 13.484375 0 
L 2.875 0 
L 24.125 28.609375 
L 4.6875 54.6875 
L 15.28125 54.6875 
L 29.78125 35.203125 
L 44.28125 54.6875 
z
" id="DejaVuSans-120"/>
      </defs>
      <use xlink:href="#DejaVuSans-67"/>
      <use x="69.824219" xlink:href="#DejaVuSans-69"/>
      <use x="133.007812" xlink:href="#DejaVuSans-32"/>
      <use x="164.794922" xlink:href="#DejaVuSans-67"/>
      <use x="234.619141" xlink:href="#DejaVuSans-111"/>
      <use x="295.800781" xlink:href="#DejaVuSans-109"/>
      <use x="393.212891" xlink:href="#DejaVuSans-112"/>
      <use x="456.689453" xlink:href="#DejaVuSans-108"/>
      <use x="484.472656" xlink:href="#DejaVuSans-101"/>
      <use x="544.246094" xlink:href="#DejaVuSans-120"/>
     </g>
    </g>
    <g id="patch_59">
     <path d="M 1327.49725 99.153125 
L 1367.49725 99.153125 
L 1367.49725 85.153125 
L 1327.49725 85.153125 
z
" style="fill:#5573cd;"/>
    </g>
    <g id="text_17">
     <!-- BCE Complex -->
     <g transform="translate(1383.49725 99.153125)scale(0.2 -0.2)">
      <defs>
       <path d="M 19.671875 34.8125 
L 19.671875 8.109375 
L 35.5 8.109375 
Q 43.453125 8.109375 47.28125 11.40625 
Q 51.125 14.703125 51.125 21.484375 
Q 51.125 28.328125 47.28125 31.5625 
Q 43.453125 34.8125 35.5 34.8125 
z
M 19.671875 64.796875 
L 19.671875 42.828125 
L 34.28125 42.828125 
Q 41.5 42.828125 45.03125 45.53125 
Q 48.578125 48.25 48.578125 53.8125 
Q 48.578125 59.328125 45.03125 62.0625 
Q 41.5 64.796875 34.28125 64.796875 
z
M 9.8125 72.90625 
L 35.015625 72.90625 
Q 46.296875 72.90625 52.390625 68.21875 
Q 58.5 63.53125 58.5 54.890625 
Q 58.5 48.1875 55.375 44.234375 
Q 52.25 40.28125 46.1875 39.3125 
Q 53.46875 37.75 57.5 32.78125 
Q 61.53125 27.828125 61.53125 20.40625 
Q 61.53125 10.640625 54.890625 5.3125 
Q 48.25 0 35.984375 0 
L 9.8125 0 
z
" id="DejaVuSans-66"/>
      </defs>
      <use xlink:href="#DejaVuSans-66"/>
      <use x="66.853516" xlink:href="#DejaVuSans-67"/>
      <use x="136.677734" xlink:href="#DejaVuSans-69"/>
      <use x="199.861328" xlink:href="#DejaVuSans-32"/>
      <use x="231.648438" xlink:href="#DejaVuSans-67"/>
      <use x="301.472656" xlink:href="#DejaVuSans-111"/>
      <use x="362.654297" xlink:href="#DejaVuSans-109"/>
      <use x="460.066406" xlink:href="#DejaVuSans-112"/>
      <use x="523.542969" xlink:href="#DejaVuSans-108"/>
      <use x="551.326172" xlink:href="#DejaVuSans-101"/>
      <use x="611.099609" xlink:href="#DejaVuSans-120"/>
     </g>
    </g>
    <g id="patch_60">
     <path d="M 1327.49725 128.509375 
L 1367.49725 128.509375 
L 1367.49725 114.509375 
L 1327.49725 114.509375 
z
" style="fill:#3a90e3;"/>
    </g>
    <g id="text_18">
     <!-- PW-Log Complex -->
     <g transform="translate(1383.49725 128.509375)scale(0.2 -0.2)">
      <defs>
       <path d="M 19.671875 64.796875 
L 19.671875 37.40625 
L 32.078125 37.40625 
Q 38.96875 37.40625 42.71875 40.96875 
Q 46.484375 44.53125 46.484375 51.125 
Q 46.484375 57.671875 42.71875 61.234375 
Q 38.96875 64.796875 32.078125 64.796875 
z
M 9.8125 72.90625 
L 32.078125 72.90625 
Q 44.34375 72.90625 50.609375 67.359375 
Q 56.890625 61.8125 56.890625 51.125 
Q 56.890625 40.328125 50.609375 34.8125 
Q 44.34375 29.296875 32.078125 29.296875 
L 19.671875 29.296875 
L 19.671875 0 
L 9.8125 0 
z
" id="DejaVuSans-80"/>
       <path d="M 3.328125 72.90625 
L 13.28125 72.90625 
L 28.609375 11.28125 
L 43.890625 72.90625 
L 54.984375 72.90625 
L 70.3125 11.28125 
L 85.59375 72.90625 
L 95.609375 72.90625 
L 77.296875 0 
L 64.890625 0 
L 49.515625 63.28125 
L 33.984375 0 
L 21.578125 0 
z
" id="DejaVuSans-87"/>
       <path d="M 4.890625 31.390625 
L 31.203125 31.390625 
L 31.203125 23.390625 
L 4.890625 23.390625 
z
" id="DejaVuSans-45"/>
       <path d="M 9.8125 72.90625 
L 19.671875 72.90625 
L 19.671875 8.296875 
L 55.171875 8.296875 
L 55.171875 0 
L 9.8125 0 
z
" id="DejaVuSans-76"/>
       <path d="M 45.40625 27.984375 
Q 45.40625 37.75 41.375 43.109375 
Q 37.359375 48.484375 30.078125 48.484375 
Q 22.859375 48.484375 18.828125 43.109375 
Q 14.796875 37.75 14.796875 27.984375 
Q 14.796875 18.265625 18.828125 12.890625 
Q 22.859375 7.515625 30.078125 7.515625 
Q 37.359375 7.515625 41.375 12.890625 
Q 45.40625 18.265625 45.40625 27.984375 
z
M 54.390625 6.78125 
Q 54.390625 -7.171875 48.1875 -13.984375 
Q 42 -20.796875 29.203125 -20.796875 
Q 24.46875 -20.796875 20.265625 -20.09375 
Q 16.0625 -19.390625 12.109375 -17.921875 
L 12.109375 -9.1875 
Q 16.0625 -11.328125 19.921875 -12.34375 
Q 23.78125 -13.375 27.78125 -13.375 
Q 36.625 -13.375 41.015625 -8.765625 
Q 45.40625 -4.15625 45.40625 5.171875 
L 45.40625 9.625 
Q 42.625 4.78125 38.28125 2.390625 
Q 33.9375 0 27.875 0 
Q 17.828125 0 11.671875 7.65625 
Q 5.515625 15.328125 5.515625 27.984375 
Q 5.515625 40.671875 11.671875 48.328125 
Q 17.828125 56 27.875 56 
Q 33.9375 56 38.28125 53.609375 
Q 42.625 51.21875 45.40625 46.390625 
L 45.40625 54.6875 
L 54.390625 54.6875 
z
" id="DejaVuSans-103"/>
      </defs>
      <use xlink:href="#DejaVuSans-80"/>
      <use x="60.302734" xlink:href="#DejaVuSans-87"/>
      <use x="155.179688" xlink:href="#DejaVuSans-45"/>
      <use x="191.263672" xlink:href="#DejaVuSans-76"/>
      <use x="245.226562" xlink:href="#DejaVuSans-111"/>
      <use x="306.408203" xlink:href="#DejaVuSans-103"/>
      <use x="369.884766" xlink:href="#DejaVuSans-32"/>
      <use x="401.671875" xlink:href="#DejaVuSans-67"/>
      <use x="471.496094" xlink:href="#DejaVuSans-111"/>
      <use x="532.677734" xlink:href="#DejaVuSans-109"/>
      <use x="630.089844" xlink:href="#DejaVuSans-112"/>
      <use x="693.566406" xlink:href="#DejaVuSans-108"/>
      <use x="721.349609" xlink:href="#DejaVuSans-101"/>
      <use x="781.123047" xlink:href="#DejaVuSans-120"/>
     </g>
    </g>
    <g id="patch_61">
     <path d="M 1327.49725 157.865625 
L 1367.49725 157.865625 
L 1367.49725 143.865625 
L 1327.49725 143.865625 
z
" style="fill:#94c9de;"/>
    </g>
    <g id="text_19">
     <!-- PH Complex -->
     <g transform="translate(1383.49725 157.865625)scale(0.2 -0.2)">
      <use xlink:href="#DejaVuSans-80"/>
      <use x="60.302734" xlink:href="#DejaVuSans-72"/>
      <use x="135.498047" xlink:href="#DejaVuSans-32"/>
      <use x="167.285156" xlink:href="#DejaVuSans-67"/>
      <use x="237.109375" xlink:href="#DejaVuSans-111"/>
      <use x="298.291016" xlink:href="#DejaVuSans-109"/>
      <use x="395.703125" xlink:href="#DejaVuSans-112"/>
      <use x="459.179688" xlink:href="#DejaVuSans-108"/>
      <use x="486.962891" xlink:href="#DejaVuSans-101"/>
      <use x="546.736328" xlink:href="#DejaVuSans-120"/>
     </g>
    </g>
    <g id="patch_62">
     <path d="M 1327.49725 187.221875 
L 1367.49725 187.221875 
L 1367.49725 173.221875 
L 1327.49725 173.221875 
z
" style="fill:#bf6a6a;"/>
    </g>
    <g id="text_20">
     <!-- CE Tucker -->
     <g transform="translate(1383.49725 187.221875)scale(0.2 -0.2)">
      <defs>
       <path d="M -0.296875 72.90625 
L 61.375 72.90625 
L 61.375 64.59375 
L 35.5 64.59375 
L 35.5 0 
L 25.59375 0 
L 25.59375 64.59375 
L -0.296875 64.59375 
z
" id="DejaVuSans-84"/>
       <path d="M 9.078125 75.984375 
L 18.109375 75.984375 
L 18.109375 31.109375 
L 44.921875 54.6875 
L 56.390625 54.6875 
L 27.390625 29.109375 
L 57.625 0 
L 45.90625 0 
L 18.109375 26.703125 
L 18.109375 0 
L 9.078125 0 
z
" id="DejaVuSans-107"/>
      </defs>
      <use xlink:href="#DejaVuSans-67"/>
      <use x="69.824219" xlink:href="#DejaVuSans-69"/>
      <use x="133.007812" xlink:href="#DejaVuSans-32"/>
      <use x="164.794922" xlink:href="#DejaVuSans-84"/>
      <use x="210.753906" xlink:href="#DejaVuSans-117"/>
      <use x="274.132812" xlink:href="#DejaVuSans-99"/>
      <use x="329.113281" xlink:href="#DejaVuSans-107"/>
      <use x="383.398438" xlink:href="#DejaVuSans-101"/>
      <use x="444.921875" xlink:href="#DejaVuSans-114"/>
     </g>
    </g>
    <g id="patch_63">
     <path d="M 1327.49725 216.578125 
L 1367.49725 216.578125 
L 1367.49725 202.578125 
L 1327.49725 202.578125 
z
" style="fill:#e98e83;"/>
    </g>
    <g id="text_21">
     <!-- BCE Tucker -->
     <g transform="translate(1383.49725 216.578125)scale(0.2 -0.2)">
      <use xlink:href="#DejaVuSans-66"/>
      <use x="66.853516" xlink:href="#DejaVuSans-67"/>
      <use x="136.677734" xlink:href="#DejaVuSans-69"/>
      <use x="199.861328" xlink:href="#DejaVuSans-32"/>
      <use x="231.648438" xlink:href="#DejaVuSans-84"/>
      <use x="277.607422" xlink:href="#DejaVuSans-117"/>
      <use x="340.986328" xlink:href="#DejaVuSans-99"/>
      <use x="395.966797" xlink:href="#DejaVuSans-107"/>
      <use x="450.251953" xlink:href="#DejaVuSans-101"/>
      <use x="511.775391" xlink:href="#DejaVuSans-114"/>
     </g>
    </g>
    <g id="patch_64">
     <path d="M 1327.49725 245.934375 
L 1367.49725 245.934375 
L 1367.49725 231.934375 
L 1327.49725 231.934375 
z
" style="fill:#e2a673;"/>
    </g>
    <g id="text_22">
     <!-- PW-Log Tucker -->
     <g transform="translate(1383.49725 245.934375)scale(0.2 -0.2)">
      <use xlink:href="#DejaVuSans-80"/>
      <use x="60.302734" xlink:href="#DejaVuSans-87"/>
      <use x="155.179688" xlink:href="#DejaVuSans-45"/>
      <use x="191.263672" xlink:href="#DejaVuSans-76"/>
      <use x="245.226562" xlink:href="#DejaVuSans-111"/>
      <use x="306.408203" xlink:href="#DejaVuSans-103"/>
      <use x="369.884766" xlink:href="#DejaVuSans-32"/>
      <use x="401.671875" xlink:href="#DejaVuSans-84"/>
      <use x="447.630859" xlink:href="#DejaVuSans-117"/>
      <use x="511.009766" xlink:href="#DejaVuSans-99"/>
      <use x="565.990234" xlink:href="#DejaVuSans-107"/>
      <use x="620.275391" xlink:href="#DejaVuSans-101"/>
      <use x="681.798828" xlink:href="#DejaVuSans-114"/>
     </g>
    </g>
    <g id="patch_65">
     <path d="M 1327.49725 275.290625 
L 1367.49725 275.290625 
L 1367.49725 261.290625 
L 1327.49725 261.290625 
z
" style="fill:#bb8551;"/>
    </g>
    <g id="text_23">
     <!-- PH Tucker -->
     <g transform="translate(1383.49725 275.290625)scale(0.2 -0.2)">
      <use xlink:href="#DejaVuSans-80"/>
      <use x="60.302734" xlink:href="#DejaVuSans-72"/>
      <use x="135.498047" xlink:href="#DejaVuSans-32"/>
      <use x="167.285156" xlink:href="#DejaVuSans-84"/>
      <use x="213.244141" xlink:href="#DejaVuSans-117"/>
      <use x="276.623047" xlink:href="#DejaVuSans-99"/>
      <use x="331.603516" xlink:href="#DejaVuSans-107"/>
      <use x="385.888672" xlink:href="#DejaVuSans-101"/>
      <use x="447.412109" xlink:href="#DejaVuSans-114"/>
     </g>
    </g>
    <g id="patch_66">
     <path d="M 1327.49725 304.646875 
L 1367.49725 304.646875 
L 1367.49725 290.646875 
L 1327.49725 290.646875 
z
" style="fill:#987dce;"/>
    </g>
    <g id="text_24">
     <!-- AMIE -->
     <g transform="translate(1383.49725 304.646875)scale(0.2 -0.2)">
      <defs>
       <path d="M 34.1875 63.1875 
L 20.796875 26.90625 
L 47.609375 26.90625 
z
M 28.609375 72.90625 
L 39.796875 72.90625 
L 67.578125 0 
L 57.328125 0 
L 50.6875 18.703125 
L 17.828125 18.703125 
L 11.1875 0 
L 0.78125 0 
z
" id="DejaVuSans-65"/>
       <path d="M 9.8125 72.90625 
L 19.671875 72.90625 
L 19.671875 0 
L 9.8125 0 
z
" id="DejaVuSans-73"/>
      </defs>
      <use xlink:href="#DejaVuSans-65"/>
      <use x="68.408203" xlink:href="#DejaVuSans-77"/>
      <use x="154.6875" xlink:href="#DejaVuSans-73"/>
      <use x="184.179688" xlink:href="#DejaVuSans-69"/>
     </g>
    </g>
    <g id="patch_67">
     <path d="M 1327.49725 334.003125 
L 1367.49725 334.003125 
L 1367.49725 320.003125 
L 1327.49725 320.003125 
z
" style="fill:#d5a8d5;"/>
    </g>
    <g id="text_25">
     <!-- CBR -->
     <g transform="translate(1383.49725 334.003125)scale(0.2 -0.2)">
      <defs>
       <path d="M 44.390625 34.1875 
Q 47.5625 33.109375 50.5625 29.59375 
Q 53.5625 26.078125 56.59375 19.921875 
L 66.609375 0 
L 56 0 
L 46.6875 18.703125 
Q 43.0625 26.03125 39.671875 28.421875 
Q 36.28125 30.8125 30.421875 30.8125 
L 19.671875 30.8125 
L 19.671875 0 
L 9.8125 0 
L 9.8125 72.90625 
L 32.078125 72.90625 
Q 44.578125 72.90625 50.734375 67.671875 
Q 56.890625 62.453125 56.890625 51.90625 
Q 56.890625 45.015625 53.6875 40.46875 
Q 50.484375 35.9375 44.390625 34.1875 
z
M 19.671875 64.796875 
L 19.671875 38.921875 
L 32.078125 38.921875 
Q 39.203125 38.921875 42.84375 42.21875 
Q 46.484375 45.515625 46.484375 51.90625 
Q 46.484375 58.296875 42.84375 61.546875 
Q 39.203125 64.796875 32.078125 64.796875 
z
" id="DejaVuSans-82"/>
      </defs>
      <use xlink:href="#DejaVuSans-67"/>
      <use x="69.824219" xlink:href="#DejaVuSans-66"/>
      <use x="138.427734" xlink:href="#DejaVuSans-82"/>
     </g>
    </g>
   </g>
  </g>
 </g>
 <defs>
  <clipPath id="pa722668c54">
   <rect height="482.465905" width="1177.045" x="83.6" y="46.6"/>
  </clipPath>
 </defs>
</svg>
