<?xml version="1.0" encoding="utf-8" standalone="no"?>
<!DOCTYPE svg PUBLIC "-//W3C//DTD SVG 1.1//EN"
  "http://www.w3.org/Graphics/SVG/1.1/DTD/svg11.dtd">
<!-- Created with matplotlib (https://matplotlib.org/) -->
<svg height="360pt" version="1.1" viewBox="0 0 720 360" width="720pt" xmlns="http://www.w3.org/2000/svg" xmlns:xlink="http://www.w3.org/1999/xlink">
 <metadata>
  <rdf:RDF xmlns:cc="http://creativecommons.org/ns#" xmlns:dc="http://purl.org/dc/elements/1.1/" xmlns:rdf="http://www.w3.org/1999/02/22-rdf-syntax-ns#">
   <cc:Work>
    <dc:type rdf:resource="http://purl.org/dc/dcmitype/StillImage"/>
    <dc:date>2020-08-30T16:09:56.831118</dc:date>
    <dc:format>image/svg+xml</dc:format>
    <dc:creator>
     <cc:Agent>
      <dc:title>Matplotlib v3.3.0, https://matplotlib.org/</dc:title>
     </cc:Agent>
    </dc:creator>
   </cc:Work>
  </rdf:RDF>
 </metadata>
 <defs>
  <style type="text/css">*{stroke-linecap:butt;stroke-linejoin:round;}</style>
 </defs>
 <g id="figure_1">
  <g id="patch_1">
   <path d="M 0 360 
L 720 360 
L 720 0 
L 0 0 
z
" style="fill:none;"/>
  </g>
  <g id="axes_1">
   <g id="patch_2">
    <path d="M 46.3 318.2 
L 709.2 318.2 
L 709.2 26.8 
L 46.3 26.8 
z
" style="fill:#ffffff;"/>
   </g>
   <g id="patch_3">
    <path clip-path="url(#p197d8d1df4)" d="M 83.492328 318.2 
L 86.434905 318.2 
L 86.434905 40.67619 
L 83.492328 40.67619 
z
" style="fill:#1f77b4;opacity:0.4;"/>
   </g>
   <g id="patch_4">
    <path clip-path="url(#p197d8d1df4)" d="M 86.434905 318.2 
L 89.377482 318.2 
L 89.377482 269.369678 
L 86.434905 269.369678 
z
" style="fill:#1f77b4;opacity:0.4;"/>
   </g>
   <g id="patch_5">
    <path clip-path="url(#p197d8d1df4)" d="M 89.377482 318.2 
L 92.320058 318.2 
L 92.320058 284.018775 
L 89.377482 284.018775 
z
" style="fill:#1f77b4;opacity:0.4;"/>
   </g>
   <g id="patch_6">
    <path clip-path="url(#p197d8d1df4)" d="M 92.320058 318.2 
L 95.262635 318.2 
L 95.262635 296.06744 
L 92.320058 296.06744 
z
" style="fill:#1f77b4;opacity:0.4;"/>
   </g>
   <g id="patch_7">
    <path clip-path="url(#p197d8d1df4)" d="M 95.262635 318.2 
L 98.205212 318.2 
L 98.205212 303.29086 
L 95.262635 303.29086 
z
" style="fill:#1f77b4;opacity:0.4;"/>
   </g>
   <g id="patch_8">
    <path clip-path="url(#p197d8d1df4)" d="M 98.205212 318.2 
L 101.147789 318.2 
L 101.147789 308.405042 
L 98.205212 308.405042 
z
" style="fill:#1f77b4;opacity:0.4;"/>
   </g>
   <g id="patch_9">
    <path clip-path="url(#p197d8d1df4)" d="M 101.147789 318.2 
L 104.090365 318.2 
L 104.090365 311.901177 
L 101.147789 311.901177 
z
" style="fill:#1f77b4;opacity:0.4;"/>
   </g>
   <g id="patch_10">
    <path clip-path="url(#p197d8d1df4)" d="M 104.090365 318.2 
L 107.032942 318.2 
L 107.032942 313.25918 
L 104.090365 313.25918 
z
" style="fill:#1f77b4;opacity:0.4;"/>
   </g>
   <g id="patch_11">
    <path clip-path="url(#p197d8d1df4)" d="M 107.032942 318.2 
L 109.975519 318.2 
L 109.975519 314.154885 
L 107.032942 314.154885 
z
" style="fill:#1f77b4;opacity:0.4;"/>
   </g>
   <g id="patch_12">
    <path clip-path="url(#p197d8d1df4)" d="M 109.975519 318.2 
L 112.918095 318.2 
L 112.918095 314.819439 
L 109.975519 314.819439 
z
" style="fill:#1f77b4;opacity:0.4;"/>
   </g>
   <g id="patch_13">
    <path clip-path="url(#p197d8d1df4)" d="M 112.918095 318.2 
L 115.860672 318.2 
L 115.860672 314.877227 
L 112.918095 314.877227 
z
" style="fill:#1f77b4;opacity:0.4;"/>
   </g>
   <g id="patch_14">
    <path clip-path="url(#p197d8d1df4)" d="M 115.860672 318.2 
L 118.803249 318.2 
L 118.803249 315.888505 
L 115.860672 315.888505 
z
" style="fill:#1f77b4;opacity:0.4;"/>
   </g>
   <g id="patch_15">
    <path clip-path="url(#p197d8d1df4)" d="M 118.803249 318.2 
L 121.745826 318.2 
L 121.745826 316.177442 
L 118.803249 316.177442 
z
" style="fill:#1f77b4;opacity:0.4;"/>
   </g>
   <g id="patch_16">
    <path clip-path="url(#p197d8d1df4)" d="M 121.745826 318.2 
L 124.688402 318.2 
L 124.688402 316.293017 
L 121.745826 316.293017 
z
" style="fill:#1f77b4;opacity:0.4;"/>
   </g>
   <g id="patch_17">
    <path clip-path="url(#p197d8d1df4)" d="M 124.688402 318.2 
L 127.630979 318.2 
L 127.630979 316.957572 
L 124.688402 316.957572 
z
" style="fill:#1f77b4;opacity:0.4;"/>
   </g>
   <g id="patch_18">
    <path clip-path="url(#p197d8d1df4)" d="M 127.630979 318.2 
L 130.573556 318.2 
L 130.573556 317.015359 
L 127.630979 317.015359 
z
" style="fill:#1f77b4;opacity:0.4;"/>
   </g>
   <g id="patch_19">
    <path clip-path="url(#p197d8d1df4)" d="M 130.573556 318.2 
L 133.516133 318.2 
L 133.516133 317.622126 
L 130.573556 317.622126 
z
" style="fill:#1f77b4;opacity:0.4;"/>
   </g>
   <g id="patch_20">
    <path clip-path="url(#p197d8d1df4)" d="M 133.516133 318.2 
L 136.458709 318.2 
L 136.458709 317.217615 
L 133.516133 317.217615 
z
" style="fill:#1f77b4;opacity:0.4;"/>
   </g>
   <g id="patch_21">
    <path clip-path="url(#p197d8d1df4)" d="M 136.458709 318.2 
L 139.401286 318.2 
L 139.401286 317.622126 
L 136.458709 317.622126 
z
" style="fill:#1f77b4;opacity:0.4;"/>
   </g>
   <g id="patch_22">
    <path clip-path="url(#p197d8d1df4)" d="M 139.401286 318.2 
L 142.343863 318.2 
L 142.343863 317.535445 
L 139.401286 317.535445 
z
" style="fill:#1f77b4;opacity:0.4;"/>
   </g>
   <g id="patch_23">
    <path clip-path="url(#p197d8d1df4)" d="M 142.343863 318.2 
L 145.286439 318.2 
L 145.286439 317.506552 
L 142.343863 317.506552 
z
" style="fill:#1f77b4;opacity:0.4;"/>
   </g>
   <g id="patch_24">
    <path clip-path="url(#p197d8d1df4)" d="M 145.286439 318.2 
L 148.229016 318.2 
L 148.229016 317.564339 
L 145.286439 317.564339 
z
" style="fill:#1f77b4;opacity:0.4;"/>
   </g>
   <g id="patch_25">
    <path clip-path="url(#p197d8d1df4)" d="M 148.229016 318.2 
L 151.171593 318.2 
L 151.171593 317.853276 
L 148.229016 317.853276 
z
" style="fill:#1f77b4;opacity:0.4;"/>
   </g>
   <g id="patch_26">
    <path clip-path="url(#p197d8d1df4)" d="M 151.171593 318.2 
L 154.11417 318.2 
L 154.11417 317.88217 
L 151.171593 317.88217 
z
" style="fill:#1f77b4;opacity:0.4;"/>
   </g>
   <g id="patch_27">
    <path clip-path="url(#p197d8d1df4)" d="M 154.11417 318.2 
L 157.056746 318.2 
L 157.056746 317.997744 
L 154.11417 317.997744 
z
" style="fill:#1f77b4;opacity:0.4;"/>
   </g>
   <g id="patch_28">
    <path clip-path="url(#p197d8d1df4)" d="M 157.056746 318.2 
L 159.999323 318.2 
L 159.999323 317.853276 
L 157.056746 317.853276 
z
" style="fill:#1f77b4;opacity:0.4;"/>
   </g>
   <g id="patch_29">
    <path clip-path="url(#p197d8d1df4)" d="M 159.999323 318.2 
L 162.9419 318.2 
L 162.9419 317.968851 
L 159.999323 317.968851 
z
" style="fill:#1f77b4;opacity:0.4;"/>
   </g>
   <g id="patch_30">
    <path clip-path="url(#p197d8d1df4)" d="M 162.9419 318.2 
L 165.884476 318.2 
L 165.884476 317.853276 
L 162.9419 317.853276 
z
" style="fill:#1f77b4;opacity:0.4;"/>
   </g>
   <g id="patch_31">
    <path clip-path="url(#p197d8d1df4)" d="M 165.884476 318.2 
L 168.827053 318.2 
L 168.827053 317.939957 
L 165.884476 317.939957 
z
" style="fill:#1f77b4;opacity:0.4;"/>
   </g>
   <g id="patch_32">
    <path clip-path="url(#p197d8d1df4)" d="M 168.827053 318.2 
L 171.76963 318.2 
L 171.76963 318.055532 
L 168.827053 318.055532 
z
" style="fill:#1f77b4;opacity:0.4;"/>
   </g>
   <g id="patch_33">
    <path clip-path="url(#p197d8d1df4)" d="M 171.76963 318.2 
L 174.712207 318.2 
L 174.712207 318.026638 
L 171.76963 318.026638 
z
" style="fill:#1f77b4;opacity:0.4;"/>
   </g>
   <g id="patch_34">
    <path clip-path="url(#p197d8d1df4)" d="M 174.712207 318.2 
L 177.654783 318.2 
L 177.654783 318.026638 
L 174.712207 318.026638 
z
" style="fill:#1f77b4;opacity:0.4;"/>
   </g>
   <g id="patch_35">
    <path clip-path="url(#p197d8d1df4)" d="M 177.654783 318.2 
L 180.59736 318.2 
L 180.59736 318.084425 
L 177.654783 318.084425 
z
" style="fill:#1f77b4;opacity:0.4;"/>
   </g>
   <g id="patch_36">
    <path clip-path="url(#p197d8d1df4)" d="M 180.59736 318.2 
L 183.539937 318.2 
L 183.539937 318.055532 
L 180.59736 318.055532 
z
" style="fill:#1f77b4;opacity:0.4;"/>
   </g>
   <g id="patch_37">
    <path clip-path="url(#p197d8d1df4)" d="M 183.539937 318.2 
L 186.482513 318.2 
L 186.482513 318.055532 
L 183.539937 318.055532 
z
" style="fill:#1f77b4;opacity:0.4;"/>
   </g>
   <g id="patch_38">
    <path clip-path="url(#p197d8d1df4)" d="M 186.482513 318.2 
L 189.42509 318.2 
L 189.42509 318.026638 
L 186.482513 318.026638 
z
" style="fill:#1f77b4;opacity:0.4;"/>
   </g>
   <g id="patch_39">
    <path clip-path="url(#p197d8d1df4)" d="M 189.42509 318.2 
L 192.367667 318.2 
L 192.367667 318.084425 
L 189.42509 318.084425 
z
" style="fill:#1f77b4;opacity:0.4;"/>
   </g>
   <g id="patch_40">
    <path clip-path="url(#p197d8d1df4)" d="M 192.367667 318.2 
L 195.310244 318.2 
L 195.310244 318.113319 
L 192.367667 318.113319 
z
" style="fill:#1f77b4;opacity:0.4;"/>
   </g>
   <g id="patch_41">
    <path clip-path="url(#p197d8d1df4)" d="M 195.310244 318.2 
L 198.25282 318.2 
L 198.25282 318.084425 
L 195.310244 318.084425 
z
" style="fill:#1f77b4;opacity:0.4;"/>
   </g>
   <g id="patch_42">
    <path clip-path="url(#p197d8d1df4)" d="M 198.25282 318.2 
L 201.195397 318.2 
L 201.195397 318.142213 
L 198.25282 318.142213 
z
" style="fill:#1f77b4;opacity:0.4;"/>
   </g>
   <g id="patch_43">
    <path clip-path="url(#p197d8d1df4)" d="M 201.195397 318.2 
L 204.137974 318.2 
L 204.137974 317.997744 
L 201.195397 317.997744 
z
" style="fill:#1f77b4;opacity:0.4;"/>
   </g>
   <g id="patch_44">
    <path clip-path="url(#p197d8d1df4)" d="M 204.137974 318.2 
L 207.08055 318.2 
L 207.08055 318.084425 
L 204.137974 318.084425 
z
" style="fill:#1f77b4;opacity:0.4;"/>
   </g>
   <g id="patch_45">
    <path clip-path="url(#p197d8d1df4)" d="M 207.08055 318.2 
L 210.023127 318.2 
L 210.023127 318.055532 
L 207.08055 318.055532 
z
" style="fill:#1f77b4;opacity:0.4;"/>
   </g>
   <g id="patch_46">
    <path clip-path="url(#p197d8d1df4)" d="M 210.023127 318.2 
L 212.965704 318.2 
L 212.965704 318.171106 
L 210.023127 318.171106 
z
" style="fill:#1f77b4;opacity:0.4;"/>
   </g>
   <g id="patch_47">
    <path clip-path="url(#p197d8d1df4)" d="M 212.965704 318.2 
L 215.908281 318.2 
L 215.908281 318.055532 
L 212.965704 318.055532 
z
" style="fill:#1f77b4;opacity:0.4;"/>
   </g>
   <g id="patch_48">
    <path clip-path="url(#p197d8d1df4)" d="M 215.908281 318.2 
L 218.850857 318.2 
L 218.850857 318.084425 
L 215.908281 318.084425 
z
" style="fill:#1f77b4;opacity:0.4;"/>
   </g>
   <g id="patch_49">
    <path clip-path="url(#p197d8d1df4)" d="M 218.850857 318.2 
L 221.793434 318.2 
L 221.793434 318.171106 
L 218.850857 318.171106 
z
" style="fill:#1f77b4;opacity:0.4;"/>
   </g>
   <g id="patch_50">
    <path clip-path="url(#p197d8d1df4)" d="M 221.793434 318.2 
L 224.736011 318.2 
L 224.736011 318.171106 
L 221.793434 318.171106 
z
" style="fill:#1f77b4;opacity:0.4;"/>
   </g>
   <g id="patch_51">
    <path clip-path="url(#p197d8d1df4)" d="M 224.736011 318.2 
L 227.678587 318.2 
L 227.678587 318.2 
L 224.736011 318.2 
z
" style="fill:#1f77b4;opacity:0.4;"/>
   </g>
   <g id="patch_52">
    <path clip-path="url(#p197d8d1df4)" d="M 227.678587 318.2 
L 230.621164 318.2 
L 230.621164 318.113319 
L 227.678587 318.113319 
z
" style="fill:#1f77b4;opacity:0.4;"/>
   </g>
   <g id="patch_53">
    <path clip-path="url(#p197d8d1df4)" d="M 230.621164 318.2 
L 233.563741 318.2 
L 233.563741 318.142213 
L 230.621164 318.142213 
z
" style="fill:#1f77b4;opacity:0.4;"/>
   </g>
   <g id="patch_54">
    <path clip-path="url(#p197d8d1df4)" d="M 233.563741 318.2 
L 236.506318 318.2 
L 236.506318 318.2 
L 233.563741 318.2 
z
" style="fill:#1f77b4;opacity:0.4;"/>
   </g>
   <g id="patch_55">
    <path clip-path="url(#p197d8d1df4)" d="M 236.506318 318.2 
L 239.448894 318.2 
L 239.448894 318.084425 
L 236.506318 318.084425 
z
" style="fill:#1f77b4;opacity:0.4;"/>
   </g>
   <g id="patch_56">
    <path clip-path="url(#p197d8d1df4)" d="M 239.448894 318.2 
L 242.391471 318.2 
L 242.391471 318.171106 
L 239.448894 318.171106 
z
" style="fill:#1f77b4;opacity:0.4;"/>
   </g>
   <g id="patch_57">
    <path clip-path="url(#p197d8d1df4)" d="M 242.391471 318.2 
L 245.334048 318.2 
L 245.334048 318.171106 
L 242.391471 318.171106 
z
" style="fill:#1f77b4;opacity:0.4;"/>
   </g>
   <g id="patch_58">
    <path clip-path="url(#p197d8d1df4)" d="M 245.334048 318.2 
L 248.276624 318.2 
L 248.276624 318.2 
L 245.334048 318.2 
z
" style="fill:#1f77b4;opacity:0.4;"/>
   </g>
   <g id="patch_59">
    <path clip-path="url(#p197d8d1df4)" d="M 248.276624 318.2 
L 251.219201 318.2 
L 251.219201 318.2 
L 248.276624 318.2 
z
" style="fill:#1f77b4;opacity:0.4;"/>
   </g>
   <g id="patch_60">
    <path clip-path="url(#p197d8d1df4)" d="M 251.219201 318.2 
L 254.161778 318.2 
L 254.161778 318.171106 
L 251.219201 318.171106 
z
" style="fill:#1f77b4;opacity:0.4;"/>
   </g>
   <g id="patch_61">
    <path clip-path="url(#p197d8d1df4)" d="M 254.161778 318.2 
L 257.104355 318.2 
L 257.104355 318.171106 
L 254.161778 318.171106 
z
" style="fill:#1f77b4;opacity:0.4;"/>
   </g>
   <g id="patch_62">
    <path clip-path="url(#p197d8d1df4)" d="M 257.104355 318.2 
L 260.046931 318.2 
L 260.046931 318.113319 
L 257.104355 318.113319 
z
" style="fill:#1f77b4;opacity:0.4;"/>
   </g>
   <g id="patch_63">
    <path clip-path="url(#p197d8d1df4)" d="M 260.046931 318.2 
L 262.989508 318.2 
L 262.989508 318.171106 
L 260.046931 318.171106 
z
" style="fill:#1f77b4;opacity:0.4;"/>
   </g>
   <g id="patch_64">
    <path clip-path="url(#p197d8d1df4)" d="M 262.989508 318.2 
L 265.932085 318.2 
L 265.932085 318.2 
L 262.989508 318.2 
z
" style="fill:#1f77b4;opacity:0.4;"/>
   </g>
   <g id="patch_65">
    <path clip-path="url(#p197d8d1df4)" d="M 265.932085 318.2 
L 268.874661 318.2 
L 268.874661 318.171106 
L 265.932085 318.171106 
z
" style="fill:#1f77b4;opacity:0.4;"/>
   </g>
   <g id="patch_66">
    <path clip-path="url(#p197d8d1df4)" d="M 268.874661 318.2 
L 271.817238 318.2 
L 271.817238 318.171106 
L 268.874661 318.171106 
z
" style="fill:#1f77b4;opacity:0.4;"/>
   </g>
   <g id="patch_67">
    <path clip-path="url(#p197d8d1df4)" d="M 271.817238 318.2 
L 274.759815 318.2 
L 274.759815 318.2 
L 271.817238 318.2 
z
" style="fill:#1f77b4;opacity:0.4;"/>
   </g>
   <g id="patch_68">
    <path clip-path="url(#p197d8d1df4)" d="M 274.759815 318.2 
L 277.702392 318.2 
L 277.702392 318.2 
L 274.759815 318.2 
z
" style="fill:#1f77b4;opacity:0.4;"/>
   </g>
   <g id="patch_69">
    <path clip-path="url(#p197d8d1df4)" d="M 277.702392 318.2 
L 280.644968 318.2 
L 280.644968 318.171106 
L 277.702392 318.171106 
z
" style="fill:#1f77b4;opacity:0.4;"/>
   </g>
   <g id="patch_70">
    <path clip-path="url(#p197d8d1df4)" d="M 280.644968 318.2 
L 283.587545 318.2 
L 283.587545 318.171106 
L 280.644968 318.171106 
z
" style="fill:#1f77b4;opacity:0.4;"/>
   </g>
   <g id="patch_71">
    <path clip-path="url(#p197d8d1df4)" d="M 283.587545 318.2 
L 286.530122 318.2 
L 286.530122 318.171106 
L 283.587545 318.171106 
z
" style="fill:#1f77b4;opacity:0.4;"/>
   </g>
   <g id="patch_72">
    <path clip-path="url(#p197d8d1df4)" d="M 286.530122 318.2 
L 289.472698 318.2 
L 289.472698 318.2 
L 286.530122 318.2 
z
" style="fill:#1f77b4;opacity:0.4;"/>
   </g>
   <g id="patch_73">
    <path clip-path="url(#p197d8d1df4)" d="M 289.472698 318.2 
L 292.415275 318.2 
L 292.415275 318.2 
L 289.472698 318.2 
z
" style="fill:#1f77b4;opacity:0.4;"/>
   </g>
   <g id="patch_74">
    <path clip-path="url(#p197d8d1df4)" d="M 292.415275 318.2 
L 295.357852 318.2 
L 295.357852 318.2 
L 292.415275 318.2 
z
" style="fill:#1f77b4;opacity:0.4;"/>
   </g>
   <g id="patch_75">
    <path clip-path="url(#p197d8d1df4)" d="M 295.357852 318.2 
L 298.300429 318.2 
L 298.300429 318.2 
L 295.357852 318.2 
z
" style="fill:#1f77b4;opacity:0.4;"/>
   </g>
   <g id="patch_76">
    <path clip-path="url(#p197d8d1df4)" d="M 298.300429 318.2 
L 301.243005 318.2 
L 301.243005 318.2 
L 298.300429 318.2 
z
" style="fill:#1f77b4;opacity:0.4;"/>
   </g>
   <g id="patch_77">
    <path clip-path="url(#p197d8d1df4)" d="M 301.243005 318.2 
L 304.185582 318.2 
L 304.185582 318.171106 
L 301.243005 318.171106 
z
" style="fill:#1f77b4;opacity:0.4;"/>
   </g>
   <g id="patch_78">
    <path clip-path="url(#p197d8d1df4)" d="M 304.185582 318.2 
L 307.128159 318.2 
L 307.128159 318.2 
L 304.185582 318.2 
z
" style="fill:#1f77b4;opacity:0.4;"/>
   </g>
   <g id="patch_79">
    <path clip-path="url(#p197d8d1df4)" d="M 307.128159 318.2 
L 310.070736 318.2 
L 310.070736 318.2 
L 307.128159 318.2 
z
" style="fill:#1f77b4;opacity:0.4;"/>
   </g>
   <g id="patch_80">
    <path clip-path="url(#p197d8d1df4)" d="M 310.070736 318.2 
L 313.013312 318.2 
L 313.013312 318.2 
L 310.070736 318.2 
z
" style="fill:#1f77b4;opacity:0.4;"/>
   </g>
   <g id="patch_81">
    <path clip-path="url(#p197d8d1df4)" d="M 313.013312 318.2 
L 315.955889 318.2 
L 315.955889 318.2 
L 313.013312 318.2 
z
" style="fill:#1f77b4;opacity:0.4;"/>
   </g>
   <g id="patch_82">
    <path clip-path="url(#p197d8d1df4)" d="M 315.955889 318.2 
L 318.898466 318.2 
L 318.898466 318.2 
L 315.955889 318.2 
z
" style="fill:#1f77b4;opacity:0.4;"/>
   </g>
   <g id="patch_83">
    <path clip-path="url(#p197d8d1df4)" d="M 318.898466 318.2 
L 321.841042 318.2 
L 321.841042 318.142213 
L 318.898466 318.142213 
z
" style="fill:#1f77b4;opacity:0.4;"/>
   </g>
   <g id="patch_84">
    <path clip-path="url(#p197d8d1df4)" d="M 321.841042 318.2 
L 324.783619 318.2 
L 324.783619 318.2 
L 321.841042 318.2 
z
" style="fill:#1f77b4;opacity:0.4;"/>
   </g>
   <g id="patch_85">
    <path clip-path="url(#p197d8d1df4)" d="M 324.783619 318.2 
L 327.726196 318.2 
L 327.726196 318.2 
L 324.783619 318.2 
z
" style="fill:#1f77b4;opacity:0.4;"/>
   </g>
   <g id="patch_86">
    <path clip-path="url(#p197d8d1df4)" d="M 327.726196 318.2 
L 330.668773 318.2 
L 330.668773 318.2 
L 327.726196 318.2 
z
" style="fill:#1f77b4;opacity:0.4;"/>
   </g>
   <g id="patch_87">
    <path clip-path="url(#p197d8d1df4)" d="M 330.668773 318.2 
L 333.611349 318.2 
L 333.611349 318.2 
L 330.668773 318.2 
z
" style="fill:#1f77b4;opacity:0.4;"/>
   </g>
   <g id="patch_88">
    <path clip-path="url(#p197d8d1df4)" d="M 333.611349 318.2 
L 336.553926 318.2 
L 336.553926 318.2 
L 333.611349 318.2 
z
" style="fill:#1f77b4;opacity:0.4;"/>
   </g>
   <g id="patch_89">
    <path clip-path="url(#p197d8d1df4)" d="M 336.553926 318.2 
L 339.496503 318.2 
L 339.496503 318.2 
L 336.553926 318.2 
z
" style="fill:#1f77b4;opacity:0.4;"/>
   </g>
   <g id="patch_90">
    <path clip-path="url(#p197d8d1df4)" d="M 339.496503 318.2 
L 342.439079 318.2 
L 342.439079 318.2 
L 339.496503 318.2 
z
" style="fill:#1f77b4;opacity:0.4;"/>
   </g>
   <g id="patch_91">
    <path clip-path="url(#p197d8d1df4)" d="M 342.439079 318.2 
L 345.381656 318.2 
L 345.381656 318.2 
L 342.439079 318.2 
z
" style="fill:#1f77b4;opacity:0.4;"/>
   </g>
   <g id="patch_92">
    <path clip-path="url(#p197d8d1df4)" d="M 345.381656 318.2 
L 348.324233 318.2 
L 348.324233 318.2 
L 345.381656 318.2 
z
" style="fill:#1f77b4;opacity:0.4;"/>
   </g>
   <g id="patch_93">
    <path clip-path="url(#p197d8d1df4)" d="M 348.324233 318.2 
L 351.26681 318.2 
L 351.26681 318.2 
L 348.324233 318.2 
z
" style="fill:#1f77b4;opacity:0.4;"/>
   </g>
   <g id="patch_94">
    <path clip-path="url(#p197d8d1df4)" d="M 351.26681 318.2 
L 354.209386 318.2 
L 354.209386 318.2 
L 351.26681 318.2 
z
" style="fill:#1f77b4;opacity:0.4;"/>
   </g>
   <g id="patch_95">
    <path clip-path="url(#p197d8d1df4)" d="M 354.209386 318.2 
L 357.151963 318.2 
L 357.151963 318.2 
L 354.209386 318.2 
z
" style="fill:#1f77b4;opacity:0.4;"/>
   </g>
   <g id="patch_96">
    <path clip-path="url(#p197d8d1df4)" d="M 357.151963 318.2 
L 360.09454 318.2 
L 360.09454 318.2 
L 357.151963 318.2 
z
" style="fill:#1f77b4;opacity:0.4;"/>
   </g>
   <g id="patch_97">
    <path clip-path="url(#p197d8d1df4)" d="M 360.09454 318.2 
L 363.037116 318.2 
L 363.037116 318.2 
L 360.09454 318.2 
z
" style="fill:#1f77b4;opacity:0.4;"/>
   </g>
   <g id="patch_98">
    <path clip-path="url(#p197d8d1df4)" d="M 363.037116 318.2 
L 365.979693 318.2 
L 365.979693 318.2 
L 363.037116 318.2 
z
" style="fill:#1f77b4;opacity:0.4;"/>
   </g>
   <g id="patch_99">
    <path clip-path="url(#p197d8d1df4)" d="M 365.979693 318.2 
L 368.92227 318.2 
L 368.92227 318.2 
L 365.979693 318.2 
z
" style="fill:#1f77b4;opacity:0.4;"/>
   </g>
   <g id="patch_100">
    <path clip-path="url(#p197d8d1df4)" d="M 368.92227 318.2 
L 371.864847 318.2 
L 371.864847 318.2 
L 368.92227 318.2 
z
" style="fill:#1f77b4;opacity:0.4;"/>
   </g>
   <g id="patch_101">
    <path clip-path="url(#p197d8d1df4)" d="M 371.864847 318.2 
L 374.807423 318.2 
L 374.807423 318.2 
L 371.864847 318.2 
z
" style="fill:#1f77b4;opacity:0.4;"/>
   </g>
   <g id="patch_102">
    <path clip-path="url(#p197d8d1df4)" d="M 374.807423 318.2 
L 377.75 318.2 
L 377.75 318.2 
L 374.807423 318.2 
z
" style="fill:#1f77b4;opacity:0.4;"/>
   </g>
   <g id="patch_103">
    <path clip-path="url(#p197d8d1df4)" d="M 377.75 318.2 
L 380.692577 318.2 
L 380.692577 318.2 
L 377.75 318.2 
z
" style="fill:#1f77b4;opacity:0.4;"/>
   </g>
   <g id="patch_104">
    <path clip-path="url(#p197d8d1df4)" d="M 380.692577 318.2 
L 383.635153 318.2 
L 383.635153 318.2 
L 380.692577 318.2 
z
" style="fill:#1f77b4;opacity:0.4;"/>
   </g>
   <g id="patch_105">
    <path clip-path="url(#p197d8d1df4)" d="M 383.635153 318.2 
L 386.57773 318.2 
L 386.57773 318.2 
L 383.635153 318.2 
z
" style="fill:#1f77b4;opacity:0.4;"/>
   </g>
   <g id="patch_106">
    <path clip-path="url(#p197d8d1df4)" d="M 386.57773 318.2 
L 389.520307 318.2 
L 389.520307 318.2 
L 386.57773 318.2 
z
" style="fill:#1f77b4;opacity:0.4;"/>
   </g>
   <g id="patch_107">
    <path clip-path="url(#p197d8d1df4)" d="M 389.520307 318.2 
L 392.462884 318.2 
L 392.462884 318.2 
L 389.520307 318.2 
z
" style="fill:#1f77b4;opacity:0.4;"/>
   </g>
   <g id="patch_108">
    <path clip-path="url(#p197d8d1df4)" d="M 392.462884 318.2 
L 395.40546 318.2 
L 395.40546 318.171106 
L 392.462884 318.171106 
z
" style="fill:#1f77b4;opacity:0.4;"/>
   </g>
   <g id="patch_109">
    <path clip-path="url(#p197d8d1df4)" d="M 395.40546 318.2 
L 398.348037 318.2 
L 398.348037 318.2 
L 395.40546 318.2 
z
" style="fill:#1f77b4;opacity:0.4;"/>
   </g>
   <g id="patch_110">
    <path clip-path="url(#p197d8d1df4)" d="M 398.348037 318.2 
L 401.290614 318.2 
L 401.290614 318.2 
L 398.348037 318.2 
z
" style="fill:#1f77b4;opacity:0.4;"/>
   </g>
   <g id="patch_111">
    <path clip-path="url(#p197d8d1df4)" d="M 401.290614 318.2 
L 404.23319 318.2 
L 404.23319 318.2 
L 401.290614 318.2 
z
" style="fill:#1f77b4;opacity:0.4;"/>
   </g>
   <g id="patch_112">
    <path clip-path="url(#p197d8d1df4)" d="M 404.23319 318.2 
L 407.175767 318.2 
L 407.175767 318.2 
L 404.23319 318.2 
z
" style="fill:#1f77b4;opacity:0.4;"/>
   </g>
   <g id="patch_113">
    <path clip-path="url(#p197d8d1df4)" d="M 407.175767 318.2 
L 410.118344 318.2 
L 410.118344 318.2 
L 407.175767 318.2 
z
" style="fill:#1f77b4;opacity:0.4;"/>
   </g>
   <g id="patch_114">
    <path clip-path="url(#p197d8d1df4)" d="M 410.118344 318.2 
L 413.060921 318.2 
L 413.060921 318.2 
L 410.118344 318.2 
z
" style="fill:#1f77b4;opacity:0.4;"/>
   </g>
   <g id="patch_115">
    <path clip-path="url(#p197d8d1df4)" d="M 413.060921 318.2 
L 416.003497 318.2 
L 416.003497 318.2 
L 413.060921 318.2 
z
" style="fill:#1f77b4;opacity:0.4;"/>
   </g>
   <g id="patch_116">
    <path clip-path="url(#p197d8d1df4)" d="M 416.003497 318.2 
L 418.946074 318.2 
L 418.946074 318.171106 
L 416.003497 318.171106 
z
" style="fill:#1f77b4;opacity:0.4;"/>
   </g>
   <g id="patch_117">
    <path clip-path="url(#p197d8d1df4)" d="M 418.946074 318.2 
L 421.888651 318.2 
L 421.888651 318.2 
L 418.946074 318.2 
z
" style="fill:#1f77b4;opacity:0.4;"/>
   </g>
   <g id="patch_118">
    <path clip-path="url(#p197d8d1df4)" d="M 421.888651 318.2 
L 424.831227 318.2 
L 424.831227 318.2 
L 421.888651 318.2 
z
" style="fill:#1f77b4;opacity:0.4;"/>
   </g>
   <g id="patch_119">
    <path clip-path="url(#p197d8d1df4)" d="M 424.831227 318.2 
L 427.773804 318.2 
L 427.773804 318.2 
L 424.831227 318.2 
z
" style="fill:#1f77b4;opacity:0.4;"/>
   </g>
   <g id="patch_120">
    <path clip-path="url(#p197d8d1df4)" d="M 427.773804 318.2 
L 430.716381 318.2 
L 430.716381 318.2 
L 427.773804 318.2 
z
" style="fill:#1f77b4;opacity:0.4;"/>
   </g>
   <g id="patch_121">
    <path clip-path="url(#p197d8d1df4)" d="M 430.716381 318.2 
L 433.658958 318.2 
L 433.658958 318.2 
L 430.716381 318.2 
z
" style="fill:#1f77b4;opacity:0.4;"/>
   </g>
   <g id="patch_122">
    <path clip-path="url(#p197d8d1df4)" d="M 433.658958 318.2 
L 436.601534 318.2 
L 436.601534 318.2 
L 433.658958 318.2 
z
" style="fill:#1f77b4;opacity:0.4;"/>
   </g>
   <g id="patch_123">
    <path clip-path="url(#p197d8d1df4)" d="M 436.601534 318.2 
L 439.544111 318.2 
L 439.544111 318.2 
L 436.601534 318.2 
z
" style="fill:#1f77b4;opacity:0.4;"/>
   </g>
   <g id="patch_124">
    <path clip-path="url(#p197d8d1df4)" d="M 439.544111 318.2 
L 442.486688 318.2 
L 442.486688 318.2 
L 439.544111 318.2 
z
" style="fill:#1f77b4;opacity:0.4;"/>
   </g>
   <g id="patch_125">
    <path clip-path="url(#p197d8d1df4)" d="M 442.486688 318.2 
L 445.429264 318.2 
L 445.429264 318.2 
L 442.486688 318.2 
z
" style="fill:#1f77b4;opacity:0.4;"/>
   </g>
   <g id="patch_126">
    <path clip-path="url(#p197d8d1df4)" d="M 445.429264 318.2 
L 448.371841 318.2 
L 448.371841 318.2 
L 445.429264 318.2 
z
" style="fill:#1f77b4;opacity:0.4;"/>
   </g>
   <g id="patch_127">
    <path clip-path="url(#p197d8d1df4)" d="M 448.371841 318.2 
L 451.314418 318.2 
L 451.314418 318.2 
L 448.371841 318.2 
z
" style="fill:#1f77b4;opacity:0.4;"/>
   </g>
   <g id="patch_128">
    <path clip-path="url(#p197d8d1df4)" d="M 451.314418 318.2 
L 454.256995 318.2 
L 454.256995 318.2 
L 451.314418 318.2 
z
" style="fill:#1f77b4;opacity:0.4;"/>
   </g>
   <g id="patch_129">
    <path clip-path="url(#p197d8d1df4)" d="M 454.256995 318.2 
L 457.199571 318.2 
L 457.199571 318.2 
L 454.256995 318.2 
z
" style="fill:#1f77b4;opacity:0.4;"/>
   </g>
   <g id="patch_130">
    <path clip-path="url(#p197d8d1df4)" d="M 457.199571 318.2 
L 460.142148 318.2 
L 460.142148 318.2 
L 457.199571 318.2 
z
" style="fill:#1f77b4;opacity:0.4;"/>
   </g>
   <g id="patch_131">
    <path clip-path="url(#p197d8d1df4)" d="M 460.142148 318.2 
L 463.084725 318.2 
L 463.084725 318.171106 
L 460.142148 318.171106 
z
" style="fill:#1f77b4;opacity:0.4;"/>
   </g>
   <g id="patch_132">
    <path clip-path="url(#p197d8d1df4)" d="M 463.084725 318.2 
L 466.027302 318.2 
L 466.027302 318.2 
L 463.084725 318.2 
z
" style="fill:#1f77b4;opacity:0.4;"/>
   </g>
   <g id="patch_133">
    <path clip-path="url(#p197d8d1df4)" d="M 466.027302 318.2 
L 468.969878 318.2 
L 468.969878 318.2 
L 466.027302 318.2 
z
" style="fill:#1f77b4;opacity:0.4;"/>
   </g>
   <g id="patch_134">
    <path clip-path="url(#p197d8d1df4)" d="M 468.969878 318.2 
L 471.912455 318.2 
L 471.912455 318.2 
L 468.969878 318.2 
z
" style="fill:#1f77b4;opacity:0.4;"/>
   </g>
   <g id="patch_135">
    <path clip-path="url(#p197d8d1df4)" d="M 471.912455 318.2 
L 474.855032 318.2 
L 474.855032 318.2 
L 471.912455 318.2 
z
" style="fill:#1f77b4;opacity:0.4;"/>
   </g>
   <g id="patch_136">
    <path clip-path="url(#p197d8d1df4)" d="M 474.855032 318.2 
L 477.797608 318.2 
L 477.797608 318.2 
L 474.855032 318.2 
z
" style="fill:#1f77b4;opacity:0.4;"/>
   </g>
   <g id="patch_137">
    <path clip-path="url(#p197d8d1df4)" d="M 477.797608 318.2 
L 480.740185 318.2 
L 480.740185 318.2 
L 477.797608 318.2 
z
" style="fill:#1f77b4;opacity:0.4;"/>
   </g>
   <g id="patch_138">
    <path clip-path="url(#p197d8d1df4)" d="M 480.740185 318.2 
L 483.682762 318.2 
L 483.682762 318.171106 
L 480.740185 318.171106 
z
" style="fill:#1f77b4;opacity:0.4;"/>
   </g>
   <g id="patch_139">
    <path clip-path="url(#p197d8d1df4)" d="M 483.682762 318.2 
L 486.625339 318.2 
L 486.625339 318.2 
L 483.682762 318.2 
z
" style="fill:#1f77b4;opacity:0.4;"/>
   </g>
   <g id="patch_140">
    <path clip-path="url(#p197d8d1df4)" d="M 486.625339 318.2 
L 489.567915 318.2 
L 489.567915 318.2 
L 486.625339 318.2 
z
" style="fill:#1f77b4;opacity:0.4;"/>
   </g>
   <g id="patch_141">
    <path clip-path="url(#p197d8d1df4)" d="M 489.567915 318.2 
L 492.510492 318.2 
L 492.510492 318.2 
L 489.567915 318.2 
z
" style="fill:#1f77b4;opacity:0.4;"/>
   </g>
   <g id="patch_142">
    <path clip-path="url(#p197d8d1df4)" d="M 492.510492 318.2 
L 495.453069 318.2 
L 495.453069 318.2 
L 492.510492 318.2 
z
" style="fill:#1f77b4;opacity:0.4;"/>
   </g>
   <g id="patch_143">
    <path clip-path="url(#p197d8d1df4)" d="M 495.453069 318.2 
L 498.395645 318.2 
L 498.395645 318.2 
L 495.453069 318.2 
z
" style="fill:#1f77b4;opacity:0.4;"/>
   </g>
   <g id="patch_144">
    <path clip-path="url(#p197d8d1df4)" d="M 498.395645 318.2 
L 501.338222 318.2 
L 501.338222 318.2 
L 498.395645 318.2 
z
" style="fill:#1f77b4;opacity:0.4;"/>
   </g>
   <g id="patch_145">
    <path clip-path="url(#p197d8d1df4)" d="M 501.338222 318.2 
L 504.280799 318.2 
L 504.280799 318.2 
L 501.338222 318.2 
z
" style="fill:#1f77b4;opacity:0.4;"/>
   </g>
   <g id="patch_146">
    <path clip-path="url(#p197d8d1df4)" d="M 504.280799 318.2 
L 507.223376 318.2 
L 507.223376 318.2 
L 504.280799 318.2 
z
" style="fill:#1f77b4;opacity:0.4;"/>
   </g>
   <g id="patch_147">
    <path clip-path="url(#p197d8d1df4)" d="M 507.223376 318.2 
L 510.165952 318.2 
L 510.165952 318.2 
L 507.223376 318.2 
z
" style="fill:#1f77b4;opacity:0.4;"/>
   </g>
   <g id="patch_148">
    <path clip-path="url(#p197d8d1df4)" d="M 510.165952 318.2 
L 513.108529 318.2 
L 513.108529 318.2 
L 510.165952 318.2 
z
" style="fill:#1f77b4;opacity:0.4;"/>
   </g>
   <g id="patch_149">
    <path clip-path="url(#p197d8d1df4)" d="M 513.108529 318.2 
L 516.051106 318.2 
L 516.051106 318.2 
L 513.108529 318.2 
z
" style="fill:#1f77b4;opacity:0.4;"/>
   </g>
   <g id="patch_150">
    <path clip-path="url(#p197d8d1df4)" d="M 516.051106 318.2 
L 518.993682 318.2 
L 518.993682 318.2 
L 516.051106 318.2 
z
" style="fill:#1f77b4;opacity:0.4;"/>
   </g>
   <g id="patch_151">
    <path clip-path="url(#p197d8d1df4)" d="M 518.993682 318.2 
L 521.936259 318.2 
L 521.936259 318.2 
L 518.993682 318.2 
z
" style="fill:#1f77b4;opacity:0.4;"/>
   </g>
   <g id="patch_152">
    <path clip-path="url(#p197d8d1df4)" d="M 521.936259 318.2 
L 524.878836 318.2 
L 524.878836 318.2 
L 521.936259 318.2 
z
" style="fill:#1f77b4;opacity:0.4;"/>
   </g>
   <g id="patch_153">
    <path clip-path="url(#p197d8d1df4)" d="M 524.878836 318.2 
L 527.821413 318.2 
L 527.821413 318.2 
L 524.878836 318.2 
z
" style="fill:#1f77b4;opacity:0.4;"/>
   </g>
   <g id="patch_154">
    <path clip-path="url(#p197d8d1df4)" d="M 527.821413 318.2 
L 530.763989 318.2 
L 530.763989 318.2 
L 527.821413 318.2 
z
" style="fill:#1f77b4;opacity:0.4;"/>
   </g>
   <g id="patch_155">
    <path clip-path="url(#p197d8d1df4)" d="M 530.763989 318.2 
L 533.706566 318.2 
L 533.706566 318.2 
L 530.763989 318.2 
z
" style="fill:#1f77b4;opacity:0.4;"/>
   </g>
   <g id="patch_156">
    <path clip-path="url(#p197d8d1df4)" d="M 533.706566 318.2 
L 536.649143 318.2 
L 536.649143 318.2 
L 533.706566 318.2 
z
" style="fill:#1f77b4;opacity:0.4;"/>
   </g>
   <g id="patch_157">
    <path clip-path="url(#p197d8d1df4)" d="M 536.649143 318.2 
L 539.591719 318.2 
L 539.591719 318.2 
L 536.649143 318.2 
z
" style="fill:#1f77b4;opacity:0.4;"/>
   </g>
   <g id="patch_158">
    <path clip-path="url(#p197d8d1df4)" d="M 539.591719 318.2 
L 542.534296 318.2 
L 542.534296 318.2 
L 539.591719 318.2 
z
" style="fill:#1f77b4;opacity:0.4;"/>
   </g>
   <g id="patch_159">
    <path clip-path="url(#p197d8d1df4)" d="M 542.534296 318.2 
L 545.476873 318.2 
L 545.476873 318.2 
L 542.534296 318.2 
z
" style="fill:#1f77b4;opacity:0.4;"/>
   </g>
   <g id="patch_160">
    <path clip-path="url(#p197d8d1df4)" d="M 545.476873 318.2 
L 548.41945 318.2 
L 548.41945 318.2 
L 545.476873 318.2 
z
" style="fill:#1f77b4;opacity:0.4;"/>
   </g>
   <g id="patch_161">
    <path clip-path="url(#p197d8d1df4)" d="M 548.41945 318.2 
L 551.362026 318.2 
L 551.362026 318.2 
L 548.41945 318.2 
z
" style="fill:#1f77b4;opacity:0.4;"/>
   </g>
   <g id="patch_162">
    <path clip-path="url(#p197d8d1df4)" d="M 551.362026 318.2 
L 554.304603 318.2 
L 554.304603 318.2 
L 551.362026 318.2 
z
" style="fill:#1f77b4;opacity:0.4;"/>
   </g>
   <g id="patch_163">
    <path clip-path="url(#p197d8d1df4)" d="M 554.304603 318.2 
L 557.24718 318.2 
L 557.24718 318.2 
L 554.304603 318.2 
z
" style="fill:#1f77b4;opacity:0.4;"/>
   </g>
   <g id="patch_164">
    <path clip-path="url(#p197d8d1df4)" d="M 557.24718 318.2 
L 560.189756 318.2 
L 560.189756 318.2 
L 557.24718 318.2 
z
" style="fill:#1f77b4;opacity:0.4;"/>
   </g>
   <g id="patch_165">
    <path clip-path="url(#p197d8d1df4)" d="M 560.189756 318.2 
L 563.132333 318.2 
L 563.132333 318.2 
L 560.189756 318.2 
z
" style="fill:#1f77b4;opacity:0.4;"/>
   </g>
   <g id="patch_166">
    <path clip-path="url(#p197d8d1df4)" d="M 563.132333 318.2 
L 566.07491 318.2 
L 566.07491 318.2 
L 563.132333 318.2 
z
" style="fill:#1f77b4;opacity:0.4;"/>
   </g>
   <g id="patch_167">
    <path clip-path="url(#p197d8d1df4)" d="M 566.07491 318.2 
L 569.017487 318.2 
L 569.017487 318.2 
L 566.07491 318.2 
z
" style="fill:#1f77b4;opacity:0.4;"/>
   </g>
   <g id="patch_168">
    <path clip-path="url(#p197d8d1df4)" d="M 569.017487 318.2 
L 571.960063 318.2 
L 571.960063 318.2 
L 569.017487 318.2 
z
" style="fill:#1f77b4;opacity:0.4;"/>
   </g>
   <g id="patch_169">
    <path clip-path="url(#p197d8d1df4)" d="M 571.960063 318.2 
L 574.90264 318.2 
L 574.90264 318.2 
L 571.960063 318.2 
z
" style="fill:#1f77b4;opacity:0.4;"/>
   </g>
   <g id="patch_170">
    <path clip-path="url(#p197d8d1df4)" d="M 574.90264 318.2 
L 577.845217 318.2 
L 577.845217 318.2 
L 574.90264 318.2 
z
" style="fill:#1f77b4;opacity:0.4;"/>
   </g>
   <g id="patch_171">
    <path clip-path="url(#p197d8d1df4)" d="M 577.845217 318.2 
L 580.787793 318.2 
L 580.787793 318.2 
L 577.845217 318.2 
z
" style="fill:#1f77b4;opacity:0.4;"/>
   </g>
   <g id="patch_172">
    <path clip-path="url(#p197d8d1df4)" d="M 580.787793 318.2 
L 583.73037 318.2 
L 583.73037 318.2 
L 580.787793 318.2 
z
" style="fill:#1f77b4;opacity:0.4;"/>
   </g>
   <g id="patch_173">
    <path clip-path="url(#p197d8d1df4)" d="M 583.73037 318.2 
L 586.672947 318.2 
L 586.672947 318.2 
L 583.73037 318.2 
z
" style="fill:#1f77b4;opacity:0.4;"/>
   </g>
   <g id="patch_174">
    <path clip-path="url(#p197d8d1df4)" d="M 586.672947 318.2 
L 589.615524 318.2 
L 589.615524 318.2 
L 586.672947 318.2 
z
" style="fill:#1f77b4;opacity:0.4;"/>
   </g>
   <g id="patch_175">
    <path clip-path="url(#p197d8d1df4)" d="M 589.615524 318.2 
L 592.5581 318.2 
L 592.5581 318.2 
L 589.615524 318.2 
z
" style="fill:#1f77b4;opacity:0.4;"/>
   </g>
   <g id="patch_176">
    <path clip-path="url(#p197d8d1df4)" d="M 592.5581 318.2 
L 595.500677 318.2 
L 595.500677 318.2 
L 592.5581 318.2 
z
" style="fill:#1f77b4;opacity:0.4;"/>
   </g>
   <g id="patch_177">
    <path clip-path="url(#p197d8d1df4)" d="M 595.500677 318.2 
L 598.443254 318.2 
L 598.443254 318.2 
L 595.500677 318.2 
z
" style="fill:#1f77b4;opacity:0.4;"/>
   </g>
   <g id="patch_178">
    <path clip-path="url(#p197d8d1df4)" d="M 598.443254 318.2 
L 601.38583 318.2 
L 601.38583 318.2 
L 598.443254 318.2 
z
" style="fill:#1f77b4;opacity:0.4;"/>
   </g>
   <g id="patch_179">
    <path clip-path="url(#p197d8d1df4)" d="M 601.38583 318.2 
L 604.328407 318.2 
L 604.328407 318.2 
L 601.38583 318.2 
z
" style="fill:#1f77b4;opacity:0.4;"/>
   </g>
   <g id="patch_180">
    <path clip-path="url(#p197d8d1df4)" d="M 604.328407 318.2 
L 607.270984 318.2 
L 607.270984 318.2 
L 604.328407 318.2 
z
" style="fill:#1f77b4;opacity:0.4;"/>
   </g>
   <g id="patch_181">
    <path clip-path="url(#p197d8d1df4)" d="M 607.270984 318.2 
L 610.213561 318.2 
L 610.213561 318.2 
L 607.270984 318.2 
z
" style="fill:#1f77b4;opacity:0.4;"/>
   </g>
   <g id="patch_182">
    <path clip-path="url(#p197d8d1df4)" d="M 610.213561 318.2 
L 613.156137 318.2 
L 613.156137 318.2 
L 610.213561 318.2 
z
" style="fill:#1f77b4;opacity:0.4;"/>
   </g>
   <g id="patch_183">
    <path clip-path="url(#p197d8d1df4)" d="M 613.156137 318.2 
L 616.098714 318.2 
L 616.098714 318.2 
L 613.156137 318.2 
z
" style="fill:#1f77b4;opacity:0.4;"/>
   </g>
   <g id="patch_184">
    <path clip-path="url(#p197d8d1df4)" d="M 616.098714 318.2 
L 619.041291 318.2 
L 619.041291 318.2 
L 616.098714 318.2 
z
" style="fill:#1f77b4;opacity:0.4;"/>
   </g>
   <g id="patch_185">
    <path clip-path="url(#p197d8d1df4)" d="M 619.041291 318.2 
L 621.983867 318.2 
L 621.983867 318.2 
L 619.041291 318.2 
z
" style="fill:#1f77b4;opacity:0.4;"/>
   </g>
   <g id="patch_186">
    <path clip-path="url(#p197d8d1df4)" d="M 621.983867 318.2 
L 624.926444 318.2 
L 624.926444 318.2 
L 621.983867 318.2 
z
" style="fill:#1f77b4;opacity:0.4;"/>
   </g>
   <g id="patch_187">
    <path clip-path="url(#p197d8d1df4)" d="M 624.926444 318.2 
L 627.869021 318.2 
L 627.869021 318.2 
L 624.926444 318.2 
z
" style="fill:#1f77b4;opacity:0.4;"/>
   </g>
   <g id="patch_188">
    <path clip-path="url(#p197d8d1df4)" d="M 627.869021 318.2 
L 630.811598 318.2 
L 630.811598 318.2 
L 627.869021 318.2 
z
" style="fill:#1f77b4;opacity:0.4;"/>
   </g>
   <g id="patch_189">
    <path clip-path="url(#p197d8d1df4)" d="M 630.811598 318.2 
L 633.754174 318.2 
L 633.754174 318.2 
L 630.811598 318.2 
z
" style="fill:#1f77b4;opacity:0.4;"/>
   </g>
   <g id="patch_190">
    <path clip-path="url(#p197d8d1df4)" d="M 633.754174 318.2 
L 636.696751 318.2 
L 636.696751 318.2 
L 633.754174 318.2 
z
" style="fill:#1f77b4;opacity:0.4;"/>
   </g>
   <g id="patch_191">
    <path clip-path="url(#p197d8d1df4)" d="M 636.696751 318.2 
L 639.639328 318.2 
L 639.639328 318.2 
L 636.696751 318.2 
z
" style="fill:#1f77b4;opacity:0.4;"/>
   </g>
   <g id="patch_192">
    <path clip-path="url(#p197d8d1df4)" d="M 639.639328 318.2 
L 642.581905 318.2 
L 642.581905 318.2 
L 639.639328 318.2 
z
" style="fill:#1f77b4;opacity:0.4;"/>
   </g>
   <g id="patch_193">
    <path clip-path="url(#p197d8d1df4)" d="M 642.581905 318.2 
L 645.524481 318.2 
L 645.524481 318.2 
L 642.581905 318.2 
z
" style="fill:#1f77b4;opacity:0.4;"/>
   </g>
   <g id="patch_194">
    <path clip-path="url(#p197d8d1df4)" d="M 645.524481 318.2 
L 648.467058 318.2 
L 648.467058 318.2 
L 645.524481 318.2 
z
" style="fill:#1f77b4;opacity:0.4;"/>
   </g>
   <g id="patch_195">
    <path clip-path="url(#p197d8d1df4)" d="M 648.467058 318.2 
L 651.409635 318.2 
L 651.409635 318.2 
L 648.467058 318.2 
z
" style="fill:#1f77b4;opacity:0.4;"/>
   </g>
   <g id="patch_196">
    <path clip-path="url(#p197d8d1df4)" d="M 651.409635 318.2 
L 654.352211 318.2 
L 654.352211 318.2 
L 651.409635 318.2 
z
" style="fill:#1f77b4;opacity:0.4;"/>
   </g>
   <g id="patch_197">
    <path clip-path="url(#p197d8d1df4)" d="M 654.352211 318.2 
L 657.294788 318.2 
L 657.294788 318.2 
L 654.352211 318.2 
z
" style="fill:#1f77b4;opacity:0.4;"/>
   </g>
   <g id="patch_198">
    <path clip-path="url(#p197d8d1df4)" d="M 657.294788 318.2 
L 660.237365 318.2 
L 660.237365 318.2 
L 657.294788 318.2 
z
" style="fill:#1f77b4;opacity:0.4;"/>
   </g>
   <g id="patch_199">
    <path clip-path="url(#p197d8d1df4)" d="M 660.237365 318.2 
L 663.179942 318.2 
L 663.179942 318.2 
L 660.237365 318.2 
z
" style="fill:#1f77b4;opacity:0.4;"/>
   </g>
   <g id="patch_200">
    <path clip-path="url(#p197d8d1df4)" d="M 663.179942 318.2 
L 666.122518 318.2 
L 666.122518 318.2 
L 663.179942 318.2 
z
" style="fill:#1f77b4;opacity:0.4;"/>
   </g>
   <g id="patch_201">
    <path clip-path="url(#p197d8d1df4)" d="M 666.122518 318.2 
L 669.065095 318.2 
L 669.065095 318.2 
L 666.122518 318.2 
z
" style="fill:#1f77b4;opacity:0.4;"/>
   </g>
   <g id="patch_202">
    <path clip-path="url(#p197d8d1df4)" d="M 669.065095 318.2 
L 672.007672 318.2 
L 672.007672 318.171106 
L 669.065095 318.171106 
z
" style="fill:#1f77b4;opacity:0.4;"/>
   </g>
   <g id="matplotlib.axis_1">
    <g id="xtick_1">
     <g id="line2d_1">
      <defs>
       <path d="M 0 0 
L 0 3.5 
" id="m243bb42fde" style="stroke:#000000;stroke-width:0.8;"/>
      </defs>
      <g>
       <use style="stroke:#000000;stroke-width:0.8;" x="83.492328" xlink:href="#m243bb42fde" y="318.2"/>
      </g>
     </g>
     <g id="text_1">
      <!-- 0 -->
      <g transform="translate(80.311078 332.798438)scale(0.1 -0.1)">
       <defs>
        <path d="M 31.78125 66.40625 
Q 24.171875 66.40625 20.328125 58.90625 
Q 16.5 51.421875 16.5 36.375 
Q 16.5 21.390625 20.328125 13.890625 
Q 24.171875 6.390625 31.78125 6.390625 
Q 39.453125 6.390625 43.28125 13.890625 
Q 47.125 21.390625 47.125 36.375 
Q 47.125 51.421875 43.28125 58.90625 
Q 39.453125 66.40625 31.78125 66.40625 
z
M 31.78125 74.21875 
Q 44.046875 74.21875 50.515625 64.515625 
Q 56.984375 54.828125 56.984375 36.375 
Q 56.984375 17.96875 50.515625 8.265625 
Q 44.046875 -1.421875 31.78125 -1.421875 
Q 19.53125 -1.421875 13.0625 8.265625 
Q 6.59375 17.96875 6.59375 36.375 
Q 6.59375 54.828125 13.0625 64.515625 
Q 19.53125 74.21875 31.78125 74.21875 
z
" id="DejaVuSans-48"/>
       </defs>
       <use xlink:href="#DejaVuSans-48"/>
      </g>
     </g>
    </g>
    <g id="xtick_2">
     <g id="line2d_2">
      <g>
       <use style="stroke:#000000;stroke-width:0.8;" x="198.481649" xlink:href="#m243bb42fde" y="318.2"/>
      </g>
     </g>
     <g id="text_2">
      <!-- 1000 -->
      <g transform="translate(185.756649 332.798438)scale(0.1 -0.1)">
       <defs>
        <path d="M 12.40625 8.296875 
L 28.515625 8.296875 
L 28.515625 63.921875 
L 10.984375 60.40625 
L 10.984375 69.390625 
L 28.421875 72.90625 
L 38.28125 72.90625 
L 38.28125 8.296875 
L 54.390625 8.296875 
L 54.390625 0 
L 12.40625 0 
z
" id="DejaVuSans-49"/>
       </defs>
       <use xlink:href="#DejaVuSans-49"/>
       <use x="63.623047" xlink:href="#DejaVuSans-48"/>
       <use x="127.246094" xlink:href="#DejaVuSans-48"/>
       <use x="190.869141" xlink:href="#DejaVuSans-48"/>
      </g>
     </g>
    </g>
    <g id="xtick_3">
     <g id="line2d_3">
      <g>
       <use style="stroke:#000000;stroke-width:0.8;" x="313.47097" xlink:href="#m243bb42fde" y="318.2"/>
      </g>
     </g>
     <g id="text_3">
      <!-- 2000 -->
      <g transform="translate(300.74597 332.798438)scale(0.1 -0.1)">
       <defs>
        <path d="M 19.1875 8.296875 
L 53.609375 8.296875 
L 53.609375 0 
L 7.328125 0 
L 7.328125 8.296875 
Q 12.9375 14.109375 22.625 23.890625 
Q 32.328125 33.6875 34.8125 36.53125 
Q 39.546875 41.84375 41.421875 45.53125 
Q 43.3125 49.21875 43.3125 52.78125 
Q 43.3125 58.59375 39.234375 62.25 
Q 35.15625 65.921875 28.609375 65.921875 
Q 23.96875 65.921875 18.8125 64.3125 
Q 13.671875 62.703125 7.8125 59.421875 
L 7.8125 69.390625 
Q 13.765625 71.78125 18.9375 73 
Q 24.125 74.21875 28.421875 74.21875 
Q 39.75 74.21875 46.484375 68.546875 
Q 53.21875 62.890625 53.21875 53.421875 
Q 53.21875 48.921875 51.53125 44.890625 
Q 49.859375 40.875 45.40625 35.40625 
Q 44.1875 33.984375 37.640625 27.21875 
Q 31.109375 20.453125 19.1875 8.296875 
z
" id="DejaVuSans-50"/>
       </defs>
       <use xlink:href="#DejaVuSans-50"/>
       <use x="63.623047" xlink:href="#DejaVuSans-48"/>
       <use x="127.246094" xlink:href="#DejaVuSans-48"/>
       <use x="190.869141" xlink:href="#DejaVuSans-48"/>
      </g>
     </g>
    </g>
    <g id="xtick_4">
     <g id="line2d_4">
      <g>
       <use style="stroke:#000000;stroke-width:0.8;" x="428.46029" xlink:href="#m243bb42fde" y="318.2"/>
      </g>
     </g>
     <g id="text_4">
      <!-- 3000 -->
      <g transform="translate(415.73529 332.798438)scale(0.1 -0.1)">
       <defs>
        <path d="M 40.578125 39.3125 
Q 47.65625 37.796875 51.625 33 
Q 55.609375 28.21875 55.609375 21.1875 
Q 55.609375 10.40625 48.1875 4.484375 
Q 40.765625 -1.421875 27.09375 -1.421875 
Q 22.515625 -1.421875 17.65625 -0.515625 
Q 12.796875 0.390625 7.625 2.203125 
L 7.625 11.71875 
Q 11.71875 9.328125 16.59375 8.109375 
Q 21.484375 6.890625 26.8125 6.890625 
Q 36.078125 6.890625 40.9375 10.546875 
Q 45.796875 14.203125 45.796875 21.1875 
Q 45.796875 27.640625 41.28125 31.265625 
Q 36.765625 34.90625 28.71875 34.90625 
L 20.21875 34.90625 
L 20.21875 43.015625 
L 29.109375 43.015625 
Q 36.375 43.015625 40.234375 45.921875 
Q 44.09375 48.828125 44.09375 54.296875 
Q 44.09375 59.90625 40.109375 62.90625 
Q 36.140625 65.921875 28.71875 65.921875 
Q 24.65625 65.921875 20.015625 65.03125 
Q 15.375 64.15625 9.8125 62.3125 
L 9.8125 71.09375 
Q 15.4375 72.65625 20.34375 73.4375 
Q 25.25 74.21875 29.59375 74.21875 
Q 40.828125 74.21875 47.359375 69.109375 
Q 53.90625 64.015625 53.90625 55.328125 
Q 53.90625 49.265625 50.4375 45.09375 
Q 46.96875 40.921875 40.578125 39.3125 
z
" id="DejaVuSans-51"/>
       </defs>
       <use xlink:href="#DejaVuSans-51"/>
       <use x="63.623047" xlink:href="#DejaVuSans-48"/>
       <use x="127.246094" xlink:href="#DejaVuSans-48"/>
       <use x="190.869141" xlink:href="#DejaVuSans-48"/>
      </g>
     </g>
    </g>
    <g id="xtick_5">
     <g id="line2d_5">
      <g>
       <use style="stroke:#000000;stroke-width:0.8;" x="543.449611" xlink:href="#m243bb42fde" y="318.2"/>
      </g>
     </g>
     <g id="text_5">
      <!-- 4000 -->
      <g transform="translate(530.724611 332.798438)scale(0.1 -0.1)">
       <defs>
        <path d="M 37.796875 64.3125 
L 12.890625 25.390625 
L 37.796875 25.390625 
z
M 35.203125 72.90625 
L 47.609375 72.90625 
L 47.609375 25.390625 
L 58.015625 25.390625 
L 58.015625 17.1875 
L 47.609375 17.1875 
L 47.609375 0 
L 37.796875 0 
L 37.796875 17.1875 
L 4.890625 17.1875 
L 4.890625 26.703125 
z
" id="DejaVuSans-52"/>
       </defs>
       <use xlink:href="#DejaVuSans-52"/>
       <use x="63.623047" xlink:href="#DejaVuSans-48"/>
       <use x="127.246094" xlink:href="#DejaVuSans-48"/>
       <use x="190.869141" xlink:href="#DejaVuSans-48"/>
      </g>
     </g>
    </g>
    <g id="xtick_6">
     <g id="line2d_6">
      <g>
       <use style="stroke:#000000;stroke-width:0.8;" x="658.438932" xlink:href="#m243bb42fde" y="318.2"/>
      </g>
     </g>
     <g id="text_6">
      <!-- 5000 -->
      <g transform="translate(645.713932 332.798438)scale(0.1 -0.1)">
       <defs>
        <path d="M 10.796875 72.90625 
L 49.515625 72.90625 
L 49.515625 64.59375 
L 19.828125 64.59375 
L 19.828125 46.734375 
Q 21.96875 47.46875 24.109375 47.828125 
Q 26.265625 48.1875 28.421875 48.1875 
Q 40.625 48.1875 47.75 41.5 
Q 54.890625 34.8125 54.890625 23.390625 
Q 54.890625 11.625 47.5625 5.09375 
Q 40.234375 -1.421875 26.90625 -1.421875 
Q 22.3125 -1.421875 17.546875 -0.640625 
Q 12.796875 0.140625 7.71875 1.703125 
L 7.71875 11.625 
Q 12.109375 9.234375 16.796875 8.0625 
Q 21.484375 6.890625 26.703125 6.890625 
Q 35.15625 6.890625 40.078125 11.328125 
Q 45.015625 15.765625 45.015625 23.390625 
Q 45.015625 31 40.078125 35.4375 
Q 35.15625 39.890625 26.703125 39.890625 
Q 22.75 39.890625 18.8125 39.015625 
Q 14.890625 38.140625 10.796875 36.28125 
z
" id="DejaVuSans-53"/>
       </defs>
       <use xlink:href="#DejaVuSans-53"/>
       <use x="63.623047" xlink:href="#DejaVuSans-48"/>
       <use x="127.246094" xlink:href="#DejaVuSans-48"/>
       <use x="190.869141" xlink:href="#DejaVuSans-48"/>
      </g>
     </g>
    </g>
    <g id="text_7">
     <!-- Entity counts -->
     <g transform="translate(344.853125 346.476562)scale(0.1 -0.1)">
      <defs>
       <path d="M 9.8125 72.90625 
L 55.90625 72.90625 
L 55.90625 64.59375 
L 19.671875 64.59375 
L 19.671875 43.015625 
L 54.390625 43.015625 
L 54.390625 34.71875 
L 19.671875 34.71875 
L 19.671875 8.296875 
L 56.78125 8.296875 
L 56.78125 0 
L 9.8125 0 
z
" id="DejaVuSans-69"/>
       <path d="M 54.890625 33.015625 
L 54.890625 0 
L 45.90625 0 
L 45.90625 32.71875 
Q 45.90625 40.484375 42.875 44.328125 
Q 39.84375 48.1875 33.796875 48.1875 
Q 26.515625 48.1875 22.3125 43.546875 
Q 18.109375 38.921875 18.109375 30.90625 
L 18.109375 0 
L 9.078125 0 
L 9.078125 54.6875 
L 18.109375 54.6875 
L 18.109375 46.1875 
Q 21.34375 51.125 25.703125 53.5625 
Q 30.078125 56 35.796875 56 
Q 45.21875 56 50.046875 50.171875 
Q 54.890625 44.34375 54.890625 33.015625 
z
" id="DejaVuSans-110"/>
       <path d="M 18.3125 70.21875 
L 18.3125 54.6875 
L 36.8125 54.6875 
L 36.8125 47.703125 
L 18.3125 47.703125 
L 18.3125 18.015625 
Q 18.3125 11.328125 20.140625 9.421875 
Q 21.96875 7.515625 27.59375 7.515625 
L 36.8125 7.515625 
L 36.8125 0 
L 27.59375 0 
Q 17.1875 0 13.234375 3.875 
Q 9.28125 7.765625 9.28125 18.015625 
L 9.28125 47.703125 
L 2.6875 47.703125 
L 2.6875 54.6875 
L 9.28125 54.6875 
L 9.28125 70.21875 
z
" id="DejaVuSans-116"/>
       <path d="M 9.421875 54.6875 
L 18.40625 54.6875 
L 18.40625 0 
L 9.421875 0 
z
M 9.421875 75.984375 
L 18.40625 75.984375 
L 18.40625 64.59375 
L 9.421875 64.59375 
z
" id="DejaVuSans-105"/>
       <path d="M 32.171875 -5.078125 
Q 28.375 -14.84375 24.75 -17.8125 
Q 21.140625 -20.796875 15.09375 -20.796875 
L 7.90625 -20.796875 
L 7.90625 -13.28125 
L 13.1875 -13.28125 
Q 16.890625 -13.28125 18.9375 -11.515625 
Q 21 -9.765625 23.484375 -3.21875 
L 25.09375 0.875 
L 2.984375 54.6875 
L 12.5 54.6875 
L 29.59375 11.921875 
L 46.6875 54.6875 
L 56.203125 54.6875 
z
" id="DejaVuSans-121"/>
       <path id="DejaVuSans-32"/>
       <path d="M 48.78125 52.59375 
L 48.78125 44.1875 
Q 44.96875 46.296875 41.140625 47.34375 
Q 37.3125 48.390625 33.40625 48.390625 
Q 24.65625 48.390625 19.8125 42.84375 
Q 14.984375 37.3125 14.984375 27.296875 
Q 14.984375 17.28125 19.8125 11.734375 
Q 24.65625 6.203125 33.40625 6.203125 
Q 37.3125 6.203125 41.140625 7.25 
Q 44.96875 8.296875 48.78125 10.40625 
L 48.78125 2.09375 
Q 45.015625 0.34375 40.984375 -0.53125 
Q 36.96875 -1.421875 32.421875 -1.421875 
Q 20.0625 -1.421875 12.78125 6.34375 
Q 5.515625 14.109375 5.515625 27.296875 
Q 5.515625 40.671875 12.859375 48.328125 
Q 20.21875 56 33.015625 56 
Q 37.15625 56 41.109375 55.140625 
Q 45.0625 54.296875 48.78125 52.59375 
z
" id="DejaVuSans-99"/>
       <path d="M 30.609375 48.390625 
Q 23.390625 48.390625 19.1875 42.75 
Q 14.984375 37.109375 14.984375 27.296875 
Q 14.984375 17.484375 19.15625 11.84375 
Q 23.34375 6.203125 30.609375 6.203125 
Q 37.796875 6.203125 41.984375 11.859375 
Q 46.1875 17.53125 46.1875 27.296875 
Q 46.1875 37.015625 41.984375 42.703125 
Q 37.796875 48.390625 30.609375 48.390625 
z
M 30.609375 56 
Q 42.328125 56 49.015625 48.375 
Q 55.71875 40.765625 55.71875 27.296875 
Q 55.71875 13.875 49.015625 6.21875 
Q 42.328125 -1.421875 30.609375 -1.421875 
Q 18.84375 -1.421875 12.171875 6.21875 
Q 5.515625 13.875 5.515625 27.296875 
Q 5.515625 40.765625 12.171875 48.375 
Q 18.84375 56 30.609375 56 
z
" id="DejaVuSans-111"/>
       <path d="M 8.5 21.578125 
L 8.5 54.6875 
L 17.484375 54.6875 
L 17.484375 21.921875 
Q 17.484375 14.15625 20.5 10.265625 
Q 23.53125 6.390625 29.59375 6.390625 
Q 36.859375 6.390625 41.078125 11.03125 
Q 45.3125 15.671875 45.3125 23.6875 
L 45.3125 54.6875 
L 54.296875 54.6875 
L 54.296875 0 
L 45.3125 0 
L 45.3125 8.40625 
Q 42.046875 3.421875 37.71875 1 
Q 33.40625 -1.421875 27.6875 -1.421875 
Q 18.265625 -1.421875 13.375 4.4375 
Q 8.5 10.296875 8.5 21.578125 
z
M 31.109375 56 
z
" id="DejaVuSans-117"/>
       <path d="M 44.28125 53.078125 
L 44.28125 44.578125 
Q 40.484375 46.53125 36.375 47.5 
Q 32.28125 48.484375 27.875 48.484375 
Q 21.1875 48.484375 17.84375 46.4375 
Q 14.5 44.390625 14.5 40.28125 
Q 14.5 37.15625 16.890625 35.375 
Q 19.28125 33.59375 26.515625 31.984375 
L 29.59375 31.296875 
Q 39.15625 29.25 43.1875 25.515625 
Q 47.21875 21.78125 47.21875 15.09375 
Q 47.21875 7.46875 41.1875 3.015625 
Q 35.15625 -1.421875 24.609375 -1.421875 
Q 20.21875 -1.421875 15.453125 -0.5625 
Q 10.6875 0.296875 5.421875 2 
L 5.421875 11.28125 
Q 10.40625 8.6875 15.234375 7.390625 
Q 20.0625 6.109375 24.8125 6.109375 
Q 31.15625 6.109375 34.5625 8.28125 
Q 37.984375 10.453125 37.984375 14.40625 
Q 37.984375 18.0625 35.515625 20.015625 
Q 33.0625 21.96875 24.703125 23.78125 
L 21.578125 24.515625 
Q 13.234375 26.265625 9.515625 29.90625 
Q 5.8125 33.546875 5.8125 39.890625 
Q 5.8125 47.609375 11.28125 51.796875 
Q 16.75 56 26.8125 56 
Q 31.78125 56 36.171875 55.265625 
Q 40.578125 54.546875 44.28125 53.078125 
z
" id="DejaVuSans-115"/>
      </defs>
      <use xlink:href="#DejaVuSans-69"/>
      <use x="63.183594" xlink:href="#DejaVuSans-110"/>
      <use x="126.5625" xlink:href="#DejaVuSans-116"/>
      <use x="165.771484" xlink:href="#DejaVuSans-105"/>
      <use x="193.554688" xlink:href="#DejaVuSans-116"/>
      <use x="232.763672" xlink:href="#DejaVuSans-121"/>
      <use x="291.943359" xlink:href="#DejaVuSans-32"/>
      <use x="323.730469" xlink:href="#DejaVuSans-99"/>
      <use x="378.710938" xlink:href="#DejaVuSans-111"/>
      <use x="439.892578" xlink:href="#DejaVuSans-117"/>
      <use x="503.271484" xlink:href="#DejaVuSans-110"/>
      <use x="566.650391" xlink:href="#DejaVuSans-116"/>
      <use x="605.859375" xlink:href="#DejaVuSans-115"/>
     </g>
    </g>
   </g>
   <g id="matplotlib.axis_2">
    <g id="ytick_1">
     <g id="line2d_7">
      <defs>
       <path d="M 0 0 
L -3.5 0 
" id="m6aba507787" style="stroke:#000000;stroke-width:0.8;"/>
      </defs>
      <g>
       <use style="stroke:#000000;stroke-width:0.8;" x="46.3" xlink:href="#m6aba507787" y="318.2"/>
      </g>
     </g>
     <g id="text_8">
      <!-- 0.000 -->
      <g transform="translate(10.671875 321.999219)scale(0.1 -0.1)">
       <defs>
        <path d="M 10.6875 12.40625 
L 21 12.40625 
L 21 0 
L 10.6875 0 
z
" id="DejaVuSans-46"/>
       </defs>
       <use xlink:href="#DejaVuSans-48"/>
       <use x="63.623047" xlink:href="#DejaVuSans-46"/>
       <use x="95.410156" xlink:href="#DejaVuSans-48"/>
       <use x="159.033203" xlink:href="#DejaVuSans-48"/>
       <use x="222.65625" xlink:href="#DejaVuSans-48"/>
      </g>
     </g>
    </g>
    <g id="ytick_2">
     <g id="line2d_8">
      <g>
       <use style="stroke:#000000;stroke-width:0.8;" x="46.3" xlink:href="#m6aba507787" y="260.963874"/>
      </g>
     </g>
     <g id="text_9">
      <!-- 0.005 -->
      <g transform="translate(10.671875 264.763093)scale(0.1 -0.1)">
       <use xlink:href="#DejaVuSans-48"/>
       <use x="63.623047" xlink:href="#DejaVuSans-46"/>
       <use x="95.410156" xlink:href="#DejaVuSans-48"/>
       <use x="159.033203" xlink:href="#DejaVuSans-48"/>
       <use x="222.65625" xlink:href="#DejaVuSans-53"/>
      </g>
     </g>
    </g>
    <g id="ytick_3">
     <g id="line2d_9">
      <g>
       <use style="stroke:#000000;stroke-width:0.8;" x="46.3" xlink:href="#m6aba507787" y="203.727748"/>
      </g>
     </g>
     <g id="text_10">
      <!-- 0.010 -->
      <g transform="translate(10.671875 207.526966)scale(0.1 -0.1)">
       <use xlink:href="#DejaVuSans-48"/>
       <use x="63.623047" xlink:href="#DejaVuSans-46"/>
       <use x="95.410156" xlink:href="#DejaVuSans-48"/>
       <use x="159.033203" xlink:href="#DejaVuSans-49"/>
       <use x="222.65625" xlink:href="#DejaVuSans-48"/>
      </g>
     </g>
    </g>
    <g id="ytick_4">
     <g id="line2d_10">
      <g>
       <use style="stroke:#000000;stroke-width:0.8;" x="46.3" xlink:href="#m6aba507787" y="146.491621"/>
      </g>
     </g>
     <g id="text_11">
      <!-- 0.015 -->
      <g transform="translate(10.671875 150.29084)scale(0.1 -0.1)">
       <use xlink:href="#DejaVuSans-48"/>
       <use x="63.623047" xlink:href="#DejaVuSans-46"/>
       <use x="95.410156" xlink:href="#DejaVuSans-48"/>
       <use x="159.033203" xlink:href="#DejaVuSans-49"/>
       <use x="222.65625" xlink:href="#DejaVuSans-53"/>
      </g>
     </g>
    </g>
    <g id="ytick_5">
     <g id="line2d_11">
      <g>
       <use style="stroke:#000000;stroke-width:0.8;" x="46.3" xlink:href="#m6aba507787" y="89.255495"/>
      </g>
     </g>
     <g id="text_12">
      <!-- 0.020 -->
      <g transform="translate(10.671875 93.054714)scale(0.1 -0.1)">
       <use xlink:href="#DejaVuSans-48"/>
       <use x="63.623047" xlink:href="#DejaVuSans-46"/>
       <use x="95.410156" xlink:href="#DejaVuSans-48"/>
       <use x="159.033203" xlink:href="#DejaVuSans-50"/>
       <use x="222.65625" xlink:href="#DejaVuSans-48"/>
      </g>
     </g>
    </g>
    <g id="ytick_6">
     <g id="line2d_12">
      <g>
       <use style="stroke:#000000;stroke-width:0.8;" x="46.3" xlink:href="#m6aba507787" y="32.019369"/>
      </g>
     </g>
     <g id="text_13">
      <!-- 0.025 -->
      <g transform="translate(10.671875 35.818588)scale(0.1 -0.1)">
       <use xlink:href="#DejaVuSans-48"/>
       <use x="63.623047" xlink:href="#DejaVuSans-46"/>
       <use x="95.410156" xlink:href="#DejaVuSans-48"/>
       <use x="159.033203" xlink:href="#DejaVuSans-50"/>
       <use x="222.65625" xlink:href="#DejaVuSans-53"/>
      </g>
     </g>
    </g>
   </g>
   <g id="line2d_13">
    <path clip-path="url(#p197d8d1df4)" d="M 76.431818 317.224965 
L 82.519054 204.81582 
L 88.60629 260.512854 
L 94.693526 297.533807 
L 100.780762 309.40458 
L 106.867998 313.544491 
L 112.955234 314.874302 
L 119.04247 316.023402 
L 125.129706 316.681696 
L 131.216942 317.319804 
L 137.304178 317.463665 
L 143.391414 317.520605 
L 149.47865 317.806798 
L 155.565886 317.931228 
L 161.653122 317.923289 
L 167.740358 317.959931 
L 173.827594 318.043621 
L 179.91483 318.069082 
L 186.002066 318.041869 
L 192.089302 318.094975 
L 198.176538 318.099533 
L 204.263774 318.04117 
L 210.35101 318.108398 
L 216.438246 318.092599 
L 222.525482 318.173332 
L 228.612718 318.146271 
L 234.699954 318.16106 
L 240.78719 318.150313 
L 246.874426 318.19051 
L 252.961662 318.180895 
L 259.048898 318.143144 
L 265.136134 318.189125 
L 271.22337 318.177891 
L 277.310606 318.184371 
L 283.397842 318.177454 
L 289.485078 318.194974 
L 295.572314 318.199759 
L 301.65955 318.18614 
L 307.746786 318.198993 
L 313.834022 318.199599 
L 319.921258 318.172771 
L 326.008494 318.197702 
L 332.09573 318.2 
L 338.182966 318.2 
L 344.270202 318.2 
L 350.357438 318.2 
L 356.444674 318.2 
L 362.53191 318.2 
L 368.619146 318.2 
L 374.706382 318.2 
L 380.793618 318.2 
L 386.880854 318.199962 
L 392.96809 318.190066 
L 399.055326 318.196738 
L 405.142562 318.199999 
L 411.229798 318.199651 
L 417.317034 318.185733 
L 423.40427 318.199273 
L 429.491506 318.2 
L 435.578742 318.2 
L 441.665978 318.2 
L 447.753214 318.2 
L 453.84045 318.19996 
L 459.927686 318.189936 
L 466.014922 318.196823 
L 472.102158 318.199998 
L 478.189394 318.197972 
L 484.27663 318.188006 
L 490.363866 318.199912 
L 496.451102 318.2 
L 502.538338 318.2 
L 508.625574 318.2 
L 514.71281 318.2 
L 520.800046 318.2 
L 526.887282 318.2 
L 532.974518 318.2 
L 539.061754 318.2 
L 545.14899 318.2 
L 551.236226 318.2 
L 557.323462 318.2 
L 563.410698 318.2 
L 569.497934 318.2 
L 575.58517 318.2 
L 581.672406 318.2 
L 587.759642 318.2 
L 593.846878 318.2 
L 599.934114 318.2 
L 606.02135 318.2 
L 612.108586 318.2 
L 618.195822 318.2 
L 624.283058 318.2 
L 630.370294 318.2 
L 636.45753 318.2 
L 642.544766 318.2 
L 648.632002 318.2 
L 654.719238 318.2 
L 660.806474 318.2 
L 666.89371 318.19864 
L 672.980946 318.186769 
L 679.068182 318.19984 
" style="fill:none;stroke:#1f77b4;stroke-linecap:square;stroke-width:1.5;"/>
   </g>
   <g id="patch_203">
    <path d="M 46.3 318.2 
L 46.3 26.8 
" style="fill:none;stroke:#000000;stroke-linecap:square;stroke-linejoin:miter;stroke-width:0.8;"/>
   </g>
   <g id="patch_204">
    <path d="M 709.2 318.2 
L 709.2 26.8 
" style="fill:none;stroke:#000000;stroke-linecap:square;stroke-linejoin:miter;stroke-width:0.8;"/>
   </g>
   <g id="patch_205">
    <path d="M 46.3 318.2 
L 709.2 318.2 
" style="fill:none;stroke:#000000;stroke-linecap:square;stroke-linejoin:miter;stroke-width:0.8;"/>
   </g>
   <g id="patch_206">
    <path d="M 46.3 26.8 
L 709.2 26.8 
" style="fill:none;stroke:#000000;stroke-linecap:square;stroke-linejoin:miter;stroke-width:0.8;"/>
   </g>
   <g id="text_14">
    <!-- Distribution plot of entity counts for COVID-19 dataset -->
    <g transform="translate(214.61 20.8)scale(0.12 -0.12)">
     <defs>
      <path d="M 19.671875 64.796875 
L 19.671875 8.109375 
L 31.59375 8.109375 
Q 46.6875 8.109375 53.6875 14.9375 
Q 60.6875 21.78125 60.6875 36.53125 
Q 60.6875 51.171875 53.6875 57.984375 
Q 46.6875 64.796875 31.59375 64.796875 
z
M 9.8125 72.90625 
L 30.078125 72.90625 
Q 51.265625 72.90625 61.171875 64.09375 
Q 71.09375 55.28125 71.09375 36.53125 
Q 71.09375 17.671875 61.125 8.828125 
Q 51.171875 0 30.078125 0 
L 9.8125 0 
z
" id="DejaVuSans-68"/>
      <path d="M 41.109375 46.296875 
Q 39.59375 47.171875 37.8125 47.578125 
Q 36.03125 48 33.890625 48 
Q 26.265625 48 22.1875 43.046875 
Q 18.109375 38.09375 18.109375 28.8125 
L 18.109375 0 
L 9.078125 0 
L 9.078125 54.6875 
L 18.109375 54.6875 
L 18.109375 46.1875 
Q 20.953125 51.171875 25.484375 53.578125 
Q 30.03125 56 36.53125 56 
Q 37.453125 56 38.578125 55.875 
Q 39.703125 55.765625 41.0625 55.515625 
z
" id="DejaVuSans-114"/>
      <path d="M 48.6875 27.296875 
Q 48.6875 37.203125 44.609375 42.84375 
Q 40.53125 48.484375 33.40625 48.484375 
Q 26.265625 48.484375 22.1875 42.84375 
Q 18.109375 37.203125 18.109375 27.296875 
Q 18.109375 17.390625 22.1875 11.75 
Q 26.265625 6.109375 33.40625 6.109375 
Q 40.53125 6.109375 44.609375 11.75 
Q 48.6875 17.390625 48.6875 27.296875 
z
M 18.109375 46.390625 
Q 20.953125 51.265625 25.265625 53.625 
Q 29.59375 56 35.59375 56 
Q 45.5625 56 51.78125 48.09375 
Q 58.015625 40.1875 58.015625 27.296875 
Q 58.015625 14.40625 51.78125 6.484375 
Q 45.5625 -1.421875 35.59375 -1.421875 
Q 29.59375 -1.421875 25.265625 0.953125 
Q 20.953125 3.328125 18.109375 8.203125 
L 18.109375 0 
L 9.078125 0 
L 9.078125 75.984375 
L 18.109375 75.984375 
z
" id="DejaVuSans-98"/>
      <path d="M 18.109375 8.203125 
L 18.109375 -20.796875 
L 9.078125 -20.796875 
L 9.078125 54.6875 
L 18.109375 54.6875 
L 18.109375 46.390625 
Q 20.953125 51.265625 25.265625 53.625 
Q 29.59375 56 35.59375 56 
Q 45.5625 56 51.78125 48.09375 
Q 58.015625 40.1875 58.015625 27.296875 
Q 58.015625 14.40625 51.78125 6.484375 
Q 45.5625 -1.421875 35.59375 -1.421875 
Q 29.59375 -1.421875 25.265625 0.953125 
Q 20.953125 3.328125 18.109375 8.203125 
z
M 48.6875 27.296875 
Q 48.6875 37.203125 44.609375 42.84375 
Q 40.53125 48.484375 33.40625 48.484375 
Q 26.265625 48.484375 22.1875 42.84375 
Q 18.109375 37.203125 18.109375 27.296875 
Q 18.109375 17.390625 22.1875 11.75 
Q 26.265625 6.109375 33.40625 6.109375 
Q 40.53125 6.109375 44.609375 11.75 
Q 48.6875 17.390625 48.6875 27.296875 
z
" id="DejaVuSans-112"/>
      <path d="M 9.421875 75.984375 
L 18.40625 75.984375 
L 18.40625 0 
L 9.421875 0 
z
" id="DejaVuSans-108"/>
      <path d="M 37.109375 75.984375 
L 37.109375 68.5 
L 28.515625 68.5 
Q 23.6875 68.5 21.796875 66.546875 
Q 19.921875 64.59375 19.921875 59.515625 
L 19.921875 54.6875 
L 34.71875 54.6875 
L 34.71875 47.703125 
L 19.921875 47.703125 
L 19.921875 0 
L 10.890625 0 
L 10.890625 47.703125 
L 2.296875 47.703125 
L 2.296875 54.6875 
L 10.890625 54.6875 
L 10.890625 58.5 
Q 10.890625 67.625 15.140625 71.796875 
Q 19.390625 75.984375 28.609375 75.984375 
z
" id="DejaVuSans-102"/>
      <path d="M 56.203125 29.59375 
L 56.203125 25.203125 
L 14.890625 25.203125 
Q 15.484375 15.921875 20.484375 11.0625 
Q 25.484375 6.203125 34.421875 6.203125 
Q 39.59375 6.203125 44.453125 7.46875 
Q 49.3125 8.734375 54.109375 11.28125 
L 54.109375 2.78125 
Q 49.265625 0.734375 44.1875 -0.34375 
Q 39.109375 -1.421875 33.890625 -1.421875 
Q 20.796875 -1.421875 13.15625 6.1875 
Q 5.515625 13.8125 5.515625 26.8125 
Q 5.515625 40.234375 12.765625 48.109375 
Q 20.015625 56 32.328125 56 
Q 43.359375 56 49.78125 48.890625 
Q 56.203125 41.796875 56.203125 29.59375 
z
M 47.21875 32.234375 
Q 47.125 39.59375 43.09375 43.984375 
Q 39.0625 48.390625 32.421875 48.390625 
Q 24.90625 48.390625 20.390625 44.140625 
Q 15.875 39.890625 15.1875 32.171875 
z
" id="DejaVuSans-101"/>
      <path d="M 64.40625 67.28125 
L 64.40625 56.890625 
Q 59.421875 61.53125 53.78125 63.8125 
Q 48.140625 66.109375 41.796875 66.109375 
Q 29.296875 66.109375 22.65625 58.46875 
Q 16.015625 50.828125 16.015625 36.375 
Q 16.015625 21.96875 22.65625 14.328125 
Q 29.296875 6.6875 41.796875 6.6875 
Q 48.140625 6.6875 53.78125 8.984375 
Q 59.421875 11.28125 64.40625 15.921875 
L 64.40625 5.609375 
Q 59.234375 2.09375 53.4375 0.328125 
Q 47.65625 -1.421875 41.21875 -1.421875 
Q 24.65625 -1.421875 15.125 8.703125 
Q 5.609375 18.84375 5.609375 36.375 
Q 5.609375 53.953125 15.125 64.078125 
Q 24.65625 74.21875 41.21875 74.21875 
Q 47.75 74.21875 53.53125 72.484375 
Q 59.328125 70.75 64.40625 67.28125 
z
" id="DejaVuSans-67"/>
      <path d="M 39.40625 66.21875 
Q 28.65625 66.21875 22.328125 58.203125 
Q 16.015625 50.203125 16.015625 36.375 
Q 16.015625 22.609375 22.328125 14.59375 
Q 28.65625 6.59375 39.40625 6.59375 
Q 50.140625 6.59375 56.421875 14.59375 
Q 62.703125 22.609375 62.703125 36.375 
Q 62.703125 50.203125 56.421875 58.203125 
Q 50.140625 66.21875 39.40625 66.21875 
z
M 39.40625 74.21875 
Q 54.734375 74.21875 63.90625 63.9375 
Q 73.09375 53.65625 73.09375 36.375 
Q 73.09375 19.140625 63.90625 8.859375 
Q 54.734375 -1.421875 39.40625 -1.421875 
Q 24.03125 -1.421875 14.8125 8.828125 
Q 5.609375 19.09375 5.609375 36.375 
Q 5.609375 53.65625 14.8125 63.9375 
Q 24.03125 74.21875 39.40625 74.21875 
z
" id="DejaVuSans-79"/>
      <path d="M 28.609375 0 
L 0.78125 72.90625 
L 11.078125 72.90625 
L 34.1875 11.53125 
L 57.328125 72.90625 
L 67.578125 72.90625 
L 39.796875 0 
z
" id="DejaVuSans-86"/>
      <path d="M 9.8125 72.90625 
L 19.671875 72.90625 
L 19.671875 0 
L 9.8125 0 
z
" id="DejaVuSans-73"/>
      <path d="M 4.890625 31.390625 
L 31.203125 31.390625 
L 31.203125 23.390625 
L 4.890625 23.390625 
z
" id="DejaVuSans-45"/>
      <path d="M 10.984375 1.515625 
L 10.984375 10.5 
Q 14.703125 8.734375 18.5 7.8125 
Q 22.3125 6.890625 25.984375 6.890625 
Q 35.75 6.890625 40.890625 13.453125 
Q 46.046875 20.015625 46.78125 33.40625 
Q 43.953125 29.203125 39.59375 26.953125 
Q 35.25 24.703125 29.984375 24.703125 
Q 19.046875 24.703125 12.671875 31.3125 
Q 6.296875 37.9375 6.296875 49.421875 
Q 6.296875 60.640625 12.9375 67.421875 
Q 19.578125 74.21875 30.609375 74.21875 
Q 43.265625 74.21875 49.921875 64.515625 
Q 56.59375 54.828125 56.59375 36.375 
Q 56.59375 19.140625 48.40625 8.859375 
Q 40.234375 -1.421875 26.421875 -1.421875 
Q 22.703125 -1.421875 18.890625 -0.6875 
Q 15.09375 0.046875 10.984375 1.515625 
z
M 30.609375 32.421875 
Q 37.25 32.421875 41.125 36.953125 
Q 45.015625 41.5 45.015625 49.421875 
Q 45.015625 57.28125 41.125 61.84375 
Q 37.25 66.40625 30.609375 66.40625 
Q 23.96875 66.40625 20.09375 61.84375 
Q 16.21875 57.28125 16.21875 49.421875 
Q 16.21875 41.5 20.09375 36.953125 
Q 23.96875 32.421875 30.609375 32.421875 
z
" id="DejaVuSans-57"/>
      <path d="M 45.40625 46.390625 
L 45.40625 75.984375 
L 54.390625 75.984375 
L 54.390625 0 
L 45.40625 0 
L 45.40625 8.203125 
Q 42.578125 3.328125 38.25 0.953125 
Q 33.9375 -1.421875 27.875 -1.421875 
Q 17.96875 -1.421875 11.734375 6.484375 
Q 5.515625 14.40625 5.515625 27.296875 
Q 5.515625 40.1875 11.734375 48.09375 
Q 17.96875 56 27.875 56 
Q 33.9375 56 38.25 53.625 
Q 42.578125 51.265625 45.40625 46.390625 
z
M 14.796875 27.296875 
Q 14.796875 17.390625 18.875 11.75 
Q 22.953125 6.109375 30.078125 6.109375 
Q 37.203125 6.109375 41.296875 11.75 
Q 45.40625 17.390625 45.40625 27.296875 
Q 45.40625 37.203125 41.296875 42.84375 
Q 37.203125 48.484375 30.078125 48.484375 
Q 22.953125 48.484375 18.875 42.84375 
Q 14.796875 37.203125 14.796875 27.296875 
z
" id="DejaVuSans-100"/>
      <path d="M 34.28125 27.484375 
Q 23.390625 27.484375 19.1875 25 
Q 14.984375 22.515625 14.984375 16.5 
Q 14.984375 11.71875 18.140625 8.90625 
Q 21.296875 6.109375 26.703125 6.109375 
Q 34.1875 6.109375 38.703125 11.40625 
Q 43.21875 16.703125 43.21875 25.484375 
L 43.21875 27.484375 
z
M 52.203125 31.203125 
L 52.203125 0 
L 43.21875 0 
L 43.21875 8.296875 
Q 40.140625 3.328125 35.546875 0.953125 
Q 30.953125 -1.421875 24.3125 -1.421875 
Q 15.921875 -1.421875 10.953125 3.296875 
Q 6 8.015625 6 15.921875 
Q 6 25.140625 12.171875 29.828125 
Q 18.359375 34.515625 30.609375 34.515625 
L 43.21875 34.515625 
L 43.21875 35.40625 
Q 43.21875 41.609375 39.140625 45 
Q 35.0625 48.390625 27.6875 48.390625 
Q 23 48.390625 18.546875 47.265625 
Q 14.109375 46.140625 10.015625 43.890625 
L 10.015625 52.203125 
Q 14.9375 54.109375 19.578125 55.046875 
Q 24.21875 56 28.609375 56 
Q 40.484375 56 46.34375 49.84375 
Q 52.203125 43.703125 52.203125 31.203125 
z
" id="DejaVuSans-97"/>
     </defs>
     <use xlink:href="#DejaVuSans-68"/>
     <use x="77.001953" xlink:href="#DejaVuSans-105"/>
     <use x="104.785156" xlink:href="#DejaVuSans-115"/>
     <use x="156.884766" xlink:href="#DejaVuSans-116"/>
     <use x="196.09375" xlink:href="#DejaVuSans-114"/>
     <use x="237.207031" xlink:href="#DejaVuSans-105"/>
     <use x="264.990234" xlink:href="#DejaVuSans-98"/>
     <use x="328.466797" xlink:href="#DejaVuSans-117"/>
     <use x="391.845703" xlink:href="#DejaVuSans-116"/>
     <use x="431.054688" xlink:href="#DejaVuSans-105"/>
     <use x="458.837891" xlink:href="#DejaVuSans-111"/>
     <use x="520.019531" xlink:href="#DejaVuSans-110"/>
     <use x="583.398438" xlink:href="#DejaVuSans-32"/>
     <use x="615.185547" xlink:href="#DejaVuSans-112"/>
     <use x="678.662109" xlink:href="#DejaVuSans-108"/>
     <use x="706.445312" xlink:href="#DejaVuSans-111"/>
     <use x="767.626953" xlink:href="#DejaVuSans-116"/>
     <use x="806.835938" xlink:href="#DejaVuSans-32"/>
     <use x="838.623047" xlink:href="#DejaVuSans-111"/>
     <use x="899.804688" xlink:href="#DejaVuSans-102"/>
     <use x="935.009766" xlink:href="#DejaVuSans-32"/>
     <use x="966.796875" xlink:href="#DejaVuSans-101"/>
     <use x="1028.320312" xlink:href="#DejaVuSans-110"/>
     <use x="1091.699219" xlink:href="#DejaVuSans-116"/>
     <use x="1130.908203" xlink:href="#DejaVuSans-105"/>
     <use x="1158.691406" xlink:href="#DejaVuSans-116"/>
     <use x="1197.900391" xlink:href="#DejaVuSans-121"/>
     <use x="1257.080078" xlink:href="#DejaVuSans-32"/>
     <use x="1288.867188" xlink:href="#DejaVuSans-99"/>
     <use x="1343.847656" xlink:href="#DejaVuSans-111"/>
     <use x="1405.029297" xlink:href="#DejaVuSans-117"/>
     <use x="1468.408203" xlink:href="#DejaVuSans-110"/>
     <use x="1531.787109" xlink:href="#DejaVuSans-116"/>
     <use x="1570.996094" xlink:href="#DejaVuSans-115"/>
     <use x="1623.095703" xlink:href="#DejaVuSans-32"/>
     <use x="1654.882812" xlink:href="#DejaVuSans-102"/>
     <use x="1690.087891" xlink:href="#DejaVuSans-111"/>
     <use x="1751.269531" xlink:href="#DejaVuSans-114"/>
     <use x="1792.382812" xlink:href="#DejaVuSans-32"/>
     <use x="1824.169922" xlink:href="#DejaVuSans-67"/>
     <use x="1893.994141" xlink:href="#DejaVuSans-79"/>
     <use x="1970.955078" xlink:href="#DejaVuSans-86"/>
     <use x="2039.363281" xlink:href="#DejaVuSans-73"/>
     <use x="2068.855469" xlink:href="#DejaVuSans-68"/>
     <use x="2145.857422" xlink:href="#DejaVuSans-45"/>
     <use x="2181.941406" xlink:href="#DejaVuSans-49"/>
     <use x="2245.564453" xlink:href="#DejaVuSans-57"/>
     <use x="2309.1875" xlink:href="#DejaVuSans-32"/>
     <use x="2340.974609" xlink:href="#DejaVuSans-100"/>
     <use x="2404.451172" xlink:href="#DejaVuSans-97"/>
     <use x="2465.730469" xlink:href="#DejaVuSans-116"/>
     <use x="2504.939453" xlink:href="#DejaVuSans-97"/>
     <use x="2566.21875" xlink:href="#DejaVuSans-115"/>
     <use x="2618.318359" xlink:href="#DejaVuSans-101"/>
     <use x="2679.841797" xlink:href="#DejaVuSans-116"/>
    </g>
   </g>
  </g>
 </g>
 <defs>
  <clipPath id="p197d8d1df4">
   <rect height="291.4" width="662.9" x="46.3" y="26.8"/>
  </clipPath>
 </defs>
</svg>
