<?xml version="1.0" encoding="utf-8" standalone="no"?>
<!DOCTYPE svg PUBLIC "-//W3C//DTD SVG 1.1//EN"
  "http://www.w3.org/Graphics/SVG/1.1/DTD/svg11.dtd">
<!-- Created with matplotlib (https://matplotlib.org/) -->
<svg height="691.061386pt" version="1.1" viewBox="0 0 1051.3625 691.061386" width="1051.3625pt" xmlns="http://www.w3.org/2000/svg" xmlns:xlink="http://www.w3.org/1999/xlink">
 <metadata>
  <rdf:RDF xmlns:cc="http://creativecommons.org/ns#" xmlns:dc="http://purl.org/dc/elements/1.1/" xmlns:rdf="http://www.w3.org/1999/02/22-rdf-syntax-ns#">
   <cc:Work>
    <dc:type rdf:resource="http://purl.org/dc/dcmitype/StillImage"/>
    <dc:date>2020-08-29T12:04:31.268641</dc:date>
    <dc:format>image/svg+xml</dc:format>
    <dc:creator>
     <cc:Agent>
      <dc:title>Matplotlib v3.3.1, https://matplotlib.org/</dc:title>
     </cc:Agent>
    </dc:creator>
   </cc:Work>
  </rdf:RDF>
 </metadata>
 <defs>
  <style type="text/css">*{stroke-linecap:butt;stroke-linejoin:round;}</style>
 </defs>
 <g id="figure_1">
  <g id="patch_1">
   <path d="M 0 691.061386 
L 1051.3625 691.061386 
L 1051.3625 0 
L 0 0 
z
" style="fill:none;"/>
  </g>
  <g id="axes_1">
   <g id="patch_2">
    <path d="M 69.3625 296.04562 
L 1044.1625 296.04562 
L 1044.1625 31.43625 
L 69.3625 31.43625 
z
" style="fill:#ffffff;"/>
   </g>
   <g id="patch_3">
    <path clip-path="url(#p1f24f2e1aa)" d="M 72.97287 296.04562 
L 101.855833 296.04562 
L 101.855833 44.036696 
L 72.97287 44.036696 
z
" style="fill:#987dce;"/>
   </g>
   <g id="patch_4">
    <path clip-path="url(#p1f24f2e1aa)" d="M 109.076574 296.04562 
L 137.959537 296.04562 
L 137.959537 296.04562 
L 109.076574 296.04562 
z
" style="fill:#987dce;"/>
   </g>
   <g id="patch_5">
    <path clip-path="url(#p1f24f2e1aa)" d="M 145.180278 296.04562 
L 174.063241 296.04562 
L 174.063241 296.04562 
L 145.180278 296.04562 
z
" style="fill:#987dce;"/>
   </g>
   <g id="patch_6">
    <path clip-path="url(#p1f24f2e1aa)" d="M 181.283981 296.04562 
L 210.166944 296.04562 
L 210.166944 296.04562 
L 181.283981 296.04562 
z
" style="fill:#987dce;"/>
   </g>
   <g id="patch_7">
    <path clip-path="url(#p1f24f2e1aa)" d="M 217.387685 296.04562 
L 246.270648 296.04562 
L 246.270648 226.339952 
L 217.387685 226.339952 
z
" style="fill:#987dce;"/>
   </g>
   <g id="patch_8">
    <path clip-path="url(#p1f24f2e1aa)" d="M 253.491389 296.04562 
L 282.374352 296.04562 
L 282.374352 296.04562 
L 253.491389 296.04562 
z
" style="fill:#987dce;"/>
   </g>
   <g id="patch_9">
    <path clip-path="url(#p1f24f2e1aa)" d="M 289.595093 296.04562 
L 318.478056 296.04562 
L 318.478056 276.111714 
L 289.595093 276.111714 
z
" style="fill:#987dce;"/>
   </g>
   <g id="patch_10">
    <path clip-path="url(#p1f24f2e1aa)" d="M 325.698796 296.04562 
L 354.581759 296.04562 
L 354.581759 278.480598 
L 325.698796 278.480598 
z
" style="fill:#987dce;"/>
   </g>
   <g id="patch_11">
    <path clip-path="url(#p1f24f2e1aa)" d="M 361.8025 296.04562 
L 390.685463 296.04562 
L 390.685463 296.04562 
L 361.8025 296.04562 
z
" style="fill:#987dce;"/>
   </g>
   <g id="patch_12">
    <path clip-path="url(#p1f24f2e1aa)" d="M 397.906204 296.04562 
L 426.789167 296.04562 
L 426.789167 296.04562 
L 397.906204 296.04562 
z
" style="fill:#987dce;"/>
   </g>
   <g id="patch_13">
    <path clip-path="url(#p1f24f2e1aa)" d="M 434.009907 296.04562 
L 462.89287 296.04562 
L 462.89287 296.04562 
L 434.009907 296.04562 
z
" style="fill:#987dce;"/>
   </g>
   <g id="patch_14">
    <path clip-path="url(#p1f24f2e1aa)" d="M 470.113611 296.04562 
L 498.996574 296.04562 
L 498.996574 272.230777 
L 470.113611 272.230777 
z
" style="fill:#987dce;"/>
   </g>
   <g id="patch_15">
    <path clip-path="url(#p1f24f2e1aa)" d="M 506.217315 296.04562 
L 535.100278 296.04562 
L 535.100278 277.42216 
L 506.217315 277.42216 
z
" style="fill:#987dce;"/>
   </g>
   <g id="patch_16">
    <path clip-path="url(#p1f24f2e1aa)" d="M 542.321019 296.04562 
L 571.203981 296.04562 
L 571.203981 296.04562 
L 542.321019 296.04562 
z
" style="fill:#987dce;"/>
   </g>
   <g id="patch_17">
    <path clip-path="url(#p1f24f2e1aa)" d="M 578.424722 296.04562 
L 607.307685 296.04562 
L 607.307685 293.147517 
L 578.424722 293.147517 
z
" style="fill:#987dce;"/>
   </g>
   <g id="patch_18">
    <path clip-path="url(#p1f24f2e1aa)" d="M 614.528426 296.04562 
L 643.411389 296.04562 
L 643.411389 276.28812 
L 614.528426 276.28812 
z
" style="fill:#987dce;"/>
   </g>
   <g id="patch_19">
    <path clip-path="url(#p1f24f2e1aa)" d="M 650.63213 296.04562 
L 679.515093 296.04562 
L 679.515093 151.820913 
L 650.63213 151.820913 
z
" style="fill:#987dce;"/>
   </g>
   <g id="patch_20">
    <path clip-path="url(#p1f24f2e1aa)" d="M 686.735833 296.04562 
L 715.618796 296.04562 
L 715.618796 258.597094 
L 686.735833 258.597094 
z
" style="fill:#987dce;"/>
   </g>
   <g id="patch_21">
    <path clip-path="url(#p1f24f2e1aa)" d="M 722.839537 296.04562 
L 751.7225 296.04562 
L 751.7225 90.381137 
L 722.839537 90.381137 
z
" style="fill:#987dce;"/>
   </g>
   <g id="patch_22">
    <path clip-path="url(#p1f24f2e1aa)" d="M 758.943241 296.04562 
L 787.826204 296.04562 
L 787.826204 109.987432 
L 758.943241 109.987432 
z
" style="fill:#987dce;"/>
   </g>
   <g id="patch_23">
    <path clip-path="url(#p1f24f2e1aa)" d="M 795.046944 296.04562 
L 823.929907 296.04562 
L 823.929907 250.331201 
L 795.046944 250.331201 
z
" style="fill:#987dce;"/>
   </g>
   <g id="patch_24">
    <path clip-path="url(#p1f24f2e1aa)" d="M 831.150648 296.04562 
L 860.033611 296.04562 
L 860.033611 256.681826 
L 831.150648 256.681826 
z
" style="fill:#987dce;"/>
   </g>
   <g id="patch_25">
    <path clip-path="url(#p1f24f2e1aa)" d="M 867.254352 296.04562 
L 896.137315 296.04562 
L 896.137315 115.229217 
L 867.254352 115.229217 
z
" style="fill:#987dce;"/>
   </g>
   <g id="patch_26">
    <path clip-path="url(#p1f24f2e1aa)" d="M 903.358056 296.04562 
L 932.241019 296.04562 
L 932.241019 266.988991 
L 903.358056 266.988991 
z
" style="fill:#987dce;"/>
   </g>
   <g id="patch_27">
    <path clip-path="url(#p1f24f2e1aa)" d="M 939.461759 296.04562 
L 968.344722 296.04562 
L 968.344722 182.692006 
L 939.461759 182.692006 
z
" style="fill:#987dce;"/>
   </g>
   <g id="patch_28">
    <path clip-path="url(#p1f24f2e1aa)" d="M 975.565463 296.04562 
L 1004.448426 296.04562 
L 1004.448426 112.457119 
L 975.565463 112.457119 
z
" style="fill:#987dce;"/>
   </g>
   <g id="patch_29">
    <path clip-path="url(#p1f24f2e1aa)" d="M 1011.669167 296.04562 
L 1040.55213 296.04562 
L 1040.55213 296.04562 
L 1011.669167 296.04562 
z
" style="fill:#987dce;"/>
   </g>
   <g id="matplotlib.axis_1">
    <g id="xtick_1">
     <g id="line2d_1">
      <defs>
       <path d="M 0 0 
L 0 3.5 
" id="md18a996657" style="stroke:#000000;stroke-width:0.8;"/>
      </defs>
      <g>
       <use style="stroke:#000000;stroke-width:0.8;" x="87.414352" xlink:href="#md18a996657" y="296.04562"/>
      </g>
     </g>
    </g>
    <g id="xtick_2">
     <g id="line2d_2">
      <g>
       <use style="stroke:#000000;stroke-width:0.8;" x="123.518056" xlink:href="#md18a996657" y="296.04562"/>
      </g>
     </g>
    </g>
    <g id="xtick_3">
     <g id="line2d_3">
      <g>
       <use style="stroke:#000000;stroke-width:0.8;" x="159.621759" xlink:href="#md18a996657" y="296.04562"/>
      </g>
     </g>
    </g>
    <g id="xtick_4">
     <g id="line2d_4">
      <g>
       <use style="stroke:#000000;stroke-width:0.8;" x="195.725463" xlink:href="#md18a996657" y="296.04562"/>
      </g>
     </g>
    </g>
    <g id="xtick_5">
     <g id="line2d_5">
      <g>
       <use style="stroke:#000000;stroke-width:0.8;" x="231.829167" xlink:href="#md18a996657" y="296.04562"/>
      </g>
     </g>
    </g>
    <g id="xtick_6">
     <g id="line2d_6">
      <g>
       <use style="stroke:#000000;stroke-width:0.8;" x="267.93287" xlink:href="#md18a996657" y="296.04562"/>
      </g>
     </g>
    </g>
    <g id="xtick_7">
     <g id="line2d_7">
      <g>
       <use style="stroke:#000000;stroke-width:0.8;" x="304.036574" xlink:href="#md18a996657" y="296.04562"/>
      </g>
     </g>
    </g>
    <g id="xtick_8">
     <g id="line2d_8">
      <g>
       <use style="stroke:#000000;stroke-width:0.8;" x="340.140278" xlink:href="#md18a996657" y="296.04562"/>
      </g>
     </g>
    </g>
    <g id="xtick_9">
     <g id="line2d_9">
      <g>
       <use style="stroke:#000000;stroke-width:0.8;" x="376.243981" xlink:href="#md18a996657" y="296.04562"/>
      </g>
     </g>
    </g>
    <g id="xtick_10">
     <g id="line2d_10">
      <g>
       <use style="stroke:#000000;stroke-width:0.8;" x="412.347685" xlink:href="#md18a996657" y="296.04562"/>
      </g>
     </g>
    </g>
    <g id="xtick_11">
     <g id="line2d_11">
      <g>
       <use style="stroke:#000000;stroke-width:0.8;" x="448.451389" xlink:href="#md18a996657" y="296.04562"/>
      </g>
     </g>
    </g>
    <g id="xtick_12">
     <g id="line2d_12">
      <g>
       <use style="stroke:#000000;stroke-width:0.8;" x="484.555093" xlink:href="#md18a996657" y="296.04562"/>
      </g>
     </g>
    </g>
    <g id="xtick_13">
     <g id="line2d_13">
      <g>
       <use style="stroke:#000000;stroke-width:0.8;" x="520.658796" xlink:href="#md18a996657" y="296.04562"/>
      </g>
     </g>
    </g>
    <g id="xtick_14">
     <g id="line2d_14">
      <g>
       <use style="stroke:#000000;stroke-width:0.8;" x="556.7625" xlink:href="#md18a996657" y="296.04562"/>
      </g>
     </g>
    </g>
    <g id="xtick_15">
     <g id="line2d_15">
      <g>
       <use style="stroke:#000000;stroke-width:0.8;" x="592.866204" xlink:href="#md18a996657" y="296.04562"/>
      </g>
     </g>
    </g>
    <g id="xtick_16">
     <g id="line2d_16">
      <g>
       <use style="stroke:#000000;stroke-width:0.8;" x="628.969907" xlink:href="#md18a996657" y="296.04562"/>
      </g>
     </g>
    </g>
    <g id="xtick_17">
     <g id="line2d_17">
      <g>
       <use style="stroke:#000000;stroke-width:0.8;" x="665.073611" xlink:href="#md18a996657" y="296.04562"/>
      </g>
     </g>
    </g>
    <g id="xtick_18">
     <g id="line2d_18">
      <g>
       <use style="stroke:#000000;stroke-width:0.8;" x="701.177315" xlink:href="#md18a996657" y="296.04562"/>
      </g>
     </g>
    </g>
    <g id="xtick_19">
     <g id="line2d_19">
      <g>
       <use style="stroke:#000000;stroke-width:0.8;" x="737.281019" xlink:href="#md18a996657" y="296.04562"/>
      </g>
     </g>
    </g>
    <g id="xtick_20">
     <g id="line2d_20">
      <g>
       <use style="stroke:#000000;stroke-width:0.8;" x="773.384722" xlink:href="#md18a996657" y="296.04562"/>
      </g>
     </g>
    </g>
    <g id="xtick_21">
     <g id="line2d_21">
      <g>
       <use style="stroke:#000000;stroke-width:0.8;" x="809.488426" xlink:href="#md18a996657" y="296.04562"/>
      </g>
     </g>
    </g>
    <g id="xtick_22">
     <g id="line2d_22">
      <g>
       <use style="stroke:#000000;stroke-width:0.8;" x="845.59213" xlink:href="#md18a996657" y="296.04562"/>
      </g>
     </g>
    </g>
    <g id="xtick_23">
     <g id="line2d_23">
      <g>
       <use style="stroke:#000000;stroke-width:0.8;" x="881.695833" xlink:href="#md18a996657" y="296.04562"/>
      </g>
     </g>
    </g>
    <g id="xtick_24">
     <g id="line2d_24">
      <g>
       <use style="stroke:#000000;stroke-width:0.8;" x="917.799537" xlink:href="#md18a996657" y="296.04562"/>
      </g>
     </g>
    </g>
    <g id="xtick_25">
     <g id="line2d_25">
      <g>
       <use style="stroke:#000000;stroke-width:0.8;" x="953.903241" xlink:href="#md18a996657" y="296.04562"/>
      </g>
     </g>
    </g>
    <g id="xtick_26">
     <g id="line2d_26">
      <g>
       <use style="stroke:#000000;stroke-width:0.8;" x="990.006944" xlink:href="#md18a996657" y="296.04562"/>
      </g>
     </g>
    </g>
    <g id="xtick_27">
     <g id="line2d_27">
      <g>
       <use style="stroke:#000000;stroke-width:0.8;" x="1026.110648" xlink:href="#md18a996657" y="296.04562"/>
      </g>
     </g>
    </g>
   </g>
   <g id="matplotlib.axis_2">
    <g id="ytick_1">
     <g id="line2d_28">
      <defs>
       <path d="M 0 0 
L -3.5 0 
" id="m41a994ce88" style="stroke:#000000;stroke-width:0.8;"/>
      </defs>
      <g>
       <use style="stroke:#000000;stroke-width:0.8;" x="69.3625" xlink:href="#m41a994ce88" y="296.04562"/>
      </g>
     </g>
     <g id="text_1">
      <!-- 0.0 -->
      <g transform="translate(30.55625 303.644057)scale(0.2 -0.2)">
       <defs>
        <path d="M 31.78125 66.40625 
Q 24.171875 66.40625 20.328125 58.90625 
Q 16.5 51.421875 16.5 36.375 
Q 16.5 21.390625 20.328125 13.890625 
Q 24.171875 6.390625 31.78125 6.390625 
Q 39.453125 6.390625 43.28125 13.890625 
Q 47.125 21.390625 47.125 36.375 
Q 47.125 51.421875 43.28125 58.90625 
Q 39.453125 66.40625 31.78125 66.40625 
z
M 31.78125 74.21875 
Q 44.046875 74.21875 50.515625 64.515625 
Q 56.984375 54.828125 56.984375 36.375 
Q 56.984375 17.96875 50.515625 8.265625 
Q 44.046875 -1.421875 31.78125 -1.421875 
Q 19.53125 -1.421875 13.0625 8.265625 
Q 6.59375 17.96875 6.59375 36.375 
Q 6.59375 54.828125 13.0625 64.515625 
Q 19.53125 74.21875 31.78125 74.21875 
z
" id="DejaVuSans-48"/>
        <path d="M 10.6875 12.40625 
L 21 12.40625 
L 21 0 
L 10.6875 0 
z
" id="DejaVuSans-46"/>
       </defs>
       <use xlink:href="#DejaVuSans-48"/>
       <use x="63.623047" xlink:href="#DejaVuSans-46"/>
       <use x="95.410156" xlink:href="#DejaVuSans-48"/>
      </g>
     </g>
    </g>
    <g id="ytick_2">
     <g id="line2d_29">
      <g>
       <use style="stroke:#000000;stroke-width:0.8;" x="69.3625" xlink:href="#m41a994ce88" y="245.643835"/>
      </g>
     </g>
     <g id="text_2">
      <!-- 0.2 -->
      <g transform="translate(30.55625 253.242273)scale(0.2 -0.2)">
       <defs>
        <path d="M 19.1875 8.296875 
L 53.609375 8.296875 
L 53.609375 0 
L 7.328125 0 
L 7.328125 8.296875 
Q 12.9375 14.109375 22.625 23.890625 
Q 32.328125 33.6875 34.8125 36.53125 
Q 39.546875 41.84375 41.421875 45.53125 
Q 43.3125 49.21875 43.3125 52.78125 
Q 43.3125 58.59375 39.234375 62.25 
Q 35.15625 65.921875 28.609375 65.921875 
Q 23.96875 65.921875 18.8125 64.3125 
Q 13.671875 62.703125 7.8125 59.421875 
L 7.8125 69.390625 
Q 13.765625 71.78125 18.9375 73 
Q 24.125 74.21875 28.421875 74.21875 
Q 39.75 74.21875 46.484375 68.546875 
Q 53.21875 62.890625 53.21875 53.421875 
Q 53.21875 48.921875 51.53125 44.890625 
Q 49.859375 40.875 45.40625 35.40625 
Q 44.1875 33.984375 37.640625 27.21875 
Q 31.109375 20.453125 19.1875 8.296875 
z
" id="DejaVuSans-50"/>
       </defs>
       <use xlink:href="#DejaVuSans-48"/>
       <use x="63.623047" xlink:href="#DejaVuSans-46"/>
       <use x="95.410156" xlink:href="#DejaVuSans-50"/>
      </g>
     </g>
    </g>
    <g id="ytick_3">
     <g id="line2d_30">
      <g>
       <use style="stroke:#000000;stroke-width:0.8;" x="69.3625" xlink:href="#m41a994ce88" y="195.24205"/>
      </g>
     </g>
     <g id="text_3">
      <!-- 0.4 -->
      <g transform="translate(30.55625 202.840488)scale(0.2 -0.2)">
       <defs>
        <path d="M 37.796875 64.3125 
L 12.890625 25.390625 
L 37.796875 25.390625 
z
M 35.203125 72.90625 
L 47.609375 72.90625 
L 47.609375 25.390625 
L 58.015625 25.390625 
L 58.015625 17.1875 
L 47.609375 17.1875 
L 47.609375 0 
L 37.796875 0 
L 37.796875 17.1875 
L 4.890625 17.1875 
L 4.890625 26.703125 
z
" id="DejaVuSans-52"/>
       </defs>
       <use xlink:href="#DejaVuSans-48"/>
       <use x="63.623047" xlink:href="#DejaVuSans-46"/>
       <use x="95.410156" xlink:href="#DejaVuSans-52"/>
      </g>
     </g>
    </g>
    <g id="ytick_4">
     <g id="line2d_31">
      <g>
       <use style="stroke:#000000;stroke-width:0.8;" x="69.3625" xlink:href="#m41a994ce88" y="144.840266"/>
      </g>
     </g>
     <g id="text_4">
      <!-- 0.6 -->
      <g transform="translate(30.55625 152.438703)scale(0.2 -0.2)">
       <defs>
        <path d="M 33.015625 40.375 
Q 26.375 40.375 22.484375 35.828125 
Q 18.609375 31.296875 18.609375 23.390625 
Q 18.609375 15.53125 22.484375 10.953125 
Q 26.375 6.390625 33.015625 6.390625 
Q 39.65625 6.390625 43.53125 10.953125 
Q 47.40625 15.53125 47.40625 23.390625 
Q 47.40625 31.296875 43.53125 35.828125 
Q 39.65625 40.375 33.015625 40.375 
z
M 52.59375 71.296875 
L 52.59375 62.3125 
Q 48.875 64.0625 45.09375 64.984375 
Q 41.3125 65.921875 37.59375 65.921875 
Q 27.828125 65.921875 22.671875 59.328125 
Q 17.53125 52.734375 16.796875 39.40625 
Q 19.671875 43.65625 24.015625 45.921875 
Q 28.375 48.1875 33.59375 48.1875 
Q 44.578125 48.1875 50.953125 41.515625 
Q 57.328125 34.859375 57.328125 23.390625 
Q 57.328125 12.15625 50.6875 5.359375 
Q 44.046875 -1.421875 33.015625 -1.421875 
Q 20.359375 -1.421875 13.671875 8.265625 
Q 6.984375 17.96875 6.984375 36.375 
Q 6.984375 53.65625 15.1875 63.9375 
Q 23.390625 74.21875 37.203125 74.21875 
Q 40.921875 74.21875 44.703125 73.484375 
Q 48.484375 72.75 52.59375 71.296875 
z
" id="DejaVuSans-54"/>
       </defs>
       <use xlink:href="#DejaVuSans-48"/>
       <use x="63.623047" xlink:href="#DejaVuSans-46"/>
       <use x="95.410156" xlink:href="#DejaVuSans-54"/>
      </g>
     </g>
    </g>
    <g id="ytick_5">
     <g id="line2d_32">
      <g>
       <use style="stroke:#000000;stroke-width:0.8;" x="69.3625" xlink:href="#m41a994ce88" y="94.438481"/>
      </g>
     </g>
     <g id="text_5">
      <!-- 0.8 -->
      <g transform="translate(30.55625 102.036918)scale(0.2 -0.2)">
       <defs>
        <path d="M 31.78125 34.625 
Q 24.75 34.625 20.71875 30.859375 
Q 16.703125 27.09375 16.703125 20.515625 
Q 16.703125 13.921875 20.71875 10.15625 
Q 24.75 6.390625 31.78125 6.390625 
Q 38.8125 6.390625 42.859375 10.171875 
Q 46.921875 13.96875 46.921875 20.515625 
Q 46.921875 27.09375 42.890625 30.859375 
Q 38.875 34.625 31.78125 34.625 
z
M 21.921875 38.8125 
Q 15.578125 40.375 12.03125 44.71875 
Q 8.5 49.078125 8.5 55.328125 
Q 8.5 64.0625 14.71875 69.140625 
Q 20.953125 74.21875 31.78125 74.21875 
Q 42.671875 74.21875 48.875 69.140625 
Q 55.078125 64.0625 55.078125 55.328125 
Q 55.078125 49.078125 51.53125 44.71875 
Q 48 40.375 41.703125 38.8125 
Q 48.828125 37.15625 52.796875 32.3125 
Q 56.78125 27.484375 56.78125 20.515625 
Q 56.78125 9.90625 50.3125 4.234375 
Q 43.84375 -1.421875 31.78125 -1.421875 
Q 19.734375 -1.421875 13.25 4.234375 
Q 6.78125 9.90625 6.78125 20.515625 
Q 6.78125 27.484375 10.78125 32.3125 
Q 14.796875 37.15625 21.921875 38.8125 
z
M 18.3125 54.390625 
Q 18.3125 48.734375 21.84375 45.5625 
Q 25.390625 42.390625 31.78125 42.390625 
Q 38.140625 42.390625 41.71875 45.5625 
Q 45.3125 48.734375 45.3125 54.390625 
Q 45.3125 60.0625 41.71875 63.234375 
Q 38.140625 66.40625 31.78125 66.40625 
Q 25.390625 66.40625 21.84375 63.234375 
Q 18.3125 60.0625 18.3125 54.390625 
z
" id="DejaVuSans-56"/>
       </defs>
       <use xlink:href="#DejaVuSans-48"/>
       <use x="63.623047" xlink:href="#DejaVuSans-46"/>
       <use x="95.410156" xlink:href="#DejaVuSans-56"/>
      </g>
     </g>
    </g>
    <g id="ytick_6">
     <g id="line2d_33">
      <g>
       <use style="stroke:#000000;stroke-width:0.8;" x="69.3625" xlink:href="#m41a994ce88" y="44.036696"/>
      </g>
     </g>
     <g id="text_6">
      <!-- 1.0 -->
      <g transform="translate(30.55625 51.635134)scale(0.2 -0.2)">
       <defs>
        <path d="M 12.40625 8.296875 
L 28.515625 8.296875 
L 28.515625 63.921875 
L 10.984375 60.40625 
L 10.984375 69.390625 
L 28.421875 72.90625 
L 38.28125 72.90625 
L 38.28125 8.296875 
L 54.390625 8.296875 
L 54.390625 0 
L 12.40625 0 
z
" id="DejaVuSans-49"/>
       </defs>
       <use xlink:href="#DejaVuSans-49"/>
       <use x="63.623047" xlink:href="#DejaVuSans-46"/>
       <use x="95.410156" xlink:href="#DejaVuSans-48"/>
      </g>
     </g>
    </g>
    <g id="text_7">
     <!-- h@10 -->
     <g transform="translate(22.396875 192.803435)rotate(-90)scale(0.2 -0.2)">
      <defs>
       <path d="M 54.890625 33.015625 
L 54.890625 0 
L 45.90625 0 
L 45.90625 32.71875 
Q 45.90625 40.484375 42.875 44.328125 
Q 39.84375 48.1875 33.796875 48.1875 
Q 26.515625 48.1875 22.3125 43.546875 
Q 18.109375 38.921875 18.109375 30.90625 
L 18.109375 0 
L 9.078125 0 
L 9.078125 75.984375 
L 18.109375 75.984375 
L 18.109375 46.1875 
Q 21.34375 51.125 25.703125 53.5625 
Q 30.078125 56 35.796875 56 
Q 45.21875 56 50.046875 50.171875 
Q 54.890625 44.34375 54.890625 33.015625 
z
" id="DejaVuSans-104"/>
       <path d="M 37.203125 26.21875 
Q 37.203125 19.234375 40.671875 15.25 
Q 44.140625 11.28125 50.203125 11.28125 
Q 56.203125 11.28125 59.640625 15.28125 
Q 63.09375 19.28125 63.09375 26.21875 
Q 63.09375 33.0625 59.578125 37.078125 
Q 56.0625 41.109375 50.09375 41.109375 
Q 44.1875 41.109375 40.6875 37.109375 
Q 37.203125 33.109375 37.203125 26.21875 
z
M 63.8125 11.625 
Q 60.890625 7.859375 57.109375 6.078125 
Q 53.328125 4.296875 48.296875 4.296875 
Q 39.890625 4.296875 34.640625 10.375 
Q 29.390625 16.453125 29.390625 26.21875 
Q 29.390625 35.984375 34.65625 42.078125 
Q 39.9375 48.1875 48.296875 48.1875 
Q 53.328125 48.1875 57.125 46.359375 
Q 60.9375 44.53125 63.8125 40.828125 
L 63.8125 47.21875 
L 70.796875 47.21875 
L 70.796875 11.28125 
Q 77.9375 12.359375 81.953125 17.796875 
Q 85.984375 23.25 85.984375 31.890625 
Q 85.984375 37.109375 84.4375 41.703125 
Q 82.90625 46.296875 79.78125 50.203125 
Q 74.703125 56.59375 67.40625 59.984375 
Q 60.109375 63.375 51.515625 63.375 
Q 45.515625 63.375 39.984375 61.78125 
Q 34.46875 60.203125 29.78125 57.078125 
Q 22.125 52.09375 17.796875 44.015625 
Q 13.484375 35.9375 13.484375 26.515625 
Q 13.484375 18.75 16.28125 11.953125 
Q 19.09375 5.171875 24.421875 0 
Q 29.546875 -5.078125 36.28125 -7.734375 
Q 43.015625 -10.40625 50.6875 -10.40625 
Q 56.984375 -10.40625 63.0625 -8.28125 
Q 69.140625 -6.15625 74.21875 -2.203125 
L 78.609375 -7.625 
Q 72.515625 -12.359375 65.3125 -14.875 
Q 58.109375 -17.390625 50.6875 -17.390625 
Q 41.65625 -17.390625 33.640625 -14.1875 
Q 25.640625 -10.984375 19.390625 -4.890625 
Q 13.140625 1.21875 9.859375 9.25 
Q 6.59375 17.28125 6.59375 26.515625 
Q 6.59375 35.40625 9.90625 43.453125 
Q 13.234375 51.515625 19.390625 57.625 
Q 25.6875 63.8125 33.9375 67.109375 
Q 42.1875 70.40625 51.421875 70.40625 
Q 61.765625 70.40625 70.625 66.15625 
Q 79.5 61.921875 85.5 54.109375 
Q 89.15625 49.3125 91.078125 43.703125 
Q 93.015625 38.09375 93.015625 32.078125 
Q 93.015625 19.234375 85.25 11.8125 
Q 77.484375 4.390625 63.8125 4.109375 
z
" id="DejaVuSans-64"/>
      </defs>
      <use xlink:href="#DejaVuSans-104"/>
      <use x="63.378906" xlink:href="#DejaVuSans-64"/>
      <use x="163.378906" xlink:href="#DejaVuSans-49"/>
      <use x="227.001953" xlink:href="#DejaVuSans-48"/>
     </g>
    </g>
   </g>
   <g id="line2d_34">
    <path clip-path="url(#p1f24f2e1aa)" d="M 0 0 
" style="fill:none;stroke:#424242;stroke-linecap:square;stroke-width:2.7;"/>
   </g>
   <g id="line2d_35">
    <path clip-path="url(#p1f24f2e1aa)" d="M 0 0 
" style="fill:none;stroke:#424242;stroke-linecap:square;stroke-width:2.7;"/>
   </g>
   <g id="line2d_36">
    <path clip-path="url(#p1f24f2e1aa)" d="M 0 0 
" style="fill:none;stroke:#424242;stroke-linecap:square;stroke-width:2.7;"/>
   </g>
   <g id="line2d_37">
    <path clip-path="url(#p1f24f2e1aa)" d="M 0 0 
" style="fill:none;stroke:#424242;stroke-linecap:square;stroke-width:2.7;"/>
   </g>
   <g id="line2d_38">
    <path clip-path="url(#p1f24f2e1aa)" d="M 0 0 
" style="fill:none;stroke:#424242;stroke-linecap:square;stroke-width:2.7;"/>
   </g>
   <g id="line2d_39">
    <path clip-path="url(#p1f24f2e1aa)" d="M 0 0 
" style="fill:none;stroke:#424242;stroke-linecap:square;stroke-width:2.7;"/>
   </g>
   <g id="line2d_40">
    <path clip-path="url(#p1f24f2e1aa)" d="M 0 0 
" style="fill:none;stroke:#424242;stroke-linecap:square;stroke-width:2.7;"/>
   </g>
   <g id="line2d_41">
    <path clip-path="url(#p1f24f2e1aa)" d="M 0 0 
" style="fill:none;stroke:#424242;stroke-linecap:square;stroke-width:2.7;"/>
   </g>
   <g id="line2d_42">
    <path clip-path="url(#p1f24f2e1aa)" d="M 0 0 
" style="fill:none;stroke:#424242;stroke-linecap:square;stroke-width:2.7;"/>
   </g>
   <g id="line2d_43">
    <path clip-path="url(#p1f24f2e1aa)" d="M 0 0 
" style="fill:none;stroke:#424242;stroke-linecap:square;stroke-width:2.7;"/>
   </g>
   <g id="line2d_44">
    <path clip-path="url(#p1f24f2e1aa)" d="M 0 0 
" style="fill:none;stroke:#424242;stroke-linecap:square;stroke-width:2.7;"/>
   </g>
   <g id="line2d_45">
    <path clip-path="url(#p1f24f2e1aa)" d="M 0 0 
" style="fill:none;stroke:#424242;stroke-linecap:square;stroke-width:2.7;"/>
   </g>
   <g id="line2d_46">
    <path clip-path="url(#p1f24f2e1aa)" d="M 0 0 
" style="fill:none;stroke:#424242;stroke-linecap:square;stroke-width:2.7;"/>
   </g>
   <g id="line2d_47">
    <path clip-path="url(#p1f24f2e1aa)" d="M 0 0 
" style="fill:none;stroke:#424242;stroke-linecap:square;stroke-width:2.7;"/>
   </g>
   <g id="line2d_48">
    <path clip-path="url(#p1f24f2e1aa)" d="M 0 0 
" style="fill:none;stroke:#424242;stroke-linecap:square;stroke-width:2.7;"/>
   </g>
   <g id="line2d_49">
    <path clip-path="url(#p1f24f2e1aa)" d="M 0 0 
" style="fill:none;stroke:#424242;stroke-linecap:square;stroke-width:2.7;"/>
   </g>
   <g id="line2d_50">
    <path clip-path="url(#p1f24f2e1aa)" d="M 0 0 
" style="fill:none;stroke:#424242;stroke-linecap:square;stroke-width:2.7;"/>
   </g>
   <g id="line2d_51">
    <path clip-path="url(#p1f24f2e1aa)" d="M 0 0 
" style="fill:none;stroke:#424242;stroke-linecap:square;stroke-width:2.7;"/>
   </g>
   <g id="line2d_52">
    <path clip-path="url(#p1f24f2e1aa)" d="M 0 0 
" style="fill:none;stroke:#424242;stroke-linecap:square;stroke-width:2.7;"/>
   </g>
   <g id="line2d_53">
    <path clip-path="url(#p1f24f2e1aa)" d="M 0 0 
" style="fill:none;stroke:#424242;stroke-linecap:square;stroke-width:2.7;"/>
   </g>
   <g id="line2d_54">
    <path clip-path="url(#p1f24f2e1aa)" d="M 0 0 
" style="fill:none;stroke:#424242;stroke-linecap:square;stroke-width:2.7;"/>
   </g>
   <g id="line2d_55">
    <path clip-path="url(#p1f24f2e1aa)" d="M 0 0 
" style="fill:none;stroke:#424242;stroke-linecap:square;stroke-width:2.7;"/>
   </g>
   <g id="line2d_56">
    <path clip-path="url(#p1f24f2e1aa)" d="M 0 0 
" style="fill:none;stroke:#424242;stroke-linecap:square;stroke-width:2.7;"/>
   </g>
   <g id="line2d_57">
    <path clip-path="url(#p1f24f2e1aa)" d="M 0 0 
" style="fill:none;stroke:#424242;stroke-linecap:square;stroke-width:2.7;"/>
   </g>
   <g id="line2d_58">
    <path clip-path="url(#p1f24f2e1aa)" d="M 0 0 
" style="fill:none;stroke:#424242;stroke-linecap:square;stroke-width:2.7;"/>
   </g>
   <g id="line2d_59">
    <path clip-path="url(#p1f24f2e1aa)" d="M 0 0 
" style="fill:none;stroke:#424242;stroke-linecap:square;stroke-width:2.7;"/>
   </g>
   <g id="line2d_60">
    <path clip-path="url(#p1f24f2e1aa)" d="M 0 0 
" style="fill:none;stroke:#424242;stroke-linecap:square;stroke-width:2.7;"/>
   </g>
   <g id="patch_30">
    <path d="M 69.3625 296.04562 
L 69.3625 31.43625 
" style="fill:none;stroke:#000000;stroke-linecap:square;stroke-linejoin:miter;stroke-width:0.8;"/>
   </g>
   <g id="patch_31">
    <path d="M 69.3625 296.04562 
L 1044.1625 296.04562 
" style="fill:none;stroke:#000000;stroke-linecap:square;stroke-linejoin:miter;stroke-width:0.8;"/>
   </g>
   <g id="text_8">
    <!-- AMIE -->
    <g transform="translate(527.0775 25.43625)scale(0.24 -0.24)">
     <defs>
      <path d="M 34.1875 63.1875 
L 20.796875 26.90625 
L 47.609375 26.90625 
z
M 28.609375 72.90625 
L 39.796875 72.90625 
L 67.578125 0 
L 57.328125 0 
L 50.6875 18.703125 
L 17.828125 18.703125 
L 11.1875 0 
L 0.78125 0 
z
" id="DejaVuSans-65"/>
      <path d="M 9.8125 72.90625 
L 24.515625 72.90625 
L 43.109375 23.296875 
L 61.8125 72.90625 
L 76.515625 72.90625 
L 76.515625 0 
L 66.890625 0 
L 66.890625 64.015625 
L 48.09375 14.015625 
L 38.1875 14.015625 
L 19.390625 64.015625 
L 19.390625 0 
L 9.8125 0 
z
" id="DejaVuSans-77"/>
      <path d="M 9.8125 72.90625 
L 19.671875 72.90625 
L 19.671875 0 
L 9.8125 0 
z
" id="DejaVuSans-73"/>
      <path d="M 9.8125 72.90625 
L 55.90625 72.90625 
L 55.90625 64.59375 
L 19.671875 64.59375 
L 19.671875 43.015625 
L 54.390625 43.015625 
L 54.390625 34.71875 
L 19.671875 34.71875 
L 19.671875 8.296875 
L 56.78125 8.296875 
L 56.78125 0 
L 9.8125 0 
z
" id="DejaVuSans-69"/>
     </defs>
     <use xlink:href="#DejaVuSans-65"/>
     <use x="68.408203" xlink:href="#DejaVuSans-77"/>
     <use x="154.6875" xlink:href="#DejaVuSans-73"/>
     <use x="184.179688" xlink:href="#DejaVuSans-69"/>
    </g>
   </g>
  </g>
  <g id="axes_2">
   <g id="patch_32">
    <path d="M 69.3625 618.75499 
L 1044.1625 618.75499 
L 1044.1625 354.14562 
L 69.3625 354.14562 
z
" style="fill:#ffffff;"/>
   </g>
   <g id="patch_33">
    <path clip-path="url(#pb6edb2905d)" d="M 72.97287 618.75499 
L 101.855833 618.75499 
L 101.855833 618.75499 
L 72.97287 618.75499 
z
" style="fill:#d5a8d5;"/>
   </g>
   <g id="patch_34">
    <path clip-path="url(#pb6edb2905d)" d="M 109.076574 618.75499 
L 137.959537 618.75499 
L 137.959537 618.75499 
L 109.076574 618.75499 
z
" style="fill:#d5a8d5;"/>
   </g>
   <g id="patch_35">
    <path clip-path="url(#pb6edb2905d)" d="M 145.180278 618.75499 
L 174.063241 618.75499 
L 174.063241 599.735448 
L 145.180278 599.735448 
z
" style="fill:#d5a8d5;"/>
   </g>
   <g id="patch_36">
    <path clip-path="url(#pb6edb2905d)" d="M 181.283981 618.75499 
L 210.166944 618.75499 
L 210.166944 522.30713 
L 181.283981 522.30713 
z
" style="fill:#d5a8d5;"/>
   </g>
   <g id="patch_37">
    <path clip-path="url(#pb6edb2905d)" d="M 217.387685 618.75499 
L 246.270648 618.75499 
L 246.270648 539.317394 
L 217.387685 539.317394 
z
" style="fill:#d5a8d5;"/>
   </g>
   <g id="patch_38">
    <path clip-path="url(#pb6edb2905d)" d="M 253.491389 618.75499 
L 282.374352 618.75499 
L 282.374352 554.783494 
L 253.491389 554.783494 
z
" style="fill:#d5a8d5;"/>
   </g>
   <g id="patch_39">
    <path clip-path="url(#pb6edb2905d)" d="M 289.595093 618.75499 
L 318.478056 618.75499 
L 318.478056 561.320398 
L 289.595093 561.320398 
z
" style="fill:#d5a8d5;"/>
   </g>
   <g id="patch_40">
    <path clip-path="url(#pb6edb2905d)" d="M 325.698796 618.75499 
L 354.581759 618.75499 
L 354.581759 579.241395 
L 325.698796 579.241395 
z
" style="fill:#d5a8d5;"/>
   </g>
   <g id="patch_41">
    <path clip-path="url(#pb6edb2905d)" d="M 361.8025 618.75499 
L 390.685463 618.75499 
L 390.685463 598.085488 
L 361.8025 598.085488 
z
" style="fill:#d5a8d5;"/>
   </g>
   <g id="patch_42">
    <path clip-path="url(#pb6edb2905d)" d="M 397.906204 618.75499 
L 426.789167 618.75499 
L 426.789167 555.752759 
L 397.906204 555.752759 
z
" style="fill:#d5a8d5;"/>
   </g>
   <g id="patch_43">
    <path clip-path="url(#pb6edb2905d)" d="M 434.009907 618.75499 
L 462.89287 618.75499 
L 462.89287 593.254087 
L 434.009907 593.254087 
z
" style="fill:#d5a8d5;"/>
   </g>
   <g id="patch_44">
    <path clip-path="url(#pb6edb2905d)" d="M 470.113611 618.75499 
L 498.996574 618.75499 
L 498.996574 577.58712 
L 470.113611 577.58712 
z
" style="fill:#d5a8d5;"/>
   </g>
   <g id="patch_45">
    <path clip-path="url(#pb6edb2905d)" d="M 506.217315 618.75499 
L 535.100278 618.75499 
L 535.100278 578.433562 
L 506.217315 578.433562 
z
" style="fill:#d5a8d5;"/>
   </g>
   <g id="patch_46">
    <path clip-path="url(#pb6edb2905d)" d="M 542.321019 618.75499 
L 571.203981 618.75499 
L 571.203981 587.049587 
L 542.321019 587.049587 
z
" style="fill:#d5a8d5;"/>
   </g>
   <g id="patch_47">
    <path clip-path="url(#pb6edb2905d)" d="M 578.424722 618.75499 
L 607.307685 618.75499 
L 607.307685 594.819271 
L 578.424722 594.819271 
z
" style="fill:#d5a8d5;"/>
   </g>
   <g id="patch_48">
    <path clip-path="url(#pb6edb2905d)" d="M 614.528426 618.75499 
L 643.411389 618.75499 
L 643.411389 559.094404 
L 614.528426 559.094404 
z
" style="fill:#d5a8d5;"/>
   </g>
   <g id="patch_49">
    <path clip-path="url(#pb6edb2905d)" d="M 650.63213 618.75499 
L 679.515093 618.75499 
L 679.515093 584.256997 
L 650.63213 584.256997 
z
" style="fill:#d5a8d5;"/>
   </g>
   <g id="patch_50">
    <path clip-path="url(#pb6edb2905d)" d="M 686.735833 618.75499 
L 715.618796 618.75499 
L 715.618796 562.525356 
L 686.735833 562.525356 
z
" style="fill:#d5a8d5;"/>
   </g>
   <g id="patch_51">
    <path clip-path="url(#pb6edb2905d)" d="M 722.839537 618.75499 
L 751.7225 618.75499 
L 751.7225 578.233567 
L 722.839537 578.233567 
z
" style="fill:#d5a8d5;"/>
   </g>
   <g id="patch_52">
    <path clip-path="url(#pb6edb2905d)" d="M 758.943241 618.75499 
L 787.826204 618.75499 
L 787.826204 571.858059 
L 758.943241 571.858059 
z
" style="fill:#d5a8d5;"/>
   </g>
   <g id="patch_53">
    <path clip-path="url(#pb6edb2905d)" d="M 795.046944 618.75499 
L 823.929907 618.75499 
L 823.929907 574.408375 
L 795.046944 574.408375 
z
" style="fill:#d5a8d5;"/>
   </g>
   <g id="patch_54">
    <path clip-path="url(#pb6edb2905d)" d="M 831.150648 618.75499 
L 860.033611 618.75499 
L 860.033611 591.765164 
L 831.150648 591.765164 
z
" style="fill:#d5a8d5;"/>
   </g>
   <g id="patch_55">
    <path clip-path="url(#pb6edb2905d)" d="M 867.254352 618.75499 
L 896.137315 618.75499 
L 896.137315 550.075635 
L 867.254352 550.075635 
z
" style="fill:#d5a8d5;"/>
   </g>
   <g id="patch_56">
    <path clip-path="url(#pb6edb2905d)" d="M 903.358056 618.75499 
L 932.241019 618.75499 
L 932.241019 586.025056 
L 903.358056 586.025056 
z
" style="fill:#d5a8d5;"/>
   </g>
   <g id="patch_57">
    <path clip-path="url(#pb6edb2905d)" d="M 939.461759 618.75499 
L 968.344722 618.75499 
L 968.344722 588.363365 
L 939.461759 588.363365 
z
" style="fill:#d5a8d5;"/>
   </g>
   <g id="patch_58">
    <path clip-path="url(#pb6edb2905d)" d="M 975.565463 618.75499 
L 1004.448426 618.75499 
L 1004.448426 580.929404 
L 975.565463 580.929404 
z
" style="fill:#d5a8d5;"/>
   </g>
   <g id="patch_59">
    <path clip-path="url(#pb6edb2905d)" d="M 1011.669167 618.75499 
L 1040.55213 618.75499 
L 1040.55213 561.806891 
L 1011.669167 561.806891 
z
" style="fill:#d5a8d5;"/>
   </g>
   <g id="matplotlib.axis_3">
    <g id="xtick_28">
     <g id="line2d_61">
      <g>
       <use style="stroke:#000000;stroke-width:0.8;" x="87.414352" xlink:href="#md18a996657" y="618.75499"/>
      </g>
     </g>
     <g id="text_9">
      <!-- As -->
      <g transform="translate(66.279086 652.887653)rotate(-40)scale(0.2 -0.2)">
       <defs>
        <path d="M 44.28125 53.078125 
L 44.28125 44.578125 
Q 40.484375 46.53125 36.375 47.5 
Q 32.28125 48.484375 27.875 48.484375 
Q 21.1875 48.484375 17.84375 46.4375 
Q 14.5 44.390625 14.5 40.28125 
Q 14.5 37.15625 16.890625 35.375 
Q 19.28125 33.59375 26.515625 31.984375 
L 29.59375 31.296875 
Q 39.15625 29.25 43.1875 25.515625 
Q 47.21875 21.78125 47.21875 15.09375 
Q 47.21875 7.46875 41.1875 3.015625 
Q 35.15625 -1.421875 24.609375 -1.421875 
Q 20.21875 -1.421875 15.453125 -0.5625 
Q 10.6875 0.296875 5.421875 2 
L 5.421875 11.28125 
Q 10.40625 8.6875 15.234375 7.390625 
Q 20.0625 6.109375 24.8125 6.109375 
Q 31.15625 6.109375 34.5625 8.28125 
Q 37.984375 10.453125 37.984375 14.40625 
Q 37.984375 18.0625 35.515625 20.015625 
Q 33.0625 21.96875 24.703125 23.78125 
L 21.578125 24.515625 
Q 13.234375 26.265625 9.515625 29.90625 
Q 5.8125 33.546875 5.8125 39.890625 
Q 5.8125 47.609375 11.28125 51.796875 
Q 16.75 56 26.8125 56 
Q 31.78125 56 36.171875 55.265625 
Q 40.578125 54.546875 44.28125 53.078125 
z
" id="DejaVuSans-115"/>
       </defs>
       <use xlink:href="#DejaVuSans-65"/>
       <use x="68.408203" xlink:href="#DejaVuSans-115"/>
      </g>
     </g>
    </g>
    <g id="xtick_29">
     <g id="line2d_62">
      <g>
       <use style="stroke:#000000;stroke-width:0.8;" x="123.518056" xlink:href="#md18a996657" y="618.75499"/>
      </g>
     </g>
     <g id="text_10">
      <!-- An -->
      <g transform="translate(100.654402 654.337942)rotate(-40)scale(0.2 -0.2)">
       <defs>
        <path d="M 54.890625 33.015625 
L 54.890625 0 
L 45.90625 0 
L 45.90625 32.71875 
Q 45.90625 40.484375 42.875 44.328125 
Q 39.84375 48.1875 33.796875 48.1875 
Q 26.515625 48.1875 22.3125 43.546875 
Q 18.109375 38.921875 18.109375 30.90625 
L 18.109375 0 
L 9.078125 0 
L 9.078125 54.6875 
L 18.109375 54.6875 
L 18.109375 46.1875 
Q 21.34375 51.125 25.703125 53.5625 
Q 30.078125 56 35.796875 56 
Q 45.21875 56 50.046875 50.171875 
Q 54.890625 44.34375 54.890625 33.015625 
z
" id="DejaVuSans-110"/>
       </defs>
       <use xlink:href="#DejaVuSans-65"/>
       <use x="68.408203" xlink:href="#DejaVuSans-110"/>
      </g>
     </g>
    </g>
    <g id="xtick_30">
     <g id="line2d_63">
      <g>
       <use style="stroke:#000000;stroke-width:0.8;" x="159.621759" xlink:href="#md18a996657" y="618.75499"/>
      </g>
     </g>
     <g id="text_11">
      <!-- A -->
      <g transform="translate(146.467719 646.190609)rotate(-40)scale(0.2 -0.2)">
       <use xlink:href="#DejaVuSans-65"/>
      </g>
     </g>
    </g>
    <g id="xtick_31">
     <g id="line2d_64">
      <g>
       <use style="stroke:#000000;stroke-width:0.8;" x="195.725463" xlink:href="#md18a996657" y="618.75499"/>
      </g>
     </g>
     <g id="text_12">
      <!-- Z -->
      <g transform="translate(182.557059 646.202662)rotate(-40)scale(0.2 -0.2)">
       <defs>
        <path d="M 5.609375 72.90625 
L 62.890625 72.90625 
L 62.890625 65.375 
L 16.796875 8.296875 
L 64.015625 8.296875 
L 64.015625 0 
L 4.5 0 
L 4.5 7.515625 
L 50.59375 64.59375 
L 5.609375 64.59375 
z
" id="DejaVuSans-90"/>
       </defs>
       <use xlink:href="#DejaVuSans-90"/>
      </g>
     </g>
    </g>
    <g id="xtick_32">
     <g id="line2d_65">
      <g>
       <use style="stroke:#000000;stroke-width:0.8;" x="231.829167" xlink:href="#md18a996657" y="618.75499"/>
      </g>
     </g>
     <g id="text_13">
      <!-- Mp -->
      <g transform="translate(206.210147 656.649969)rotate(-40)scale(0.2 -0.2)">
       <defs>
        <path d="M 18.109375 8.203125 
L 18.109375 -20.796875 
L 9.078125 -20.796875 
L 9.078125 54.6875 
L 18.109375 54.6875 
L 18.109375 46.390625 
Q 20.953125 51.265625 25.265625 53.625 
Q 29.59375 56 35.59375 56 
Q 45.5625 56 51.78125 48.09375 
Q 58.015625 40.1875 58.015625 27.296875 
Q 58.015625 14.40625 51.78125 6.484375 
Q 45.5625 -1.421875 35.59375 -1.421875 
Q 29.59375 -1.421875 25.265625 0.953125 
Q 20.953125 3.328125 18.109375 8.203125 
z
M 48.6875 27.296875 
Q 48.6875 37.203125 44.609375 42.84375 
Q 40.53125 48.484375 33.40625 48.484375 
Q 26.265625 48.484375 22.1875 42.84375 
Q 18.109375 37.203125 18.109375 27.296875 
Q 18.109375 17.390625 22.1875 11.75 
Q 26.265625 6.109375 33.40625 6.109375 
Q 40.53125 6.109375 44.609375 11.75 
Q 48.6875 17.390625 48.6875 27.296875 
z
" id="DejaVuSans-112"/>
       </defs>
       <use xlink:href="#DejaVuSans-77"/>
       <use x="86.279297" xlink:href="#DejaVuSans-112"/>
      </g>
     </g>
    </g>
    <g id="xtick_33">
     <g id="line2d_66">
      <g>
       <use style="stroke:#000000;stroke-width:0.8;" x="267.93287" xlink:href="#md18a996657" y="618.75499"/>
      </g>
     </g>
     <g id="text_14">
      <!-- O -->
      <g transform="translate(253.198863 647.516359)rotate(-40)scale(0.2 -0.2)">
       <defs>
        <path d="M 39.40625 66.21875 
Q 28.65625 66.21875 22.328125 58.203125 
Q 16.015625 50.203125 16.015625 36.375 
Q 16.015625 22.609375 22.328125 14.59375 
Q 28.65625 6.59375 39.40625 6.59375 
Q 50.140625 6.59375 56.421875 14.59375 
Q 62.703125 22.609375 62.703125 36.375 
Q 62.703125 50.203125 56.421875 58.203125 
Q 50.140625 66.21875 39.40625 66.21875 
z
M 39.40625 74.21875 
Q 54.734375 74.21875 63.90625 63.9375 
Q 73.09375 53.65625 73.09375 36.375 
Q 73.09375 19.140625 63.90625 8.859375 
Q 54.734375 -1.421875 39.40625 -1.421875 
Q 24.03125 -1.421875 14.8125 8.828125 
Q 5.609375 19.09375 5.609375 36.375 
Q 5.609375 53.65625 14.8125 63.9375 
Q 24.03125 74.21875 39.40625 74.21875 
z
" id="DejaVuSans-79"/>
       </defs>
       <use xlink:href="#DejaVuSans-79"/>
      </g>
     </g>
    </g>
    <g id="xtick_34">
     <g id="line2d_67">
      <g>
       <use style="stroke:#000000;stroke-width:0.8;" x="304.036574" xlink:href="#md18a996657" y="618.75499"/>
      </g>
     </g>
     <g id="text_15">
      <!-- D -->
      <g transform="translate(289.565895 647.295401)rotate(-40)scale(0.2 -0.2)">
       <defs>
        <path d="M 19.671875 64.796875 
L 19.671875 8.109375 
L 31.59375 8.109375 
Q 46.6875 8.109375 53.6875 14.9375 
Q 60.6875 21.78125 60.6875 36.53125 
Q 60.6875 51.171875 53.6875 57.984375 
Q 46.6875 64.796875 31.59375 64.796875 
z
M 9.8125 72.90625 
L 30.078125 72.90625 
Q 51.265625 72.90625 61.171875 64.09375 
Q 71.09375 55.28125 71.09375 36.53125 
Q 71.09375 17.671875 61.125 8.828125 
Q 51.171875 0 30.078125 0 
L 9.8125 0 
z
" id="DejaVuSans-68"/>
       </defs>
       <use xlink:href="#DejaVuSans-68"/>
      </g>
     </g>
    </g>
    <g id="xtick_35">
     <g id="line2d_68">
      <g>
       <use style="stroke:#000000;stroke-width:0.8;" x="340.140278" xlink:href="#md18a996657" y="618.75499"/>
      </g>
     </g>
     <g id="text_16">
      <!-- C -->
      <g transform="translate(326.768394 646.373402)rotate(-40)scale(0.2 -0.2)">
       <defs>
        <path d="M 64.40625 67.28125 
L 64.40625 56.890625 
Q 59.421875 61.53125 53.78125 63.8125 
Q 48.140625 66.109375 41.796875 66.109375 
Q 29.296875 66.109375 22.65625 58.46875 
Q 16.015625 50.828125 16.015625 36.375 
Q 16.015625 21.96875 22.65625 14.328125 
Q 29.296875 6.6875 41.796875 6.6875 
Q 48.140625 6.6875 53.78125 8.984375 
Q 59.421875 11.28125 64.40625 15.921875 
L 64.40625 5.609375 
Q 59.234375 2.09375 53.4375 0.328125 
Q 47.65625 -1.421875 41.21875 -1.421875 
Q 24.65625 -1.421875 15.125 8.703125 
Q 5.609375 18.84375 5.609375 36.375 
Q 5.609375 53.953125 15.125 64.078125 
Q 24.65625 74.21875 41.21875 74.21875 
Q 47.75 74.21875 53.53125 72.484375 
Q 59.328125 70.75 64.40625 67.28125 
z
" id="DejaVuSans-67"/>
       </defs>
       <use xlink:href="#DejaVuSans-67"/>
      </g>
     </g>
    </g>
    <g id="xtick_36">
     <g id="line2d_69">
      <g>
       <use style="stroke:#000000;stroke-width:0.8;" x="376.243981" xlink:href="#md18a996657" y="618.75499"/>
      </g>
     </g>
     <g id="text_17">
      <!-- X -->
      <g transform="translate(363.075578 646.202662)rotate(-40)scale(0.2 -0.2)">
       <defs>
        <path d="M 6.296875 72.90625 
L 16.890625 72.90625 
L 35.015625 45.796875 
L 53.21875 72.90625 
L 63.8125 72.90625 
L 40.375 37.890625 
L 65.375 0 
L 54.78125 0 
L 34.28125 31 
L 13.625 0 
L 2.984375 0 
L 29 38.921875 
z
" id="DejaVuSans-88"/>
       </defs>
       <use xlink:href="#DejaVuSans-88"/>
      </g>
     </g>
    </g>
    <g id="xtick_37">
     <g id="line2d_70">
      <g>
       <use style="stroke:#000000;stroke-width:0.8;" x="412.347685" xlink:href="#md18a996657" y="618.75499"/>
      </g>
     </g>
     <g id="text_18">
      <!-- K -->
      <g transform="translate(399.626939 645.827033)rotate(-40)scale(0.2 -0.2)">
       <defs>
        <path d="M 9.8125 72.90625 
L 19.671875 72.90625 
L 19.671875 42.09375 
L 52.390625 72.90625 
L 65.09375 72.90625 
L 28.90625 38.921875 
L 67.671875 0 
L 54.6875 0 
L 19.671875 35.109375 
L 19.671875 0 
L 9.8125 0 
z
" id="DejaVuSans-75"/>
       </defs>
       <use xlink:href="#DejaVuSans-75"/>
      </g>
     </g>
    </g>
    <g id="xtick_38">
     <g id="line2d_71">
      <g>
       <use style="stroke:#000000;stroke-width:0.8;" x="448.451389" xlink:href="#md18a996657" y="618.75499"/>
      </g>
     </g>
     <g id="text_19">
      <!-- N -->
      <g transform="translate(434.315854 647.014181)rotate(-40)scale(0.2 -0.2)">
       <defs>
        <path d="M 9.8125 72.90625 
L 23.09375 72.90625 
L 55.421875 11.921875 
L 55.421875 72.90625 
L 64.984375 72.90625 
L 64.984375 0 
L 51.703125 0 
L 19.390625 60.984375 
L 19.390625 0 
L 9.8125 0 
z
" id="DejaVuSans-78"/>
       </defs>
       <use xlink:href="#DejaVuSans-78"/>
      </g>
     </g>
    </g>
    <g id="xtick_39">
     <g id="line2d_72">
      <g>
       <use style="stroke:#000000;stroke-width:0.8;" x="484.555093" xlink:href="#md18a996657" y="618.75499"/>
      </g>
     </g>
     <g id="text_20">
      <!-- Te -->
      <g transform="translate(465.701203 650.973351)rotate(-40)scale(0.2 -0.2)">
       <defs>
        <path d="M -0.296875 72.90625 
L 61.375 72.90625 
L 61.375 64.59375 
L 35.5 64.59375 
L 35.5 0 
L 25.59375 0 
L 25.59375 64.59375 
L -0.296875 64.59375 
z
" id="DejaVuSans-84"/>
        <path d="M 56.203125 29.59375 
L 56.203125 25.203125 
L 14.890625 25.203125 
Q 15.484375 15.921875 20.484375 11.0625 
Q 25.484375 6.203125 34.421875 6.203125 
Q 39.59375 6.203125 44.453125 7.46875 
Q 49.3125 8.734375 54.109375 11.28125 
L 54.109375 2.78125 
Q 49.265625 0.734375 44.1875 -0.34375 
Q 39.109375 -1.421875 33.890625 -1.421875 
Q 20.796875 -1.421875 13.15625 6.1875 
Q 5.515625 13.8125 5.515625 26.8125 
Q 5.515625 40.234375 12.765625 48.109375 
Q 20.015625 56 32.328125 56 
Q 43.359375 56 49.78125 48.890625 
Q 56.203125 41.796875 56.203125 29.59375 
z
M 47.21875 32.234375 
Q 47.125 39.59375 43.09375 43.984375 
Q 39.0625 48.390625 32.421875 48.390625 
Q 24.90625 48.390625 20.390625 44.140625 
Q 15.875 39.890625 15.1875 32.171875 
z
" id="DejaVuSans-101"/>
       </defs>
       <use xlink:href="#DejaVuSans-84"/>
       <use x="44.083984" xlink:href="#DejaVuSans-101"/>
      </g>
     </g>
    </g>
    <g id="xtick_40">
     <g id="line2d_73">
      <g>
       <use style="stroke:#000000;stroke-width:0.8;" x="520.658796" xlink:href="#md18a996657" y="618.75499"/>
      </g>
     </g>
     <g id="text_21">
      <!-- J -->
      <g transform="translate(513.465539 641.188918)rotate(-40)scale(0.2 -0.2)">
       <defs>
        <path d="M 9.8125 72.90625 
L 19.671875 72.90625 
L 19.671875 5.078125 
Q 19.671875 -8.109375 14.671875 -14.0625 
Q 9.671875 -20.015625 -1.421875 -20.015625 
L -5.171875 -20.015625 
L -5.171875 -11.71875 
L -2.09375 -11.71875 
Q 4.4375 -11.71875 7.125 -8.046875 
Q 9.8125 -4.390625 9.8125 5.078125 
z
" id="DejaVuSans-74"/>
       </defs>
       <use xlink:href="#DejaVuSans-74"/>
      </g>
     </g>
    </g>
    <g id="xtick_41">
     <g id="line2d_74">
      <g>
       <use style="stroke:#000000;stroke-width:0.8;" x="556.7625" xlink:href="#md18a996657" y="618.75499"/>
      </g>
     </g>
     <g id="text_22">
      <!-- Pr -->
      <g transform="translate(538.820682 650.208032)rotate(-40)scale(0.2 -0.2)">
       <defs>
        <path d="M 19.671875 64.796875 
L 19.671875 37.40625 
L 32.078125 37.40625 
Q 38.96875 37.40625 42.71875 40.96875 
Q 46.484375 44.53125 46.484375 51.125 
Q 46.484375 57.671875 42.71875 61.234375 
Q 38.96875 64.796875 32.078125 64.796875 
z
M 9.8125 72.90625 
L 32.078125 72.90625 
Q 44.34375 72.90625 50.609375 67.359375 
Q 56.890625 61.8125 56.890625 51.125 
Q 56.890625 40.328125 50.609375 34.8125 
Q 44.34375 29.296875 32.078125 29.296875 
L 19.671875 29.296875 
L 19.671875 0 
L 9.8125 0 
z
" id="DejaVuSans-80"/>
        <path d="M 41.109375 46.296875 
Q 39.59375 47.171875 37.8125 47.578125 
Q 36.03125 48 33.890625 48 
Q 26.265625 48 22.1875 43.046875 
Q 18.109375 38.09375 18.109375 28.8125 
L 18.109375 0 
L 9.078125 0 
L 9.078125 54.6875 
L 18.109375 54.6875 
L 18.109375 46.1875 
Q 20.953125 51.171875 25.484375 53.578125 
Q 30.03125 56 36.53125 56 
Q 37.453125 56 38.578125 55.875 
Q 39.703125 55.765625 41.0625 55.515625 
z
" id="DejaVuSans-114"/>
       </defs>
       <use xlink:href="#DejaVuSans-80"/>
       <use x="58.552734" xlink:href="#DejaVuSans-114"/>
      </g>
     </g>
    </g>
    <g id="xtick_42">
     <g id="line2d_75">
      <g>
       <use style="stroke:#000000;stroke-width:0.8;" x="592.866204" xlink:href="#md18a996657" y="618.75499"/>
      </g>
     </g>
     <g id="text_23">
      <!-- Sa -->
      <g transform="translate(571.077406 653.436031)rotate(-40)scale(0.2 -0.2)">
       <defs>
        <path d="M 53.515625 70.515625 
L 53.515625 60.890625 
Q 47.90625 63.578125 42.921875 64.890625 
Q 37.9375 66.21875 33.296875 66.21875 
Q 25.25 66.21875 20.875 63.09375 
Q 16.5 59.96875 16.5 54.203125 
Q 16.5 49.359375 19.40625 46.890625 
Q 22.3125 44.4375 30.421875 42.921875 
L 36.375 41.703125 
Q 47.40625 39.59375 52.65625 34.296875 
Q 57.90625 29 57.90625 20.125 
Q 57.90625 9.515625 50.796875 4.046875 
Q 43.703125 -1.421875 29.984375 -1.421875 
Q 24.8125 -1.421875 18.96875 -0.25 
Q 13.140625 0.921875 6.890625 3.21875 
L 6.890625 13.375 
Q 12.890625 10.015625 18.65625 8.296875 
Q 24.421875 6.59375 29.984375 6.59375 
Q 38.421875 6.59375 43.015625 9.90625 
Q 47.609375 13.234375 47.609375 19.390625 
Q 47.609375 24.75 44.3125 27.78125 
Q 41.015625 30.8125 33.5 32.328125 
L 27.484375 33.5 
Q 16.453125 35.6875 11.515625 40.375 
Q 6.59375 45.0625 6.59375 53.421875 
Q 6.59375 63.09375 13.40625 68.65625 
Q 20.21875 74.21875 32.171875 74.21875 
Q 37.3125 74.21875 42.625 73.28125 
Q 47.953125 72.359375 53.515625 70.515625 
z
" id="DejaVuSans-83"/>
        <path d="M 34.28125 27.484375 
Q 23.390625 27.484375 19.1875 25 
Q 14.984375 22.515625 14.984375 16.5 
Q 14.984375 11.71875 18.140625 8.90625 
Q 21.296875 6.109375 26.703125 6.109375 
Q 34.1875 6.109375 38.703125 11.40625 
Q 43.21875 16.703125 43.21875 25.484375 
L 43.21875 27.484375 
z
M 52.203125 31.203125 
L 52.203125 0 
L 43.21875 0 
L 43.21875 8.296875 
Q 40.140625 3.328125 35.546875 0.953125 
Q 30.953125 -1.421875 24.3125 -1.421875 
Q 15.921875 -1.421875 10.953125 3.296875 
Q 6 8.015625 6 15.921875 
Q 6 25.140625 12.171875 29.828125 
Q 18.359375 34.515625 30.609375 34.515625 
L 43.21875 34.515625 
L 43.21875 35.40625 
Q 43.21875 41.609375 39.140625 45 
Q 35.0625 48.390625 27.6875 48.390625 
Q 23 48.390625 18.546875 47.265625 
Q 14.109375 46.140625 10.015625 43.890625 
L 10.015625 52.203125 
Q 14.9375 54.109375 19.578125 55.046875 
Q 24.21875 56 28.609375 56 
Q 40.484375 56 46.34375 49.84375 
Q 52.203125 43.703125 52.203125 31.203125 
z
" id="DejaVuSans-97"/>
       </defs>
       <use xlink:href="#DejaVuSans-83"/>
       <use x="63.476562" xlink:href="#DejaVuSans-97"/>
      </g>
     </g>
    </g>
    <g id="xtick_43">
     <g id="line2d_76">
      <g>
       <use style="stroke:#000000;stroke-width:0.8;" x="628.969907" xlink:href="#md18a996657" y="618.75499"/>
      </g>
     </g>
     <g id="text_24">
      <!-- U -->
      <g transform="translate(615.083337 646.805275)rotate(-40)scale(0.2 -0.2)">
       <defs>
        <path d="M 8.6875 72.90625 
L 18.609375 72.90625 
L 18.609375 28.609375 
Q 18.609375 16.890625 22.84375 11.734375 
Q 27.09375 6.59375 36.625 6.59375 
Q 46.09375 6.59375 50.34375 11.734375 
Q 54.59375 16.890625 54.59375 28.609375 
L 54.59375 72.90625 
L 64.5 72.90625 
L 64.5 27.390625 
Q 64.5 13.140625 57.4375 5.859375 
Q 50.390625 -1.421875 36.625 -1.421875 
Q 22.796875 -1.421875 15.734375 5.859375 
Q 8.6875 13.140625 8.6875 27.390625 
z
" id="DejaVuSans-85"/>
       </defs>
       <use xlink:href="#DejaVuSans-85"/>
      </g>
     </g>
    </g>
    <g id="xtick_44">
     <g id="line2d_77">
      <g>
       <use style="stroke:#000000;stroke-width:0.8;" x="665.073611" xlink:href="#md18a996657" y="618.75499"/>
      </g>
     </g>
     <g id="text_25">
      <!-- B -->
      <g transform="translate(651.88845 646.216723)rotate(-40)scale(0.2 -0.2)">
       <defs>
        <path d="M 19.671875 34.8125 
L 19.671875 8.109375 
L 35.5 8.109375 
Q 43.453125 8.109375 47.28125 11.40625 
Q 51.125 14.703125 51.125 21.484375 
Q 51.125 28.328125 47.28125 31.5625 
Q 43.453125 34.8125 35.5 34.8125 
z
M 19.671875 64.796875 
L 19.671875 42.828125 
L 34.28125 42.828125 
Q 41.5 42.828125 45.03125 45.53125 
Q 48.578125 48.25 48.578125 53.8125 
Q 48.578125 59.328125 45.03125 62.0625 
Q 41.5 64.796875 34.28125 64.796875 
z
M 9.8125 72.90625 
L 35.015625 72.90625 
Q 46.296875 72.90625 52.390625 68.21875 
Q 58.5 63.53125 58.5 54.890625 
Q 58.5 48.1875 55.375 44.234375 
Q 52.25 40.28125 46.1875 39.3125 
Q 53.46875 37.75 57.5 32.78125 
Q 61.53125 27.828125 61.53125 20.40625 
Q 61.53125 10.640625 54.890625 5.3125 
Q 48.25 0 35.984375 0 
L 9.8125 0 
z
" id="DejaVuSans-66"/>
       </defs>
       <use xlink:href="#DejaVuSans-66"/>
      </g>
     </g>
    </g>
    <g id="xtick_45">
     <g id="line2d_78">
      <g>
       <use style="stroke:#000000;stroke-width:0.8;" x="701.177315" xlink:href="#md18a996657" y="618.75499"/>
      </g>
     </g>
     <g id="text_26">
      <!-- P -->
      <g transform="translate(689.265703 645.148088)rotate(-40)scale(0.2 -0.2)">
       <use xlink:href="#DejaVuSans-80"/>
      </g>
     </g>
    </g>
    <g id="xtick_46">
     <g id="line2d_79">
      <g>
       <use style="stroke:#000000;stroke-width:0.8;" x="737.281019" xlink:href="#md18a996657" y="618.75499"/>
      </g>
     </g>
     <g id="text_27">
      <!-- CC -->
      <g transform="translate(713.210845 655.350333)rotate(-40)scale(0.2 -0.2)">
       <use xlink:href="#DejaVuSans-67"/>
       <use x="69.824219" xlink:href="#DejaVuSans-67"/>
      </g>
     </g>
    </g>
    <g id="xtick_47">
     <g id="line2d_80">
      <g>
       <use style="stroke:#000000;stroke-width:0.8;" x="773.384722" xlink:href="#md18a996657" y="618.75499"/>
      </g>
     </g>
     <g id="text_28">
      <!-- Q -->
      <g transform="translate(758.650715 647.516359)rotate(-40)scale(0.2 -0.2)">
       <defs>
        <path d="M 39.40625 66.21875 
Q 28.65625 66.21875 22.328125 58.203125 
Q 16.015625 50.203125 16.015625 36.375 
Q 16.015625 22.609375 22.328125 14.59375 
Q 28.65625 6.59375 39.40625 6.59375 
Q 50.140625 6.59375 56.421875 14.59375 
Q 62.703125 22.609375 62.703125 36.375 
Q 62.703125 50.203125 56.421875 58.203125 
Q 50.140625 66.21875 39.40625 66.21875 
z
M 53.21875 1.3125 
L 66.21875 -12.890625 
L 54.296875 -12.890625 
L 43.5 -1.21875 
Q 41.890625 -1.3125 41.03125 -1.359375 
Q 40.1875 -1.421875 39.40625 -1.421875 
Q 24.03125 -1.421875 14.8125 8.859375 
Q 5.609375 19.140625 5.609375 36.375 
Q 5.609375 53.65625 14.8125 63.9375 
Q 24.03125 74.21875 39.40625 74.21875 
Q 54.734375 74.21875 63.90625 63.9375 
Q 73.09375 53.65625 73.09375 36.375 
Q 73.09375 23.6875 67.984375 14.640625 
Q 62.890625 5.609375 53.21875 1.3125 
z
" id="DejaVuSans-81"/>
       </defs>
       <use xlink:href="#DejaVuSans-81"/>
      </g>
     </g>
    </g>
    <g id="xtick_48">
     <g id="line2d_81">
      <g>
       <use style="stroke:#000000;stroke-width:0.8;" x="809.488426" xlink:href="#md18a996657" y="618.75499"/>
      </g>
     </g>
     <g id="text_29">
      <!-- I -->
      <g transform="translate(802.295169 641.188918)rotate(-40)scale(0.2 -0.2)">
       <use xlink:href="#DejaVuSans-73"/>
      </g>
     </g>
    </g>
    <g id="xtick_49">
     <g id="line2d_82">
      <g>
       <use style="stroke:#000000;stroke-width:0.8;" x="845.59213" xlink:href="#md18a996657" y="618.75499"/>
      </g>
     </g>
     <g id="text_30">
      <!-- ML -->
      <g transform="translate(821.162873 655.651639)rotate(-40)scale(0.2 -0.2)">
       <defs>
        <path d="M 9.8125 72.90625 
L 19.671875 72.90625 
L 19.671875 8.296875 
L 55.171875 8.296875 
L 55.171875 0 
L 9.8125 0 
z
" id="DejaVuSans-76"/>
       </defs>
       <use xlink:href="#DejaVuSans-77"/>
       <use x="86.279297" xlink:href="#DejaVuSans-76"/>
      </g>
     </g>
    </g>
    <g id="xtick_50">
     <g id="line2d_83">
      <g>
       <use style="stroke:#000000;stroke-width:0.8;" x="881.695833" xlink:href="#md18a996657" y="618.75499"/>
      </g>
     </g>
     <g id="text_31">
      <!-- Ra -->
      <g transform="translate(859.332503 653.918122)rotate(-40)scale(0.2 -0.2)">
       <defs>
        <path d="M 44.390625 34.1875 
Q 47.5625 33.109375 50.5625 29.59375 
Q 53.5625 26.078125 56.59375 19.921875 
L 66.609375 0 
L 56 0 
L 46.6875 18.703125 
Q 43.0625 26.03125 39.671875 28.421875 
Q 36.28125 30.8125 30.421875 30.8125 
L 19.671875 30.8125 
L 19.671875 0 
L 9.8125 0 
L 9.8125 72.90625 
L 32.078125 72.90625 
Q 44.578125 72.90625 50.734375 67.671875 
Q 56.890625 62.453125 56.890625 51.90625 
Q 56.890625 45.015625 53.6875 40.46875 
Q 50.484375 35.9375 44.390625 34.1875 
z
M 19.671875 64.796875 
L 19.671875 38.921875 
L 32.078125 38.921875 
Q 39.203125 38.921875 42.84375 42.21875 
Q 46.484375 45.515625 46.484375 51.90625 
Q 46.484375 58.296875 42.84375 61.546875 
Q 39.203125 64.796875 32.078125 64.796875 
z
" id="DejaVuSans-82"/>
       </defs>
       <use xlink:href="#DejaVuSans-82"/>
       <use x="67.232422" xlink:href="#DejaVuSans-97"/>
      </g>
     </g>
    </g>
    <g id="xtick_51">
     <g id="line2d_84">
      <g>
       <use style="stroke:#000000;stroke-width:0.8;" x="917.799537" xlink:href="#md18a996657" y="618.75499"/>
      </g>
     </g>
     <g id="text_32">
      <!-- T -->
      <g transform="translate(905.768231 645.248524)rotate(-40)scale(0.2 -0.2)">
       <use xlink:href="#DejaVuSans-84"/>
      </g>
     </g>
    </g>
    <g id="xtick_52">
     <g id="line2d_85">
      <g>
       <use style="stroke:#000000;stroke-width:0.8;" x="953.903241" xlink:href="#md18a996657" y="618.75499"/>
      </g>
     </g>
     <g id="text_33">
      <!-- E -->
      <g transform="translate(941.548759 645.5197)rotate(-40)scale(0.2 -0.2)">
       <use xlink:href="#DejaVuSans-69"/>
      </g>
     </g>
    </g>
    <g id="xtick_53">
     <g id="line2d_86">
      <g>
       <use style="stroke:#000000;stroke-width:0.8;" x="990.006944" xlink:href="#md18a996657" y="618.75499"/>
      </g>
     </g>
     <g id="text_34">
      <!-- Rg -->
      <g transform="translate(966.961355 654.490604)rotate(-40)scale(0.2 -0.2)">
       <defs>
        <path d="M 45.40625 27.984375 
Q 45.40625 37.75 41.375 43.109375 
Q 37.359375 48.484375 30.078125 48.484375 
Q 22.859375 48.484375 18.828125 43.109375 
Q 14.796875 37.75 14.796875 27.984375 
Q 14.796875 18.265625 18.828125 12.890625 
Q 22.859375 7.515625 30.078125 7.515625 
Q 37.359375 7.515625 41.375 12.890625 
Q 45.40625 18.265625 45.40625 27.984375 
z
M 54.390625 6.78125 
Q 54.390625 -7.171875 48.1875 -13.984375 
Q 42 -20.796875 29.203125 -20.796875 
Q 24.46875 -20.796875 20.265625 -20.09375 
Q 16.0625 -19.390625 12.109375 -17.921875 
L 12.109375 -9.1875 
Q 16.0625 -11.328125 19.921875 -12.34375 
Q 23.78125 -13.375 27.78125 -13.375 
Q 36.625 -13.375 41.015625 -8.765625 
Q 45.40625 -4.15625 45.40625 5.171875 
L 45.40625 9.625 
Q 42.625 4.78125 38.28125 2.390625 
Q 33.9375 0 27.875 0 
Q 17.828125 0 11.671875 7.65625 
Q 5.515625 15.328125 5.515625 27.984375 
Q 5.515625 40.671875 11.671875 48.328125 
Q 17.828125 56 27.875 56 
Q 33.9375 56 38.28125 53.609375 
Q 42.625 51.21875 45.40625 46.390625 
L 45.40625 54.6875 
L 54.390625 54.6875 
z
" id="DejaVuSans-103"/>
       </defs>
       <use xlink:href="#DejaVuSans-82"/>
       <use x="69.482422" xlink:href="#DejaVuSans-103"/>
      </g>
     </g>
    </g>
    <g id="xtick_54">
     <g id="line2d_87">
      <g>
       <use style="stroke:#000000;stroke-width:0.8;" x="1026.110648" xlink:href="#md18a996657" y="618.75499"/>
      </g>
     </g>
     <g id="text_35">
      <!-- GG -->
      <g transform="translate(999.694463 657.31887)rotate(-40)scale(0.2 -0.2)">
       <defs>
        <path d="M 59.515625 10.40625 
L 59.515625 29.984375 
L 43.40625 29.984375 
L 43.40625 38.09375 
L 69.28125 38.09375 
L 69.28125 6.78125 
Q 63.578125 2.734375 56.6875 0.65625 
Q 49.8125 -1.421875 42 -1.421875 
Q 24.90625 -1.421875 15.25 8.5625 
Q 5.609375 18.5625 5.609375 36.375 
Q 5.609375 54.25 15.25 64.234375 
Q 24.90625 74.21875 42 74.21875 
Q 49.125 74.21875 55.546875 72.453125 
Q 61.96875 70.703125 67.390625 67.28125 
L 67.390625 56.78125 
Q 61.921875 61.421875 55.765625 63.765625 
Q 49.609375 66.109375 42.828125 66.109375 
Q 29.4375 66.109375 22.71875 58.640625 
Q 16.015625 51.171875 16.015625 36.375 
Q 16.015625 21.625 22.71875 14.15625 
Q 29.4375 6.6875 42.828125 6.6875 
Q 48.046875 6.6875 52.140625 7.59375 
Q 56.25 8.5 59.515625 10.40625 
z
" id="DejaVuSans-71"/>
       </defs>
       <use xlink:href="#DejaVuSans-71"/>
       <use x="77.490234" xlink:href="#DejaVuSans-71"/>
      </g>
     </g>
    </g>
    <g id="text_36">
     <!-- Relation -->
     <g transform="translate(516.05 679.702011)scale(0.2 -0.2)">
      <defs>
       <path d="M 9.421875 75.984375 
L 18.40625 75.984375 
L 18.40625 0 
L 9.421875 0 
z
" id="DejaVuSans-108"/>
       <path d="M 18.3125 70.21875 
L 18.3125 54.6875 
L 36.8125 54.6875 
L 36.8125 47.703125 
L 18.3125 47.703125 
L 18.3125 18.015625 
Q 18.3125 11.328125 20.140625 9.421875 
Q 21.96875 7.515625 27.59375 7.515625 
L 36.8125 7.515625 
L 36.8125 0 
L 27.59375 0 
Q 17.1875 0 13.234375 3.875 
Q 9.28125 7.765625 9.28125 18.015625 
L 9.28125 47.703125 
L 2.6875 47.703125 
L 2.6875 54.6875 
L 9.28125 54.6875 
L 9.28125 70.21875 
z
" id="DejaVuSans-116"/>
       <path d="M 9.421875 54.6875 
L 18.40625 54.6875 
L 18.40625 0 
L 9.421875 0 
z
M 9.421875 75.984375 
L 18.40625 75.984375 
L 18.40625 64.59375 
L 9.421875 64.59375 
z
" id="DejaVuSans-105"/>
       <path d="M 30.609375 48.390625 
Q 23.390625 48.390625 19.1875 42.75 
Q 14.984375 37.109375 14.984375 27.296875 
Q 14.984375 17.484375 19.15625 11.84375 
Q 23.34375 6.203125 30.609375 6.203125 
Q 37.796875 6.203125 41.984375 11.859375 
Q 46.1875 17.53125 46.1875 27.296875 
Q 46.1875 37.015625 41.984375 42.703125 
Q 37.796875 48.390625 30.609375 48.390625 
z
M 30.609375 56 
Q 42.328125 56 49.015625 48.375 
Q 55.71875 40.765625 55.71875 27.296875 
Q 55.71875 13.875 49.015625 6.21875 
Q 42.328125 -1.421875 30.609375 -1.421875 
Q 18.84375 -1.421875 12.171875 6.21875 
Q 5.515625 13.875 5.515625 27.296875 
Q 5.515625 40.765625 12.171875 48.375 
Q 18.84375 56 30.609375 56 
z
" id="DejaVuSans-111"/>
      </defs>
      <use xlink:href="#DejaVuSans-82"/>
      <use x="64.982422" xlink:href="#DejaVuSans-101"/>
      <use x="126.505859" xlink:href="#DejaVuSans-108"/>
      <use x="154.289062" xlink:href="#DejaVuSans-97"/>
      <use x="215.568359" xlink:href="#DejaVuSans-116"/>
      <use x="254.777344" xlink:href="#DejaVuSans-105"/>
      <use x="282.560547" xlink:href="#DejaVuSans-111"/>
      <use x="343.742188" xlink:href="#DejaVuSans-110"/>
     </g>
    </g>
   </g>
   <g id="matplotlib.axis_4">
    <g id="ytick_7">
     <g id="line2d_88">
      <g>
       <use style="stroke:#000000;stroke-width:0.8;" x="69.3625" xlink:href="#m41a994ce88" y="618.75499"/>
      </g>
     </g>
     <g id="text_37">
      <!-- 0.0 -->
      <g transform="translate(30.55625 626.353427)scale(0.2 -0.2)">
       <use xlink:href="#DejaVuSans-48"/>
       <use x="63.623047" xlink:href="#DejaVuSans-46"/>
       <use x="95.410156" xlink:href="#DejaVuSans-48"/>
      </g>
     </g>
    </g>
    <g id="ytick_8">
     <g id="line2d_89">
      <g>
       <use style="stroke:#000000;stroke-width:0.8;" x="69.3625" xlink:href="#m41a994ce88" y="568.353205"/>
      </g>
     </g>
     <g id="text_38">
      <!-- 0.2 -->
      <g transform="translate(30.55625 575.951642)scale(0.2 -0.2)">
       <use xlink:href="#DejaVuSans-48"/>
       <use x="63.623047" xlink:href="#DejaVuSans-46"/>
       <use x="95.410156" xlink:href="#DejaVuSans-50"/>
      </g>
     </g>
    </g>
    <g id="ytick_9">
     <g id="line2d_90">
      <g>
       <use style="stroke:#000000;stroke-width:0.8;" x="69.3625" xlink:href="#m41a994ce88" y="517.95142"/>
      </g>
     </g>
     <g id="text_39">
      <!-- 0.4 -->
      <g transform="translate(30.55625 525.549858)scale(0.2 -0.2)">
       <use xlink:href="#DejaVuSans-48"/>
       <use x="63.623047" xlink:href="#DejaVuSans-46"/>
       <use x="95.410156" xlink:href="#DejaVuSans-52"/>
      </g>
     </g>
    </g>
    <g id="ytick_10">
     <g id="line2d_91">
      <g>
       <use style="stroke:#000000;stroke-width:0.8;" x="69.3625" xlink:href="#m41a994ce88" y="467.549635"/>
      </g>
     </g>
     <g id="text_40">
      <!-- 0.6 -->
      <g transform="translate(30.55625 475.148073)scale(0.2 -0.2)">
       <use xlink:href="#DejaVuSans-48"/>
       <use x="63.623047" xlink:href="#DejaVuSans-46"/>
       <use x="95.410156" xlink:href="#DejaVuSans-54"/>
      </g>
     </g>
    </g>
    <g id="ytick_11">
     <g id="line2d_92">
      <g>
       <use style="stroke:#000000;stroke-width:0.8;" x="69.3625" xlink:href="#m41a994ce88" y="417.147851"/>
      </g>
     </g>
     <g id="text_41">
      <!-- 0.8 -->
      <g transform="translate(30.55625 424.746288)scale(0.2 -0.2)">
       <use xlink:href="#DejaVuSans-48"/>
       <use x="63.623047" xlink:href="#DejaVuSans-46"/>
       <use x="95.410156" xlink:href="#DejaVuSans-56"/>
      </g>
     </g>
    </g>
    <g id="ytick_12">
     <g id="line2d_93">
      <g>
       <use style="stroke:#000000;stroke-width:0.8;" x="69.3625" xlink:href="#m41a994ce88" y="366.746066"/>
      </g>
     </g>
     <g id="text_42">
      <!-- 1.0 -->
      <g transform="translate(30.55625 374.344504)scale(0.2 -0.2)">
       <use xlink:href="#DejaVuSans-49"/>
       <use x="63.623047" xlink:href="#DejaVuSans-46"/>
       <use x="95.410156" xlink:href="#DejaVuSans-48"/>
      </g>
     </g>
    </g>
    <g id="text_43">
     <!-- h@10 -->
     <g transform="translate(22.396875 515.512805)rotate(-90)scale(0.2 -0.2)">
      <use xlink:href="#DejaVuSans-104"/>
      <use x="63.378906" xlink:href="#DejaVuSans-64"/>
      <use x="163.378906" xlink:href="#DejaVuSans-49"/>
      <use x="227.001953" xlink:href="#DejaVuSans-48"/>
     </g>
    </g>
   </g>
   <g id="line2d_94">
    <path clip-path="url(#pb6edb2905d)" d="M 0 0 
" style="fill:none;stroke:#424242;stroke-linecap:square;stroke-width:2.7;"/>
   </g>
   <g id="line2d_95">
    <path clip-path="url(#pb6edb2905d)" d="M 0 0 
" style="fill:none;stroke:#424242;stroke-linecap:square;stroke-width:2.7;"/>
   </g>
   <g id="line2d_96">
    <path clip-path="url(#pb6edb2905d)" d="M 0 0 
" style="fill:none;stroke:#424242;stroke-linecap:square;stroke-width:2.7;"/>
   </g>
   <g id="line2d_97">
    <path clip-path="url(#pb6edb2905d)" d="M 0 0 
" style="fill:none;stroke:#424242;stroke-linecap:square;stroke-width:2.7;"/>
   </g>
   <g id="line2d_98">
    <path clip-path="url(#pb6edb2905d)" d="M 0 0 
" style="fill:none;stroke:#424242;stroke-linecap:square;stroke-width:2.7;"/>
   </g>
   <g id="line2d_99">
    <path clip-path="url(#pb6edb2905d)" d="M 0 0 
" style="fill:none;stroke:#424242;stroke-linecap:square;stroke-width:2.7;"/>
   </g>
   <g id="line2d_100">
    <path clip-path="url(#pb6edb2905d)" d="M 0 0 
" style="fill:none;stroke:#424242;stroke-linecap:square;stroke-width:2.7;"/>
   </g>
   <g id="line2d_101">
    <path clip-path="url(#pb6edb2905d)" d="M 0 0 
" style="fill:none;stroke:#424242;stroke-linecap:square;stroke-width:2.7;"/>
   </g>
   <g id="line2d_102">
    <path clip-path="url(#pb6edb2905d)" d="M 0 0 
" style="fill:none;stroke:#424242;stroke-linecap:square;stroke-width:2.7;"/>
   </g>
   <g id="line2d_103">
    <path clip-path="url(#pb6edb2905d)" d="M 0 0 
" style="fill:none;stroke:#424242;stroke-linecap:square;stroke-width:2.7;"/>
   </g>
   <g id="line2d_104">
    <path clip-path="url(#pb6edb2905d)" d="M 0 0 
" style="fill:none;stroke:#424242;stroke-linecap:square;stroke-width:2.7;"/>
   </g>
   <g id="line2d_105">
    <path clip-path="url(#pb6edb2905d)" d="M 0 0 
" style="fill:none;stroke:#424242;stroke-linecap:square;stroke-width:2.7;"/>
   </g>
   <g id="line2d_106">
    <path clip-path="url(#pb6edb2905d)" d="M 0 0 
" style="fill:none;stroke:#424242;stroke-linecap:square;stroke-width:2.7;"/>
   </g>
   <g id="line2d_107">
    <path clip-path="url(#pb6edb2905d)" d="M 0 0 
" style="fill:none;stroke:#424242;stroke-linecap:square;stroke-width:2.7;"/>
   </g>
   <g id="line2d_108">
    <path clip-path="url(#pb6edb2905d)" d="M 0 0 
" style="fill:none;stroke:#424242;stroke-linecap:square;stroke-width:2.7;"/>
   </g>
   <g id="line2d_109">
    <path clip-path="url(#pb6edb2905d)" d="M 0 0 
" style="fill:none;stroke:#424242;stroke-linecap:square;stroke-width:2.7;"/>
   </g>
   <g id="line2d_110">
    <path clip-path="url(#pb6edb2905d)" d="M 0 0 
" style="fill:none;stroke:#424242;stroke-linecap:square;stroke-width:2.7;"/>
   </g>
   <g id="line2d_111">
    <path clip-path="url(#pb6edb2905d)" d="M 0 0 
" style="fill:none;stroke:#424242;stroke-linecap:square;stroke-width:2.7;"/>
   </g>
   <g id="line2d_112">
    <path clip-path="url(#pb6edb2905d)" d="M 0 0 
" style="fill:none;stroke:#424242;stroke-linecap:square;stroke-width:2.7;"/>
   </g>
   <g id="line2d_113">
    <path clip-path="url(#pb6edb2905d)" d="M 0 0 
" style="fill:none;stroke:#424242;stroke-linecap:square;stroke-width:2.7;"/>
   </g>
   <g id="line2d_114">
    <path clip-path="url(#pb6edb2905d)" d="M 0 0 
" style="fill:none;stroke:#424242;stroke-linecap:square;stroke-width:2.7;"/>
   </g>
   <g id="line2d_115">
    <path clip-path="url(#pb6edb2905d)" d="M 0 0 
" style="fill:none;stroke:#424242;stroke-linecap:square;stroke-width:2.7;"/>
   </g>
   <g id="line2d_116">
    <path clip-path="url(#pb6edb2905d)" d="M 0 0 
" style="fill:none;stroke:#424242;stroke-linecap:square;stroke-width:2.7;"/>
   </g>
   <g id="line2d_117">
    <path clip-path="url(#pb6edb2905d)" d="M 0 0 
" style="fill:none;stroke:#424242;stroke-linecap:square;stroke-width:2.7;"/>
   </g>
   <g id="line2d_118">
    <path clip-path="url(#pb6edb2905d)" d="M 0 0 
" style="fill:none;stroke:#424242;stroke-linecap:square;stroke-width:2.7;"/>
   </g>
   <g id="line2d_119">
    <path clip-path="url(#pb6edb2905d)" d="M 0 0 
" style="fill:none;stroke:#424242;stroke-linecap:square;stroke-width:2.7;"/>
   </g>
   <g id="line2d_120">
    <path clip-path="url(#pb6edb2905d)" d="M 0 0 
" style="fill:none;stroke:#424242;stroke-linecap:square;stroke-width:2.7;"/>
   </g>
   <g id="patch_60">
    <path d="M 69.3625 618.75499 
L 69.3625 354.14562 
" style="fill:none;stroke:#000000;stroke-linecap:square;stroke-linejoin:miter;stroke-width:0.8;"/>
   </g>
   <g id="patch_61">
    <path d="M 69.3625 618.75499 
L 1044.1625 618.75499 
" style="fill:none;stroke:#000000;stroke-linecap:square;stroke-linejoin:miter;stroke-width:0.8;"/>
   </g>
   <g id="text_44">
    <!-- CBR -->
    <g transform="translate(531.811875 348.14562)scale(0.24 -0.24)">
     <use xlink:href="#DejaVuSans-67"/>
     <use x="69.824219" xlink:href="#DejaVuSans-66"/>
     <use x="138.427734" xlink:href="#DejaVuSans-82"/>
    </g>
   </g>
  </g>
 </g>
 <defs>
  <clipPath id="p1f24f2e1aa">
   <rect height="264.60937" width="974.8" x="69.3625" y="31.43625"/>
  </clipPath>
  <clipPath id="pb6edb2905d">
   <rect height="264.60937" width="974.8" x="69.3625" y="354.14562"/>
  </clipPath>
 </defs>
</svg>
