<?xml version="1.0" encoding="utf-8" standalone="no"?>
<!DOCTYPE svg PUBLIC "-//W3C//DTD SVG 1.1//EN"
  "http://www.w3.org/Graphics/SVG/1.1/DTD/svg11.dtd">
<!-- Created with matplotlib (https://matplotlib.org/) -->
<svg height="360pt" version="1.1" viewBox="0 0 1440 360" width="1440pt" xmlns="http://www.w3.org/2000/svg" xmlns:xlink="http://www.w3.org/1999/xlink">
 <metadata>
  <rdf:RDF xmlns:cc="http://creativecommons.org/ns#" xmlns:dc="http://purl.org/dc/elements/1.1/" xmlns:rdf="http://www.w3.org/1999/02/22-rdf-syntax-ns#">
   <cc:Work>
    <dc:type rdf:resource="http://purl.org/dc/dcmitype/StillImage"/>
    <dc:date>2020-08-30T17:01:31.727617</dc:date>
    <dc:format>image/svg+xml</dc:format>
    <dc:creator>
     <cc:Agent>
      <dc:title>Matplotlib v3.3.1, https://matplotlib.org/</dc:title>
     </cc:Agent>
    </dc:creator>
   </cc:Work>
  </rdf:RDF>
 </metadata>
 <defs>
  <style type="text/css">*{stroke-linecap:butt;stroke-linejoin:round;}</style>
 </defs>
 <g id="figure_1">
  <g id="patch_1">
   <path d="M 0 360 
L 1440 360 
L 1440 0 
L 0 0 
z
" style="fill:none;"/>
  </g>
  <g id="axes_1">
   <g id="patch_2">
    <path d="M 83.6 231.327838 
L 1122.225 231.327838 
L 1122.225 46.6 
L 83.6 46.6 
z
" style="fill:#ffffff;"/>
   </g>
   <g id="patch_3">
    <path clip-path="url(#pa3d024c1d8)" d="M 104.3725 231.327838 
L 125.145 231.327838 
L 125.145 63.986452 
L 104.3725 63.986452 
z
" style="fill:#2020df;"/>
   </g>
   <g id="patch_4">
    <path clip-path="url(#pa3d024c1d8)" d="M 312.0975 231.327838 
L 332.87 231.327838 
L 332.87 177.350599 
L 312.0975 177.350599 
z
" style="fill:#2020df;"/>
   </g>
   <g id="patch_5">
    <path clip-path="url(#pa3d024c1d8)" d="M 519.8225 231.327838 
L 540.595 231.327838 
L 540.595 166.811444 
L 519.8225 166.811444 
z
" style="fill:#2020df;"/>
   </g>
   <g id="patch_6">
    <path clip-path="url(#pa3d024c1d8)" d="M 727.5475 231.327838 
L 748.32 231.327838 
L 748.32 162.494593 
L 727.5475 162.494593 
z
" style="fill:#2020df;"/>
   </g>
   <g id="patch_7">
    <path clip-path="url(#pa3d024c1d8)" d="M 935.2725 231.327838 
L 956.045 231.327838 
L 956.045 134.465621 
L 935.2725 134.465621 
z
" style="fill:#2020df;"/>
   </g>
   <g id="patch_8">
    <path clip-path="url(#pa3d024c1d8)" d="M 125.145 231.327838 
L 145.9175 231.327838 
L 145.9175 55.396564 
L 125.145 55.396564 
z
" style="fill:#5573cd;"/>
   </g>
   <g id="patch_9">
    <path clip-path="url(#pa3d024c1d8)" d="M 332.87 231.327838 
L 353.6425 231.327838 
L 353.6425 165.902531 
L 332.87 165.902531 
z
" style="fill:#5573cd;"/>
   </g>
   <g id="patch_10">
    <path clip-path="url(#pa3d024c1d8)" d="M 540.595 231.327838 
L 561.3675 231.327838 
L 561.3675 174.412607 
L 540.595 174.412607 
z
" style="fill:#5573cd;"/>
   </g>
   <g id="patch_11">
    <path clip-path="url(#pa3d024c1d8)" d="M 748.32 231.327838 
L 769.0925 231.327838 
L 769.0925 197.289209 
L 748.32 197.289209 
z
" style="fill:#5573cd;"/>
   </g>
   <g id="patch_12">
    <path clip-path="url(#pa3d024c1d8)" d="M 956.045 231.327838 
L 976.8175 231.327838 
L 976.8175 213.048826 
L 956.045 213.048826 
z
" style="fill:#5573cd;"/>
   </g>
   <g id="patch_13">
    <path clip-path="url(#pa3d024c1d8)" d="M 145.9175 231.327838 
L 166.69 231.327838 
L 166.69 59.352305 
L 145.9175 59.352305 
z
" style="fill:#3a90e3;"/>
   </g>
   <g id="patch_14">
    <path clip-path="url(#pa3d024c1d8)" d="M 353.6425 231.327838 
L 374.415 231.327838 
L 374.415 185.889419 
L 353.6425 185.889419 
z
" style="fill:#3a90e3;"/>
   </g>
   <g id="patch_15">
    <path clip-path="url(#pa3d024c1d8)" d="M 561.3675 231.327838 
L 582.14 231.327838 
L 582.14 173.040446 
L 561.3675 173.040446 
z
" style="fill:#3a90e3;"/>
   </g>
   <g id="patch_16">
    <path clip-path="url(#pa3d024c1d8)" d="M 769.0925 231.327838 
L 789.865 231.327838 
L 789.865 175.87044 
L 769.0925 175.87044 
z
" style="fill:#3a90e3;"/>
   </g>
   <g id="patch_17">
    <path clip-path="url(#pa3d024c1d8)" d="M 976.8175 231.327838 
L 997.59 231.327838 
L 997.59 175.725048 
L 976.8175 175.725048 
z
" style="fill:#3a90e3;"/>
   </g>
   <g id="patch_18">
    <path clip-path="url(#pa3d024c1d8)" d="M 166.69 231.327838 
L 187.4625 231.327838 
L 187.4625 73.606089 
L 166.69 73.606089 
z
" style="fill:#94c9de;"/>
   </g>
   <g id="patch_19">
    <path clip-path="url(#pa3d024c1d8)" d="M 374.415 231.327838 
L 395.1875 231.327838 
L 395.1875 195.576031 
L 374.415 195.576031 
z
" style="fill:#94c9de;"/>
   </g>
   <g id="patch_20">
    <path clip-path="url(#pa3d024c1d8)" d="M 582.14 231.327838 
L 602.9125 231.327838 
L 602.9125 185.588587 
L 582.14 185.588587 
z
" style="fill:#94c9de;"/>
   </g>
   <g id="patch_21">
    <path clip-path="url(#pa3d024c1d8)" d="M 789.865 231.327838 
L 810.6375 231.327838 
L 810.6375 183.729737 
L 789.865 183.729737 
z
" style="fill:#94c9de;"/>
   </g>
   <g id="patch_22">
    <path clip-path="url(#pa3d024c1d8)" d="M 997.59 231.327838 
L 1018.3625 231.327838 
L 1018.3625 178.006959 
L 997.59 178.006959 
z
" style="fill:#94c9de;"/>
   </g>
   <g id="patch_23">
    <path clip-path="url(#pa3d024c1d8)" d="M 187.4625 231.327838 
L 208.235 231.327838 
L 208.235 72.103884 
L 187.4625 72.103884 
z
" style="fill:#bf6a6a;"/>
   </g>
   <g id="patch_24">
    <path clip-path="url(#pa3d024c1d8)" d="M 395.1875 231.327838 
L 415.96 231.327838 
L 415.96 193.184447 
L 395.1875 193.184447 
z
" style="fill:#bf6a6a;"/>
   </g>
   <g id="patch_25">
    <path clip-path="url(#pa3d024c1d8)" d="M 602.9125 231.327838 
L 623.685 231.327838 
L 623.685 191.050719 
L 602.9125 191.050719 
z
" style="fill:#bf6a6a;"/>
   </g>
   <g id="patch_26">
    <path clip-path="url(#pa3d024c1d8)" d="M 810.6375 231.327838 
L 831.41 231.327838 
L 831.41 186.887075 
L 810.6375 186.887075 
z
" style="fill:#bf6a6a;"/>
   </g>
   <g id="patch_27">
    <path clip-path="url(#pa3d024c1d8)" d="M 1018.3625 231.327838 
L 1039.135 231.327838 
L 1039.135 155.211006 
L 1018.3625 155.211006 
z
" style="fill:#bf6a6a;"/>
   </g>
   <g id="patch_28">
    <path clip-path="url(#pa3d024c1d8)" d="M 208.235 231.327838 
L 229.0075 231.327838 
L 229.0075 63.862548 
L 208.235 63.862548 
z
" style="fill:#e98e83;"/>
   </g>
   <g id="patch_29">
    <path clip-path="url(#pa3d024c1d8)" d="M 415.96 231.327838 
L 436.7325 231.327838 
L 436.7325 181.224853 
L 415.96 181.224853 
z
" style="fill:#e98e83;"/>
   </g>
   <g id="patch_30">
    <path clip-path="url(#pa3d024c1d8)" d="M 623.685 231.327838 
L 644.4575 231.327838 
L 644.4575 194.524516 
L 623.685 194.524516 
z
" style="fill:#e98e83;"/>
   </g>
   <g id="patch_31">
    <path clip-path="url(#pa3d024c1d8)" d="M 831.41 231.327838 
L 852.1825 231.327838 
L 852.1825 212.798505 
L 831.41 212.798505 
z
" style="fill:#e98e83;"/>
   </g>
   <g id="patch_32">
    <path clip-path="url(#pa3d024c1d8)" d="M 1039.135 231.327838 
L 1059.9075 231.327838 
L 1059.9075 220.283577 
L 1039.135 220.283577 
z
" style="fill:#e98e83;"/>
   </g>
   <g id="patch_33">
    <path clip-path="url(#pa3d024c1d8)" d="M 229.0075 231.327838 
L 249.78 231.327838 
L 249.78 157.747704 
L 229.0075 157.747704 
z
" style="fill:#e2a673;"/>
   </g>
   <g id="patch_34">
    <path clip-path="url(#pa3d024c1d8)" d="M 436.7325 231.327838 
L 457.505 231.327838 
L 457.505 200.886631 
L 436.7325 200.886631 
z
" style="fill:#e2a673;"/>
   </g>
   <g id="patch_35">
    <path clip-path="url(#pa3d024c1d8)" d="M 644.4575 231.327838 
L 665.23 231.327838 
L 665.23 208.110777 
L 644.4575 208.110777 
z
" style="fill:#e2a673;"/>
   </g>
   <g id="patch_36">
    <path clip-path="url(#pa3d024c1d8)" d="M 852.1825 231.327838 
L 872.955 231.327838 
L 872.955 218.426122 
L 852.1825 218.426122 
z
" style="fill:#e2a673;"/>
   </g>
   <g id="patch_37">
    <path clip-path="url(#pa3d024c1d8)" d="M 1059.9075 231.327838 
L 1080.68 231.327838 
L 1080.68 222.012103 
L 1059.9075 222.012103 
z
" style="fill:#e2a673;"/>
   </g>
   <g id="patch_38">
    <path clip-path="url(#pa3d024c1d8)" d="M 249.78 231.327838 
L 270.5525 231.327838 
L 270.5525 134.689989 
L 249.78 134.689989 
z
" style="fill:#bb8551;"/>
   </g>
   <g id="patch_39">
    <path clip-path="url(#pa3d024c1d8)" d="M 457.505 231.327838 
L 478.2775 231.327838 
L 478.2775 206.786336 
L 457.505 206.786336 
z
" style="fill:#bb8551;"/>
   </g>
   <g id="patch_40">
    <path clip-path="url(#pa3d024c1d8)" d="M 665.23 231.327838 
L 686.0025 231.327838 
L 686.0025 204.075224 
L 665.23 204.075224 
z
" style="fill:#bb8551;"/>
   </g>
   <g id="patch_41">
    <path clip-path="url(#pa3d024c1d8)" d="M 872.955 231.327838 
L 893.7275 231.327838 
L 893.7275 199.429914 
L 872.955 199.429914 
z
" style="fill:#bb8551;"/>
   </g>
   <g id="patch_42">
    <path clip-path="url(#pa3d024c1d8)" d="M 1080.68 231.327838 
L 1101.4525 231.327838 
L 1101.4525 188.205097 
L 1080.68 188.205097 
z
" style="fill:#bb8551;"/>
   </g>
   <g id="matplotlib.axis_1">
    <g id="xtick_1">
     <g id="line2d_1">
      <defs>
       <path d="M 0 0 
L 0 3.5 
" id="m19ae71416d" style="stroke:#000000;stroke-width:0.8;"/>
      </defs>
      <g>
       <use style="stroke:#000000;stroke-width:0.8;" x="187.4625" xlink:href="#m19ae71416d" y="231.327838"/>
      </g>
     </g>
     <g id="text_1">
      <!-- very rare tail -->
      <g transform="translate(126.742586 286.312051)rotate(-15)scale(0.2 -0.2)">
       <defs>
        <path d="M 2.984375 54.6875 
L 12.5 54.6875 
L 29.59375 8.796875 
L 46.6875 54.6875 
L 56.203125 54.6875 
L 35.6875 0 
L 23.484375 0 
z
" id="DejaVuSans-118"/>
        <path d="M 56.203125 29.59375 
L 56.203125 25.203125 
L 14.890625 25.203125 
Q 15.484375 15.921875 20.484375 11.0625 
Q 25.484375 6.203125 34.421875 6.203125 
Q 39.59375 6.203125 44.453125 7.46875 
Q 49.3125 8.734375 54.109375 11.28125 
L 54.109375 2.78125 
Q 49.265625 0.734375 44.1875 -0.34375 
Q 39.109375 -1.421875 33.890625 -1.421875 
Q 20.796875 -1.421875 13.15625 6.1875 
Q 5.515625 13.8125 5.515625 26.8125 
Q 5.515625 40.234375 12.765625 48.109375 
Q 20.015625 56 32.328125 56 
Q 43.359375 56 49.78125 48.890625 
Q 56.203125 41.796875 56.203125 29.59375 
z
M 47.21875 32.234375 
Q 47.125 39.59375 43.09375 43.984375 
Q 39.0625 48.390625 32.421875 48.390625 
Q 24.90625 48.390625 20.390625 44.140625 
Q 15.875 39.890625 15.1875 32.171875 
z
" id="DejaVuSans-101"/>
        <path d="M 41.109375 46.296875 
Q 39.59375 47.171875 37.8125 47.578125 
Q 36.03125 48 33.890625 48 
Q 26.265625 48 22.1875 43.046875 
Q 18.109375 38.09375 18.109375 28.8125 
L 18.109375 0 
L 9.078125 0 
L 9.078125 54.6875 
L 18.109375 54.6875 
L 18.109375 46.1875 
Q 20.953125 51.171875 25.484375 53.578125 
Q 30.03125 56 36.53125 56 
Q 37.453125 56 38.578125 55.875 
Q 39.703125 55.765625 41.0625 55.515625 
z
" id="DejaVuSans-114"/>
        <path d="M 32.171875 -5.078125 
Q 28.375 -14.84375 24.75 -17.8125 
Q 21.140625 -20.796875 15.09375 -20.796875 
L 7.90625 -20.796875 
L 7.90625 -13.28125 
L 13.1875 -13.28125 
Q 16.890625 -13.28125 18.9375 -11.515625 
Q 21 -9.765625 23.484375 -3.21875 
L 25.09375 0.875 
L 2.984375 54.6875 
L 12.5 54.6875 
L 29.59375 11.921875 
L 46.6875 54.6875 
L 56.203125 54.6875 
z
" id="DejaVuSans-121"/>
        <path id="DejaVuSans-32"/>
        <path d="M 34.28125 27.484375 
Q 23.390625 27.484375 19.1875 25 
Q 14.984375 22.515625 14.984375 16.5 
Q 14.984375 11.71875 18.140625 8.90625 
Q 21.296875 6.109375 26.703125 6.109375 
Q 34.1875 6.109375 38.703125 11.40625 
Q 43.21875 16.703125 43.21875 25.484375 
L 43.21875 27.484375 
z
M 52.203125 31.203125 
L 52.203125 0 
L 43.21875 0 
L 43.21875 8.296875 
Q 40.140625 3.328125 35.546875 0.953125 
Q 30.953125 -1.421875 24.3125 -1.421875 
Q 15.921875 -1.421875 10.953125 3.296875 
Q 6 8.015625 6 15.921875 
Q 6 25.140625 12.171875 29.828125 
Q 18.359375 34.515625 30.609375 34.515625 
L 43.21875 34.515625 
L 43.21875 35.40625 
Q 43.21875 41.609375 39.140625 45 
Q 35.0625 48.390625 27.6875 48.390625 
Q 23 48.390625 18.546875 47.265625 
Q 14.109375 46.140625 10.015625 43.890625 
L 10.015625 52.203125 
Q 14.9375 54.109375 19.578125 55.046875 
Q 24.21875 56 28.609375 56 
Q 40.484375 56 46.34375 49.84375 
Q 52.203125 43.703125 52.203125 31.203125 
z
" id="DejaVuSans-97"/>
        <path d="M 18.3125 70.21875 
L 18.3125 54.6875 
L 36.8125 54.6875 
L 36.8125 47.703125 
L 18.3125 47.703125 
L 18.3125 18.015625 
Q 18.3125 11.328125 20.140625 9.421875 
Q 21.96875 7.515625 27.59375 7.515625 
L 36.8125 7.515625 
L 36.8125 0 
L 27.59375 0 
Q 17.1875 0 13.234375 3.875 
Q 9.28125 7.765625 9.28125 18.015625 
L 9.28125 47.703125 
L 2.6875 47.703125 
L 2.6875 54.6875 
L 9.28125 54.6875 
L 9.28125 70.21875 
z
" id="DejaVuSans-116"/>
        <path d="M 9.421875 54.6875 
L 18.40625 54.6875 
L 18.40625 0 
L 9.421875 0 
z
M 9.421875 75.984375 
L 18.40625 75.984375 
L 18.40625 64.59375 
L 9.421875 64.59375 
z
" id="DejaVuSans-105"/>
        <path d="M 9.421875 75.984375 
L 18.40625 75.984375 
L 18.40625 0 
L 9.421875 0 
z
" id="DejaVuSans-108"/>
       </defs>
       <use xlink:href="#DejaVuSans-118"/>
       <use x="59.179688" xlink:href="#DejaVuSans-101"/>
       <use x="120.703125" xlink:href="#DejaVuSans-114"/>
       <use x="161.816406" xlink:href="#DejaVuSans-121"/>
       <use x="220.996094" xlink:href="#DejaVuSans-32"/>
       <use x="252.783203" xlink:href="#DejaVuSans-114"/>
       <use x="293.896484" xlink:href="#DejaVuSans-97"/>
       <use x="355.175781" xlink:href="#DejaVuSans-114"/>
       <use x="394.039062" xlink:href="#DejaVuSans-101"/>
       <use x="455.5625" xlink:href="#DejaVuSans-32"/>
       <use x="487.349609" xlink:href="#DejaVuSans-116"/>
       <use x="526.558594" xlink:href="#DejaVuSans-97"/>
       <use x="587.837891" xlink:href="#DejaVuSans-105"/>
       <use x="615.621094" xlink:href="#DejaVuSans-108"/>
      </g>
     </g>
    </g>
    <g id="xtick_2">
     <g id="line2d_2">
      <g>
       <use style="stroke:#000000;stroke-width:0.8;" x="395.1875" xlink:href="#m19ae71416d" y="231.327838"/>
      </g>
     </g>
     <g id="text_2">
      <!-- rare tail -->
      <g transform="translate(358.885889 273.226322)rotate(-15)scale(0.2 -0.2)">
       <use xlink:href="#DejaVuSans-114"/>
       <use x="41.113281" xlink:href="#DejaVuSans-97"/>
       <use x="102.392578" xlink:href="#DejaVuSans-114"/>
       <use x="141.255859" xlink:href="#DejaVuSans-101"/>
       <use x="202.779297" xlink:href="#DejaVuSans-32"/>
       <use x="234.566406" xlink:href="#DejaVuSans-116"/>
       <use x="273.775391" xlink:href="#DejaVuSans-97"/>
       <use x="335.054688" xlink:href="#DejaVuSans-105"/>
       <use x="362.837891" xlink:href="#DejaVuSans-108"/>
      </g>
     </g>
    </g>
    <g id="xtick_3">
     <g id="line2d_3">
      <g>
       <use style="stroke:#000000;stroke-width:0.8;" x="602.9125" xlink:href="#m19ae71416d" y="231.327838"/>
      </g>
     </g>
     <g id="text_3">
      <!-- common tail -->
      <g transform="translate(544.127456 285.275157)rotate(-15)scale(0.2 -0.2)">
       <defs>
        <path d="M 48.78125 52.59375 
L 48.78125 44.1875 
Q 44.96875 46.296875 41.140625 47.34375 
Q 37.3125 48.390625 33.40625 48.390625 
Q 24.65625 48.390625 19.8125 42.84375 
Q 14.984375 37.3125 14.984375 27.296875 
Q 14.984375 17.28125 19.8125 11.734375 
Q 24.65625 6.203125 33.40625 6.203125 
Q 37.3125 6.203125 41.140625 7.25 
Q 44.96875 8.296875 48.78125 10.40625 
L 48.78125 2.09375 
Q 45.015625 0.34375 40.984375 -0.53125 
Q 36.96875 -1.421875 32.421875 -1.421875 
Q 20.0625 -1.421875 12.78125 6.34375 
Q 5.515625 14.109375 5.515625 27.296875 
Q 5.515625 40.671875 12.859375 48.328125 
Q 20.21875 56 33.015625 56 
Q 37.15625 56 41.109375 55.140625 
Q 45.0625 54.296875 48.78125 52.59375 
z
" id="DejaVuSans-99"/>
        <path d="M 30.609375 48.390625 
Q 23.390625 48.390625 19.1875 42.75 
Q 14.984375 37.109375 14.984375 27.296875 
Q 14.984375 17.484375 19.15625 11.84375 
Q 23.34375 6.203125 30.609375 6.203125 
Q 37.796875 6.203125 41.984375 11.859375 
Q 46.1875 17.53125 46.1875 27.296875 
Q 46.1875 37.015625 41.984375 42.703125 
Q 37.796875 48.390625 30.609375 48.390625 
z
M 30.609375 56 
Q 42.328125 56 49.015625 48.375 
Q 55.71875 40.765625 55.71875 27.296875 
Q 55.71875 13.875 49.015625 6.21875 
Q 42.328125 -1.421875 30.609375 -1.421875 
Q 18.84375 -1.421875 12.171875 6.21875 
Q 5.515625 13.875 5.515625 27.296875 
Q 5.515625 40.765625 12.171875 48.375 
Q 18.84375 56 30.609375 56 
z
" id="DejaVuSans-111"/>
        <path d="M 52 44.1875 
Q 55.375 50.25 60.0625 53.125 
Q 64.75 56 71.09375 56 
Q 79.640625 56 84.28125 50.015625 
Q 88.921875 44.046875 88.921875 33.015625 
L 88.921875 0 
L 79.890625 0 
L 79.890625 32.71875 
Q 79.890625 40.578125 77.09375 44.375 
Q 74.3125 48.1875 68.609375 48.1875 
Q 61.625 48.1875 57.5625 43.546875 
Q 53.515625 38.921875 53.515625 30.90625 
L 53.515625 0 
L 44.484375 0 
L 44.484375 32.71875 
Q 44.484375 40.625 41.703125 44.40625 
Q 38.921875 48.1875 33.109375 48.1875 
Q 26.21875 48.1875 22.15625 43.53125 
Q 18.109375 38.875 18.109375 30.90625 
L 18.109375 0 
L 9.078125 0 
L 9.078125 54.6875 
L 18.109375 54.6875 
L 18.109375 46.1875 
Q 21.1875 51.21875 25.484375 53.609375 
Q 29.78125 56 35.6875 56 
Q 41.65625 56 45.828125 52.96875 
Q 50 49.953125 52 44.1875 
z
" id="DejaVuSans-109"/>
        <path d="M 54.890625 33.015625 
L 54.890625 0 
L 45.90625 0 
L 45.90625 32.71875 
Q 45.90625 40.484375 42.875 44.328125 
Q 39.84375 48.1875 33.796875 48.1875 
Q 26.515625 48.1875 22.3125 43.546875 
Q 18.109375 38.921875 18.109375 30.90625 
L 18.109375 0 
L 9.078125 0 
L 9.078125 54.6875 
L 18.109375 54.6875 
L 18.109375 46.1875 
Q 21.34375 51.125 25.703125 53.5625 
Q 30.078125 56 35.796875 56 
Q 45.21875 56 50.046875 50.171875 
Q 54.890625 44.34375 54.890625 33.015625 
z
" id="DejaVuSans-110"/>
       </defs>
       <use xlink:href="#DejaVuSans-99"/>
       <use x="54.980469" xlink:href="#DejaVuSans-111"/>
       <use x="116.162109" xlink:href="#DejaVuSans-109"/>
       <use x="213.574219" xlink:href="#DejaVuSans-109"/>
       <use x="310.986328" xlink:href="#DejaVuSans-111"/>
       <use x="372.167969" xlink:href="#DejaVuSans-110"/>
       <use x="435.546875" xlink:href="#DejaVuSans-32"/>
       <use x="467.333984" xlink:href="#DejaVuSans-116"/>
       <use x="506.542969" xlink:href="#DejaVuSans-97"/>
       <use x="567.822266" xlink:href="#DejaVuSans-105"/>
       <use x="595.605469" xlink:href="#DejaVuSans-108"/>
      </g>
     </g>
    </g>
    <g id="xtick_4">
     <g id="line2d_4">
      <g>
       <use style="stroke:#000000;stroke-width:0.8;" x="810.6375" xlink:href="#m19ae71416d" y="231.327838"/>
      </g>
     </g>
     <g id="text_4">
      <!-- very common tail -->
      <g transform="translate(727.434153 298.360886)rotate(-15)scale(0.2 -0.2)">
       <use xlink:href="#DejaVuSans-118"/>
       <use x="59.179688" xlink:href="#DejaVuSans-101"/>
       <use x="120.703125" xlink:href="#DejaVuSans-114"/>
       <use x="161.816406" xlink:href="#DejaVuSans-121"/>
       <use x="220.996094" xlink:href="#DejaVuSans-32"/>
       <use x="252.783203" xlink:href="#DejaVuSans-99"/>
       <use x="307.763672" xlink:href="#DejaVuSans-111"/>
       <use x="368.945312" xlink:href="#DejaVuSans-109"/>
       <use x="466.357422" xlink:href="#DejaVuSans-109"/>
       <use x="563.769531" xlink:href="#DejaVuSans-111"/>
       <use x="624.951172" xlink:href="#DejaVuSans-110"/>
       <use x="688.330078" xlink:href="#DejaVuSans-32"/>
       <use x="720.117188" xlink:href="#DejaVuSans-116"/>
       <use x="759.326172" xlink:href="#DejaVuSans-97"/>
       <use x="820.605469" xlink:href="#DejaVuSans-105"/>
       <use x="848.388672" xlink:href="#DejaVuSans-108"/>
      </g>
     </g>
    </g>
    <g id="xtick_5">
     <g id="line2d_5">
      <g>
       <use style="stroke:#000000;stroke-width:0.8;" x="1018.3625" xlink:href="#m19ae71416d" y="231.327838"/>
      </g>
     </g>
     <g id="text_5">
      <!-- very very common tail -->
      <g transform="translate(910.74085 311.446615)rotate(-15)scale(0.2 -0.2)">
       <use xlink:href="#DejaVuSans-118"/>
       <use x="59.179688" xlink:href="#DejaVuSans-101"/>
       <use x="120.703125" xlink:href="#DejaVuSans-114"/>
       <use x="161.816406" xlink:href="#DejaVuSans-121"/>
       <use x="220.996094" xlink:href="#DejaVuSans-32"/>
       <use x="252.783203" xlink:href="#DejaVuSans-118"/>
       <use x="311.962891" xlink:href="#DejaVuSans-101"/>
       <use x="373.486328" xlink:href="#DejaVuSans-114"/>
       <use x="414.599609" xlink:href="#DejaVuSans-121"/>
       <use x="473.779297" xlink:href="#DejaVuSans-32"/>
       <use x="505.566406" xlink:href="#DejaVuSans-99"/>
       <use x="560.546875" xlink:href="#DejaVuSans-111"/>
       <use x="621.728516" xlink:href="#DejaVuSans-109"/>
       <use x="719.140625" xlink:href="#DejaVuSans-109"/>
       <use x="816.552734" xlink:href="#DejaVuSans-111"/>
       <use x="877.734375" xlink:href="#DejaVuSans-110"/>
       <use x="941.113281" xlink:href="#DejaVuSans-32"/>
       <use x="972.900391" xlink:href="#DejaVuSans-116"/>
       <use x="1012.109375" xlink:href="#DejaVuSans-97"/>
       <use x="1073.388672" xlink:href="#DejaVuSans-105"/>
       <use x="1101.171875" xlink:href="#DejaVuSans-108"/>
      </g>
     </g>
    </g>
    <g id="text_6">
     <!-- Rarity of entity predicted -->
     <g transform="translate(477.696875 334.661138)scale(0.2 -0.2)">
      <defs>
       <path d="M 44.390625 34.1875 
Q 47.5625 33.109375 50.5625 29.59375 
Q 53.5625 26.078125 56.59375 19.921875 
L 66.609375 0 
L 56 0 
L 46.6875 18.703125 
Q 43.0625 26.03125 39.671875 28.421875 
Q 36.28125 30.8125 30.421875 30.8125 
L 19.671875 30.8125 
L 19.671875 0 
L 9.8125 0 
L 9.8125 72.90625 
L 32.078125 72.90625 
Q 44.578125 72.90625 50.734375 67.671875 
Q 56.890625 62.453125 56.890625 51.90625 
Q 56.890625 45.015625 53.6875 40.46875 
Q 50.484375 35.9375 44.390625 34.1875 
z
M 19.671875 64.796875 
L 19.671875 38.921875 
L 32.078125 38.921875 
Q 39.203125 38.921875 42.84375 42.21875 
Q 46.484375 45.515625 46.484375 51.90625 
Q 46.484375 58.296875 42.84375 61.546875 
Q 39.203125 64.796875 32.078125 64.796875 
z
" id="DejaVuSans-82"/>
       <path d="M 37.109375 75.984375 
L 37.109375 68.5 
L 28.515625 68.5 
Q 23.6875 68.5 21.796875 66.546875 
Q 19.921875 64.59375 19.921875 59.515625 
L 19.921875 54.6875 
L 34.71875 54.6875 
L 34.71875 47.703125 
L 19.921875 47.703125 
L 19.921875 0 
L 10.890625 0 
L 10.890625 47.703125 
L 2.296875 47.703125 
L 2.296875 54.6875 
L 10.890625 54.6875 
L 10.890625 58.5 
Q 10.890625 67.625 15.140625 71.796875 
Q 19.390625 75.984375 28.609375 75.984375 
z
" id="DejaVuSans-102"/>
       <path d="M 18.109375 8.203125 
L 18.109375 -20.796875 
L 9.078125 -20.796875 
L 9.078125 54.6875 
L 18.109375 54.6875 
L 18.109375 46.390625 
Q 20.953125 51.265625 25.265625 53.625 
Q 29.59375 56 35.59375 56 
Q 45.5625 56 51.78125 48.09375 
Q 58.015625 40.1875 58.015625 27.296875 
Q 58.015625 14.40625 51.78125 6.484375 
Q 45.5625 -1.421875 35.59375 -1.421875 
Q 29.59375 -1.421875 25.265625 0.953125 
Q 20.953125 3.328125 18.109375 8.203125 
z
M 48.6875 27.296875 
Q 48.6875 37.203125 44.609375 42.84375 
Q 40.53125 48.484375 33.40625 48.484375 
Q 26.265625 48.484375 22.1875 42.84375 
Q 18.109375 37.203125 18.109375 27.296875 
Q 18.109375 17.390625 22.1875 11.75 
Q 26.265625 6.109375 33.40625 6.109375 
Q 40.53125 6.109375 44.609375 11.75 
Q 48.6875 17.390625 48.6875 27.296875 
z
" id="DejaVuSans-112"/>
       <path d="M 45.40625 46.390625 
L 45.40625 75.984375 
L 54.390625 75.984375 
L 54.390625 0 
L 45.40625 0 
L 45.40625 8.203125 
Q 42.578125 3.328125 38.25 0.953125 
Q 33.9375 -1.421875 27.875 -1.421875 
Q 17.96875 -1.421875 11.734375 6.484375 
Q 5.515625 14.40625 5.515625 27.296875 
Q 5.515625 40.1875 11.734375 48.09375 
Q 17.96875 56 27.875 56 
Q 33.9375 56 38.25 53.625 
Q 42.578125 51.265625 45.40625 46.390625 
z
M 14.796875 27.296875 
Q 14.796875 17.390625 18.875 11.75 
Q 22.953125 6.109375 30.078125 6.109375 
Q 37.203125 6.109375 41.296875 11.75 
Q 45.40625 17.390625 45.40625 27.296875 
Q 45.40625 37.203125 41.296875 42.84375 
Q 37.203125 48.484375 30.078125 48.484375 
Q 22.953125 48.484375 18.875 42.84375 
Q 14.796875 37.203125 14.796875 27.296875 
z
" id="DejaVuSans-100"/>
      </defs>
      <use xlink:href="#DejaVuSans-82"/>
      <use x="67.232422" xlink:href="#DejaVuSans-97"/>
      <use x="128.511719" xlink:href="#DejaVuSans-114"/>
      <use x="169.625" xlink:href="#DejaVuSans-105"/>
      <use x="197.408203" xlink:href="#DejaVuSans-116"/>
      <use x="236.617188" xlink:href="#DejaVuSans-121"/>
      <use x="295.796875" xlink:href="#DejaVuSans-32"/>
      <use x="327.583984" xlink:href="#DejaVuSans-111"/>
      <use x="388.765625" xlink:href="#DejaVuSans-102"/>
      <use x="423.970703" xlink:href="#DejaVuSans-32"/>
      <use x="455.757812" xlink:href="#DejaVuSans-101"/>
      <use x="517.28125" xlink:href="#DejaVuSans-110"/>
      <use x="580.660156" xlink:href="#DejaVuSans-116"/>
      <use x="619.869141" xlink:href="#DejaVuSans-105"/>
      <use x="647.652344" xlink:href="#DejaVuSans-116"/>
      <use x="686.861328" xlink:href="#DejaVuSans-121"/>
      <use x="746.041016" xlink:href="#DejaVuSans-32"/>
      <use x="777.828125" xlink:href="#DejaVuSans-112"/>
      <use x="841.304688" xlink:href="#DejaVuSans-114"/>
      <use x="880.167969" xlink:href="#DejaVuSans-101"/>
      <use x="941.691406" xlink:href="#DejaVuSans-100"/>
      <use x="1005.167969" xlink:href="#DejaVuSans-105"/>
      <use x="1032.951172" xlink:href="#DejaVuSans-99"/>
      <use x="1087.931641" xlink:href="#DejaVuSans-116"/>
      <use x="1127.140625" xlink:href="#DejaVuSans-101"/>
      <use x="1188.664062" xlink:href="#DejaVuSans-100"/>
     </g>
    </g>
   </g>
   <g id="matplotlib.axis_2">
    <g id="ytick_1">
     <g id="line2d_6">
      <defs>
       <path d="M 0 0 
L -3.5 0 
" id="mc8bd7e6037" style="stroke:#000000;stroke-width:0.8;"/>
      </defs>
      <g>
       <use style="stroke:#000000;stroke-width:0.8;" x="83.6" xlink:href="#mc8bd7e6037" y="231.327838"/>
      </g>
     </g>
     <g id="text_7">
      <!-- 0.0 -->
      <g transform="translate(44.79375 238.926276)scale(0.2 -0.2)">
       <defs>
        <path d="M 31.78125 66.40625 
Q 24.171875 66.40625 20.328125 58.90625 
Q 16.5 51.421875 16.5 36.375 
Q 16.5 21.390625 20.328125 13.890625 
Q 24.171875 6.390625 31.78125 6.390625 
Q 39.453125 6.390625 43.28125 13.890625 
Q 47.125 21.390625 47.125 36.375 
Q 47.125 51.421875 43.28125 58.90625 
Q 39.453125 66.40625 31.78125 66.40625 
z
M 31.78125 74.21875 
Q 44.046875 74.21875 50.515625 64.515625 
Q 56.984375 54.828125 56.984375 36.375 
Q 56.984375 17.96875 50.515625 8.265625 
Q 44.046875 -1.421875 31.78125 -1.421875 
Q 19.53125 -1.421875 13.0625 8.265625 
Q 6.59375 17.96875 6.59375 36.375 
Q 6.59375 54.828125 13.0625 64.515625 
Q 19.53125 74.21875 31.78125 74.21875 
z
" id="DejaVuSans-48"/>
        <path d="M 10.6875 12.40625 
L 21 12.40625 
L 21 0 
L 10.6875 0 
z
" id="DejaVuSans-46"/>
       </defs>
       <use xlink:href="#DejaVuSans-48"/>
       <use x="63.623047" xlink:href="#DejaVuSans-46"/>
       <use x="95.410156" xlink:href="#DejaVuSans-48"/>
      </g>
     </g>
    </g>
    <g id="ytick_2">
     <g id="line2d_7">
      <g>
       <use style="stroke:#000000;stroke-width:0.8;" x="83.6" xlink:href="#mc8bd7e6037" y="175.514912"/>
      </g>
     </g>
     <g id="text_8">
      <!-- 0.2 -->
      <g transform="translate(44.79375 183.113349)scale(0.2 -0.2)">
       <defs>
        <path d="M 19.1875 8.296875 
L 53.609375 8.296875 
L 53.609375 0 
L 7.328125 0 
L 7.328125 8.296875 
Q 12.9375 14.109375 22.625 23.890625 
Q 32.328125 33.6875 34.8125 36.53125 
Q 39.546875 41.84375 41.421875 45.53125 
Q 43.3125 49.21875 43.3125 52.78125 
Q 43.3125 58.59375 39.234375 62.25 
Q 35.15625 65.921875 28.609375 65.921875 
Q 23.96875 65.921875 18.8125 64.3125 
Q 13.671875 62.703125 7.8125 59.421875 
L 7.8125 69.390625 
Q 13.765625 71.78125 18.9375 73 
Q 24.125 74.21875 28.421875 74.21875 
Q 39.75 74.21875 46.484375 68.546875 
Q 53.21875 62.890625 53.21875 53.421875 
Q 53.21875 48.921875 51.53125 44.890625 
Q 49.859375 40.875 45.40625 35.40625 
Q 44.1875 33.984375 37.640625 27.21875 
Q 31.109375 20.453125 19.1875 8.296875 
z
" id="DejaVuSans-50"/>
       </defs>
       <use xlink:href="#DejaVuSans-48"/>
       <use x="63.623047" xlink:href="#DejaVuSans-46"/>
       <use x="95.410156" xlink:href="#DejaVuSans-50"/>
      </g>
     </g>
    </g>
    <g id="ytick_3">
     <g id="line2d_8">
      <g>
       <use style="stroke:#000000;stroke-width:0.8;" x="83.6" xlink:href="#mc8bd7e6037" y="119.701985"/>
      </g>
     </g>
     <g id="text_9">
      <!-- 0.4 -->
      <g transform="translate(44.79375 127.300423)scale(0.2 -0.2)">
       <defs>
        <path d="M 37.796875 64.3125 
L 12.890625 25.390625 
L 37.796875 25.390625 
z
M 35.203125 72.90625 
L 47.609375 72.90625 
L 47.609375 25.390625 
L 58.015625 25.390625 
L 58.015625 17.1875 
L 47.609375 17.1875 
L 47.609375 0 
L 37.796875 0 
L 37.796875 17.1875 
L 4.890625 17.1875 
L 4.890625 26.703125 
z
" id="DejaVuSans-52"/>
       </defs>
       <use xlink:href="#DejaVuSans-48"/>
       <use x="63.623047" xlink:href="#DejaVuSans-46"/>
       <use x="95.410156" xlink:href="#DejaVuSans-52"/>
      </g>
     </g>
    </g>
    <g id="ytick_4">
     <g id="line2d_9">
      <g>
       <use style="stroke:#000000;stroke-width:0.8;" x="83.6" xlink:href="#mc8bd7e6037" y="63.889059"/>
      </g>
     </g>
     <g id="text_10">
      <!-- 0.6 -->
      <g transform="translate(44.79375 71.487496)scale(0.2 -0.2)">
       <defs>
        <path d="M 33.015625 40.375 
Q 26.375 40.375 22.484375 35.828125 
Q 18.609375 31.296875 18.609375 23.390625 
Q 18.609375 15.53125 22.484375 10.953125 
Q 26.375 6.390625 33.015625 6.390625 
Q 39.65625 6.390625 43.53125 10.953125 
Q 47.40625 15.53125 47.40625 23.390625 
Q 47.40625 31.296875 43.53125 35.828125 
Q 39.65625 40.375 33.015625 40.375 
z
M 52.59375 71.296875 
L 52.59375 62.3125 
Q 48.875 64.0625 45.09375 64.984375 
Q 41.3125 65.921875 37.59375 65.921875 
Q 27.828125 65.921875 22.671875 59.328125 
Q 17.53125 52.734375 16.796875 39.40625 
Q 19.671875 43.65625 24.015625 45.921875 
Q 28.375 48.1875 33.59375 48.1875 
Q 44.578125 48.1875 50.953125 41.515625 
Q 57.328125 34.859375 57.328125 23.390625 
Q 57.328125 12.15625 50.6875 5.359375 
Q 44.046875 -1.421875 33.015625 -1.421875 
Q 20.359375 -1.421875 13.671875 8.265625 
Q 6.984375 17.96875 6.984375 36.375 
Q 6.984375 53.65625 15.1875 63.9375 
Q 23.390625 74.21875 37.203125 74.21875 
Q 40.921875 74.21875 44.703125 73.484375 
Q 48.484375 72.75 52.59375 71.296875 
z
" id="DejaVuSans-54"/>
       </defs>
       <use xlink:href="#DejaVuSans-48"/>
       <use x="63.623047" xlink:href="#DejaVuSans-46"/>
       <use x="95.410156" xlink:href="#DejaVuSans-54"/>
      </g>
     </g>
    </g>
    <g id="text_11">
     <!-- MRR -->
     <g transform="translate(36.634375 161.488919)rotate(-90)scale(0.2 -0.2)">
      <defs>
       <path d="M 9.8125 72.90625 
L 24.515625 72.90625 
L 43.109375 23.296875 
L 61.8125 72.90625 
L 76.515625 72.90625 
L 76.515625 0 
L 66.890625 0 
L 66.890625 64.015625 
L 48.09375 14.015625 
L 38.1875 14.015625 
L 19.390625 64.015625 
L 19.390625 0 
L 9.8125 0 
z
" id="DejaVuSans-77"/>
      </defs>
      <use xlink:href="#DejaVuSans-77"/>
      <use x="86.279297" xlink:href="#DejaVuSans-82"/>
      <use x="155.761719" xlink:href="#DejaVuSans-82"/>
     </g>
    </g>
   </g>
   <g id="line2d_10">
    <path clip-path="url(#pa3d024c1d8)" d="M 0 0 
" style="fill:none;stroke:#424242;stroke-linecap:square;stroke-width:2.7;"/>
   </g>
   <g id="line2d_11">
    <path clip-path="url(#pa3d024c1d8)" d="M 0 0 
" style="fill:none;stroke:#424242;stroke-linecap:square;stroke-width:2.7;"/>
   </g>
   <g id="line2d_12">
    <path clip-path="url(#pa3d024c1d8)" d="M 0 0 
" style="fill:none;stroke:#424242;stroke-linecap:square;stroke-width:2.7;"/>
   </g>
   <g id="line2d_13">
    <path clip-path="url(#pa3d024c1d8)" d="M 0 0 
" style="fill:none;stroke:#424242;stroke-linecap:square;stroke-width:2.7;"/>
   </g>
   <g id="line2d_14">
    <path clip-path="url(#pa3d024c1d8)" d="M 0 0 
" style="fill:none;stroke:#424242;stroke-linecap:square;stroke-width:2.7;"/>
   </g>
   <g id="line2d_15">
    <path clip-path="url(#pa3d024c1d8)" d="M 0 0 
" style="fill:none;stroke:#424242;stroke-linecap:square;stroke-width:2.7;"/>
   </g>
   <g id="line2d_16">
    <path clip-path="url(#pa3d024c1d8)" d="M 0 0 
" style="fill:none;stroke:#424242;stroke-linecap:square;stroke-width:2.7;"/>
   </g>
   <g id="line2d_17">
    <path clip-path="url(#pa3d024c1d8)" d="M 0 0 
" style="fill:none;stroke:#424242;stroke-linecap:square;stroke-width:2.7;"/>
   </g>
   <g id="line2d_18">
    <path clip-path="url(#pa3d024c1d8)" d="M 0 0 
" style="fill:none;stroke:#424242;stroke-linecap:square;stroke-width:2.7;"/>
   </g>
   <g id="line2d_19">
    <path clip-path="url(#pa3d024c1d8)" d="M 0 0 
" style="fill:none;stroke:#424242;stroke-linecap:square;stroke-width:2.7;"/>
   </g>
   <g id="line2d_20">
    <path clip-path="url(#pa3d024c1d8)" d="M 0 0 
" style="fill:none;stroke:#424242;stroke-linecap:square;stroke-width:2.7;"/>
   </g>
   <g id="line2d_21">
    <path clip-path="url(#pa3d024c1d8)" d="M 0 0 
" style="fill:none;stroke:#424242;stroke-linecap:square;stroke-width:2.7;"/>
   </g>
   <g id="line2d_22">
    <path clip-path="url(#pa3d024c1d8)" d="M 0 0 
" style="fill:none;stroke:#424242;stroke-linecap:square;stroke-width:2.7;"/>
   </g>
   <g id="line2d_23">
    <path clip-path="url(#pa3d024c1d8)" d="M 0 0 
" style="fill:none;stroke:#424242;stroke-linecap:square;stroke-width:2.7;"/>
   </g>
   <g id="line2d_24">
    <path clip-path="url(#pa3d024c1d8)" d="M 0 0 
" style="fill:none;stroke:#424242;stroke-linecap:square;stroke-width:2.7;"/>
   </g>
   <g id="line2d_25">
    <path clip-path="url(#pa3d024c1d8)" d="M 0 0 
" style="fill:none;stroke:#424242;stroke-linecap:square;stroke-width:2.7;"/>
   </g>
   <g id="line2d_26">
    <path clip-path="url(#pa3d024c1d8)" d="M 0 0 
" style="fill:none;stroke:#424242;stroke-linecap:square;stroke-width:2.7;"/>
   </g>
   <g id="line2d_27">
    <path clip-path="url(#pa3d024c1d8)" d="M 0 0 
" style="fill:none;stroke:#424242;stroke-linecap:square;stroke-width:2.7;"/>
   </g>
   <g id="line2d_28">
    <path clip-path="url(#pa3d024c1d8)" d="M 0 0 
" style="fill:none;stroke:#424242;stroke-linecap:square;stroke-width:2.7;"/>
   </g>
   <g id="line2d_29">
    <path clip-path="url(#pa3d024c1d8)" d="M 0 0 
" style="fill:none;stroke:#424242;stroke-linecap:square;stroke-width:2.7;"/>
   </g>
   <g id="line2d_30">
    <path clip-path="url(#pa3d024c1d8)" d="M 0 0 
" style="fill:none;stroke:#424242;stroke-linecap:square;stroke-width:2.7;"/>
   </g>
   <g id="line2d_31">
    <path clip-path="url(#pa3d024c1d8)" d="M 0 0 
" style="fill:none;stroke:#424242;stroke-linecap:square;stroke-width:2.7;"/>
   </g>
   <g id="line2d_32">
    <path clip-path="url(#pa3d024c1d8)" d="M 0 0 
" style="fill:none;stroke:#424242;stroke-linecap:square;stroke-width:2.7;"/>
   </g>
   <g id="line2d_33">
    <path clip-path="url(#pa3d024c1d8)" d="M 0 0 
" style="fill:none;stroke:#424242;stroke-linecap:square;stroke-width:2.7;"/>
   </g>
   <g id="line2d_34">
    <path clip-path="url(#pa3d024c1d8)" d="M 0 0 
" style="fill:none;stroke:#424242;stroke-linecap:square;stroke-width:2.7;"/>
   </g>
   <g id="line2d_35">
    <path clip-path="url(#pa3d024c1d8)" d="M 0 0 
" style="fill:none;stroke:#424242;stroke-linecap:square;stroke-width:2.7;"/>
   </g>
   <g id="line2d_36">
    <path clip-path="url(#pa3d024c1d8)" d="M 0 0 
" style="fill:none;stroke:#424242;stroke-linecap:square;stroke-width:2.7;"/>
   </g>
   <g id="line2d_37">
    <path clip-path="url(#pa3d024c1d8)" d="M 0 0 
" style="fill:none;stroke:#424242;stroke-linecap:square;stroke-width:2.7;"/>
   </g>
   <g id="line2d_38">
    <path clip-path="url(#pa3d024c1d8)" d="M 0 0 
" style="fill:none;stroke:#424242;stroke-linecap:square;stroke-width:2.7;"/>
   </g>
   <g id="line2d_39">
    <path clip-path="url(#pa3d024c1d8)" d="M 0 0 
" style="fill:none;stroke:#424242;stroke-linecap:square;stroke-width:2.7;"/>
   </g>
   <g id="line2d_40">
    <path clip-path="url(#pa3d024c1d8)" d="M 0 0 
" style="fill:none;stroke:#424242;stroke-linecap:square;stroke-width:2.7;"/>
   </g>
   <g id="line2d_41">
    <path clip-path="url(#pa3d024c1d8)" d="M 0 0 
" style="fill:none;stroke:#424242;stroke-linecap:square;stroke-width:2.7;"/>
   </g>
   <g id="line2d_42">
    <path clip-path="url(#pa3d024c1d8)" d="M 0 0 
" style="fill:none;stroke:#424242;stroke-linecap:square;stroke-width:2.7;"/>
   </g>
   <g id="line2d_43">
    <path clip-path="url(#pa3d024c1d8)" d="M 0 0 
" style="fill:none;stroke:#424242;stroke-linecap:square;stroke-width:2.7;"/>
   </g>
   <g id="line2d_44">
    <path clip-path="url(#pa3d024c1d8)" d="M 0 0 
" style="fill:none;stroke:#424242;stroke-linecap:square;stroke-width:2.7;"/>
   </g>
   <g id="line2d_45">
    <path clip-path="url(#pa3d024c1d8)" d="M 0 0 
" style="fill:none;stroke:#424242;stroke-linecap:square;stroke-width:2.7;"/>
   </g>
   <g id="line2d_46">
    <path clip-path="url(#pa3d024c1d8)" d="M 0 0 
" style="fill:none;stroke:#424242;stroke-linecap:square;stroke-width:2.7;"/>
   </g>
   <g id="line2d_47">
    <path clip-path="url(#pa3d024c1d8)" d="M 0 0 
" style="fill:none;stroke:#424242;stroke-linecap:square;stroke-width:2.7;"/>
   </g>
   <g id="line2d_48">
    <path clip-path="url(#pa3d024c1d8)" d="M 0 0 
" style="fill:none;stroke:#424242;stroke-linecap:square;stroke-width:2.7;"/>
   </g>
   <g id="line2d_49">
    <path clip-path="url(#pa3d024c1d8)" d="M 0 0 
" style="fill:none;stroke:#424242;stroke-linecap:square;stroke-width:2.7;"/>
   </g>
   <g id="patch_43">
    <path d="M 83.6 231.327838 
L 83.6 46.6 
" style="fill:none;stroke:#000000;stroke-linecap:square;stroke-linejoin:miter;stroke-width:0.8;"/>
   </g>
   <g id="patch_44">
    <path d="M 1122.225 231.327838 
L 1122.225 46.6 
" style="fill:none;stroke:#000000;stroke-linecap:square;stroke-linejoin:miter;stroke-width:0.8;"/>
   </g>
   <g id="patch_45">
    <path d="M 83.6 231.327838 
L 1122.225 231.327838 
" style="fill:none;stroke:#000000;stroke-linecap:square;stroke-linejoin:miter;stroke-width:0.8;"/>
   </g>
   <g id="patch_46">
    <path d="M 83.6 46.6 
L 1122.225 46.6 
" style="fill:none;stroke:#000000;stroke-linecap:square;stroke-linejoin:miter;stroke-width:0.8;"/>
   </g>
   <g id="text_12">
    <!-- MRR model comparison for tail prediction -->
    <g transform="translate(353.95375 40.6)scale(0.24 -0.24)">
     <defs>
      <path d="M 44.28125 53.078125 
L 44.28125 44.578125 
Q 40.484375 46.53125 36.375 47.5 
Q 32.28125 48.484375 27.875 48.484375 
Q 21.1875 48.484375 17.84375 46.4375 
Q 14.5 44.390625 14.5 40.28125 
Q 14.5 37.15625 16.890625 35.375 
Q 19.28125 33.59375 26.515625 31.984375 
L 29.59375 31.296875 
Q 39.15625 29.25 43.1875 25.515625 
Q 47.21875 21.78125 47.21875 15.09375 
Q 47.21875 7.46875 41.1875 3.015625 
Q 35.15625 -1.421875 24.609375 -1.421875 
Q 20.21875 -1.421875 15.453125 -0.5625 
Q 10.6875 0.296875 5.421875 2 
L 5.421875 11.28125 
Q 10.40625 8.6875 15.234375 7.390625 
Q 20.0625 6.109375 24.8125 6.109375 
Q 31.15625 6.109375 34.5625 8.28125 
Q 37.984375 10.453125 37.984375 14.40625 
Q 37.984375 18.0625 35.515625 20.015625 
Q 33.0625 21.96875 24.703125 23.78125 
L 21.578125 24.515625 
Q 13.234375 26.265625 9.515625 29.90625 
Q 5.8125 33.546875 5.8125 39.890625 
Q 5.8125 47.609375 11.28125 51.796875 
Q 16.75 56 26.8125 56 
Q 31.78125 56 36.171875 55.265625 
Q 40.578125 54.546875 44.28125 53.078125 
z
" id="DejaVuSans-115"/>
     </defs>
     <use xlink:href="#DejaVuSans-77"/>
     <use x="86.279297" xlink:href="#DejaVuSans-82"/>
     <use x="155.761719" xlink:href="#DejaVuSans-82"/>
     <use x="225.244141" xlink:href="#DejaVuSans-32"/>
     <use x="257.03125" xlink:href="#DejaVuSans-109"/>
     <use x="354.443359" xlink:href="#DejaVuSans-111"/>
     <use x="415.625" xlink:href="#DejaVuSans-100"/>
     <use x="479.101562" xlink:href="#DejaVuSans-101"/>
     <use x="540.625" xlink:href="#DejaVuSans-108"/>
     <use x="568.408203" xlink:href="#DejaVuSans-32"/>
     <use x="600.195312" xlink:href="#DejaVuSans-99"/>
     <use x="655.175781" xlink:href="#DejaVuSans-111"/>
     <use x="716.357422" xlink:href="#DejaVuSans-109"/>
     <use x="813.769531" xlink:href="#DejaVuSans-112"/>
     <use x="877.246094" xlink:href="#DejaVuSans-97"/>
     <use x="938.525391" xlink:href="#DejaVuSans-114"/>
     <use x="979.638672" xlink:href="#DejaVuSans-105"/>
     <use x="1007.421875" xlink:href="#DejaVuSans-115"/>
     <use x="1059.521484" xlink:href="#DejaVuSans-111"/>
     <use x="1120.703125" xlink:href="#DejaVuSans-110"/>
     <use x="1184.082031" xlink:href="#DejaVuSans-32"/>
     <use x="1215.869141" xlink:href="#DejaVuSans-102"/>
     <use x="1251.074219" xlink:href="#DejaVuSans-111"/>
     <use x="1312.255859" xlink:href="#DejaVuSans-114"/>
     <use x="1353.369141" xlink:href="#DejaVuSans-32"/>
     <use x="1385.15625" xlink:href="#DejaVuSans-116"/>
     <use x="1424.365234" xlink:href="#DejaVuSans-97"/>
     <use x="1485.644531" xlink:href="#DejaVuSans-105"/>
     <use x="1513.427734" xlink:href="#DejaVuSans-108"/>
     <use x="1541.210938" xlink:href="#DejaVuSans-32"/>
     <use x="1572.998047" xlink:href="#DejaVuSans-112"/>
     <use x="1636.474609" xlink:href="#DejaVuSans-114"/>
     <use x="1675.337891" xlink:href="#DejaVuSans-101"/>
     <use x="1736.861328" xlink:href="#DejaVuSans-100"/>
     <use x="1800.337891" xlink:href="#DejaVuSans-105"/>
     <use x="1828.121094" xlink:href="#DejaVuSans-99"/>
     <use x="1883.101562" xlink:href="#DejaVuSans-116"/>
     <use x="1922.310547" xlink:href="#DejaVuSans-105"/>
     <use x="1950.09375" xlink:href="#DejaVuSans-111"/>
     <use x="2011.275391" xlink:href="#DejaVuSans-110"/>
    </g>
   </g>
   <g id="legend_1">
    <g id="patch_47">
     <path d="M 1178.15625 287.45 
L 1410.221875 287.45 
Q 1414.221875 287.45 1414.221875 283.45 
L 1414.221875 50.6 
Q 1414.221875 46.6 1410.221875 46.6 
L 1178.15625 46.6 
Q 1174.15625 46.6 1174.15625 50.6 
L 1174.15625 283.45 
Q 1174.15625 287.45 1178.15625 287.45 
z
" style="fill:#ffffff;opacity:0.8;stroke:#cccccc;stroke-linejoin:miter;"/>
    </g>
    <g id="patch_48">
     <path d="M 1182.15625 69.796875 
L 1222.15625 69.796875 
L 1222.15625 55.796875 
L 1182.15625 55.796875 
z
" style="fill:#2020df;"/>
    </g>
    <g id="text_13">
     <!-- CE Complex -->
     <g transform="translate(1238.15625 69.796875)scale(0.2 -0.2)">
      <defs>
       <path d="M 64.40625 67.28125 
L 64.40625 56.890625 
Q 59.421875 61.53125 53.78125 63.8125 
Q 48.140625 66.109375 41.796875 66.109375 
Q 29.296875 66.109375 22.65625 58.46875 
Q 16.015625 50.828125 16.015625 36.375 
Q 16.015625 21.96875 22.65625 14.328125 
Q 29.296875 6.6875 41.796875 6.6875 
Q 48.140625 6.6875 53.78125 8.984375 
Q 59.421875 11.28125 64.40625 15.921875 
L 64.40625 5.609375 
Q 59.234375 2.09375 53.4375 0.328125 
Q 47.65625 -1.421875 41.21875 -1.421875 
Q 24.65625 -1.421875 15.125 8.703125 
Q 5.609375 18.84375 5.609375 36.375 
Q 5.609375 53.953125 15.125 64.078125 
Q 24.65625 74.21875 41.21875 74.21875 
Q 47.75 74.21875 53.53125 72.484375 
Q 59.328125 70.75 64.40625 67.28125 
z
" id="DejaVuSans-67"/>
       <path d="M 9.8125 72.90625 
L 55.90625 72.90625 
L 55.90625 64.59375 
L 19.671875 64.59375 
L 19.671875 43.015625 
L 54.390625 43.015625 
L 54.390625 34.71875 
L 19.671875 34.71875 
L 19.671875 8.296875 
L 56.78125 8.296875 
L 56.78125 0 
L 9.8125 0 
z
" id="DejaVuSans-69"/>
       <path d="M 54.890625 54.6875 
L 35.109375 28.078125 
L 55.90625 0 
L 45.3125 0 
L 29.390625 21.484375 
L 13.484375 0 
L 2.875 0 
L 24.125 28.609375 
L 4.6875 54.6875 
L 15.28125 54.6875 
L 29.78125 35.203125 
L 44.28125 54.6875 
z
" id="DejaVuSans-120"/>
      </defs>
      <use xlink:href="#DejaVuSans-67"/>
      <use x="69.824219" xlink:href="#DejaVuSans-69"/>
      <use x="133.007812" xlink:href="#DejaVuSans-32"/>
      <use x="164.794922" xlink:href="#DejaVuSans-67"/>
      <use x="234.619141" xlink:href="#DejaVuSans-111"/>
      <use x="295.800781" xlink:href="#DejaVuSans-109"/>
      <use x="393.212891" xlink:href="#DejaVuSans-112"/>
      <use x="456.689453" xlink:href="#DejaVuSans-108"/>
      <use x="484.472656" xlink:href="#DejaVuSans-101"/>
      <use x="544.246094" xlink:href="#DejaVuSans-120"/>
     </g>
    </g>
    <g id="patch_49">
     <path d="M 1182.15625 99.153125 
L 1222.15625 99.153125 
L 1222.15625 85.153125 
L 1182.15625 85.153125 
z
" style="fill:#5573cd;"/>
    </g>
    <g id="text_14">
     <!-- BCE Complex -->
     <g transform="translate(1238.15625 99.153125)scale(0.2 -0.2)">
      <defs>
       <path d="M 19.671875 34.8125 
L 19.671875 8.109375 
L 35.5 8.109375 
Q 43.453125 8.109375 47.28125 11.40625 
Q 51.125 14.703125 51.125 21.484375 
Q 51.125 28.328125 47.28125 31.5625 
Q 43.453125 34.8125 35.5 34.8125 
z
M 19.671875 64.796875 
L 19.671875 42.828125 
L 34.28125 42.828125 
Q 41.5 42.828125 45.03125 45.53125 
Q 48.578125 48.25 48.578125 53.8125 
Q 48.578125 59.328125 45.03125 62.0625 
Q 41.5 64.796875 34.28125 64.796875 
z
M 9.8125 72.90625 
L 35.015625 72.90625 
Q 46.296875 72.90625 52.390625 68.21875 
Q 58.5 63.53125 58.5 54.890625 
Q 58.5 48.1875 55.375 44.234375 
Q 52.25 40.28125 46.1875 39.3125 
Q 53.46875 37.75 57.5 32.78125 
Q 61.53125 27.828125 61.53125 20.40625 
Q 61.53125 10.640625 54.890625 5.3125 
Q 48.25 0 35.984375 0 
L 9.8125 0 
z
" id="DejaVuSans-66"/>
      </defs>
      <use xlink:href="#DejaVuSans-66"/>
      <use x="66.853516" xlink:href="#DejaVuSans-67"/>
      <use x="136.677734" xlink:href="#DejaVuSans-69"/>
      <use x="199.861328" xlink:href="#DejaVuSans-32"/>
      <use x="231.648438" xlink:href="#DejaVuSans-67"/>
      <use x="301.472656" xlink:href="#DejaVuSans-111"/>
      <use x="362.654297" xlink:href="#DejaVuSans-109"/>
      <use x="460.066406" xlink:href="#DejaVuSans-112"/>
      <use x="523.542969" xlink:href="#DejaVuSans-108"/>
      <use x="551.326172" xlink:href="#DejaVuSans-101"/>
      <use x="611.099609" xlink:href="#DejaVuSans-120"/>
     </g>
    </g>
    <g id="patch_50">
     <path d="M 1182.15625 128.509375 
L 1222.15625 128.509375 
L 1222.15625 114.509375 
L 1182.15625 114.509375 
z
" style="fill:#3a90e3;"/>
    </g>
    <g id="text_15">
     <!-- PW-Log Complex -->
     <g transform="translate(1238.15625 128.509375)scale(0.2 -0.2)">
      <defs>
       <path d="M 19.671875 64.796875 
L 19.671875 37.40625 
L 32.078125 37.40625 
Q 38.96875 37.40625 42.71875 40.96875 
Q 46.484375 44.53125 46.484375 51.125 
Q 46.484375 57.671875 42.71875 61.234375 
Q 38.96875 64.796875 32.078125 64.796875 
z
M 9.8125 72.90625 
L 32.078125 72.90625 
Q 44.34375 72.90625 50.609375 67.359375 
Q 56.890625 61.8125 56.890625 51.125 
Q 56.890625 40.328125 50.609375 34.8125 
Q 44.34375 29.296875 32.078125 29.296875 
L 19.671875 29.296875 
L 19.671875 0 
L 9.8125 0 
z
" id="DejaVuSans-80"/>
       <path d="M 3.328125 72.90625 
L 13.28125 72.90625 
L 28.609375 11.28125 
L 43.890625 72.90625 
L 54.984375 72.90625 
L 70.3125 11.28125 
L 85.59375 72.90625 
L 95.609375 72.90625 
L 77.296875 0 
L 64.890625 0 
L 49.515625 63.28125 
L 33.984375 0 
L 21.578125 0 
z
" id="DejaVuSans-87"/>
       <path d="M 4.890625 31.390625 
L 31.203125 31.390625 
L 31.203125 23.390625 
L 4.890625 23.390625 
z
" id="DejaVuSans-45"/>
       <path d="M 9.8125 72.90625 
L 19.671875 72.90625 
L 19.671875 8.296875 
L 55.171875 8.296875 
L 55.171875 0 
L 9.8125 0 
z
" id="DejaVuSans-76"/>
       <path d="M 45.40625 27.984375 
Q 45.40625 37.75 41.375 43.109375 
Q 37.359375 48.484375 30.078125 48.484375 
Q 22.859375 48.484375 18.828125 43.109375 
Q 14.796875 37.75 14.796875 27.984375 
Q 14.796875 18.265625 18.828125 12.890625 
Q 22.859375 7.515625 30.078125 7.515625 
Q 37.359375 7.515625 41.375 12.890625 
Q 45.40625 18.265625 45.40625 27.984375 
z
M 54.390625 6.78125 
Q 54.390625 -7.171875 48.1875 -13.984375 
Q 42 -20.796875 29.203125 -20.796875 
Q 24.46875 -20.796875 20.265625 -20.09375 
Q 16.0625 -19.390625 12.109375 -17.921875 
L 12.109375 -9.1875 
Q 16.0625 -11.328125 19.921875 -12.34375 
Q 23.78125 -13.375 27.78125 -13.375 
Q 36.625 -13.375 41.015625 -8.765625 
Q 45.40625 -4.15625 45.40625 5.171875 
L 45.40625 9.625 
Q 42.625 4.78125 38.28125 2.390625 
Q 33.9375 0 27.875 0 
Q 17.828125 0 11.671875 7.65625 
Q 5.515625 15.328125 5.515625 27.984375 
Q 5.515625 40.671875 11.671875 48.328125 
Q 17.828125 56 27.875 56 
Q 33.9375 56 38.28125 53.609375 
Q 42.625 51.21875 45.40625 46.390625 
L 45.40625 54.6875 
L 54.390625 54.6875 
z
" id="DejaVuSans-103"/>
      </defs>
      <use xlink:href="#DejaVuSans-80"/>
      <use x="60.302734" xlink:href="#DejaVuSans-87"/>
      <use x="155.179688" xlink:href="#DejaVuSans-45"/>
      <use x="191.263672" xlink:href="#DejaVuSans-76"/>
      <use x="245.226562" xlink:href="#DejaVuSans-111"/>
      <use x="306.408203" xlink:href="#DejaVuSans-103"/>
      <use x="369.884766" xlink:href="#DejaVuSans-32"/>
      <use x="401.671875" xlink:href="#DejaVuSans-67"/>
      <use x="471.496094" xlink:href="#DejaVuSans-111"/>
      <use x="532.677734" xlink:href="#DejaVuSans-109"/>
      <use x="630.089844" xlink:href="#DejaVuSans-112"/>
      <use x="693.566406" xlink:href="#DejaVuSans-108"/>
      <use x="721.349609" xlink:href="#DejaVuSans-101"/>
      <use x="781.123047" xlink:href="#DejaVuSans-120"/>
     </g>
    </g>
    <g id="patch_51">
     <path d="M 1182.15625 157.865625 
L 1222.15625 157.865625 
L 1222.15625 143.865625 
L 1182.15625 143.865625 
z
" style="fill:#94c9de;"/>
    </g>
    <g id="text_16">
     <!-- PH Complex -->
     <g transform="translate(1238.15625 157.865625)scale(0.2 -0.2)">
      <defs>
       <path d="M 9.8125 72.90625 
L 19.671875 72.90625 
L 19.671875 43.015625 
L 55.515625 43.015625 
L 55.515625 72.90625 
L 65.375 72.90625 
L 65.375 0 
L 55.515625 0 
L 55.515625 34.71875 
L 19.671875 34.71875 
L 19.671875 0 
L 9.8125 0 
z
" id="DejaVuSans-72"/>
      </defs>
      <use xlink:href="#DejaVuSans-80"/>
      <use x="60.302734" xlink:href="#DejaVuSans-72"/>
      <use x="135.498047" xlink:href="#DejaVuSans-32"/>
      <use x="167.285156" xlink:href="#DejaVuSans-67"/>
      <use x="237.109375" xlink:href="#DejaVuSans-111"/>
      <use x="298.291016" xlink:href="#DejaVuSans-109"/>
      <use x="395.703125" xlink:href="#DejaVuSans-112"/>
      <use x="459.179688" xlink:href="#DejaVuSans-108"/>
      <use x="486.962891" xlink:href="#DejaVuSans-101"/>
      <use x="546.736328" xlink:href="#DejaVuSans-120"/>
     </g>
    </g>
    <g id="patch_52">
     <path d="M 1182.15625 187.221875 
L 1222.15625 187.221875 
L 1222.15625 173.221875 
L 1182.15625 173.221875 
z
" style="fill:#bf6a6a;"/>
    </g>
    <g id="text_17">
     <!-- CE Tucker -->
     <g transform="translate(1238.15625 187.221875)scale(0.2 -0.2)">
      <defs>
       <path d="M -0.296875 72.90625 
L 61.375 72.90625 
L 61.375 64.59375 
L 35.5 64.59375 
L 35.5 0 
L 25.59375 0 
L 25.59375 64.59375 
L -0.296875 64.59375 
z
" id="DejaVuSans-84"/>
       <path d="M 8.5 21.578125 
L 8.5 54.6875 
L 17.484375 54.6875 
L 17.484375 21.921875 
Q 17.484375 14.15625 20.5 10.265625 
Q 23.53125 6.390625 29.59375 6.390625 
Q 36.859375 6.390625 41.078125 11.03125 
Q 45.3125 15.671875 45.3125 23.6875 
L 45.3125 54.6875 
L 54.296875 54.6875 
L 54.296875 0 
L 45.3125 0 
L 45.3125 8.40625 
Q 42.046875 3.421875 37.71875 1 
Q 33.40625 -1.421875 27.6875 -1.421875 
Q 18.265625 -1.421875 13.375 4.4375 
Q 8.5 10.296875 8.5 21.578125 
z
M 31.109375 56 
z
" id="DejaVuSans-117"/>
       <path d="M 9.078125 75.984375 
L 18.109375 75.984375 
L 18.109375 31.109375 
L 44.921875 54.6875 
L 56.390625 54.6875 
L 27.390625 29.109375 
L 57.625 0 
L 45.90625 0 
L 18.109375 26.703125 
L 18.109375 0 
L 9.078125 0 
z
" id="DejaVuSans-107"/>
      </defs>
      <use xlink:href="#DejaVuSans-67"/>
      <use x="69.824219" xlink:href="#DejaVuSans-69"/>
      <use x="133.007812" xlink:href="#DejaVuSans-32"/>
      <use x="164.794922" xlink:href="#DejaVuSans-84"/>
      <use x="210.753906" xlink:href="#DejaVuSans-117"/>
      <use x="274.132812" xlink:href="#DejaVuSans-99"/>
      <use x="329.113281" xlink:href="#DejaVuSans-107"/>
      <use x="383.398438" xlink:href="#DejaVuSans-101"/>
      <use x="444.921875" xlink:href="#DejaVuSans-114"/>
     </g>
    </g>
    <g id="patch_53">
     <path d="M 1182.15625 216.578125 
L 1222.15625 216.578125 
L 1222.15625 202.578125 
L 1182.15625 202.578125 
z
" style="fill:#e98e83;"/>
    </g>
    <g id="text_18">
     <!-- BCE Tucker -->
     <g transform="translate(1238.15625 216.578125)scale(0.2 -0.2)">
      <use xlink:href="#DejaVuSans-66"/>
      <use x="66.853516" xlink:href="#DejaVuSans-67"/>
      <use x="136.677734" xlink:href="#DejaVuSans-69"/>
      <use x="199.861328" xlink:href="#DejaVuSans-32"/>
      <use x="231.648438" xlink:href="#DejaVuSans-84"/>
      <use x="277.607422" xlink:href="#DejaVuSans-117"/>
      <use x="340.986328" xlink:href="#DejaVuSans-99"/>
      <use x="395.966797" xlink:href="#DejaVuSans-107"/>
      <use x="450.251953" xlink:href="#DejaVuSans-101"/>
      <use x="511.775391" xlink:href="#DejaVuSans-114"/>
     </g>
    </g>
    <g id="patch_54">
     <path d="M 1182.15625 245.934375 
L 1222.15625 245.934375 
L 1222.15625 231.934375 
L 1182.15625 231.934375 
z
" style="fill:#e2a673;"/>
    </g>
    <g id="text_19">
     <!-- PW-Log Tucker -->
     <g transform="translate(1238.15625 245.934375)scale(0.2 -0.2)">
      <use xlink:href="#DejaVuSans-80"/>
      <use x="60.302734" xlink:href="#DejaVuSans-87"/>
      <use x="155.179688" xlink:href="#DejaVuSans-45"/>
      <use x="191.263672" xlink:href="#DejaVuSans-76"/>
      <use x="245.226562" xlink:href="#DejaVuSans-111"/>
      <use x="306.408203" xlink:href="#DejaVuSans-103"/>
      <use x="369.884766" xlink:href="#DejaVuSans-32"/>
      <use x="401.671875" xlink:href="#DejaVuSans-84"/>
      <use x="447.630859" xlink:href="#DejaVuSans-117"/>
      <use x="511.009766" xlink:href="#DejaVuSans-99"/>
      <use x="565.990234" xlink:href="#DejaVuSans-107"/>
      <use x="620.275391" xlink:href="#DejaVuSans-101"/>
      <use x="681.798828" xlink:href="#DejaVuSans-114"/>
     </g>
    </g>
    <g id="patch_55">
     <path d="M 1182.15625 275.290625 
L 1222.15625 275.290625 
L 1222.15625 261.290625 
L 1182.15625 261.290625 
z
" style="fill:#bb8551;"/>
    </g>
    <g id="text_20">
     <!-- PH Tucker -->
     <g transform="translate(1238.15625 275.290625)scale(0.2 -0.2)">
      <use xlink:href="#DejaVuSans-80"/>
      <use x="60.302734" xlink:href="#DejaVuSans-72"/>
      <use x="135.498047" xlink:href="#DejaVuSans-32"/>
      <use x="167.285156" xlink:href="#DejaVuSans-84"/>
      <use x="213.244141" xlink:href="#DejaVuSans-117"/>
      <use x="276.623047" xlink:href="#DejaVuSans-99"/>
      <use x="331.603516" xlink:href="#DejaVuSans-107"/>
      <use x="385.888672" xlink:href="#DejaVuSans-101"/>
      <use x="447.412109" xlink:href="#DejaVuSans-114"/>
     </g>
    </g>
   </g>
  </g>
 </g>
 <defs>
  <clipPath id="pa3d024c1d8">
   <rect height="184.727838" width="1038.625" x="83.6" y="46.6"/>
  </clipPath>
 </defs>
</svg>
